<?xml version="1.0" standalone="no"?>
<!DOCTYPE svg PUBLIC "-//W3C//DTD SVG 1.1//EN" "http://www.w3.org/Graphics/SVG/1.1/DTD/svg11.dtd" >
<svg xmlns="http://www.w3.org/2000/svg" xmlns:xlink="http://www.w3.org/1999/xlink" version="1.1">
<metadata>
Created by FontForge 20201107 at Mon Aug 28 00:17:36 2023
 By 
</metadata>
<defs>
<font id="FRSFSemibold" horiz-adv-x="0" >
  <font-face 
    font-family="FR SF Semibold"
    font-weight="600"
    font-stretch="normal"
    units-per-em="1000"
    panose-1="2 0 0 0 0 0 0 0 0 0"
    ascent="800"
    descent="-200"
    x-height="518"
    cap-height="705"
    bbox="-605 -416 1164 1039"
    underline-thickness="260"
    underline-position="-380"
    unicode-range="U+0020-221E"
  />
<missing-glyph horiz-adv-x="524" 
 />
    <glyph glyph-name="copyright" unicode="&#x3b;&#x3b;For&#x20;Education&#x20;Used&#x20;Only&#x3b;&#x3b;" horiz-adv-x="830" 
d="M415 -73q-81 0 -151 30t-122.5 82t-82.5 122.5t-30 151.5q0 82 30 152.5t82.5 122.5t122.5 81.5t151 29.5t151.5 -29.5t122.5 -81.5t82 -122.5t30 -152.5q0 -81 -30 -151.5t-82 -122.5t-122.5 -82t-151.5 -30zM415 2q65 0 121.5 24t98.5 66t66 98.5t24 122.5t-24 123
t-66 98.5t-98.5 65.5t-121.5 24q-64 0 -120.5 -24t-98.5 -65.5t-66.5 -98.5t-24.5 -123t24.5 -122.5t66.5 -98.5t98.5 -66t120.5 -24zM513 373q-6 29 -29 48t-61 19q-47 0 -74 -33t-27 -93q0 -61 27.5 -94.5t73.5 -33.5q35 0 59 16.5t31 48.5h83q-8 -61 -53 -99t-120 -38
q-87 0 -138 53t-51 147q0 92 51 145t138 53q37 0 67.5 -10.5t52.5 -29.5t35.5 -44t17.5 -55h-83z" />
    <glyph glyph-name="registered" unicode="&#x3b;&#x3b;Registered&#x3b;&#x3b;" horiz-adv-x="572" 
d="M286 281q-51 0 -95.5 18.5t-77.5 50.5t-52 76t-19 95t19 94.5t52 76t77.5 51t95.5 18.5t95.5 -18.5t77.5 -51t51.5 -76t18.5 -94.5t-18.5 -95t-51.5 -76t-77.5 -50.5t-95.5 -18.5zM286 338q38 0 71 14t57.5 38.5t38.5 58t14 72.5t-14 72t-38.5 57.5t-57.5 38.5t-71 14
t-71 -14t-57.5 -38.5t-38.5 -57.5t-14 -72t14 -72.5t38.5 -58t57.5 -38.5t71 -14zM192 412v224h114q36 0 59 -19.5t23 -50.5q0 -26 -13.5 -44t-36.5 -23l61 -87h-66l-52 79h-34v-79h-55zM247 532h47q35 0 35 31q0 29 -34 29h-48v-60z" />
    <glyph glyph-name="multiply" unicode="&#x3b;&#x3b;Multiply&#x3b;&#x3b;" horiz-adv-x="632" 
d="M167 63l-73 72l149 150l-149 149l73 72l149 -149l149 149l73 -72l-148 -149l148 -150l-73 -72l-149 148z" />
    <glyph glyph-name="divide" unicode="&#x3b;&#x3b;Divide&#x3b;&#x3b;" horiz-adv-x="632" 
d="M316 394q-33 0 -53.5 19.5t-20.5 51.5t20.5 52t53.5 20q32 0 53 -20t21 -52t-21 -51.5t-53 -19.5zM58 234v94h516v-94h-516zM316 25q-33 0 -53.5 20t-20.5 52t20.5 51.5t53.5 19.5q32 0 53 -19.5t21 -51.5t-21 -52t-53 -20z" />
    <glyph glyph-name="quotedblleft" unicode="&#x2018;&#x2018;" horiz-adv-x="494" 
d="M226 705l-44 -266h-119l69 266h94zM432 705l-41 -266h-119l66 266h94z" />
    <glyph glyph-name="quotedblright" unicode="&#x2019;&#x2019;" horiz-adv-x="494" 
d="M63 439l41 266h118l-66 -266h-93zM269 439l44 266h119l-70 -266h-93z" />
    <glyph glyph-name="trademark" unicode="&#x3b;&#x3b;Trademark&#x3b;&#x3b;" horiz-adv-x="895" 
d="M158 343v290h-114v72h316v-72h-114v-290h-88zM739 343v235h-2l-100 -226h-51l-100 226h-2v-235h-76v362h101l102 -241h2l101 241h101v-362h-76z" />
    <glyph glyph-name="rulakkhangyao" unicode="&#xe24;&#xe32;" horiz-adv-x="977" 
d="M422 345q0 64 -32.5 96t-96.5 32q-58 0 -90.5 -25.5t-35.5 -72.5h109v-75q-49 -8 -70.5 -30.5t-21.5 -66.5v-36q0 -42 17.5 -58t58.5 -16q15 0 22 2v-95q-19 -4 -55 -4q-60 0 -96.5 15t-53.5 49t-17 89v33q0 54 22 87.5t69 50.5v3h-106v29q0 66 31.5 116t89 77t133.5 27
q143 0 197 -102h3q28 52 73.5 77t115.5 25q66 0 116 -22t78 -68t28 -115v-572h-124v561q0 56 -32 86.5t-88 30.5t-88 -30.5t-32 -86.5v-561h-124v550z" />
    <glyph glyph-name="lulakkhangyao" unicode="&#xe26;&#xe32;" horiz-adv-x="991" 
d="M436 345q0 64 -32.5 96t-95.5 32q-57 0 -92.5 -26t-39.5 -72h111v-75q-29 -5 -43.5 -16t-20 -30t-5.5 -51v-66q0 -50 -15.5 -81t-49.5 -45.5t-90 -14.5q-13 0 -30 2v96h14q26 0 36.5 11t10.5 39v45q0 57 15.5 88t57.5 43v3h-111v31q0 66 32.5 115.5t91 76t133.5 26.5
q68 0 118.5 -23.5t78.5 -74.5h3q29 49 74 73.5t115 24.5q66 0 115.5 -22t77.5 -68t28 -115v-572h-124v561q0 56 -31.5 86.5t-87.5 30.5t-88 -30.5t-32 -86.5v-561h-124v550z" />
    <glyph glyph-name=".notdef" horiz-adv-x="524" 
 />
    <glyph glyph-name=".null" 
 />
    <glyph glyph-name="uni000D" horiz-adv-x="310" 
 />
    <glyph glyph-name="space" unicode=" " horiz-adv-x="200" 
 />
    <glyph glyph-name="exclam" unicode="!" horiz-adv-x="298" 
d="M212 705l-10 -473h-106l-10 473h126zM149 -10q-30 0 -50.5 20.5t-20.5 49.5t20.5 48.5t50.5 19.5t50.5 -19.5t20.5 -48.5t-20.5 -49.5t-50.5 -20.5z" />
    <glyph glyph-name="quotedbl" unicode="&#x22;" horiz-adv-x="432" 
d="M58 439v266h106v-266h-106zM268 439v266h106v-266h-106z" />
    <glyph glyph-name="numbersign" unicode="#" horiz-adv-x="624" 
d="M345 189h-139l-39 -189h-93l37 189h-111l18 93h112l30 149h-116l19 91h115l38 183h94l-37 -183h139l37 183h94l-37 -183h118l-18 -91h-119l-30 -149h121l-17 -93h-122l-39 -189h-94zM366 276l33 161h-148l-33 -161h148z" />
    <glyph glyph-name="dollar" unicode="$" horiz-adv-x="632" 
d="M285 -67v64q-110 7 -173.5 60.5t-63.5 140.5h119q3 -42 34.5 -69.5t83.5 -33.5v213l-47 12q-85 20 -130 69t-45 122q0 87 58.5 140.5t163.5 62.5v67h67v-67q100 -9 158.5 -63t60.5 -137h-116q-2 38 -30 66t-73 34v-202l48 -11q93 -22 138.5 -69t45.5 -125
q0 -92 -60 -146.5t-172 -62.5v-65h-67zM184 521q0 -75 101 -95v189q-45 -3 -73 -29t-28 -65zM465 194q0 41 -27 65.5t-86 35.5v-201q54 3 83.5 29t29.5 71z" />
    <glyph glyph-name="percent" unicode="%" horiz-adv-x="785" 
d="M335 537q0 -84 -42 -132.5t-114 -48.5t-114 48.5t-42 132.5q0 82 42 130.5t114 48.5t114 -48.5t42 -130.5zM82 0l515 705h106l-515 -705h-106zM179 433q27 0 42.5 27.5t15.5 76.5t-15.5 76.5t-42.5 27.5t-42.5 -27.5t-15.5 -76.5t15.5 -76.5t42.5 -27.5zM762 171
q0 -83 -42 -131.5t-114 -48.5t-114 48.5t-42 131.5t42 131.5t114 48.5t114 -48.5t42 -131.5zM606 67q27 0 42.5 28t15.5 76q0 49 -15.5 76.5t-42.5 27.5t-42.5 -27.5t-15.5 -76.5q0 -48 15.5 -76t42.5 -28z" />
    <glyph glyph-name="ampersand" unicode="&#x26;" horiz-adv-x="690" 
d="M499 63q-42 -36 -99.5 -55.5t-121.5 -19.5q-55 0 -99.5 14t-76 40t-49 62.5t-17.5 81.5q0 61 32 107t101 83q8 4 18 9.5t12 6.5q-48 50 -68 86.5t-20 75.5q0 35 14.5 64t40 51t61 34t76.5 12q42 0 76.5 -12t60 -33t39.5 -50.5t14 -64.5q0 -54 -35 -97.5t-111 -84.5
l149 -161q14 27 21 63.5t7 89.5v31h105v-36q0 -71 -15 -127t-44 -98l129 -135h-142zM288 433q54 28 77 54t23 61q0 36 -23 58.5t-61 22.5t-61.5 -23t-23.5 -59q0 -26 15.5 -51.5t53.5 -62.5zM237 314q-46 -29 -65.5 -56.5t-19.5 -62.5q0 -52 38 -83.5t100 -31.5
q42 0 80.5 15t61.5 40l-175 190q-5 -2 -11 -5.5t-9 -5.5z" />
    <glyph glyph-name="quotesingle" unicode="'" horiz-adv-x="221" 
d="M58 439v266h106v-266h-106z" />
    <glyph glyph-name="parenleft" unicode="(" horiz-adv-x="360" 
d="M90 277q0 129 34.5 233t108.5 195h109q-27 -31 -50 -79t-40 -105.5t-27 -120t-10 -123.5q0 -60 10 -123t27 -120t40 -105.5t50 -79.5h-109q-74 91 -108.5 195t-34.5 233z" />
    <glyph glyph-name="parenright" unicode=")" horiz-adv-x="360" 
d="M270 277q0 -78 -11.5 -141t-31 -115t-45.5 -94.5t-55 -77.5h-109q20 24 42.5 65t41 96.5t31 123t12.5 143.5q0 77 -12.5 144.5t-31 123t-41 96.5t-42.5 64h109q29 -35 55 -77.5t45.5 -94.5t31 -115t11.5 -141z" />
    <glyph glyph-name="asterisk" unicode="*" horiz-adv-x="484" 
d="M273 495l10 -138h-80l10 138l-116 -78l-39 72l123 58l-123 59l39 71l115 -76l-9 137h80l-9 -137l115 76l39 -71l-124 -59l124 -58l-40 -71z" />
    <glyph glyph-name="plus" unicode="+" horiz-adv-x="632" 
d="M371 10h-110v217h-203v108h203v213h110v-213h203v-108h-203v-217z" />
    <glyph glyph-name="comma" unicode="," horiz-adv-x="269" 
d="M44 -149l40 265h119l-66 -265h-93z" />
    <glyph glyph-name="hyphen" unicode="-" horiz-adv-x="437" 
d="M58 232v108h321v-108h-321z" />
    <glyph glyph-name="period" unicode="." horiz-adv-x="269" 
d="M135 -5q-30 0 -50.5 20t-20.5 50q0 29 20.5 49.5t50.5 20.5q29 0 49.5 -20.5t20.5 -49.5q0 -30 -20.5 -50t-49.5 -20z" />
    <glyph glyph-name="slash" unicode="/" horiz-adv-x="360" 
d="M0 -151l250 856h110l-250 -856h-110z" />
    <glyph glyph-name="zero" unicode="0" horiz-adv-x="635" 
d="M318 -14q-65 0 -116 25.5t-86.5 73t-54.5 115.5t-19 153q0 84 19 152t54.5 115.5t87 73t115.5 25.5t115 -25.5t86.5 -72.5t54.5 -115t19 -152q0 -85 -19 -153t-54 -116t-86 -73.5t-116 -25.5zM318 89q70 0 108.5 69.5t38.5 194.5t-39 194t-108 69q-70 0 -109.5 -69.5
t-39.5 -192.5q0 -125 39 -195t110 -70z" />
    <glyph glyph-name="one" unicode="1" horiz-adv-x="467" 
d="M230 584h-3l-182 -127v118l184 130h125v-705h-124v584z" />
    <glyph glyph-name="two" unicode="2" horiz-adv-x="589" 
d="M45 496q0 48 18.5 89t51.5 71t79 46.5t101 16.5q53 0 97.5 -15t76.5 -42t50 -63.5t18 -79.5q0 -31 -9 -60t-27 -57.5t-44.5 -58.5t-61.5 -65l-175 -173v-2h327v-103h-495v85l260 258q30 30 49.5 53t31.5 42.5t16.5 37t4.5 37.5q0 22 -9.5 41t-26 33.5t-38.5 22.5t-48 8
q-56 0 -92 -34.5t-36 -87.5v-2h-119v2z" />
    <glyph glyph-name="three" unicode="3" horiz-adv-x="616" 
d="M214 409h85q54 0 87.5 29.5t33.5 77.5q0 47 -31 75t-91 28q-54 0 -88 -29.5t-38 -79.5h-117q3 48 21.5 86.5t51 65.5t77.5 42t99 15q52 0 96 -13.5t75.5 -38t49 -59t17.5 -75.5q0 -66 -40 -110t-106 -55v-3q79 -6 126.5 -51.5t47.5 -119.5q0 -46 -20 -84.5t-55.5 -66
t-84.5 -42.5t-107 -15t-105.5 15t-81.5 43t-53.5 66.5t-21.5 85.5h120q5 -48 42.5 -77.5t100.5 -29.5q61 0 99.5 30.5t38.5 79.5q0 54 -37.5 84.5t-103.5 30.5h-87v95z" />
    <glyph glyph-name="four" unicode="4" horiz-adv-x="632" 
d="M388 133h-352v109q23 43 50 89.5t62 101.5t79.5 121.5t101.5 150.5h179v-469h95v-103h-95v-133h-120v133zM150 233h240v378h-2q-43 -62 -77.5 -113.5t-63 -96t-52.5 -85t-45 -79.5v-4z" />
    <glyph glyph-name="five" unicode="5" horiz-adv-x="610" 
d="M313 -14q-55 0 -101 15.5t-80 43.5t-53.5 67t-21.5 86h118q6 -49 44.5 -79.5t94.5 -30.5q32 0 58 10.5t44.5 29t29 44.5t10.5 57q0 32 -10.5 58.5t-29 46t-44.5 30t-57 10.5q-44 0 -78.5 -19t-54.5 -52h-115l37 402h432v-103h-332l-18 -206h2q23 34 63.5 53.5t93.5 19.5
q51 0 93.5 -17.5t73 -49t48 -75t17.5 -94.5q0 -55 -19.5 -100.5t-54 -78t-83 -50.5t-107.5 -18z" />
    <glyph glyph-name="six" unicode="6" horiz-adv-x="627" 
d="M326 -15q-76 0 -130 31.5t-88 82t-50 115t-16 130.5q0 88 20 157.5t57 118t90.5 74t120.5 25.5q48 0 90 -13.5t75 -38.5t55 -60t30 -78h-125q-13 40 -47 64t-79 24q-80 0 -124 -70t-43 -198h3q22 52 73 83.5t117 31.5q50 0 93 -17.5t74.5 -48.5t49 -74t17.5 -93
q0 -54 -19.5 -99t-54.5 -77.5t-83.5 -51t-105.5 -18.5zM325 88q29 0 54.5 11t44.5 30t30 44.5t11 54.5q0 30 -10.5 55t-29 43t-44 28.5t-55.5 10.5t-56 -10.5t-45 -28.5t-29.5 -43t-10.5 -54q0 -30 11 -55.5t29.5 -44.5t44 -30t55.5 -11z" />
    <glyph glyph-name="seven" unicode="7" horiz-adv-x="563" 
d="M399 599v3h-366v103h490v-105l-301 -600h-132z" />
    <glyph glyph-name="eight" unicode="8" horiz-adv-x="633" 
d="M316 -14q-61 0 -111.5 15t-86.5 42t-56 64.5t-20 82.5q0 35 11.5 65t32.5 54t50.5 40t65.5 23v2q-60 16 -96 59t-36 100q0 40 18.5 74t51 59t77.5 39t99 14t99.5 -14t78 -38.5t51 -58.5t18.5 -75q0 -57 -36 -99.5t-96 -59.5v-2q36 -7 65.5 -23.5t50.5 -40.5t32.5 -54
t11.5 -64q0 -45 -20 -82.5t-56.5 -64.5t-87 -42t-111.5 -15zM316 414q54 0 88 29.5t34 75.5t-34 75.5t-88 29.5t-88 -29.5t-34 -75.5t34 -75.5t88 -29.5zM316 82q32 0 58.5 9t45.5 24.5t29.5 37.5t10.5 47q0 52 -40 85t-104 33q-31 0 -57.5 -9t-46 -24.5t-30 -37
t-10.5 -47.5q0 -25 10.5 -47t30 -37.5t46 -24.5t57.5 -9z" />
    <glyph glyph-name="nine" unicode="9" horiz-adv-x="628" 
d="M298 -14q-48 0 -90.5 14t-75.5 39t-54.5 60t-29.5 77h125q11 -40 46 -64t81 -24q78 0 122.5 70t42.5 198h-2q-20 -52 -71 -83.5t-120 -31.5q-50 0 -93 17.5t-74.5 48.5t-49 74t-17.5 93q0 53 19.5 98t55 77.5t83.5 51t105 18.5q77 0 131 -31t88.5 -81.5t50 -115
t15.5 -131.5q0 -88 -19.5 -157.5t-56.5 -117.5t-90.5 -73.5t-121.5 -25.5zM302 339q30 0 56 10.5t44.5 29t29.5 43.5t11 54t-11 54.5t-29.5 44.5t-44 30t-55.5 11t-55.5 -10.5t-44.5 -29.5t-30 -44t-11 -54q0 -30 10.5 -55.5t29.5 -44t44.5 -29t55.5 -10.5z" />
    <glyph glyph-name="colon" unicode=":" horiz-adv-x="269" 
d="M135 347q-30 0 -50.5 20.5t-20.5 49.5q0 30 20.5 50.5t50.5 20.5q29 0 49.5 -20.5t20.5 -50.5q0 -29 -20.5 -49.5t-49.5 -20.5zM135 -5q-30 0 -50.5 20t-20.5 50q0 29 20.5 49.5t50.5 20.5q29 0 49.5 -20.5t20.5 -49.5q0 -30 -20.5 -50t-49.5 -20z" />
    <glyph glyph-name="semicolon" unicode=";" horiz-adv-x="269" 
d="M135 347q-30 0 -50.5 20.5t-20.5 49.5q0 30 20.5 50.5t50.5 20.5q29 0 49.5 -20.5t20.5 -50.5q0 -29 -20.5 -49.5t-49.5 -20.5zM42 -149l41 265h119l-67 -265h-93z" />
    <glyph glyph-name="less" unicode="&#x3c;" horiz-adv-x="632" 
d="M212 285v-5l330 -162v-124l-452 239v95l452 251v-123z" />
    <glyph glyph-name="equal" unicode="=" horiz-adv-x="632" 
d="M66 335v105h499v-105h-499zM66 122v105h499v-105h-499z" />
    <glyph glyph-name="greater" unicode="&#x3e;" horiz-adv-x="632" 
d="M90 579l452 -250v-96l-452 -238v123l329 163v5l-329 170v123z" />
    <glyph glyph-name="question" unicode="?" horiz-adv-x="518" 
d="M26 512q2 43 17.5 79t44.5 62.5t71 41.5t96 15q50 0 91.5 -13.5t70.5 -38t45 -58.5t16 -74q0 -57 -26.5 -97t-76.5 -70q-24 -14 -40 -26t-25.5 -25t-13.5 -27.5t-4 -32.5v-28h-113v34q-4 55 18 91t73 65q23 14 38.5 26.5t25 25t13.5 27t4 32.5q0 39 -28 64.5t-74 25.5
q-48 0 -76.5 -27t-31.5 -72h-115zM237 -10q-29 0 -50 20.5t-21 49.5t21 48.5t50 19.5q30 0 50.5 -19.5t20.5 -48.5t-20.5 -49.5t-50.5 -20.5z" />
    <glyph glyph-name="at" unicode="@" horiz-adv-x="880" 
d="M452 705q86 0 158.5 -26t124.5 -73.5t81 -114.5t29 -148q0 -58 -13 -105t-37.5 -80.5t-59.5 -51.5t-79 -18q-45 0 -76.5 21.5t-37.5 57.5h-6q-32 -77 -120 -77q-38 0 -69.5 15t-54 42t-34.5 65.5t-12 84.5q0 45 12 82t34 63.5t53 41t68 14.5q39 0 70.5 -18.5t45.5 -50.5
h6v58h90v-270q0 -25 12 -40t37 -15q39 0 64 46t25 131q0 67 -23 121t-64.5 92.5t-99.5 59.5t-129 21t-130 -25t-102 -69.5t-66.5 -106.5t-23.5 -137q0 -79 25 -141t70 -104.5t107.5 -64.5t137.5 -22q43 0 82.5 5.5t61.5 14.5v-72q-30 -10 -68.5 -15t-80.5 -5
q-91 0 -168 27.5t-132.5 80t-86.5 128t-31 171.5q0 91 30 166t84 128.5t129.5 83t166.5 29.5zM436 417q-44 0 -67.5 -32.5t-23.5 -90.5q0 -57 24 -89t66 -32q43 0 68.5 32.5t25.5 88.5q0 57 -25 90t-68 33z" />
    <glyph glyph-name="A" unicode="A" horiz-adv-x="668" 
d="M462 182h-259l-60 -182h-130l250 705h142l250 -705h-133zM232 279h201l-99 301h-3z" />
    <glyph glyph-name="B" unicode="B" horiz-adv-x="627" 
d="M62 0v705h292q48 0 87 -12.5t66.5 -35.5t42.5 -55.5t15 -72.5q0 -28 -10 -54t-27 -47t-40.5 -34.5t-50.5 -18.5v-3q36 -4 65.5 -18t51 -36.5t33.5 -52.5t12 -65q0 -94 -64 -147t-178 -53h-295zM188 408h115q66 0 101.5 26.5t35.5 75.5q0 47 -30 71.5t-87 24.5h-135v-198z
M329 98q69 0 105.5 28.5t36.5 82.5q0 109 -148 109h-135v-220h141z" />
    <glyph glyph-name="C" unicode="C" horiz-adv-x="703" 
d="M366 -12q-75 0 -136 25t-103.5 72.5t-65.5 115t-23 152.5q0 84 23 151t66 114.5t103.5 72.5t135.5 25q61 0 114 -18.5t93 -51.5t65 -79.5t31 -103.5h-124q-6 33 -22 60t-39.5 46t-53.5 29.5t-64 10.5q-45 0 -82 -18t-63 -51t-40 -80.5t-14 -106.5q0 -60 14 -107.5t40 -81
t62.5 -51.5t82.5 -18q70 0 117.5 36t62.5 99h123q-8 -56 -33 -101t-64.5 -76.5t-91.5 -48t-114 -16.5z" />
    <glyph glyph-name="D" unicode="D" horiz-adv-x="692" 
d="M319 705q79 0 141.5 -23.5t105.5 -68.5t65.5 -110t22.5 -149t-22.5 -149.5t-65.5 -111t-105.5 -69.5t-141.5 -24h-257v705h257zM188 106h118q107 0 163.5 63.5t56.5 184.5q0 118 -57 181t-163 63h-118v-492z" />
    <glyph glyph-name="E" unicode="E" horiz-adv-x="565" 
d="M518 0h-456v705h456v-107h-330v-190h312v-100h-312v-202h330v-106z" />
    <glyph glyph-name="F" unicode="F" horiz-adv-x="541" 
d="M62 0v705h449v-107h-323v-208h295v-102h-295v-288h-126z" />
    <glyph glyph-name="G" unicode="G" horiz-adv-x="719" 
d="M679 294q0 -72 -21 -128.5t-60.5 -96t-96.5 -60.5t-129 -21q-77 0 -139 25.5t-105.5 73t-66.5 115.5t-23 153q0 84 23 151t66 113.5t104.5 71.5t137.5 25q60 0 112 -17t91.5 -48t65.5 -74.5t35 -96.5h-128q-18 62 -64 95.5t-111 33.5q-96 0 -149.5 -66.5t-53.5 -186.5
q0 -122 55 -191.5t151 -69.5q40 0 73 12t57 34t37.5 52.5t14.5 67.5l1 12h-170v96h293v-75z" />
    <glyph glyph-name="H" unicode="H" horiz-adv-x="718" 
d="M531 0v306h-343v-306h-126v705h126v-293h343v293h125v-705h-125z" />
    <glyph glyph-name="I" unicode="I" horiz-adv-x="250" 
d="M62 0v705h126v-705h-126z" />
    <glyph glyph-name="J" unicode="J" horiz-adv-x="535" 
d="M140 192q1 -44 28 -70.5t72 -26.5q51 0 77.5 30t26.5 87v493h125v-494q0 -108 -60 -167t-168 -59q-50 0 -91.5 15t-71 42t-45.5 65t-16 85h123z" />
    <glyph glyph-name="K" unicode="K" horiz-adv-x="655" 
d="M645 0h-161l-287 321h-4v-321h-126v705h126v-309h4l276 309h145l-302 -335z" />
    <glyph glyph-name="K" unicode="&#x41a;" horiz-adv-x="655" 
d="M645 0h-161l-287 321h-4v-321h-126v705h126v-309h4l276 309h145l-302 -335z" />
    <glyph glyph-name="L" unicode="L" horiz-adv-x="536" 
d="M508 0h-446v705h126v-599h320v-106z" />
    <glyph glyph-name="M" unicode="M" horiz-adv-x="852" 
d="M676 0v500h-4l-203 -494h-86l-204 494h-3v-500h-114v705h146l216 -532h4l216 532h145v-705h-113z" />
    <glyph glyph-name="N" unicode="N" horiz-adv-x="709" 
d="M62 0v705h109l350 -494h4v494h121v-705h-108l-350 494h-4v-494h-122z" />
    <glyph glyph-name="O" unicode="O" horiz-adv-x="745" 
d="M373 716q77 0 138.5 -25.5t105 -72.5t67 -114.5t23.5 -151.5t-23.5 -151.5t-67 -114.5t-105 -72.5t-138.5 -25.5t-139 25.5t-105.5 72.5t-67 114.5t-23.5 151.5t23.5 151.5t67 114.5t105.5 72.5t139 25.5zM373 609q-47 0 -85 -18t-65 -51.5t-41.5 -81t-14.5 -106.5
t14.5 -106.5t41.5 -80.5t65 -51t85 -18t85 18t64.5 51t41 80.5t14.5 106.5t-14.5 106.5t-41 81t-64.5 51.5t-85 18z" />
    <glyph glyph-name="P" unicode="P" horiz-adv-x="603" 
d="M336 705q53 0 96.5 -17t74.5 -48.5t48.5 -74.5t17.5 -96t-18 -96.5t-50 -74.5t-76.5 -48t-97.5 -17h-143v-233h-126v705h274zM188 334h114q69 0 106 35t37 100q0 63 -37 98t-105 35h-115v-268z" />
    <glyph glyph-name="Q" unicode="Q" horiz-adv-x="745" 
d="M373 -12q-77 0 -139 25t-105.5 72.5t-67 115t-23.5 151.5t23.5 151.5t67 114.5t105.5 72.5t139 25.5t138.5 -25.5t105 -72.5t67 -114.5t23.5 -151.5q0 -97 -30.5 -171t-88.5 -120l91 -132h-127l-55 79q-58 -20 -124 -20zM373 95q32 0 59 9l-81 117h120l42 -57
q31 32 48 79.5t17 108.5q0 59 -14.5 106.5t-41 81.5t-64.5 52t-85 18t-85 -18t-65 -52t-41.5 -81.5t-14.5 -106.5t14.5 -106.5t41.5 -81t65 -51.5t85 -18z" />
    <glyph glyph-name="R" unicode="R" horiz-adv-x="625" 
d="M188 0h-126v705h280q115 0 179 -59t64 -161q0 -70 -34.5 -124t-97.5 -77l153 -284h-143l-139 265h-136v-265zM188 362h142q60 0 93.5 31.5t33.5 88.5t-34.5 89t-94.5 32h-140v-241z" />
    <glyph glyph-name="S" unicode="S" horiz-adv-x="618" 
d="M155 198q6 -49 50 -78t109 -29q64 0 104 28t40 72q0 38 -29 61.5t-96 39.5l-91 22q-98 23 -145 70t-47 123q0 47 19.5 85.5t54.5 66t83 42.5t106 15t105.5 -15t81.5 -42.5t53 -65.5t20 -85h-120q-5 50 -43 78t-98 28t-97 -26.5t-37 -71.5q0 -35 28.5 -57t93.5 -38l81 -18
q107 -25 155.5 -71.5t48.5 -125.5q0 -50 -19.5 -90.5t-55.5 -69t-87.5 -43.5t-115.5 -15q-61 0 -110.5 14.5t-85 41.5t-56 66t-22.5 88h122z" />
    <glyph glyph-name="T" unicode="T" horiz-adv-x="594" 
d="M234 0v598h-211v107h547v-107h-210v-598h-126z" />
    <glyph glyph-name="U" unicode="U" horiz-adv-x="704" 
d="M188 260q0 -72 42.5 -117t121.5 -45q78 0 121 45t43 117v445h125v-456q0 -58 -20 -106t-57.5 -82.5t-91 -53.5t-120.5 -19t-121 19t-91.5 53.5t-57.5 82.5t-20 106v456h126v-445z" />
    <glyph glyph-name="V" unicode="V" horiz-adv-x="661" 
d="M258 0l-245 705h139l179 -570h2l179 570h136l-245 -705h-145z" />
    <glyph glyph-name="W" unicode="W" horiz-adv-x="950" 
d="M329 0h-119l-189 705h131l122 -534h4l141 534h112l141 -534h4l122 534h131l-189 -705h-118l-144 510h-5z" />
    <glyph glyph-name="X" unicode="X" horiz-adv-x="667" 
d="M251 353v3l-228 349h149l163 -265h4l165 265h142l-235 -351v-4l231 -350h-145l-166 259h-4l-168 -259h-138z" />
    <glyph glyph-name="Y" unicode="Y" horiz-adv-x="646" 
d="M260 0v278l-247 427h138l171 -307h3l171 307h137l-247 -427v-278h-126z" />
    <glyph glyph-name="Z" unicode="Z" horiz-adv-x="625" 
d="M45 84l374 511v3h-364v107h516v-84l-372 -511v-4h382v-106h-536v84z" />
    <glyph glyph-name="bracketleft" unicode="[" horiz-adv-x="360" 
d="M349 705v-91h-132v-674h132v-91h-249v856h249z" />
    <glyph glyph-name="backslash" unicode="\" horiz-adv-x="360" 
d="M0 705h112l248 -856h-111z" />
    <glyph glyph-name="bracketright" unicode="]" horiz-adv-x="360" 
d="M261 -151h-250v91h133v674h-133v91h250v-856z" />
    <glyph glyph-name="asciicircum" unicode="^" horiz-adv-x="463" 
d="M131 397h-108l152 301h114l150 -301h-109l-95 203h-8z" />
    <glyph glyph-name="underscore" unicode="_" horiz-adv-x="413" 
d="M-24 -143v91h461v-91h-461z" />
    <glyph glyph-name="grave" unicode="`" horiz-adv-x="492" 
d="M259 627l-123 150h116l106 -150h-99z" />
    <glyph glyph-name="a" unicode="a" horiz-adv-x="531" 
d="M202 -8q-37 0 -69 11.5t-55 32t-36 49t-13 63.5q0 69 51 109t146 46l137 8v37q0 41 -26 63t-71 22q-44 0 -70 -19.5t-32 -51.5h-113q5 73 62.5 119.5t157.5 46.5q48 0 87 -12t67 -34.5t43 -54.5t15 -71v-356h-117v83h-3q-23 -43 -66.5 -67t-94.5 -24zM239 83q26 0 48.5 8
t39.5 22.5t26.5 34.5t9.5 44v39l-120 -7q-44 -3 -68 -21.5t-24 -49.5q0 -32 24 -51t64 -19z" />
    <glyph glyph-name="b" unicode="b" horiz-adv-x="582" 
d="M339 -8q-57 0 -99 25.5t-65 70.5h-3v-88h-119v705h122v-276h3q22 45 64 71t97 26q49 0 88.5 -18.5t67.5 -53t43 -84t15 -111.5t-15 -111.5t-43 -84t-67.5 -53t-88.5 -18.5zM302 426q-28 0 -51.5 -12t-40.5 -34t-26.5 -52.5t-9.5 -68.5q0 -77 35.5 -122.5t92.5 -45.5
q59 0 92.5 45t33.5 123q0 77 -34 122t-92 45z" />
    <glyph glyph-name="c" unicode="c" horiz-adv-x="529" 
d="M391 333q-8 42 -36 69.5t-77 27.5q-58 0 -92 -45.5t-34 -125.5q0 -82 34.5 -126.5t92.5 -44.5q46 0 75 24.5t38 69.5h114q-3 -43 -21 -78.5t-48 -61t-70.5 -39t-89.5 -13.5q-57 0 -103 18.5t-78.5 53t-50 84.5t-17.5 113q0 62 17.5 111.5t50 84.5t78.5 54t102 19
q51 0 92.5 -15t71 -41.5t46.5 -62t20 -76.5h-115z" />
    <glyph glyph-name="d" unicode="d" horiz-adv-x="580" 
d="M243 -8q-49 0 -88.5 18.5t-67.5 53.5t-43.5 84.5t-15.5 110.5q0 62 15.5 111t43.5 84t67.5 53.5t88.5 18.5q56 0 98 -26t62 -69h3v274h122v-705h-119v88h-2q-22 -44 -64.5 -70t-99.5 -26zM280 426q-59 0 -93 -45t-34 -122q0 -78 33.5 -123t93.5 -45q57 0 92 45t35 123
q0 76 -35 121.5t-92 45.5z" />
    <glyph glyph-name="e" unicode="e" horiz-adv-x="540" 
d="M506 155q-6 -37 -25 -67t-49 -52t-69.5 -34t-85.5 -12q-58 0 -104 18.5t-78.5 53t-49.5 84t-17 111.5q0 61 17 111t49 85.5t77 55t101 19.5q55 0 99.5 -18.5t75.5 -52t47.5 -81.5t16.5 -107v-40h-362v-7q0 -63 35.5 -101t95.5 -38q42 0 72 20t41 52h113zM273 434
q-51 0 -85 -35t-38 -89h242q-2 55 -34 89.5t-85 34.5z" />
    <glyph glyph-name="f" unicode="f" horiz-adv-x="337" 
d="M83 424h-70v92h70v46q0 76 38 112t123 36q18 0 36 -1.5t29 -3.5v-85q-8 1 -17.5 2t-20.5 1q-68 0 -68 -64v-43h104v-92h-102v-424h-122v424z" />
    <glyph glyph-name="g" unicode="g" horiz-adv-x="577" 
d="M278 -195q-48 0 -88.5 11.5t-71 32.5t-49 49.5t-23.5 62.5h121q10 -30 40.5 -48t74.5 -18q60 0 92 30t32 80v87h-3q-20 -42 -63 -67t-99 -25q-48 0 -87.5 18t-67 52t-43 82.5t-15.5 108.5q0 61 15 110t43 83.5t68 53t90 18.5q55 0 97.5 -26t65.5 -71h2v89h119v-510
q0 -46 -18 -83.5t-50.5 -64t-78.5 -41t-103 -14.5zM278 96q59 0 93.5 44t34.5 120t-34.5 121t-93.5 45q-57 0 -91 -44.5t-34 -121.5t34 -120.5t91 -43.5z" />
    <glyph glyph-name="h" unicode="h" horiz-adv-x="568" 
d="M53 705h120v-276h3q21 48 62.5 73t100.5 25q87 0 134.5 -52t47.5 -142v-333h-122v309q0 54 -26.5 84.5t-80.5 30.5q-55 0 -86 -34.5t-31 -92.5v-297h-122v705z" />
    <glyph glyph-name="i" unicode="i" horiz-adv-x="227" 
d="M113 585q-28 0 -47.5 19.5t-19.5 46.5q0 28 19.5 47.5t47.5 19.5q29 0 48.5 -19.5t19.5 -47.5q0 -27 -19.5 -46.5t-48.5 -19.5zM53 518h121v-518h-121v518z" />
    <glyph glyph-name="j" unicode="j" horiz-adv-x="227" 
d="M113 585q-28 0 -47.5 19.5t-19.5 46.5q0 28 19.5 47.5t47.5 19.5q29 0 48.5 -19.5t19.5 -47.5q0 -27 -19.5 -46.5t-48.5 -19.5zM174 -24q0 -158 -176 -158q-6 0 -16.5 0.5t-14.5 0.5v93q20 0 36 1.5t27 8t17 19.5t6 37v540h121v-542z" />
    <glyph glyph-name="k" unicode="k" horiz-adv-x="528" 
d="M521 0h-149l-193 231h-4v-231h-121v705h121v-403h4l190 216h141l-219 -242z" />
    <glyph glyph-name="k" unicode="&#x43a;" horiz-adv-x="528" 
d="M521 0h-149l-193 231h-4v-231h-121v705h121v-403h4l190 216h141l-219 -242z" />
    <glyph glyph-name="l" unicode="l" horiz-adv-x="229" 
d="M53 705h122v-705h-122v705z" />
    <glyph glyph-name="m" unicode="m" horiz-adv-x="841" 
d="M50 518h117v-90h2q17 45 55.5 72t91.5 27q56 0 93.5 -26.5t51.5 -77.5h3q19 48 61.5 76t99.5 28q38 0 69.5 -12.5t53.5 -35t34 -54t12 -70.5v-355h-122v325q0 48 -23.5 74t-68.5 26t-72 -29t-27 -76v-320h-118v332q0 43 -24.5 68t-67.5 25q-45 0 -72.5 -30.5t-27.5 -77.5
v-317h-121v518z" />
    <glyph glyph-name="n" unicode="n" horiz-adv-x="558" 
d="M50 518h117v-89h2q21 46 62 72t101 26q86 0 132.5 -51t46.5 -142v-334h-122v310q0 55 -25.5 84.5t-77.5 29.5q-53 0 -84 -34t-31 -90v-300h-121v518z" />
    <glyph glyph-name="o" unicode="o" horiz-adv-x="558" 
d="M279 -10q-57 0 -103.5 18.5t-79 53t-50.5 84.5t-18 113t18 112.5t51 84.5t79 53.5t103 18.5t103 -18.5t78.5 -53.5t50.5 -84.5t18 -112.5t-17.5 -113t-50.5 -84.5t-79 -53t-103 -18.5zM279 86q58 0 92.5 44.5t34.5 128.5q0 83 -34.5 128t-92.5 45t-92.5 -45t-34.5 -128
q0 -84 34.5 -128.5t92.5 -44.5z" />
    <glyph glyph-name="p" unicode="p" horiz-adv-x="577" 
d="M334 526q49 0 89 -18.5t68 -53t43 -84t15 -111.5t-15 -111.5t-42.5 -84t-67 -53t-88.5 -18.5q-57 0 -99 25t-63 69h-3v-256h-121v688h118v-90h3q22 45 64 71.5t99 26.5zM297 91q59 0 93 45t34 123q0 77 -34 122t-93 45q-57 0 -91.5 -46t-35.5 -121q1 -77 35.5 -122.5
t91.5 -45.5z" />
    <glyph glyph-name="q" unicode="q" horiz-adv-x="577" 
d="M244 526q57 0 98.5 -26.5t63.5 -71.5h3v90h119v-688h-122v257h-3q-20 -43 -62.5 -69t-99.5 -26q-49 0 -88 18.5t-67 53.5t-43 84.5t-15 110.5q0 62 15 111t43.5 84t68.5 53.5t89 18.5zM278 91q58 0 93 45.5t35 122.5q0 76 -35 121.5t-93 45.5t-91.5 -44.5t-33.5 -122.5
t33.5 -123t91.5 -45z" />
    <glyph glyph-name="r" unicode="r" horiz-adv-x="344" 
d="M50 518h117v-91h2q14 48 46 73.5t78 25.5q12 0 21.5 -1.5t16.5 -3.5v-109q-8 3 -21 4.5t-28 1.5q-52 0 -81.5 -31t-29.5 -86v-301h-121v518z" />
    <glyph glyph-name="s" unicode="s" horiz-adv-x="497" 
d="M41 369q0 36 15 65t42.5 50t66 32.5t85.5 11.5q46 0 83.5 -11.5t64.5 -33t42.5 -51t16.5 -65.5h-113q-3 34 -28.5 53t-67.5 19q-41 0 -65 -17t-24 -46q0 -44 74 -61l92 -21q78 -18 111 -50.5t33 -90.5q0 -36 -16 -66t-45.5 -51.5t-70 -33.5t-89.5 -12q-98 0 -156 44
t-65 118h120q11 -73 105 -73q45 0 70.5 16.5t25.5 45.5q0 23 -15.5 36.5t-53.5 22.5l-94 22q-144 35 -144 147z" />
    <glyph glyph-name="t" unicode="t" horiz-adv-x="335" 
d="M205 639v-121h98v-94h-98v-269q0 -62 63 -62q8 0 18 0.5t16 1.5v-93q-10 -2 -26.5 -3t-36.5 -1q-84 0 -120 32t-36 108v286h-74v94h74v121h122z" />
    <glyph glyph-name="u" unicode="u" horiz-adv-x="558" 
d="M509 0h-117v90h-3q-20 -48 -59 -73.5t-99 -25.5q-85 0 -134.5 50.5t-49.5 141.5v335h122v-310q0 -115 104 -115q54 0 84 34t30 91v300h122v-518z" />
    <glyph glyph-name="v" unicode="v" horiz-adv-x="511" 
d="M323 0h-134l-183 518h130l120 -405h2l120 405h127z" />
    <glyph glyph-name="w" unicode="w" horiz-adv-x="763" 
d="M612 0h-128l-102 378h-3l-101 -378h-127l-140 518h122l87 -398h3l101 398h116l102 -398h2l88 398h120z" />
    <glyph glyph-name="x" unicode="x" horiz-adv-x="506" 
d="M250 186l-108 -186h-129l167 258l-166 260h137l104 -182h3l103 182h133l-166 -256l164 -262h-133l-107 186h-2z" />
    <glyph glyph-name="y" unicode="y" horiz-adv-x="522" 
d="M107 -192h-9h-14.5t-14.5 0.5t-9 1.5v96q5 -2 17 -2h18q38 0 58.5 15.5t31.5 51.5l1 4.5t2.5 9.5t2 9.5t0.5 5.5l-184 518h133l122 -414h2l122 414h128l-187 -539q-16 -48 -36 -80.5t-46 -53t-59.5 -29t-78.5 -8.5z" />
    <glyph glyph-name="z" unicode="z" horiz-adv-x="492" 
d="M40 74l268 347v2h-266v95h406v-80l-258 -341v-2h262v-95h-412v74z" />
    <glyph glyph-name="braceleft" unicode="{" horiz-adv-x="360" 
d="M119 270q59 -6 89.5 -35.5t30.5 -83.5v-110q0 -55 20.5 -78t68.5 -23h21v-91h-33q-101 0 -147 42.5t-46 135.5v89q0 56 -25 78t-87 23v120q62 0 87 22.5t25 78.5v90q0 92 46 134.5t147 42.5h33v-91h-21q-48 0 -68.5 -23.5t-20.5 -77.5v-110q0 -53 -30.5 -83t-89.5 -36
v-14z" />
    <glyph glyph-name="bar" unicode="|" horiz-adv-x="360" 
d="M125 -151v856h110v-856h-110z" />
    <glyph glyph-name="braceright" unicode="}" horiz-adv-x="360" 
d="M242 284q-121 12 -121 119v110q0 54 -20 77.5t-69 23.5h-21v91h33q101 0 147 -42.5t46 -134.5v-90q0 -56 25 -78.5t87 -22.5v-120q-62 -1 -87 -23t-25 -78v-85q0 -95 -46 -138.5t-147 -43.5h-33v91h21q48 0 68.5 23t20.5 77v110q0 54 31 84t90 36v14z" />
    <glyph glyph-name="asciitilde" unicode="~" horiz-adv-x="632" 
d="M293 307q-23 23 -38.5 33t-32.5 10q-58 0 -61 -87h-100q-3 90 38.5 141.5t115.5 51.5q32 0 62 -15t63 -48q23 -23 38.5 -33t32.5 -10q58 0 61 88h99q3 -90 -38 -141.5t-116 -51.5q-32 0 -61.5 14.5t-62.5 47.5z" />
    <glyph glyph-name="uni00A0" unicode="&#xa0;" 
 />
    <glyph glyph-name="exclamdown" unicode="&#xa1;" horiz-adv-x="298" 
d="M149 416q-30 0 -50.5 20t-20.5 49t20.5 49t50.5 20t50.5 -20t20.5 -49t-20.5 -49t-50.5 -20zM96 311h106l10 -472h-126z" />
    <glyph glyph-name="cent" unicode="&#xa2;" horiz-adv-x="632" 
d="M576 264q-8 -78 -62.5 -129.5t-138.5 -62.5v-87h-106v89q-49 9 -88 32t-67 58.5t-43 81.5t-15 101q0 54 15 100t43 81t67.5 58t87.5 32v88h106v-87q42 -6 77.5 -23t62 -42.5t42.5 -58.5t19 -71h-115q-9 46 -45.5 72.5t-88.5 26.5q-33 0 -60 -12.5t-46.5 -35.5
t-30.5 -55.5t-11 -72.5t11 -73.5t30.5 -56.5t47 -36t59.5 -13q54 0 89 23t45 73h115z" />
    <glyph glyph-name="sterling" unicode="&#xa3;" horiz-adv-x="632" 
d="M588 104v-104h-538v99q33 6 60 20.5t47 36.5t31 49t11 57q0 26 -6 51h-141v90h111q-11 29 -20 59.5t-9 62.5q0 94 69.5 145.5t195.5 51.5q45 0 87.5 -7t68.5 -18v-102q-22 11 -62 18.5t-81 7.5q-72 0 -112 -28.5t-40 -80.5q0 -28 7.5 -55t17.5 -54h212v-90h-184
q5 -23 5 -43q0 -57 -27.5 -98.5t-63.5 -64.5v-3h361z" />
    <glyph glyph-name="currency" unicode="&#xa4;" horiz-adv-x="632" 
d="M495 427q31 -50 31 -109t-31 -109l76 -76l-70 -70l-77 76q-23 -14 -50.5 -22t-57.5 -8q-58 0 -108 31l-77 -77l-70 70l77 77q-14 24 -22.5 51.5t-8.5 56.5q0 30 8.5 57.5t22.5 50.5l-77 77l70 70l77 -76q24 14 51.5 22t56.5 8q30 0 57.5 -8t51.5 -22l76 76l70 -70z
M197 318q0 -25 9.5 -46.5t25.5 -38t38 -26t46 -9.5q25 0 46.5 9.5t38 26t26 38t9.5 46.5t-9.5 46.5t-26 38t-38 26t-46.5 9.5q-24 0 -46 -9.5t-38 -26t-25.5 -38t-9.5 -46.5z" />
    <glyph glyph-name="yen" unicode="&#xa5;" horiz-adv-x="632" 
d="M379 114v-114h-126v114h-133v75h133v72h-133v76h100l-214 368h139l169 -306h4l170 306h137l-213 -368h101v-76h-134v-72h134v-75h-134z" />
    <glyph glyph-name="brokenbar" unicode="&#xa6;" horiz-adv-x="360" 
d="M125 363v342h110v-342h-110zM125 -151v342h110v-342h-110z" />
    <glyph glyph-name="section" unicode="&#xa7;" horiz-adv-x="484" 
d="M243 -134q-44 0 -81.5 11.5t-65 32t-43.5 49t-18 63.5h110q4 -30 31.5 -48t69.5 -18t68 18.5t26 49.5q0 23 -19 39.5t-62 28.5l-80 25q-78 23 -114 57.5t-36 86.5q0 47 28 81t79 49v8q-54 23 -78.5 55.5t-24.5 78.5q0 36 15 65t42 50t65.5 32.5t85.5 11.5q87 0 142 -41
t62 -111h-109q-4 29 -30.5 46t-66.5 17q-42 0 -67.5 -18.5t-25.5 -49.5q0 -24 18.5 -39.5t62.5 -28.5l78 -25q79 -24 114.5 -57.5t35.5 -84.5q0 -49 -32 -86t-85 -50v-9q59 -18 86.5 -49t27.5 -79q0 -36 -15 -65.5t-43 -50.5t-66 -33t-85 -12zM263 196q35 2 58.5 24.5
t23.5 53.5q0 27 -19.5 46t-54.5 28l-49 14q-35 -2 -58.5 -25t-23.5 -53q0 -26 19.5 -45t54.5 -29z" />
    <glyph glyph-name="dieresis" unicode="&#xa8;" horiz-adv-x="492" 
d="M149 628q-26 0 -43.5 17.5t-17.5 42.5t17.5 42.5t43.5 17.5t44 -17.5t18 -42.5t-18 -42.5t-44 -17.5zM342 628q-26 0 -43.5 17.5t-17.5 42.5t17.5 42.5t43.5 17.5t44 -17.5t18 -42.5t-18 -42.5t-44 -17.5z" />
    <glyph glyph-name="ordfeminine" unicode="&#xaa;" horiz-adv-x="377" 
d="M139 343q-53 0 -86.5 29.5t-33.5 77.5q0 49 36 76t105 32l89 5v23q0 25 -16 38.5t-45 13.5q-26 0 -42.5 -11.5t-19.5 -31.5h-89q2 52 44 84t110 32q70 0 112 -32.5t42 -86.5v-245h-95v54h-2q-14 -27 -44 -42.5t-65 -15.5zM171 414q33 0 55.5 17.5t22.5 46.5v26l-74 -5
q-59 -5 -59 -44q0 -19 15 -30t40 -11z" />
    <glyph glyph-name="guillemotleft" unicode="&#xab;" horiz-adv-x="652" 
d="M180 273l170 -201h-122l-169 202v4l170 201h121l-170 -200v-6zM423 273l170 -201h-121l-169 202v4l170 201h120l-170 -200v-6z" />
    <glyph glyph-name="logicalnot" unicode="&#xac;" horiz-adv-x="632" 
d="M563 43h-106v190h-387v103h493v-293z" />
    <glyph glyph-name="uni00AD" unicode="&#xad;" horiz-adv-x="484" 
d="M111 230v111h263v-111h-263z" />
    <glyph glyph-name="macron" unicode="&#xaf;" horiz-adv-x="488" 
d="M395 648h-301v67h301v-67z" />
    <glyph glyph-name="degree" unicode="&#xb0;" horiz-adv-x="364" 
d="M182 412q-31 0 -58.5 11.5t-48 32t-32 48t-11.5 58.5q0 32 11.5 59t32 47t48 31.5t58.5 11.5q32 0 59 -11.5t47 -31.5t31.5 -47t11.5 -59q0 -31 -11.5 -58.5t-31.5 -48t-47 -32t-59 -11.5zM182 489q31 0 51.5 21.5t20.5 51.5q0 31 -20.5 52t-51.5 21q-29 0 -51 -21
t-22 -52q0 -30 22 -51.5t51 -21.5z" />
    <glyph glyph-name="plusminus" unicode="&#xb1;" horiz-adv-x="632" 
d="M368 194h-104v126h-193v91h193v126h104v-126h194v-91h-194v-126zM71 43v94h490v-94h-490z" />
    <glyph glyph-name="twosuperior" unicode="&#xb2;" horiz-adv-x="317" 
d="M18 773q0 53 38 84.5t101 31.5q60 0 96.5 -28t36.5 -73q0 -28 -13.5 -50.5t-48.5 -53.5l-75 -66v-2h141v-76h-271v67l137 121q19 17 26 29t7 23q0 16 -11.5 25.5t-29.5 9.5q-19 0 -31 -12t-12 -30v-2h-91v2z" />
    <glyph glyph-name="threesuperior" unicode="&#xb3;" horiz-adv-x="330" 
d="M120 747h42q19 0 30.5 9.5t11.5 25.5q0 34 -43 34q-20 0 -32 -11t-13 -29h-90q0 52 37.5 82.5t100.5 30.5q60 0 96 -25.5t36 -67.5q0 -30 -19 -51.5t-51 -26.5v-3q38 -4 60.5 -25.5t22.5 -54.5q0 -48 -40 -76t-107 -28q-63 0 -101.5 31t-40.5 83h95q1 -17 13.5 -27
t33.5 -10q20 0 33 10t13 26q0 17 -12.5 27t-34.5 10h-41v66z" />
    <glyph glyph-name="acute" unicode="&#xb4;" horiz-adv-x="492" 
d="M134 627l106 150h116l-123 -150h-99z" />
    <glyph glyph-name="uni00B5" unicode="&#xb5;" horiz-adv-x="608" 
d="M50 518h120v-308q0 -57 26 -86.5t78 -29.5q56 0 86.5 33.5t30.5 90.5v300h120v-368q0 -33 9.5 -46.5t32.5 -13.5q17 0 27 4l2 -91q-11 -2 -28 -4.5t-33 -2.5q-44 0 -75.5 17t-45.5 62l-3 8q0 3 -1 4h-1q-19 -45 -52 -70.5t-77 -25.5q-31 0 -56.5 13t-36.5 34h-2v-208
h-121v688z" />
    <glyph glyph-name="paragraph" unicode="&#xb6;" horiz-adv-x="671" 
d="M302 -118v362h-10q-53 0 -98 17.5t-78 48t-51.5 72t-18.5 90.5q0 50 18.5 93t51.5 74t78 48.5t99 17.5h128v-823h-119zM500 705h119v-823h-119v823z" />
    <glyph glyph-name="periodcentered" unicode="&#xb7;" horiz-adv-x="289" 
d="M145 231q-31 0 -51.5 21t-20.5 51t20.5 51t51.5 21q29 0 50 -21t21 -51t-21 -51t-50 -21z" />
    <glyph glyph-name="cedilla" unicode="&#xb8;" horiz-adv-x="492" 
d="M175 -68l32 73h69v-5l-26 -57q44 -1 70 -21.5t26 -58.5q0 -43 -32.5 -66t-85.5 -23q-21 -1 -41.5 1.5t-29.5 5.5v56q8 -2 25 -4t32 -2q57 0 57 30q0 15 -15 21.5t-49 6.5h-32v43z" />
    <glyph glyph-name="onesuperior" unicode="&#xb9;" horiz-adv-x="259" 
d="M116 795h-2l-85 -56v84l86 57h99v-340h-98v255z" />
    <glyph glyph-name="ordmasculine" unicode="&#xba;" horiz-adv-x="395" 
d="M197 341q-82 0 -129.5 48.5t-47.5 136.5q0 87 48 136t129 49q82 0 130 -49t48 -136q0 -88 -47.5 -136.5t-130.5 -48.5zM197 416q37 0 57.5 28.5t20.5 81.5q0 52 -20.5 81t-57.5 29q-36 0 -56.5 -29t-20.5 -81q0 -53 20.5 -81.5t56.5 -28.5z" />
    <glyph glyph-name="guillemotright" unicode="&#xbb;" horiz-adv-x="652" 
d="M59 479h120l171 -201v-4l-169 -202h-122l170 201v6zM303 479h120l170 -201v-4l-169 -202h-121l170 201v6z" />
    <glyph glyph-name="onequarter" unicode="&#xbc;" horiz-adv-x="764" 
d="M121 621h-2l-85 -57v84l86 57h99v-340h-98v256zM54 0l515 705h105l-514 -705h-106zM612 50h-167v83q11 23 23.5 45.5t27 47t32.5 52.5t40 62h139v-213h40v-77h-40v-50h-95v50zM528 123h87v151h-2q-17 -28 -29.5 -49.5t-22.5 -38.5t-17.5 -31.5t-15.5 -29.5v-2z" />
    <glyph glyph-name="onehalf" unicode="&#xbd;" horiz-adv-x="764" 
d="M121 621h-2l-85 -57v84l86 57h99v-340h-98v256zM54 0l515 705h105l-514 -705h-106zM470 233q0 53 38 84.5t101 31.5q60 0 97 -28t37 -73q0 -28 -13.5 -50.5t-48.5 -53.5l-75 -66v-2h141v-76h-271v67l137 121q18 17 25.5 29t7.5 23q0 16 -11.5 25.5t-30.5 9.5
q-18 0 -30 -12t-12 -30v-2h-92v2z" />
    <glyph glyph-name="threequarters" unicode="&#xbe;" horiz-adv-x="812" 
d="M120 572h42q19 0 30.5 9.5t11.5 25.5q0 34 -43 34q-20 0 -32 -11t-13 -29h-90q0 52 37.5 82.5t100.5 30.5q60 0 96 -25.5t36 -67.5q0 -30 -19 -51.5t-51 -26.5v-2q38 -5 60.5 -26.5t22.5 -54.5q0 -48 -40 -76t-107 -28q-63 0 -101.5 31t-40.5 83h95q1 -17 13.5 -26.5
t33.5 -9.5q20 0 33 9.5t13 25.5q0 17 -12.5 27t-34.5 10h-41v66zM106 0l515 705h106l-515 -705h-106zM659 50h-167v83q11 23 23.5 45.5t27 47t32.5 52.5t40 62h139v-213h40v-77h-40v-50h-95v50zM575 123h87v151h-2q-17 -28 -29.5 -49.5t-22.5 -38.5t-17.5 -31.5t-15.5 -29.5
v-2z" />
    <glyph glyph-name="questiondown" unicode="&#xbf;" horiz-adv-x="518" 
d="M276 416q-29 0 -50 20t-21 49t21 49t50 20q30 0 50.5 -20t20.5 -49t-20.5 -49t-50.5 -20zM491 31q-1 -43 -16.5 -79.5t-44.5 -63t-71 -41.5t-96 -15q-50 0 -91 13.5t-70.5 38.5t-45.5 58.5t-16 74.5q0 56 26.5 96t76.5 70q24 14 40 26t25 25t13 27.5t4 32.5v28h113v-34
q4 -55 -17.5 -90.5t-72.5 -65.5q-23 -14 -38.5 -26.5t-25 -25t-13.5 -27t-4 -32.5q0 -39 28 -64t75 -25t75.5 26.5t30.5 72.5h115z" />
    <glyph glyph-name="Agrave" unicode="&#xc0;" horiz-adv-x="668" 
d="M152 909h119l109 -147h-99zM462 182h-259l-60 -182h-130l250 705h142l250 -705h-133zM232 279h201l-99 301h-3z" />
    <glyph glyph-name="Aacute" unicode="&#xc1;" horiz-adv-x="668" 
d="M287 761l109 146h119l-129 -146h-99zM462 182h-259l-60 -182h-130l250 705h142l250 -705h-133zM232 279h201l-99 301h-3z" />
    <glyph glyph-name="Acircumflex" unicode="&#xc2;" horiz-adv-x="668" 
d="M381 903l134 -152h-98l-82 94h-2l-82 -94h-98l134 152h94zM462 182h-259l-60 -182h-130l250 705h142l250 -705h-133zM232 279h201l-99 301h-3z" />
    <glyph glyph-name="Atilde" unicode="&#xc3;" horiz-adv-x="668" 
d="M401 766q-25 0 -43 11t-32.5 23.5t-27 23.5t-26.5 11q-17 0 -26 -16.5t-8 -46.5h-71q0 63 29 97t74 34q26 0 44.5 -11t32.5 -24t26 -24t25 -11q34 0 34 64h70q0 -62 -29 -96.5t-72 -34.5zM462 182h-259l-60 -182h-130l250 705h142l250 -705h-133zM232 279h201l-99 301h-3
z" />
    <glyph glyph-name="Adieresis" unicode="&#xc4;" horiz-adv-x="668" 
d="M237 773q-26 0 -43.5 17.5t-17.5 42.5t17.5 42.5t43.5 17.5t44 -17.5t18 -42.5t-18 -42.5t-44 -17.5zM430 773q-26 0 -43.5 17.5t-17.5 42.5t17.5 42.5t43.5 17.5t44 -17.5t18 -42.5t-18 -42.5t-44 -17.5zM462 182h-259l-60 -182h-130l250 705h142l250 -705h-133z
M232 279h201l-99 301h-3z" />
    <glyph glyph-name="Aring" unicode="&#xc5;" horiz-adv-x="668" 
d="M334 741q-20 0 -37.5 7.5t-31 20.5t-21.5 30.5t-8 37.5t8 38t21.5 31t31 20.5t37.5 7.5t37.5 -7.5t31 -20.5t21.5 -31t8 -38t-8 -37.5t-21.5 -30.5t-31 -20.5t-37.5 -7.5zM334 792q20 0 33.5 13t13.5 32q0 20 -13.5 33.5t-33.5 13.5t-33.5 -13.5t-13.5 -33.5
q0 -19 13.5 -32t33.5 -13zM462 182h-259l-60 -182h-130l250 705h142l250 -705h-133zM232 279h201l-99 301h-3z" />
    <glyph glyph-name="AE" unicode="&#xc6;" horiz-adv-x="984" 
d="M471 197h-247l-88 -197h-127l313 705h597v-106h-330v-194h312v-101h-312v-198h330v-106h-448v197zM264 295h207v310h-71z" />
    <glyph glyph-name="Ccedilla" unicode="&#xc7;" horiz-adv-x="703" 
d="M545 463q-6 33 -22 60t-39.5 46t-53.5 29.5t-64 10.5q-45 0 -82 -18t-63 -51t-40 -80.5t-14 -106.5q0 -60 14 -107.5t40 -81t62.5 -51.5t82.5 -18q70 0 117.5 36t62.5 99h123q-15 -105 -85.5 -168t-181.5 -72l-21 -47q44 -1 70 -21.5t26 -58.5q0 -43 -32.5 -66t-86.5 -23
q-20 -1 -40.5 1.5t-29.5 5.5v56q8 -2 25 -4t32 -2q57 0 57 30q0 15 -15 21.5t-50 6.5h-31v43l25 58q-68 6 -122 33.5t-92 74t-58.5 111t-20.5 144.5q0 84 23 151t66 114.5t103.5 72.5t135.5 25q61 0 114 -18.5t93 -51.5t65 -79.5t31 -103.5h-124z" />
    <glyph glyph-name="Egrave" unicode="&#xc8;" horiz-adv-x="565" 
d="M108 909h119l109 -147h-99zM518 0h-456v705h456v-107h-330v-190h312v-100h-312v-202h330v-106z" />
    <glyph glyph-name="Eacute" unicode="&#xc9;" horiz-adv-x="565" 
d="M243 761l109 146h119l-129 -146h-99zM518 0h-456v705h456v-107h-330v-190h312v-100h-312v-202h330v-106z" />
    <glyph glyph-name="Ecircumflex" unicode="&#xca;" horiz-adv-x="565" 
d="M337 903l134 -152h-98l-81 94h-3l-81 -94h-99l134 152h94zM518 0h-456v705h456v-107h-330v-190h312v-100h-312v-202h330v-106z" />
    <glyph glyph-name="Edieresis" unicode="&#xcb;" horiz-adv-x="565" 
d="M193 773q-26 0 -43.5 17.5t-17.5 42.5t17.5 42.5t43.5 17.5t44 -17.5t18 -42.5t-18 -42.5t-44 -17.5zM386 773q-26 0 -43.5 17.5t-17.5 42.5t17.5 42.5t43.5 17.5t44 -17.5t18 -42.5t-18 -42.5t-44 -17.5zM518 0h-456v705h456v-107h-330v-190h312v-100h-312v-202h330
v-106z" />
    <glyph glyph-name="Igrave" unicode="&#xcc;" horiz-adv-x="250" 
d="M-57 909h119l109 -147h-99zM62 0v705h126v-705h-126z" />
    <glyph glyph-name="Iacute" unicode="&#xcd;" horiz-adv-x="250" 
d="M78 761l109 146h119l-129 -146h-99zM62 0v705h126v-705h-126z" />
    <glyph glyph-name="Icircumflex" unicode="&#xce;" horiz-adv-x="250" 
d="M172 903l134 -152h-98l-82 94h-2l-82 -94h-98l134 152h94zM62 0v705h126v-705h-126z" />
    <glyph glyph-name="Idieresis" unicode="&#xcf;" horiz-adv-x="250" 
d="M28 773q-26 0 -43.5 17.5t-17.5 42.5t17.5 42.5t43.5 17.5t44 -17.5t18 -42.5t-18 -42.5t-44 -17.5zM221 773q-26 0 -43.5 17.5t-17.5 42.5t17.5 42.5t43.5 17.5t44 -17.5t18 -42.5t-18 -42.5t-44 -17.5zM62 0v705h126v-705h-126z" />
    <glyph glyph-name="Eth" unicode="&#xd0;" horiz-adv-x="704" 
d="M328 705q79 0 141 -23.5t105 -68.5t66 -110t23 -149t-22.5 -149.5t-65.5 -111t-105.5 -69.5t-141.5 -24h-258v311h-53v98h53v296h258zM314 106q107 0 163.5 63.5t56.5 184.5q0 118 -57 181t-163 63h-118v-189h129v-98h-129v-205h118z" />
    <glyph glyph-name="Ntilde" unicode="&#xd1;" horiz-adv-x="709" 
d="M421 766q-25 0 -43 11t-32 23.5t-26.5 23.5t-26.5 11q-17 0 -26 -16.5t-8 -46.5h-71q0 63 29 97t74 34q26 0 44 -11t32.5 -24t26.5 -24t25 -11q32 0 34 64h70q0 -62 -29 -96.5t-73 -34.5zM62 0v705h109l350 -494h4v494h121v-705h-108l-350 494h-4v-494h-122z" />
    <glyph glyph-name="Ograve" unicode="&#xd2;" horiz-adv-x="745" 
d="M191 909h119l109 -147h-99zM373 716q77 0 138.5 -25.5t105 -72.5t67 -114.5t23.5 -151.5t-23.5 -151.5t-67 -114.5t-105 -72.5t-138.5 -25.5t-139 25.5t-105.5 72.5t-67 114.5t-23.5 151.5t23.5 151.5t67 114.5t105.5 72.5t139 25.5zM373 609q-47 0 -85 -18t-65 -51.5
t-41.5 -81t-14.5 -106.5t14.5 -106.5t41.5 -80.5t65 -51t85 -18t85 18t64.5 51t41 80.5t14.5 106.5t-14.5 106.5t-41 81t-64.5 51.5t-85 18z" />
    <glyph glyph-name="Oacute" unicode="&#xd3;" horiz-adv-x="745" 
d="M326 761l109 146h118l-129 -146h-98zM373 716q77 0 138.5 -25.5t105 -72.5t67 -114.5t23.5 -151.5t-23.5 -151.5t-67 -114.5t-105 -72.5t-138.5 -25.5t-139 25.5t-105.5 72.5t-67 114.5t-23.5 151.5t23.5 151.5t67 114.5t105.5 72.5t139 25.5zM373 609q-47 0 -85 -18
t-65 -51.5t-41.5 -81t-14.5 -106.5t14.5 -106.5t41.5 -80.5t65 -51t85 -18t85 18t64.5 51t41 80.5t14.5 106.5t-14.5 106.5t-41 81t-64.5 51.5t-85 18z" />
    <glyph glyph-name="Ocircumflex" unicode="&#xd4;" horiz-adv-x="745" 
d="M419 903l134 -152h-98l-81 94h-3l-81 -94h-98l134 152h93zM373 716q77 0 138.5 -25.5t105 -72.5t67 -114.5t23.5 -151.5t-23.5 -151.5t-67 -114.5t-105 -72.5t-138.5 -25.5t-139 25.5t-105.5 72.5t-67 114.5t-23.5 151.5t23.5 151.5t67 114.5t105.5 72.5t139 25.5z
M373 609q-47 0 -85 -18t-65 -51.5t-41.5 -81t-14.5 -106.5t14.5 -106.5t41.5 -80.5t65 -51t85 -18t85 18t64.5 51t41 80.5t14.5 106.5t-14.5 106.5t-41 81t-64.5 51.5t-85 18z" />
    <glyph glyph-name="Otilde" unicode="&#xd5;" horiz-adv-x="745" 
d="M439 766q-25 0 -43 11t-32 23.5t-26.5 23.5t-26.5 11q-17 0 -26 -16.5t-8 -46.5h-71q0 63 29 97t74 34q26 0 44 -11t32.5 -24t26.5 -24t25 -11q32 0 34 64h70q0 -62 -29 -96.5t-73 -34.5zM373 716q77 0 138.5 -25.5t105 -72.5t67 -114.5t23.5 -151.5t-23.5 -151.5
t-67 -114.5t-105 -72.5t-138.5 -25.5t-139 25.5t-105.5 72.5t-67 114.5t-23.5 151.5t23.5 151.5t67 114.5t105.5 72.5t139 25.5zM373 609q-47 0 -85 -18t-65 -51.5t-41.5 -81t-14.5 -106.5t14.5 -106.5t41.5 -80.5t65 -51t85 -18t85 18t64.5 51t41 80.5t14.5 106.5
t-14.5 106.5t-41 81t-64.5 51.5t-85 18z" />
    <glyph glyph-name="Odieresis" unicode="&#xd6;" horiz-adv-x="745" 
d="M276 773q-26 0 -43.5 17.5t-17.5 42.5t17.5 42.5t43.5 17.5t43.5 -17.5t17.5 -42.5t-17.5 -42.5t-43.5 -17.5zM469 773q-26 0 -43.5 17.5t-17.5 42.5t17.5 42.5t43.5 17.5t43.5 -17.5t17.5 -42.5t-17.5 -42.5t-43.5 -17.5zM373 716q77 0 138.5 -25.5t105 -72.5t67 -114.5
t23.5 -151.5t-23.5 -151.5t-67 -114.5t-105 -72.5t-138.5 -25.5t-139 25.5t-105.5 72.5t-67 114.5t-23.5 151.5t23.5 151.5t67 114.5t105.5 72.5t139 25.5zM373 609q-47 0 -85 -18t-65 -51.5t-41.5 -81t-14.5 -106.5t14.5 -106.5t41.5 -80.5t65 -51t85 -18t85 18t64.5 51
t41 80.5t14.5 106.5t-14.5 106.5t-41 81t-64.5 51.5t-85 18z" />
    <glyph glyph-name="Oslash" unicode="&#xd8;" horiz-adv-x="745" 
d="M611 625q46 -48 71 -116.5t25 -156.5q0 -84 -23.5 -151.5t-67 -114.5t-105 -72.5t-138.5 -25.5q-102 0 -178 44l-43 -61l-49 34l44 63q-53 48 -81 119.5t-28 164.5q0 84 23.5 151.5t67 114.5t105.5 72.5t139 25.5q57 0 105 -13.5t87 -39.5l49 69l51 -31zM497 566
q-51 43 -124 43q-47 0 -85 -18t-65 -51.5t-41.5 -81t-14.5 -106.5q0 -57 13.5 -103t38.5 -79zM262 128q47 -32 111 -32q47 0 85 18t64.5 51t41 80.5t14.5 106.5q0 51 -10.5 93t-30.5 74z" />
    <glyph glyph-name="Ugrave" unicode="&#xd9;" horiz-adv-x="704" 
d="M170 909h119l109 -147h-99zM188 260q0 -72 42.5 -117t121.5 -45q78 0 121 45t43 117v445h125v-456q0 -58 -20 -106t-57.5 -82.5t-91 -53.5t-120.5 -19t-121 19t-91.5 53.5t-57.5 82.5t-20 106v456h126v-445z" />
    <glyph glyph-name="Uacute" unicode="&#xda;" horiz-adv-x="704" 
d="M305 761l109 146h118l-129 -146h-98zM188 260q0 -72 42.5 -117t121.5 -45q78 0 121 45t43 117v445h125v-456q0 -58 -20 -106t-57.5 -82.5t-91 -53.5t-120.5 -19t-121 19t-91.5 53.5t-57.5 82.5t-20 106v456h126v-445z" />
    <glyph glyph-name="Ucircumflex" unicode="&#xdb;" horiz-adv-x="704" 
d="M398 903l134 -152h-98l-81 94h-3l-81 -94h-98l134 152h93zM188 260q0 -72 42.5 -117t121.5 -45q78 0 121 45t43 117v445h125v-456q0 -58 -20 -106t-57.5 -82.5t-91 -53.5t-120.5 -19t-121 19t-91.5 53.5t-57.5 82.5t-20 106v456h126v-445z" />
    <glyph glyph-name="Udieresis" unicode="&#xdc;" horiz-adv-x="704" 
d="M255 773q-26 0 -43.5 17.5t-17.5 42.5t17.5 42.5t43.5 17.5t43.5 -17.5t17.5 -42.5t-17.5 -42.5t-43.5 -17.5zM448 773q-26 0 -43.5 17.5t-17.5 42.5t17.5 42.5t43.5 17.5t43.5 -17.5t17.5 -42.5t-17.5 -42.5t-43.5 -17.5zM188 260q0 -72 42.5 -117t121.5 -45
q78 0 121 45t43 117v445h125v-456q0 -58 -20 -106t-57.5 -82.5t-91 -53.5t-120.5 -19t-121 19t-91.5 53.5t-57.5 82.5t-20 106v456h126v-445z" />
    <glyph glyph-name="Yacute" unicode="&#xdd;" horiz-adv-x="646" 
d="M141 909h119l109 -147h-99zM260 0v278l-247 427h138l171 -307h3l171 307h137l-247 -427v-278h-126z" />
    <glyph glyph-name="Yacute" unicode="&#x1ef2;" horiz-adv-x="646" 
d="M141 909h119l109 -147h-99zM260 0v278l-247 427h138l171 -307h3l171 307h137l-247 -427v-278h-126z" />
    <glyph glyph-name="Thorn" unicode="&#xde;" horiz-adv-x="632" 
d="M202 705v-121h161q47 0 87.5 -14.5t70.5 -42.5t47.5 -67.5t17.5 -90.5t-18 -91.5t-49 -68t-72.5 -42.5t-88.5 -15h-157v-152h-126v705h127zM201 254h127q59 0 94.5 28.5t35.5 85.5t-35.5 85t-93.5 28h-128v-227z" />
    <glyph glyph-name="germandbls" unicode="&#xdf;" horiz-adv-x="626" 
d="M75 0v520q0 88 60.5 138.5t164.5 50.5q49 0 90 -13t70.5 -36.5t46 -56.5t16.5 -72q0 -59 -28.5 -102.5t-76.5 -57.5v-4q74 -8 116.5 -56.5t42.5 -121.5q0 -45 -16 -81t-45 -61.5t-71 -39.5t-93 -14q-23 0 -44.5 2t-36.5 5v99q27 -8 62 -8q57 0 89 28.5t32 76.5
q0 51 -36.5 80.5t-102.5 29.5h-32v103h24q46 0 72 28.5t26 76.5q0 43 -28 69t-75 26q-51 0 -78.5 -28.5t-27.5 -82.5v-498h-121z" />
    <glyph glyph-name="agrave" unicode="&#xe0;" horiz-adv-x="531" 
d="M215 591l-123 150h116l106 -150h-99zM202 -8q-37 0 -69 11.5t-55 32t-36 49t-13 63.5q0 69 51 109t146 46l137 8v37q0 41 -26 63t-71 22q-44 0 -70 -19.5t-32 -51.5h-113q5 73 62.5 119.5t157.5 46.5q48 0 87 -12t67 -34.5t43 -54.5t15 -71v-356h-117v83h-3
q-23 -43 -66.5 -67t-94.5 -24zM239 83q26 0 48.5 8t39.5 22.5t26.5 34.5t9.5 44v39l-120 -7q-44 -3 -68 -21.5t-24 -49.5q0 -32 24 -51t64 -19z" />
    <glyph glyph-name="aacute" unicode="&#xe1;" horiz-adv-x="531" 
d="M216 591l106 150h116l-123 -150h-99zM202 -8q-37 0 -69 11.5t-55 32t-36 49t-13 63.5q0 69 51 109t146 46l137 8v37q0 41 -26 63t-71 22q-44 0 -70 -19.5t-32 -51.5h-113q5 73 62.5 119.5t157.5 46.5q48 0 87 -12t67 -34.5t43 -54.5t15 -71v-356h-117v83h-3
q-23 -43 -66.5 -67t-94.5 -24zM239 83q26 0 48.5 8t39.5 22.5t26.5 34.5t9.5 44v39l-120 -7q-44 -3 -68 -21.5t-24 -49.5q0 -32 24 -51t64 -19z" />
    <glyph glyph-name="acircumflex" unicode="&#xe2;" horiz-adv-x="531" 
d="M443 588h-99l-76 92h-4l-76 -92h-99l130 152h94zM202 -8q-37 0 -69 11.5t-55 32t-36 49t-13 63.5q0 69 51 109t146 46l137 8v37q0 41 -26 63t-71 22q-44 0 -70 -19.5t-32 -51.5h-113q5 73 62.5 119.5t157.5 46.5q48 0 87 -12t67 -34.5t43 -54.5t15 -71v-356h-117v83h-3
q-23 -43 -66.5 -67t-94.5 -24zM239 83q26 0 48.5 8t39.5 22.5t26.5 34.5t9.5 44v39l-120 -7q-44 -3 -68 -21.5t-24 -49.5q0 -32 24 -51t64 -19z" />
    <glyph glyph-name="atilde" unicode="&#xe3;" horiz-adv-x="531" 
d="M334 591q-25 0 -43 11t-32 23.5t-26.5 23.5t-26.5 11q-17 0 -26 -16.5t-8 -46.5h-71q0 63 29 97t74 34q26 0 44 -11t32.5 -23.5t26.5 -23.5t25 -11q32 0 34 64h70q0 -62 -29 -97t-73 -35zM202 -8q-37 0 -69 11.5t-55 32t-36 49t-13 63.5q0 69 51 109t146 46l137 8v37
q0 41 -26 63t-71 22q-44 0 -70 -19.5t-32 -51.5h-113q5 73 62.5 119.5t157.5 46.5q48 0 87 -12t67 -34.5t43 -54.5t15 -71v-356h-117v83h-3q-23 -43 -66.5 -67t-94.5 -24zM239 83q26 0 48.5 8t39.5 22.5t26.5 34.5t9.5 44v39l-120 -7q-44 -3 -68 -21.5t-24 -49.5
q0 -32 24 -51t64 -19z" />
    <glyph glyph-name="adieresis" unicode="&#xe4;" horiz-adv-x="531" 
d="M169 593q-26 0 -43.5 17.5t-17.5 41.5q0 26 17.5 43t43.5 17t44 -17t18 -43q0 -24 -18 -41.5t-44 -17.5zM362 593q-26 0 -43.5 17.5t-17.5 41.5q0 26 17.5 43t43.5 17t44 -17t18 -43q0 -24 -18 -41.5t-44 -17.5zM202 -8q-37 0 -69 11.5t-55 32t-36 49t-13 63.5
q0 69 51 109t146 46l137 8v37q0 41 -26 63t-71 22q-44 0 -70 -19.5t-32 -51.5h-113q5 73 62.5 119.5t157.5 46.5q48 0 87 -12t67 -34.5t43 -54.5t15 -71v-356h-117v83h-3q-23 -43 -66.5 -67t-94.5 -24zM239 83q26 0 48.5 8t39.5 22.5t26.5 34.5t9.5 44v39l-120 -7
q-44 -3 -68 -21.5t-24 -49.5q0 -32 24 -51t64 -19z" />
    <glyph glyph-name="aring" unicode="&#xe5;" horiz-adv-x="531" 
d="M266 566q-21 0 -39.5 8t-32 21.5t-21.5 31.5t-8 39t8 39t21.5 31.5t32 21.5t39.5 8t39 -8t32 -21.5t22 -31.5t8 -39t-8 -39t-22 -31.5t-32 -21.5t-39 -8zM266 619q20 0 34 13.5t14 33.5t-14 34t-34 14t-34 -14t-14 -34t14 -33.5t34 -13.5zM202 -8q-37 0 -69 11.5t-55 32
t-36 49t-13 63.5q0 69 51 109t146 46l137 8v37q0 41 -26 63t-71 22q-44 0 -70 -19.5t-32 -51.5h-113q5 73 62.5 119.5t157.5 46.5q48 0 87 -12t67 -34.5t43 -54.5t15 -71v-356h-117v83h-3q-23 -43 -66.5 -67t-94.5 -24zM239 83q26 0 48.5 8t39.5 22.5t26.5 34.5t9.5 44v39
l-120 -7q-44 -3 -68 -21.5t-24 -49.5q0 -32 24 -51t64 -19z" />
    <glyph glyph-name="ae" unicode="&#xe6;" horiz-adv-x="862" 
d="M605 -10q-65 0 -114 27t-75 75h-4q-29 -48 -77 -74t-114 -26q-90 0 -142 42.5t-52 112.5t52 109.5t149 44.5l134 7v32q0 40 -28.5 66.5t-73.5 26.5q-42 0 -69 -19.5t-31 -51.5h-112q2 36 17.5 66.5t43 52.5t65 34.5t83.5 12.5q63 0 108.5 -23t66.5 -64h4q26 42 69 64.5
t103 22.5q51 0 92.5 -18t71 -52t45.5 -81.5t16 -107.5v-39h-356v-8q0 -62 35.5 -100.5t93.5 -38.5q42 0 70 20t39 52h114q-6 -37 -25 -67t-48 -52t-67.5 -34t-83.5 -12zM600 434q-51 0 -84.5 -35t-37.5 -89h236q-2 56 -32.5 90t-81.5 34zM235 83q27 0 50 8.5t40 23.5t27 35
t10 42v37l-119 -7q-47 -3 -72 -20.5t-25 -48.5t24.5 -50.5t64.5 -19.5z" />
    <glyph glyph-name="ccedilla" unicode="&#xe7;" horiz-adv-x="529" 
d="M506 182q-6 -79 -57.5 -129.5t-135.5 -60.5l-21 -49q44 -1 70 -21.5t26 -58.5q0 -43 -33 -66t-86 -23q-21 -1 -41 1.5t-30 5.5v56q8 -2 25.5 -4t31.5 -2q58 0 58 30q0 15 -15 21.5t-50 6.5h-32v43l26 60q-99 11 -156.5 80.5t-57.5 186.5q0 62 17.5 111.5t50 84.5t78.5 54
t102 19q51 0 92.5 -15t71 -41.5t46.5 -62t20 -76.5h-115q-8 42 -36 69.5t-77 27.5q-58 0 -92 -45.5t-34 -125.5q0 -82 34.5 -126.5t92.5 -44.5q46 0 75 24.5t38 69.5h114z" />
    <glyph glyph-name="egrave" unicode="&#xe8;" horiz-adv-x="540" 
d="M221 591l-123 150h117l106 -150h-100zM506 155q-6 -37 -25 -67t-49 -52t-69.5 -34t-85.5 -12q-58 0 -104 18.5t-78.5 53t-49.5 84t-17 111.5q0 61 17 111t49 85.5t77 55t101 19.5q55 0 99.5 -18.5t75.5 -52t47.5 -81.5t16.5 -107v-40h-362v-7q0 -63 35.5 -101t95.5 -38
q42 0 72 20t41 52h113zM273 434q-51 0 -85 -35t-38 -89h242q-2 55 -34 89.5t-85 34.5z" />
    <glyph glyph-name="eacute" unicode="&#xe9;" horiz-adv-x="540" 
d="M223 591l106 150h116l-123 -150h-99zM506 155q-6 -37 -25 -67t-49 -52t-69.5 -34t-85.5 -12q-58 0 -104 18.5t-78.5 53t-49.5 84t-17 111.5q0 61 17 111t49 85.5t77 55t101 19.5q55 0 99.5 -18.5t75.5 -52t47.5 -81.5t16.5 -107v-40h-362v-7q0 -63 35.5 -101t95.5 -38
q42 0 72 20t41 52h113zM273 434q-51 0 -85 -35t-38 -89h242q-2 55 -34 89.5t-85 34.5z" />
    <glyph glyph-name="ecircumflex" unicode="&#xea;" horiz-adv-x="540" 
d="M449 588h-98l-77 92h-3l-77 -92h-99l131 152h93zM506 155q-6 -37 -25 -67t-49 -52t-69.5 -34t-85.5 -12q-58 0 -104 18.5t-78.5 53t-49.5 84t-17 111.5q0 61 17 111t49 85.5t77 55t101 19.5q55 0 99.5 -18.5t75.5 -52t47.5 -81.5t16.5 -107v-40h-362v-7q0 -63 35.5 -101
t95.5 -38q42 0 72 20t41 52h113zM273 434q-51 0 -85 -35t-38 -89h242q-2 55 -34 89.5t-85 34.5z" />
    <glyph glyph-name="edieresis" unicode="&#xeb;" horiz-adv-x="540" 
d="M176 593q-26 0 -43.5 17.5t-17.5 41.5q0 26 17.5 43t43.5 17t43.5 -17t17.5 -43q0 -24 -17.5 -41.5t-43.5 -17.5zM369 593q-26 0 -43.5 17.5t-17.5 41.5q0 26 17.5 43t43.5 17t43.5 -17t17.5 -43q0 -24 -17.5 -41.5t-43.5 -17.5zM506 155q-6 -37 -25 -67t-49 -52
t-69.5 -34t-85.5 -12q-58 0 -104 18.5t-78.5 53t-49.5 84t-17 111.5q0 61 17 111t49 85.5t77 55t101 19.5q55 0 99.5 -18.5t75.5 -52t47.5 -81.5t16.5 -107v-40h-362v-7q0 -63 35.5 -101t95.5 -38q42 0 72 20t41 52h113zM273 434q-51 0 -85 -35t-38 -89h242q-2 55 -34 89.5
t-85 34.5z" />
    <glyph glyph-name="igrave" unicode="&#xec;" horiz-adv-x="227" 
d="M62 591l-123 150h117l106 -150h-100zM53 518h121v-518h-121v518z" />
    <glyph glyph-name="iacute" unicode="&#xed;" horiz-adv-x="227" 
d="M63 591l106 150h117l-123 -150h-100zM53 518h121v-518h-121v518z" />
    <glyph glyph-name="icircumflex" unicode="&#xee;" horiz-adv-x="227" 
d="M290 588h-99l-76 92h-4l-76 -92h-99l130 152h94zM53 518h121v-518h-121v518z" />
    <glyph glyph-name="idieresis" unicode="&#xef;" horiz-adv-x="227" 
d="M17 593q-26 0 -43.5 17.5t-17.5 41.5q0 26 17.5 43t43.5 17t43.5 -17t17.5 -43q0 -24 -17.5 -41.5t-43.5 -17.5zM209 593q-26 0 -43.5 17.5t-17.5 41.5q0 26 17.5 43t43.5 17t44 -17t18 -43q0 -24 -18 -41.5t-44 -17.5zM53 518h121v-518h-121v518z" />
    <glyph glyph-name="eth" unicode="&#xf0;" horiz-adv-x="572" 
d="M283 -8q-57 0 -103 17.5t-78.5 50.5t-50 81t-17.5 109q0 58 16.5 104t45.5 78.5t69.5 49.5t89.5 17q41 0 78.5 -19t54.5 -48h8q-11 36 -34 76.5t-49 68.5l-133 -44l-24 62l109 36q-20 19 -45.5 39.5t-63.5 48.5h150q30 -23 60 -54l123 41l24 -63l-96 -31
q114 -139 114 -332q0 -68 -18 -121.5t-50.5 -90.5t-78 -56.5t-101.5 -19.5zM285 409q-59 0 -92.5 -42.5t-33.5 -116.5q0 -73 34 -116t92 -43q59 0 93 43t34 116t-34.5 116t-92.5 43z" />
    <glyph glyph-name="ntilde" unicode="&#xf1;" horiz-adv-x="558" 
d="M348 591q-25 0 -43 11t-32 23.5t-26.5 23.5t-26.5 11q-17 0 -26 -16.5t-8 -46.5h-71q0 63 28.5 97t73.5 34q26 0 44.5 -11t33 -23.5t26.5 -23.5t25 -11q33 0 33 64h71q0 -62 -29.5 -97t-72.5 -35zM50 518h117v-89h2q21 46 62 72t101 26q86 0 132.5 -51t46.5 -142v-334
h-122v310q0 55 -25.5 84.5t-77.5 29.5q-53 0 -84 -34t-31 -90v-300h-121v518z" />
    <glyph glyph-name="ograve" unicode="&#xf2;" horiz-adv-x="558" 
d="M228 591l-124 150h117l106 -150h-99zM279 -10q-57 0 -103.5 18.5t-79 53t-50.5 84.5t-18 113t18 112.5t51 84.5t79 53.5t103 18.5t103 -18.5t78.5 -53.5t50.5 -84.5t18 -112.5t-17.5 -113t-50.5 -84.5t-79 -53t-103 -18.5zM279 86q58 0 92.5 44.5t34.5 128.5
q0 83 -34.5 128t-92.5 45t-92.5 -45t-34.5 -128q0 -84 34.5 -128.5t92.5 -44.5z" />
    <glyph glyph-name="oacute" unicode="&#xf3;" horiz-adv-x="558" 
d="M229 591l106 150h116l-123 -150h-99zM279 -10q-57 0 -103.5 18.5t-79 53t-50.5 84.5t-18 113t18 112.5t51 84.5t79 53.5t103 18.5t103 -18.5t78.5 -53.5t50.5 -84.5t18 -112.5t-17.5 -113t-50.5 -84.5t-79 -53t-103 -18.5zM279 86q58 0 92.5 44.5t34.5 128.5
q0 83 -34.5 128t-92.5 45t-92.5 -45t-34.5 -128q0 -84 34.5 -128.5t92.5 -44.5z" />
    <glyph glyph-name="ocircumflex" unicode="&#xf4;" horiz-adv-x="558" 
d="M456 588h-99l-77 92h-3l-77 -92h-98l130 152h93zM279 -10q-57 0 -103.5 18.5t-79 53t-50.5 84.5t-18 113t18 112.5t51 84.5t79 53.5t103 18.5t103 -18.5t78.5 -53.5t50.5 -84.5t18 -112.5t-17.5 -113t-50.5 -84.5t-79 -53t-103 -18.5zM279 86q58 0 92.5 44.5t34.5 128.5
q0 83 -34.5 128t-92.5 45t-92.5 -45t-34.5 -128q0 -84 34.5 -128.5t92.5 -44.5z" />
    <glyph glyph-name="otilde" unicode="&#xf5;" horiz-adv-x="558" 
d="M347 591q-25 0 -43 11t-32 23.5t-26.5 23.5t-26.5 11q-17 0 -26 -16.5t-8 -46.5h-71q0 63 28.5 97t73.5 34q26 0 44.5 -11t33 -23.5t26.5 -23.5t25 -11q33 0 33 64h71q0 -62 -29.5 -97t-72.5 -35zM279 -10q-57 0 -103.5 18.5t-79 53t-50.5 84.5t-18 113t18 112.5t51 84.5
t79 53.5t103 18.5t103 -18.5t78.5 -53.5t50.5 -84.5t18 -112.5t-17.5 -113t-50.5 -84.5t-79 -53t-103 -18.5zM279 86q58 0 92.5 44.5t34.5 128.5q0 83 -34.5 128t-92.5 45t-92.5 -45t-34.5 -128q0 -84 34.5 -128.5t92.5 -44.5z" />
    <glyph glyph-name="odieresis" unicode="&#xf6;" horiz-adv-x="558" 
d="M182 593q-26 0 -43.5 17.5t-17.5 41.5q0 26 17.5 43t43.5 17t44 -17t18 -43q0 -24 -18 -41.5t-44 -17.5zM375 593q-26 0 -43.5 17.5t-17.5 41.5q0 26 17.5 43t43.5 17t44 -17t18 -43q0 -24 -18 -41.5t-44 -17.5zM279 -10q-57 0 -103.5 18.5t-79 53t-50.5 84.5t-18 113
t18 112.5t51 84.5t79 53.5t103 18.5t103 -18.5t78.5 -53.5t50.5 -84.5t18 -112.5t-17.5 -113t-50.5 -84.5t-79 -53t-103 -18.5zM279 86q58 0 92.5 44.5t34.5 128.5q0 83 -34.5 128t-92.5 45t-92.5 -45t-34.5 -128q0 -84 34.5 -128.5t92.5 -44.5z" />
    <glyph glyph-name="oslash" unicode="&#xf8;" horiz-adv-x="558" 
d="M450 467q38 -35 58.5 -87t20.5 -121q0 -63 -17.5 -113t-50.5 -84.5t-79 -53t-103 -18.5q-65 0 -120 25l-28 -43l-48 30l28 45q-39 35 -61 88.5t-22 123.5q0 63 18 112.5t51 84.5t79 53.5t103 18.5q71 0 124 -28l29 45l49 -28zM346 411q-28 21 -67 21q-58 0 -92.5 -45
t-34.5 -128q0 -68 24 -112zM216 104q27 -18 63 -18q58 0 92.5 44.5t34.5 128.5q0 64 -22 106z" />
    <glyph glyph-name="ugrave" unicode="&#xf9;" horiz-adv-x="558" 
d="M227 591l-123 150h117l106 -150h-100zM509 0h-117v90h-3q-20 -48 -59 -73.5t-99 -25.5q-85 0 -134.5 50.5t-49.5 141.5v335h122v-310q0 -115 104 -115q54 0 84 34t30 91v300h122v-518z" />
    <glyph glyph-name="uacute" unicode="&#xfa;" horiz-adv-x="558" 
d="M229 591l105 150h117l-123 -150h-99zM509 0h-117v90h-3q-20 -48 -59 -73.5t-99 -25.5q-85 0 -134.5 50.5t-49.5 141.5v335h122v-310q0 -115 104 -115q54 0 84 34t30 91v300h122v-518z" />
    <glyph glyph-name="ucircumflex" unicode="&#xfb;" horiz-adv-x="558" 
d="M455 588h-99l-76 92h-4l-76 -92h-99l130 152h94zM509 0h-117v90h-3q-20 -48 -59 -73.5t-99 -25.5q-85 0 -134.5 50.5t-49.5 141.5v335h122v-310q0 -115 104 -115q54 0 84 34t30 91v300h122v-518z" />
    <glyph glyph-name="udieresis" unicode="&#xfc;" horiz-adv-x="558" 
d="M182 593q-26 0 -43.5 17.5t-17.5 41.5q0 26 17.5 43t43.5 17t43.5 -17t17.5 -43q0 -24 -17.5 -41.5t-43.5 -17.5zM375 593q-26 0 -44 17.5t-18 41.5q0 26 18 43t44 17t43.5 -17t17.5 -43q0 -24 -17.5 -41.5t-43.5 -17.5zM509 0h-117v90h-3q-20 -48 -59 -73.5t-99 -25.5
q-85 0 -134.5 50.5t-49.5 141.5v335h122v-310q0 -115 104 -115q54 0 84 34t30 91v300h122v-518z" />
    <glyph glyph-name="yacute" unicode="&#xfd;" horiz-adv-x="522" 
d="M211 591l106 150h117l-123 -150h-100zM107 -192h-9h-14.5t-14.5 0.5t-9 1.5v96q5 -2 17 -2h18q38 0 58.5 15.5t31.5 51.5l1 4.5t2.5 9.5t2 9.5t0.5 5.5l-184 518h133l122 -414h2l122 414h128l-187 -539q-16 -48 -36 -80.5t-46 -53t-59.5 -29t-78.5 -8.5z" />
    <glyph glyph-name="thorn" unicode="&#xfe;" horiz-adv-x="582" 
d="M340 526q99 0 155.5 -71t56.5 -196q0 -62 -14.5 -111.5t-42 -84t-67 -53t-88.5 -18.5q-55 0 -96.5 22.5t-60.5 64.5h-9v-245h-121v871h119v-273h8q22 45 64 69.5t96 24.5zM300 91q60 0 94 44.5t34 123.5q0 78 -33.5 122.5t-93.5 44.5t-94 -44.5t-34 -122.5t34 -123
t93 -45z" />
    <glyph glyph-name="ydieresis" unicode="&#xff;" horiz-adv-x="522" 
d="M165 593q-26 0 -43.5 17.5t-17.5 41.5q0 26 17.5 43t43.5 17t43.5 -17t17.5 -43q0 -24 -17.5 -41.5t-43.5 -17.5zM357 593q-26 0 -43.5 17.5t-17.5 41.5q0 26 17.5 43t43.5 17t44 -17t18 -43q0 -24 -18 -41.5t-44 -17.5zM107 -192h-9h-14.5t-14.5 0.5t-9 1.5v96
q5 -2 17 -2h18q38 0 58.5 15.5t31.5 51.5l1 4.5t2.5 9.5t2 9.5t0.5 5.5l-184 518h133l122 -414h2l122 414h128l-187 -539q-16 -48 -36 -80.5t-46 -53t-59.5 -29t-78.5 -8.5z" />
    <glyph glyph-name="OE" unicode="&#x152;" horiz-adv-x="1082" 
d="M595 114q-30 -60 -93 -94t-141 -34q-72 0 -131.5 26t-101.5 74t-65 115.5t-23 150.5t23 151t65 116t101.5 74t132.5 26q78 0 139 -33.5t94 -95.5v115h440v-107h-324v-190h305v-100h-305v-202h324v-106h-440v114zM376 610q-48 0 -86.5 -18t-65.5 -52t-41.5 -81.5
t-14.5 -106.5t14.5 -106.5t41.5 -81t65.5 -51.5t86.5 -18t86.5 18t65.5 51.5t41.5 81t14.5 106.5t-15 106.5t-42 81.5t-65.5 52t-85.5 18z" />
    <glyph glyph-name="oe" unicode="&#x153;" horiz-adv-x="914" 
d="M660 -10q-63 0 -114 25.5t-77 69.5h-6q-63 -95 -188 -95q-56 0 -101.5 19t-78 54t-50 84.5t-17.5 110.5q0 62 17.5 111.5t49.5 85t77.5 54.5t101.5 19q127 0 189 -99h6q26 45 74 72t111 27q53 0 96 -18.5t73 -52.5t46.5 -81.5t16.5 -106.5v-40h-359v-10q0 -60 36 -98
t94 -38q42 0 71.5 19.5t38.5 49.5h114q-5 -35 -24.5 -64.5t-48.5 -51.5t-67 -34t-81 -12zM766 310q-2 56 -34 90t-83 34t-84.5 -35t-37.5 -89h239zM149 258q0 -80 33 -125t93 -45t93.5 45t33.5 126t-33.5 126t-93.5 45t-93 -45.5t-33 -126.5z" />
    <glyph glyph-name="Scaron" unicode="&#x160;" horiz-adv-x="618" 
d="M133 906h98l81 -93h3l81 93h98l-134 -151h-93zM155 198q6 -49 50 -78t109 -29q64 0 104 28t40 72q0 38 -29 61.5t-96 39.5l-91 22q-98 23 -145 70t-47 123q0 47 19.5 85.5t54.5 66t83 42.5t106 15t105.5 -15t81.5 -42.5t53 -65.5t20 -85h-120q-5 50 -43 78t-98 28
t-97 -26.5t-37 -71.5q0 -35 28.5 -57t93.5 -38l81 -18q107 -25 155.5 -71.5t48.5 -125.5q0 -50 -19.5 -90.5t-55.5 -69t-87.5 -43.5t-115.5 -15q-61 0 -110.5 14.5t-85 41.5t-56 66t-22.5 88h122z" />
    <glyph glyph-name="scaron" unicode="&#x161;" horiz-adv-x="497" 
d="M204 588l-131 152h99l77 -93h3l77 93h98l-130 -152h-93zM41 369q0 36 15 65t42.5 50t66 32.5t85.5 11.5q46 0 83.5 -11.5t64.5 -33t42.5 -51t16.5 -65.5h-113q-3 34 -28.5 53t-67.5 19q-41 0 -65 -17t-24 -46q0 -44 74 -61l92 -21q78 -18 111 -50.5t33 -90.5
q0 -36 -16 -66t-45.5 -51.5t-70 -33.5t-89.5 -12q-98 0 -156 44t-65 118h120q11 -73 105 -73q45 0 70.5 16.5t25.5 45.5q0 23 -15.5 36.5t-53.5 22.5l-94 22q-144 35 -144 147z" />
    <glyph glyph-name="Ydieresis" unicode="&#x178;" horiz-adv-x="646" 
d="M226 773q-26 0 -43.5 17.5t-17.5 42.5t17.5 42.5t43.5 17.5t44 -17.5t18 -42.5t-18 -42.5t-44 -17.5zM419 773q-26 0 -43.5 17.5t-17.5 42.5t17.5 42.5t43.5 17.5t43.5 -17.5t17.5 -42.5t-17.5 -42.5t-43.5 -17.5zM260 0v278l-247 427h138l171 -307h3l171 307h137
l-247 -427v-278h-126z" />
    <glyph glyph-name="Zcaron" unicode="&#x17d;" horiz-adv-x="625" 
d="M132 906h98l82 -93h2l82 93h98l-134 -151h-94zM45 84l374 511v3h-364v107h516v-84l-372 -511v-4h382v-106h-536v84z" />
    <glyph glyph-name="zcaron" unicode="&#x17e;" horiz-adv-x="492" 
d="M199 588l-131 152h99l77 -93h3l77 93h98l-130 -152h-93zM40 74l268 347v2h-266v95h406v-80l-258 -341v-2h262v-95h-412v74z" />
    <glyph glyph-name="florin" unicode="&#x192;" horiz-adv-x="632" 
d="M605 595q-18 9 -40.5 14t-45.5 5q-53 0 -81 -24t-36 -75l-13 -89h174v-91h-188l-23 -155q-14 -99 -68.5 -145.5t-150.5 -46.5q-29 0 -57.5 5.5t-48.5 15.5v104q18 -11 43.5 -17t48.5 -6q51 0 76.5 24t33.5 80l21 141h-158v91h172l15 100q15 95 70 141.5t155 46.5
q27 0 55 -5t46 -14v-100z" />
    <glyph glyph-name="circumflex" unicode="&#x2c6;" horiz-adv-x="493" 
d="M423 624h-98l-77 92h-3l-77 -92h-99l131 152h93z" />
    <glyph glyph-name="tilde" unicode="&#x2dc;" horiz-adv-x="493" 
d="M312 627q-25 0 -43 11t-32 23.5t-26.5 23.5t-26.5 11q-17 0 -26.5 -17t-8.5 -46h-70q0 63 28.5 97t73.5 34q26 0 44.5 -11t32.5 -24t26.5 -24t25.5 -11q33 0 33 64h71q0 -62 -29.5 -96.5t-72.5 -34.5z" />
    <glyph glyph-name="uni0E1E" unicode="&#x51d;" horiz-adv-x="763" 
d="M484 0l-102 409h-3l-101 -409h-127l-140 561h122l87 -431h3l101 431h116l102 -431h2l88 431h120l-140 -561h-128z" />
    <glyph glyph-name="uni0E1E" unicode="&#xe1e;" horiz-adv-x="763" 
d="M484 0l-102 409h-3l-101 -409h-127l-140 561h122l87 -431h3l101 431h116l102 -431h2l88 431h120l-140 -561h-128z" />
    <glyph glyph-name="uni0E01" unicode="&#xe01;" horiz-adv-x="615" 
d="M73 185q0 54 19 86t62 46v3h-112v35q0 66 33 115.5t92 75.5t136 26q72 0 128 -24.5t88 -72.5t32 -116v-359h-124v345q0 64 -33 96t-97 32q-59 0 -94.5 -26t-38.5 -72h113v-75q-44 -8 -62 -32t-18 -72v-196h-124v185z" />
    <glyph glyph-name="uni0E02" unicode="&#xe02;" horiz-adv-x="576" 
d="M283 -12q-69 0 -118.5 24t-76 69.5t-26.5 110.5v46q0 26 7.5 49t17.5 40.5t26 39.5q16 23 24.5 38t8.5 31q0 18 -13 26.5t-35 8.5q-20 0 -42 -7v96q9 3 27.5 5t40.5 2q72 0 107 -27t35 -83q0 -33 -10 -57.5t-31 -56.5q-19 -31 -29 -54t-10 -53v-45q0 -50 25.5 -77
t72.5 -27t74 27t27 77v370h124v-369q0 -65 -28 -110.5t-79 -69.5t-119 -24z" />
    <glyph glyph-name="uni0E03" unicode="&#xe03;" horiz-adv-x="588" 
d="M290 -12q-71 0 -121.5 25t-77.5 71.5t-27 109.5v16q0 34 9 58.5t24.5 44.5t45.5 50q31 32 43 48t12 35q0 14 -7 21.5t-20 7.5q-35 0 -43 -57h-44q-1 25 -17 37t-36 12h-6v99h6q28 0 52.5 -17t34.5 -55h3q25 72 94 72q44 0 70 -27t26 -77q0 -27 -7.5 -48.5t-20.5 -40
t-35 -41.5q-23 -24 -35 -39.5t-18.5 -34t-6.5 -44.5v-19q0 -50 27 -79t76 -29t77 29t28 79v366h125v-366q0 -63 -28 -110t-80 -72t-123 -25z" />
    <glyph glyph-name="uni0E04" unicode="&#xe04;" horiz-adv-x="631" 
d="M67 346q0 71 31 122t87 77.5t131 26.5t130.5 -26.5t86.5 -77.5t31 -122v-346h-124v346q0 60 -33.5 93t-92.5 33t-92.5 -33t-33.5 -93v-117h3q13 39 46.5 58.5t75.5 19.5q20 0 39 -4v-103q-17 2 -34 2q-63 0 -96.5 -32.5t-33.5 -94.5v-75h-121v346z" />
    <glyph glyph-name="uni0E05" unicode="&#xe05;" horiz-adv-x="641" 
d="M67 424q0 46 18.5 78t50 48t68.5 16q29 0 53 -10.5t39.5 -26.5t20.5 -35h4q6 19 21 35t39.5 26.5t55.5 10.5q37 0 68 -16t50 -48t19 -78v-424h-124v416q0 24 -13 38t-34 14t-33.5 -14t-12.5 -38v-30h-76v30q0 24 -13 38t-34 14t-33.5 -14t-12.5 -38v-187h3q13 39 47 58.5
t77 19.5q20 0 38 -4v-103q-16 2 -33 2q-63 0 -97.5 -32.5t-34.5 -94.5v-75h-121v424z" />
    <glyph glyph-name="uni0E06" unicode="&#xe06;" horiz-adv-x="627" 
d="M378 -6q-63 0 -110.5 25.5t-72.5 66.5h-3v-86h-124v199q0 38 10.5 66t27.5 50t49 56q26 26 36.5 41.5t10.5 33.5q0 14 -7 21.5t-20 7.5q-17 0 -28 -13.5t-14 -40.5h-42q-4 23 -20 34.5t-36 11.5h-6v99h6q28 0 52.5 -17t34.5 -55h3q24 72 94 72q44 0 70 -27t26 -77
q0 -28 -8 -49.5t-21 -39t-35 -41.5q-19 -22 -30.5 -37.5t-20 -35.5t-8.5 -42q0 -30 17.5 -57t49.5 -43t73 -16q50 0 77 28t27 83v349h124v-369q0 -63 -22 -107.5t-62.5 -67.5t-97.5 -23z" />
    <glyph glyph-name="uni0E07" unicode="&#xe07;" horiz-adv-x="602" 
d="M15 561h131l163 -460h3q29 15 56 44t45 73.5t18 101.5q0 72 -30.5 109t-84.5 37q-20 0 -39 -5v96q34 9 69 9q68 0 115.5 -28.5t71.5 -81t24 -124.5q0 -81 -27 -147t-71 -113t-97 -72h-141z" />
    <glyph glyph-name="uni0E08" unicode="&#xe08;" horiz-adv-x="590" 
d="M154 162q-10 23 -21.5 30t-32.5 7q-15 0 -31 -3v95q33 8 65 8q29 0 48.5 -6t34.5 -21.5t29 -43.5l61 -134h3q50 38 78 96t28 127q0 75 -34 115.5t-102 40.5q-46 0 -75 -20t-38 -56h-121q10 85 73 130t163 45q83 0 141 -31t87.5 -88t29.5 -134q0 -101 -48.5 -182.5
t-128.5 -136.5h-133z" />
    <glyph glyph-name="uni0E09" unicode="&#xe09;" horiz-adv-x="625" 
d="M252 -6q-48 0 -84.5 17.5t-57 52.5t-20.5 84v25q0 15 -6 20.5t-18 5.5q-9 0 -22 -2v94q28 7 64 7q45 0 72 -17t27 -58v-37q0 -43 22 -64t65 -21q42 0 73 17.5t48.5 50t17.5 76.5v99q0 58 -32.5 93.5t-99.5 35.5q-51 0 -85 -20.5t-42 -57.5h-124q6 56 39.5 96t88.5 60.5
t127 20.5q82 0 138.5 -27t85 -76t28.5 -115v-354h-123v97h-3q-25 -46 -70.5 -74.5t-108.5 -28.5z" />
    <glyph glyph-name="uni0E0A" unicode="&#xe0a;" horiz-adv-x="594" 
d="M294 -12q-71 0 -122 24.5t-79 70.5t-28 109v46q0 38 13.5 66.5t37.5 62.5q15 21 22.5 36.5t7.5 30.5q0 37 -47 37q-21 0 -43 -7v96q9 3 27.5 5t39.5 2q69 0 102.5 -27.5t33.5 -85.5q0 -31 -8.5 -55.5t-26.5 -53.5q-18 -30 -27 -53t-9 -53v-44q0 -50 28.5 -79t78.5 -29
q51 0 80 29t29 79v73q0 35 -20.5 55t-54.5 20h-16v90h16q32 0 53 21.5t21 54.5v52h121v-48q0 -50 -22 -80.5t-64 -45.5v-4q43 -13 65.5 -46t22.5 -83v-60q0 -64 -28 -110.5t-80.5 -71t-123.5 -24.5z" />
    <glyph glyph-name="uni0E0B" unicode="&#xe0b;" horiz-adv-x="594" 
d="M294 -12q-70 0 -121.5 24.5t-79 70.5t-27.5 109v22q0 31 9 55.5t24 44t40 47.5q31 34 42.5 50.5t11.5 34.5q0 13 -7 21t-19 8q-15 0 -25.5 -13.5t-14.5 -40.5h-42q-3 23 -19 34.5t-35 11.5h-6v99h6q27 0 51 -17t34 -55h3q21 72 90 72q41 0 66.5 -27t25.5 -77
q0 -28 -7 -50t-19 -40t-32 -40q-29 -32 -42 -56t-13 -56v-25q0 -50 28.5 -79t78.5 -29q51 0 80 29t29 79v73q0 36 -18 55.5t-51 19.5h-3v90h3q20 0 36.5 9.5t25.5 27t9 39.5v52h121v-48q0 -50 -23 -80.5t-66 -45.5v-4q43 -13 66 -46t23 -83v-60q0 -64 -28.5 -110.5t-81 -71
t-123.5 -24.5z" />
    <glyph glyph-name="uni0E0C" unicode="&#xe0c;" horiz-adv-x="939" 
d="M694 -6q-58 0 -98.5 26t-63.5 70h-3v-90h-122v345q0 63 -31.5 95.5t-89.5 32.5q-54 0 -85.5 -26t-33.5 -72h109v-75q-49 -8 -70.5 -30.5t-21.5 -66.5v-36q0 -42 17.5 -58t59.5 -16q14 0 21 2v-95q-19 -4 -55 -4q-60 0 -96.5 15t-53.5 49t-17 89v33q0 54 22 87.5t69 50.5
v3h-106v29q0 66 30.5 116t86 77t128.5 27q69 0 123 -24.5t85 -72t31 -114.5v-124q0 -42 15 -72.5t41 -47t61 -16.5q45 0 73.5 28.5t28.5 85.5v346h124v-375q0 -60 -23 -103.5t-63 -66t-92 -22.5z" />
    <glyph glyph-name="uni0E0D" unicode="&#xe0d;" horiz-adv-x="939" 
d="M636 -209q-60 0 -109 18.5t-80 54.5t-38 87h126q8 -33 35.5 -51.5t66.5 -18.5q35 0 60.5 15t38.5 40.5t13 57.5v103h-2q-18 -41 -59.5 -67.5t-104.5 -26.5q-55 0 -94.5 21.5t-60.5 62t-21 98.5v160q0 64 -31 96t-90 32q-55 0 -86 -26t-33 -72h109v-75q-49 -8 -70.5 -30.5
t-21.5 -66.5v-36q0 -42 17.5 -58t58.5 -16q15 0 22 2v-95q-19 -4 -57 -4q-59 0 -95 15.5t-53 49t-17 88.5v33q0 54 22 87.5t69 50.5v3h-106v29q0 66 29.5 116t85 77t130.5 27q71 0 125 -24t84 -71t30 -114v-155q0 -48 27 -74.5t73 -26.5q36 0 63 16t41.5 45.5t14.5 68.5v324
h124v-561q0 -61 -29 -108.5t-82 -74t-125 -26.5z" />
    <glyph glyph-name="uni0E0E" unicode="&#xe0e;" horiz-adv-x="625" 
d="M88 -194q0 45 20 78.5t58.5 52.5t90.5 19q56 0 104 -20.5t73 -50.5h3v460q0 64 -33 96t-96 32q-57 0 -92.5 -26t-39.5 -72h111v-75q-29 -5 -43.5 -16t-20 -30t-5.5 -51v-62q0 -51 -15.5 -82t-49.5 -45.5t-90 -14.5q-17 0 -30 2v96h14q26 0 36.5 11t10.5 38v43
q0 57 15.5 88t57.5 43v3h-111v31q0 66 32.5 115.5t91 76t133.5 26.5q72 0 128.5 -24.5t88 -72.5t31.5 -116v-564h-120q-10 16 -33 32.5t-54 27.5t-63 11q-42 0 -64 -18.5t-22 -46.5v-6h-117v11z" />
    <glyph glyph-name="uni0E0F" unicode="&#xe0f;" horiz-adv-x="625" 
d="M441 -210q-43 0 -71 20t-42 53l-45 -68h-46l-39 66q-11 -31 -39.5 -48.5t-68.5 -17.5h-19v104h15q62 0 85 45h50l38 -62l43 62h55q8 -28 18.5 -42t29.5 -14q32 0 32 44v413q0 64 -33 96t-96 32q-57 0 -92.5 -26t-39.5 -72h111v-75q-29 -5 -43.5 -16t-20 -30t-5.5 -51v-62
q0 -51 -15.5 -82t-49.5 -45.5t-90 -14.5q-19 0 -30 2v96h14q26 0 36.5 11t10.5 38v43q0 57 15.5 88t57.5 43v3h-111v31q0 66 32.5 115.5t91 76t133.5 26.5q72 0 128.5 -24.5t88 -72.5t31.5 -116v-438q0 -63 -31.5 -97t-88.5 -34z" />
    <glyph glyph-name="uni0E10" unicode="&#xe10;" horiz-adv-x="600" 
d="M154 162q-10 23 -21.5 30t-32.5 7q-15 0 -31 -3v95q33 8 65 8q29 0 48.5 -6t34.5 -21.5t29 -43.5l61 -134h3q50 38 78 96t28 127q0 75 -34 115.5t-102 40.5q-46 0 -75 -20t-38 -56h-121q10 85 73 130t163 45q59 0 106 -19q16 -8 31 -17l37 50h135l-96 -119q16 -19 26 -43
q19 -46 19 -105q0 -101 -48.5 -182.5t-128.5 -136.5h-133zM391 -215q-45 0 -72 20t-46 54q-14 -34 -43 -51.5t-74 -17.5h-52v104h46q34 0 55.5 11t32.5 35h62q8 -25 23 -42t39 -17q18 0 29 10.5t11 29.5v19h108v-36q0 -58 -33 -88.5t-86 -30.5z" />
    <glyph glyph-name="uni0E11" unicode="&#xe11;" horiz-adv-x="632" 
d="M73 179q0 45 8 76.5t25 57.5t47 58l7 7q23 24 32.5 38t9.5 30q0 14 -7 21.5t-20 7.5q-17 0 -28 -13.5t-14 -40.5h-42q-4 23 -20 34.5t-36 11.5h-6v99h6q28 0 52.5 -17t34.5 -55h3q11 33 31 52t55 19q33 0 54.5 -16.5t21.5 -47.5q0 -10 -3 -22h3q31 49 67 68.5t81 19.5
q61 0 95 -32t34 -99v-436h-124v408q0 25 -11.5 38t-30.5 13q-24 0 -53 -23.5t-75 -77.5q-31 -36 -45.5 -58.5t-21 -48t-6.5 -63.5v-188h-124v179z" />
    <glyph glyph-name="uni0E12" unicode="&#xe12;" horiz-adv-x="991" 
d="M276 -7q-72 0 -122.5 35t-76.5 102t-26 162q0 82 19.5 143.5t58 96.5t96.5 35q37 0 64.5 -16t39.5 -48h4q17 33 47 48.5t67 15.5q64 0 99 -40t35 -112v-178q0 -42 14.5 -72.5t41 -47t60.5 -16.5q45 0 73.5 28.5t28.5 85.5v346h124v-375q0 -60 -23 -103.5t-63 -66
t-92 -22.5q-58 0 -98.5 26t-63.5 70h-3v-90h-122v402q0 31 -12.5 45.5t-32.5 14.5q-21 0 -33.5 -14.5t-12.5 -45.5v-18h-75v15q0 31 -13 47t-34 16q-33 0 -50.5 -41.5t-17.5 -121.5q0 -104 31.5 -155.5t100.5 -51.5q24 0 51 7v-95q-39 -11 -84 -11z" />
    <glyph glyph-name="uni0E13" unicode="&#xe13;" horiz-adv-x="942" 
d="M582 -6q-55 0 -94.5 22t-60 63.5t-20.5 98.5v167q0 63 -31.5 95.5t-89.5 32.5q-54 0 -85.5 -26t-33.5 -72h109v-75q-49 -8 -70.5 -30.5t-21.5 -66.5v-36q0 -42 17.5 -58t59.5 -16q14 0 21 2v-95q-19 -4 -55 -4q-60 0 -96.5 15t-53.5 49t-17 89v33q0 54 22 87.5t69 50.5v3
h-106v29q0 66 30.5 116t86 77t128.5 27q69 0 123 -24.5t85 -72t31 -114.5v-160q0 -48 27 -74t73 -26q36 0 63 16t41.5 45t14.5 68v331h124v-561h-123v90h-3q-17 -42 -59.5 -69t-104.5 -27z" />
    <glyph glyph-name="uni0E14" unicode="&#xe14;" horiz-adv-x="647" 
d="M291 -7q-75 0 -129 35t-82.5 99t-28.5 149q0 91 33 157.5t95.5 102t150.5 35.5q76 0 132.5 -25.5t87 -76.5t30.5 -124v-345h-124v340q0 67 -34 99t-93 32q-76 0 -114.5 -50.5t-38.5 -144.5q0 -85 34.5 -134.5t104.5 -49.5q26 0 52 7v-96q-36 -10 -76 -10z" />
    <glyph glyph-name="uni0E15" unicode="&#xe15;" horiz-adv-x="657" 
d="M280 -7q-112 0 -170.5 77.5t-58.5 220.5q0 82 19.5 144t58.5 96.5t98 34.5q39 0 67 -15.5t39 -48.5h4q33 64 118 64q65 0 100 -39.5t35 -111.5v-415h-124v402q0 31 -13 45.5t-35 14.5t-34.5 -14.5t-12.5 -45.5v-18h-75v15q0 31 -13 47t-36 16q-35 0 -52.5 -41.5
t-17.5 -121.5q0 -104 32 -155.5t104 -51.5q24 0 51 7v-95q-39 -11 -84 -11z" />
    <glyph glyph-name="uni0E16" unicode="&#xe16;" horiz-adv-x="611" 
d="M226 -4q-59 0 -96 15t-54 49t-17 89v33q0 54 22.5 87.5t69.5 48.5v3h-106v31q0 66 31.5 116t89 77t133.5 27q72 0 128.5 -24.5t88 -72.5t31.5 -116v-359h-124v345q0 64 -33 96t-97 32q-58 0 -90.5 -25.5t-35.5 -72.5h109v-75q-49 -8 -71 -30.5t-22 -66.5v-36
q0 -42 17.5 -58t59.5 -16q14 0 22 2v-95q-21 -4 -56 -4z" />
    <glyph glyph-name="uni0E17" unicode="&#xe17;" horiz-adv-x="630" 
d="M70 561h124v-96h3q25 48 68 75t106 27q57 0 100.5 -23t67.5 -67.5t24 -107.5v-369h-125v339q0 61 -31 91t-83 30q-40 0 -69 -17.5t-45 -50t-16 -76.5v-316h-124v561z" />
    <glyph glyph-name="uni0E18" unicode="&#xe18;" horiz-adv-x="575" 
d="M305 -12q-115 0 -177 45t-62 141v76h119v-73q0 -47 32 -69t88 -22q55 0 83 20.5t28 63.5v30q0 29 -15 43.5t-49 22.5l-297 68v67q0 78 45 119t130 41h281v-96h-278q-32 0 -47 -13.5t-15 -40.5v-8l232 -51q69 -15 100.5 -50.5t31.5 -96.5v-33q0 -93 -57 -138.5t-173 -45.5
z" />
    <glyph glyph-name="uni0E19" unicode="&#xe19;" horiz-adv-x="629" 
d="M259 -6q-58 0 -101.5 22.5t-67 67t-23.5 106.5v371h124v-342q0 -61 29.5 -89.5t80.5 -28.5q40 0 70 17.5t47 50t17 76.5v316h124v-561h-122v97h-3q-54 -103 -175 -103z" />
    <glyph glyph-name="uni0E1A" unicode="&#xe1a;" horiz-adv-x="624" 
d="M312 -12q-74 0 -129 26.5t-85.5 75.5t-30.5 116v355h124v-355q0 -55 33 -86.5t88 -31.5q35 0 62 14.5t43 41t16 62.5v355h124v-355q0 -67 -31 -116t-86.5 -75.5t-127.5 -26.5z" />
    <glyph glyph-name="uni0E1B" unicode="&#xe1b;" horiz-adv-x="632" 
d="M316 -12q-74 0 -130 26.5t-87.5 75.5t-31.5 116v355h124v-355q0 -37 16 -63.5t44 -40.5t65 -14t65 14.5t43.5 40.5t15.5 63v548h124v-548q0 -67 -31 -116t-87 -75.5t-130 -26.5z" />
    <glyph glyph-name="uni0E1C" unicode="&#xe1c;" horiz-adv-x="734" 
d="M545 164v397h122v-401q0 -81 -42 -126.5t-115 -45.5q-53 0 -90.5 25t-57.5 73h-5q-20 -48 -57.5 -73t-90.5 -25q-73 0 -115 45.5t-42 126.5v244q0 57 16.5 93t51.5 53t95 17q32 0 50 -4v-95q-8 2 -23 2q-25 0 -39.5 -6.5t-21.5 -22.5t-7 -45v-232q0 -76 63 -76
q64 0 64 76v232h118v-232q0 -76 64 -76q62 0 62 76z" />
    <glyph glyph-name="uni0E1D" unicode="&#xe1d;" horiz-adv-x="734" 
d="M545 164v590h122v-594q0 -81 -42 -126.5t-115 -45.5q-53 0 -90.5 25t-57.5 73h-5q-20 -48 -57.5 -73t-90.5 -25q-73 0 -115 45.5t-42 126.5v244q0 57 16.5 93t51.5 53t95 17q32 0 50 -4v-95q-8 2 -23 2q-25 0 -39.5 -6.5t-21.5 -22.5t-7 -45v-232q0 -76 63 -76
q64 0 64 76v232h118v-232q0 -76 64 -76q62 0 62 76z" />
    <glyph glyph-name="uni0E1F" unicode="&#xe1f;" horiz-adv-x="763" 
d="M791 754l-179 -754h-128l-102 409h-3l-101 -409h-127l-140 561h122l87 -431h3l101 431h116l102 -431h2l127 624h120z" />
    <glyph glyph-name="uni0E20" unicode="&#xe20;" horiz-adv-x="625" 
d="M63 -4q-16 0 -30 2v96h14q26 0 36.5 11t10.5 39v45q0 57 15.5 87.5t57.5 41.5v3h-111v33q0 66 32.5 115.5t91 76t133.5 26.5q72 0 128.5 -24.5t88 -72.5t31.5 -116v-359h-124v345q0 64 -33 96t-96 32q-57 0 -92.5 -26t-39.5 -72h111v-75q-29 -5 -43.5 -16t-20 -30
t-5.5 -51v-66q0 -50 -15.5 -81t-49.5 -45.5t-90 -14.5z" />
    <glyph glyph-name="uni0E21" unicode="&#xe21;" horiz-adv-x="629" 
d="M370 -6q-121 0 -175 103h-3v-97h-122v561h124v-316q0 -44 17 -76.5t47 -50t70 -17.5q49 0 79.5 29t30.5 89v342h124v-371q0 -62 -23.5 -106.5t-67 -67t-101.5 -22.5z" />
    <glyph glyph-name="uni0E22" unicode="&#xe22;" horiz-adv-x="606" 
d="M208 0q-46 0 -83 19t-57.5 53t-20.5 79q0 54 29 91t81 52v3q-45 11 -71 45.5t-26 83.5q0 40 18 70.5t51 47.5t76 17h122v-95h-82q-32 0 -51 -17.5t-19 -46.5q0 -30 20 -47.5t51 -17.5h80v-84h-66q-38 0 -60 -21t-22 -55q0 -36 23.5 -57t60.5 -21h150v462h124v-561h-328z
" />
    <glyph glyph-name="uni0E23" unicode="&#xe23;" horiz-adv-x="557" 
d="M289 -12q-70 0 -123.5 20t-85.5 59.5t-36 95.5h122q8 -38 40 -58.5t83 -20.5q47 0 72.5 17.5t25.5 49.5q0 26 -20 41.5t-68 28.5l-74 19q-86 22 -128 62.5t-42 102.5q0 54 28 91.5t77.5 56.5t112.5 19q65 0 115.5 -20t80 -57.5t31.5 -89.5h-122q-2 33 -31.5 52t-77.5 19
q-42 0 -68 -16t-26 -47q0 -21 12 -35t33.5 -23t55.5 -18l82 -20q76 -19 115 -56.5t39 -102.5q0 -53 -27 -91.5t-77 -58.5t-119 -20z" />
    <glyph glyph-name="uni0E24" unicode="&#xe24;" horiz-adv-x="611" 
d="M423 345q0 64 -33 96t-97 32q-58 0 -90.5 -25.5t-35.5 -72.5h109v-75q-49 -8 -70.5 -30.5t-21.5 -66.5v-36q0 -42 17.5 -58t58.5 -16q15 0 22 2v-95q-19 -4 -55 -4q-60 0 -96.5 15t-53.5 49t-17 89v33q0 54 22 87.5t69 50.5v3h-106v29q0 66 31.5 116t89 77t133.5 27
q72 0 128.5 -24.5t88 -72.5t31.5 -116v-564h-124v550z" />
    <glyph glyph-name="uni0E25" unicode="&#xe25;" horiz-adv-x="605" 
d="M229 -7q-51 0 -92 17.5t-64.5 53t-23.5 88.5q0 70 45 113.5t139 51.5l181 16v42q0 48 -29 72.5t-81 24.5q-51 0 -82 -22.5t-35 -63.5h-124q2 57 33 99.5t85 64.5t125 22q69 0 121 -21t81.5 -64.5t29.5 -107.5v-379h-124v245l-150 -13q-41 -3 -66 -21t-25 -53
q0 -33 23 -51t66 -18q31 0 59 9v-91q-43 -14 -92 -14z" />
    <glyph glyph-name="uni0E26" unicode="&#xe26;" horiz-adv-x="625" 
d="M437 345q0 64 -33 96t-96 32q-57 0 -92.5 -26t-39.5 -72h111v-75q-29 -5 -43.5 -16t-20 -30t-5.5 -51v-66q0 -50 -15.5 -81t-49.5 -45.5t-90 -14.5q-13 0 -30 2v96h14q26 0 36.5 11t10.5 39v45q0 57 15.5 88t57.5 43v3h-111v31q0 66 32.5 115.5t91 76t133.5 26.5
q72 0 128.5 -24.5t88 -72.5t31.5 -116v-564h-124v550z" />
    <glyph glyph-name="uni0E27" unicode="&#xe27;" horiz-adv-x="588" 
d="M284 -12q-98 0 -158.5 47t-75.5 132h122q10 -38 38 -58.5t72 -20.5q65 0 98 50t33 141q0 93 -34 143t-97 50q-46 0 -77.5 -24.5t-39.5 -69.5h-120q7 60 37.5 103.5t81 67t118.5 23.5q80 0 137.5 -34.5t88 -100t30.5 -157.5q0 -89 -29.5 -155t-86.5 -101.5t-138 -35.5z
" />
    <glyph glyph-name="uni0E28" unicode="&#xe28;" horiz-adv-x="637" 
d="M67 346q0 71 31 122t87 77.5t129 26.5q56 0 100 -18q20 -9 37 -21l41 53h135l-100 -123q10 -13 18 -27q19 -41 19 -95v-341h-124v346q0 60 -33.5 93t-92.5 33t-92.5 -33t-33.5 -93v-117h3q13 39 46.5 58.5t75.5 19.5q20 0 39 -4v-103q-17 2 -34 2q-62 0 -96 -34t-34 -97
v-71h-121v346z" />
    <glyph glyph-name="uni0E29" unicode="&#xe29;" horiz-adv-x="650" 
d="M315 -12q-74 0 -130.5 27t-87 77t-30.5 117v352h124v-352q0 -37 15.5 -64t43.5 -42t65 -15t65.5 15t44.5 42.5t16 63.5v67h-128v97h128v188h124v-188h61v-97h-61v-67q0 -67 -31.5 -117t-88 -77t-130.5 -27z" />
    <glyph glyph-name="uni0E2A" unicode="&#xe2a;" horiz-adv-x="605" 
d="M229 -7q-51 0 -92 17.5t-64.5 53t-23.5 88.5q0 70 45 113.5t139 51.5l181 16v42q0 48 -29 72.5t-81 24.5q-51 0 -82 -22.5t-35 -63.5h-124q2 57 33 99.5t84 64.5t122 22q77 0 127 -33l36 47h135l-93 -115q7 -9 12 -18q19 -37 19 -85v-368h-124v245l-150 -13
q-41 -3 -66 -21t-25 -53q0 -33 23 -51t66 -18q31 0 59 9v-91q-43 -14 -92 -14z" />
    <glyph glyph-name="uni0E2B" unicode="&#xe2b;" horiz-adv-x="609" 
d="M70 561h124v-172h111q61 0 89 31.5t28 97.5v43h124v-43q0 -72 -30 -114t-92 -56v-2q46 -7 72.5 -26.5t38 -51.5t11.5 -79v-189h-124v179q0 40 -10 64t-33.5 35t-65.5 11h-119v-289h-124v561z" />
    <glyph glyph-name="uni0E2C" unicode="&#xe2c;" horiz-adv-x="724" 
d="M545 164v304q0 43 -18.5 63.5t-60.5 20.5h-97v84h115q30 0 50.5 6.5t33 25.5t15.5 54h126q-6 -69 -45 -104q-31 -28 -77 -33q24 -7 39 -18q23 -16 32 -41.5t9 -66.5v-299q0 -81 -42 -126.5t-115 -45.5q-53 0 -90.5 25t-57.5 73h-5q-20 -48 -57.5 -73t-90.5 -25
q-73 0 -115 45.5t-42 126.5v401h122v-397q0 -76 63 -76q64 0 64 76v232h118v-232q0 -76 64 -76q62 0 62 76z" />
    <glyph glyph-name="uni0E2D" unicode="&#xe2d;" horiz-adv-x="626" 
d="M310 -13q-79 0 -137 31t-89.5 90t-31.5 140v60h238v-82h-113v-6q1 -41 17.5 -71t46.5 -46t68 -16q69 0 105.5 51t36.5 142t-37 141t-105 50q-48 0 -82.5 -24.5t-42.5 -69.5h-125q9 63 44 106.5t89 65.5t118 22q83 0 143 -35t92 -101t32 -156q0 -87 -31.5 -153
t-91.5 -102.5t-144 -36.5z" />
    <glyph glyph-name="uni0E2E" unicode="&#xe2e;" horiz-adv-x="630" 
d="M309 -13q-78 0 -136 31t-89.5 90t-31.5 140v60h238v-82h-113v-6q1 -41 17.5 -71t46.5 -46t68 -16q69 0 105.5 51t36.5 142t-37 141t-105 50q-48 0 -82.5 -24.5t-42.5 -69.5h-125q9 62 43.5 106t87 66t114.5 22q56 0 101 -17q23 -9 42 -22l41 54h135l-100 -124
q17 -21 29 -48q25 -57 25 -135q0 -87 -31.5 -153t-91.5 -102.5t-145 -36.5z" />
    <glyph glyph-name="uni0E2F" unicode="&#xe2f;" horiz-adv-x="588" 
d="M394 295h-3q-17 -31 -57.5 -52t-98.5 -21q-57 0 -100.5 22t-67.5 62.5t-24 95.5q0 56 25 93.5t67 56t94 18.5q17 0 36 -2t34 -6v-92q-20 4 -41 4q-40 0 -65.5 -19t-25.5 -55t25.5 -58t71.5 -22q60 0 95 40.5t35 115.5v85h124v-561h-124v295z" />
    <glyph glyph-name="uni0E30" unicode="&#xe30;" horiz-adv-x="340" 
d="M180 330q-48 0 -78 11.5t-44.5 37.5t-14.5 71v37h120v-24q0 -20 9 -28t28 -8h100v-97h-120zM180 35q-48 0 -78 11.5t-44.5 37.5t-14.5 71v36h120v-24q0 -20 9 -28t28 -8h100v-96h-120z" />
    <glyph glyph-name="uni0E31" unicode="&#xe31;" 
d="M-208 631q-69 0 -101.5 30.5t-32.5 95.5v29h117v-24q0 -22 10 -31.5t31 -9.5h229v-90h-253z" />
    <glyph glyph-name="uni0E32" unicode="&#xe32;" horiz-adv-x="534" 
d="M342 378q0 49 -25 72t-69 23q-46 0 -71.5 -23.5t-28.5 -65.5h-121q3 59 31 101t77.5 64.5t115.5 22.5q64 0 112.5 -21.5t75.5 -64.5t27 -106v-380h-124v378z" />
    <glyph glyph-name="uni0E33" unicode="&#xe33;" horiz-adv-x="534" 
d="M-86 616q-32 0 -57.5 13t-40 35.5t-14.5 50.5q0 29 14.5 51.5t40 35t57.5 12.5t57.5 -12.5t40 -35t14.5 -51.5q0 -28 -14.5 -50.5t-40 -35.5t-57.5 -13zM-86 677q16 0 27 11t11 27t-11 27t-27 11t-27 -11t-11 -27t11 -27t27 -11zM372 378q0 49 -25.5 72t-69.5 23
q-46 0 -71.5 -23.5t-28.5 -65.5h-121q4 59 32 101t77 64.5t116 22.5q64 0 112 -21.5t75.5 -64.5t27.5 -106v-380h-124v378z" />
    <glyph glyph-name="uni0E34" unicode="&#xe34;" 
d="M-523 721h460v-90h-460v90z" />
    <glyph glyph-name="uni0E35" unicode="&#xe35;" 
d="M-523 721h351v71h109v-161h-460v90z" />
    <glyph glyph-name="uni0E36" unicode="&#xe36;" 
d="M-523 721h268q1 24 13 42q13 19 35.5 30t49.5 11q31 0 54 -11t36 -30.5t13 -45.5t-13.5 -45.5t-36.5 -30t-53 -10.5h-366v90zM-157 681q17 0 27 10t10 25q0 17 -10 27t-27 10q-16 0 -26.5 -10t-10.5 -27q0 -15 10.5 -25t26.5 -10z" />
    <glyph glyph-name="uni0E37" unicode="&#xe37;" 
d="M-523 721h210v71h97v-71h55v71h98v-161h-460v90z" />
    <glyph glyph-name="uni0E38" unicode="&#xe38;" 
d="M-168 -155q0 18 -27 18q-15 0 -20 -1v73q12 3 29 5t30 2q43 0 68 -15.5t25 -45.5v-145h-105v109z" />
    <glyph glyph-name="uni0E39" unicode="&#xe39;" 
d="M-208 -268q-71 0 -107.5 26.5t-36.5 72.5v14q0 18 -26 18q-15 0 -20 -1v73q11 3 28 5t31 2q44 0 68 -12.5t24 -41.5v-45q0 -15 9.5 -24t28.5 -9q18 0 28.5 9t10.5 24v95h107v-106q0 -48 -37.5 -74t-107.5 -26z" />
    <glyph glyph-name="uni0E3A" unicode="&#xe3a;" 
d="M-123 -204q-20 0 -36.5 9t-26.5 25.5t-10 37.5t10 37.5t26.5 26t36.5 9.5t37 -9.5t27 -26t10 -37.5t-10 -37.5t-27 -25.5t-37 -9z" />
    <glyph glyph-name="uni0E3F" unicode="&#xe3f;" horiz-adv-x="632" 
d="M417 369q36 -3 65.5 -17t50.5 -36.5t32.5 -51.5t11.5 -64q0 -94 -64 -147t-178 -53h-13v-66h-67v66h-200v705h200v73h67v-73h6q101 0 158 -47.5t57 -128.5q0 -28 -9.5 -53.5t-26.5 -45.5t-40 -34t-50 -18v-9zM179 408h76v198h-76v-198zM322 410q99 14 99 97
q0 42 -25.5 67.5t-73.5 30.5v-195zM322 99q127 4 127 110q0 102 -127 109v-219zM255 98v220h-76v-220h76z" />
    <glyph glyph-name="uni0E40" unicode="&#xe40;" horiz-adv-x="322" 
d="M237 -4q-60 0 -94.5 13.5t-49.5 44t-15 83.5v424h124v-408q0 -33 12 -46.5t40 -13.5q14 0 24 2v-95q-7 -2 -19 -3t-22 -1z" />
    <glyph glyph-name="uni0E41" unicode="&#xe41;" horiz-adv-x="583" 
d="M266 -4q-60 0 -94.5 13.5t-49.5 44t-15 83.5v424h124v-408q0 -33 12 -46.5t41 -13.5q13 0 24 2v-95q-8 -2 -20 -3t-22 -1zM528 -4q-60 0 -94.5 13.5t-49.5 44t-15 83.5v424h124v-408q0 -33 12 -46.5t40 -13.5q14 0 24 2v-95q-7 -2 -19 -3t-22 -1z" />
    <glyph glyph-name="uni0E42" unicode="&#xe42;" horiz-adv-x="359" 
d="M276 -4q-60 0 -94.5 13.5t-49.5 44t-15 83.5v458q0 61 -14 94.5t-39.5 48.5t-72.5 26v35q0 62 37.5 94.5t115.5 32.5h253v-93h-265q-18 0 -27 -5.5t-9 -16.5q75 -19 110 -72t35 -144v-442q0 -33 12 -46.5t41 -13.5q13 0 23 2v-95q-7 -2 -19 -3t-22 -1z" />
    <glyph glyph-name="uni0E43" unicode="&#xe43;" horiz-adv-x="359" 
d="M279 -4q-60 0 -94.5 13.5t-49.5 44t-15 83.5v394q0 51 18.5 89t52.5 75q28 31 41.5 51t13.5 42q0 27 -20.5 41.5t-56.5 14.5q-73 0 -77 -64h-113q2 49 26 84t67.5 54t103.5 19q56 0 98 -16.5t64.5 -48t22.5 -76.5q0 -26 -7.5 -48t-19 -40t-30.5 -41q-29 -36 -44.5 -67
t-15.5 -71v-376q0 -33 12 -46.5t41 -13.5q13 0 23 2v-95q-7 -2 -19 -3t-22 -1z" />
    <glyph glyph-name="uni0E44" unicode="&#xe44;" horiz-adv-x="376" 
d="M300 -4q-60 0 -94.5 13.5t-49.5 44t-15 83.5v450q0 91 31.5 150.5t99.5 91.5v4h-240l30 93h343v-80q-71 -28 -105.5 -94t-34.5 -165v-434q0 -33 12 -46.5t41 -13.5q13 0 24 2v-95q-8 -2 -20 -3t-22 -1z" />
    <glyph glyph-name="uni0E45" unicode="&#xe45;" horiz-adv-x="534" 
d="M342 378q0 49 -25 72t-69 23q-46 0 -71.5 -23.5t-28.5 -65.5h-121q3 59 31 101t77.5 64.5t115.5 22.5q64 0 112.5 -21.5t75.5 -64.5t27 -106v-585h-124v583z" />
    <glyph glyph-name="uni0E46" unicode="&#xe46;" horiz-adv-x="686" 
d="M432 397q0 72 -47 72q-23 0 -35.5 -16.5t-12.5 -50.5v-32h-66v32q0 34 -12 50.5t-33 16.5q-26 0 -39.5 -22.5t-13.5 -59.5q0 -43 20 -68t57 -25q16 0 25 2v-96q-22 -5 -50 -5q-53 0 -92 23.5t-60 68t-21 104.5q0 52 17 93t49.5 64t78.5 23q38 0 65 -17.5t39 -49.5h4
q12 32 41 49.5t72 17.5q66 0 102 -43t36 -121v-612h-124v602z" />
    <glyph glyph-name="uni0E47" unicode="&#xe47;" 
d="M-192 625q-35 0 -57.5 17.5t-33.5 44.5l-40 -60h-16q-37 0 -65.5 13.5t-44.5 39.5t-16 61q0 34 15 61t43.5 42t66.5 15h249v-74h-231q-20 0 -32 -12.5t-12 -32.5q0 -18 10.5 -28t26.5 -11l32 42h42q6 -21 14.5 -31.5t23.5 -10.5q27 0 27 31v12h92v-14q0 -51 -25 -78
t-69 -27z" />
    <glyph glyph-name="uni0E48" unicode="&#xe48;" 
d="M-171 1031h108v-175h-108v175z" />
    <glyph glyph-name="uni0E49" unicode="&#xe49;" 
d="M-239 912q0 18 -7 25.5t-26 7.5h-28v79h89q73 0 73 -67v-22h151v-79h-252v56z" />
    <glyph glyph-name="uni0E4A" unicode="&#xe4a;" 
d="M-339 928q0 43 23.5 67.5t64.5 24.5q31 0 52 -13t27 -37h3q6 24 26.5 37t52.5 13q38 0 60 -20.5t22 -54.5v-10h79v-79h-166v48q0 14 -6.5 22.5t-18.5 8.5t-19 -8.5t-7 -22.5v-13h-49v13q0 14 -6.5 22.5t-18.5 8.5t-19 -8.5t-7 -22.5v-48h-93v72z" />
    <glyph glyph-name="uni0E4B" unicode="&#xe4b;" 
d="M-168 912h-79v73h79v54h105v-54h81v-73h-81v-56h-105v56z" />
    <glyph glyph-name="uni0E4C" unicode="&#xe4c;" 
d="M-257 875q0 65 35 98.5t105 33.5h126v-89h-100q-24 0 -36.5 -12t-12.5 -36v-14h-117v19z" />
    <glyph glyph-name="uni0E4D" unicode="&#xe4d;" 
d="M-131 616q-32 0 -57.5 13t-40 35.5t-14.5 50.5q0 29 14.5 51.5t40 35t57.5 12.5t57.5 -12.5t40 -35t14.5 -51.5q0 -28 -14.5 -50.5t-40 -35.5t-57.5 -13zM-131 677q16 0 27 11t11 27t-11 27t-27 11t-26.5 -11t-10.5 -27t10.5 -27t26.5 -11z" />
    <glyph glyph-name="uni0E4E" unicode="&#xe4e;" 
d="M-172 624q-46 0 -73.5 19t-27.5 55q0 32 19.5 50.5t51.5 18.5h14q-9 5 -14.5 15.5t-5.5 22.5q0 19 14 30t38 11h103v-51h-45q-24 0 -24 -19q0 -9 6 -15.5t16 -9.5v-28h-58q-27 0 -27 -20q0 -25 40 -25q15 0 27 4v-52q-25 -6 -54 -6z" />
    <glyph glyph-name="uni0E4F" unicode="&#xe4f;" horiz-adv-x="653" 
d="M327 14q-66 0 -119 30.5t-83.5 84t-30.5 119.5q0 65 30.5 118t83.5 83.5t119 30.5q65 0 118.5 -30.5t84 -83.5t30.5 -118q0 -66 -30.5 -119.5t-84 -84t-118.5 -30.5zM327 78q47 0 85 22.5t60.5 61t22.5 86.5q0 47 -22 86t-60.5 61t-85.5 22t-85.5 -22t-60.5 -61t-22 -86
q0 -48 22 -86.5t60.5 -61t85.5 -22.5zM327 122q-35 0 -64 16.5t-45 45t-16 64.5q0 35 16 63.5t45 45.5t64 17q34 0 63 -17t45.5 -45.5t16.5 -63.5q0 -36 -16.5 -64.5t-45 -45t-63.5 -16.5zM327 174q20 0 36.5 9.5t26 26.5t9.5 38q0 20 -9.5 37t-26 26.5t-36.5 9.5
t-36.5 -9.5t-26 -26.5t-9.5 -37q0 -21 9.5 -38t26 -26.5t36.5 -9.5z" />
    <glyph glyph-name="uni0E50" unicode="&#xe50;" horiz-adv-x="625" 
d="M313 -10q-74 0 -132 32t-91 90.5t-33 134.5t33 134t91 90.5t132 32.5q73 0 131 -32.5t91 -90.5t33 -134t-33 -134.5t-91 -90.5t-131 -32zM313 88q37 0 67 18.5t47 54.5t17 86t-17 85.5t-47 54t-67 18.5q-38 0 -68 -18.5t-47 -54t-17 -85.5t17 -86t47 -54.5t68 -18.5z" />
    <glyph glyph-name="uni0E51" unicode="&#xe51;" horiz-adv-x="605" 
d="M207 66q112 2 163.5 50t51.5 140q0 74 -32 111.5t-92 37.5q-52 0 -84 -26.5t-32 -73.5q0 -28 11 -50t32 -34.5t49 -12.5q10 0 20 1v-86q-23 -4 -42 -4q-54 0 -98 22t-68.5 63.5t-24.5 98.5q0 61 29 106.5t83 69.5t126 24q77 0 132.5 -28.5t85 -83.5t29.5 -133
q0 -91 -40 -154.5t-116.5 -97t-182.5 -33.5v93z" />
    <glyph glyph-name="uni0E52" unicode="&#xe52;" horiz-adv-x="724" 
d="M367 -10q-295 0 -295 237v404h121v-386q0 -52 17 -86t57 -52t108 -18q64 0 101.5 16.5t53 48t15.5 78.5v129q0 50 -35 50q-17 0 -25.5 -11.5t-8.5 -32.5v-18h-58v18q0 21 -8.5 32.5t-23.5 11.5q-18 0 -27 -18t-9 -49q0 -39 17 -57t52 -18q13 0 22 2v-82q-17 -3 -42 -3
q-76 0 -116.5 40t-40.5 123q0 74 29.5 114.5t88.5 40.5q67 0 88 -59h3q10 30 33 44.5t60 14.5q58 0 87.5 -33t29.5 -98v-149q0 -234 -294 -234z" />
    <glyph glyph-name="uni0E53" unicode="&#xe53;" horiz-adv-x="685" 
d="M250 -5q-98 0 -142 68t-44 194q0 247 161 247q48 0 77 -22t42 -59h3q14 37 47 58.5t80 21.5q42 0 74 -17t50 -49.5t18 -76.5v-360h-121v337q0 30 -13 46t-39 16t-39 -17t-13 -49v-158h-93v158q0 33 -13.5 49.5t-38.5 16.5q-22 0 -35 -13.5t-19.5 -45.5t-6.5 -88
q0 -55 7.5 -89t27 -52.5t56.5 -18.5q23 0 38 3v-93q-33 -7 -64 -7z" />
    <glyph glyph-name="uni0E54" unicode="&#xe54;" horiz-adv-x="609" 
d="M303 0q-125 0 -183.5 62.5t-58.5 184.5q0 253 254 253h45q41 0 59 17t18 55v59h122v-81q0 -75 -37.5 -112t-114.5 -37h-60q-56 0 -91.5 -14.5t-53 -48.5t-17.5 -93q0 -75 29.5 -111.5t98.5 -36.5h70v3q-19 16 -29 42t-10 56q0 61 35.5 90.5t95.5 29.5q15 0 30.5 -1.5
t21.5 -3.5v-83q-6 1 -18 1q-55 0 -55 -54q0 -39 20 -59.5t58 -20.5h27v-97h-256z" />
    <glyph glyph-name="uni0E55" unicode="&#xe55;" horiz-adv-x="609" 
d="M303 0q-125 0 -183.5 62.5t-58.5 182.5q0 89 33 145.5t99 83.5v1q-27 23 -27 61q0 27 13.5 48.5t37 34t53.5 12.5q29 0 52.5 -12t37.5 -33.5t14 -48.5q0 -19 -10 -34v-3h13q35 0 50.5 17.5t15.5 51.5v62h116v-85q0 -75 -37.5 -111.5t-114.5 -36.5h-60q-56 0 -91.5 -14.5
t-53 -48.5t-17.5 -91q0 -74 30 -110.5t98 -36.5h70v3q-19 16 -29 42t-10 56q0 61 35.5 90.5t95.5 29.5q15 0 30.5 -1.5t21.5 -3.5v-83q-6 1 -18 1q-55 0 -55 -54q0 -39 20 -59.5t58 -20.5h27v-97h-256zM270 496q16 0 27.5 11.5t11.5 28.5t-11.5 28.5t-27.5 11.5
q-17 0 -28.5 -11.5t-11.5 -28.5t11.5 -28.5t28.5 -11.5z" />
    <glyph glyph-name="uni0E56" unicode="&#xe56;" horiz-adv-x="609" 
d="M302 -10q-67 0 -119 27t-80.5 76t-28.5 113v30h184v-75h-62q2 -18 14.5 -35t35 -28t53.5 -11q41 0 70 20t44.5 56t15.5 85q0 74 -35.5 115t-96.5 41q-44 0 -75.5 -20.5t-46.5 -55.5h-92l-54 303h118l27 -177h3q22 24 58 37t80 13q71 0 124.5 -31.5t83 -88.5t29.5 -132
q0 -77 -31 -136t-87.5 -92.5t-131.5 -33.5z" />
    <glyph glyph-name="uni0E57" unicode="&#xe57;" horiz-adv-x="854" 
d="M250 -5q-98 0 -142 67.5t-44 192.5q0 127 41.5 188t117.5 61q46 0 75 -21.5t40 -55.5h3q11 34 43 55t75 21q39 0 70 -17t49 -48.5t18 -73.5v-266h7q35 0 51 26.5t16 89.5v417h121v-416q0 -109 -51.5 -162t-155.5 -53h-102v339q0 29 -12.5 45.5t-36.5 16.5t-36.5 -17
t-12.5 -49v-146h-92v146q0 32 -13 49t-36 17q-30 0 -44 -34.5t-14 -113.5q0 -54 7.5 -88t27.5 -53t56 -19q23 0 38 3v-94q-33 -7 -64 -7z" />
    <glyph glyph-name="uni0E58" unicode="&#xe58;" horiz-adv-x="656" 
d="M468 -6q-51 0 -86.5 31t-49.5 82h-3l-56 -108h-27q-56 0 -97.5 27.5t-64.5 81.5t-23 132q0 84 28 142t81 88t127 30h82q44 0 64.5 19t20.5 59v53h120v-71q0 -81 -40 -120t-122 -39h-96q-70 0 -105.5 -41.5t-35.5 -124.5q0 -56 16.5 -91t43.5 -42l57 102h72
q3 -49 19.5 -77t45.5 -28q23 0 36 14t13 42v50h-50v77h165v-134q0 -74 -35.5 -114t-99.5 -40z" />
    <glyph glyph-name="uni0E59" unicode="&#xe59;" horiz-adv-x="631" 
d="M263 -4q-101 0 -150 63t-49 197q0 131 47.5 191t138.5 60q45 0 74.5 -13t46.5 -41h3q2 18 8.5 29t17.5 16.5t29 10.5q21 6 32.5 11.5t18.5 16.5t7 31v63h118v-72q0 -46 -12 -72t-33 -37.5t-60 -24.5q-20 -6 -31 -11.5t-18 -16.5t-7 -30q0 -15 3.5 -30.5t10.5 -34.5
l122 -302h-124l-135 351q-11 30 -27.5 41.5t-37.5 11.5q-32 0 -51.5 -35.5t-19.5 -115.5q0 -60 11 -95t33 -50t59 -15q20 0 36 3v-94q-27 -6 -61 -6z" />
    <glyph glyph-name="uni0E5A" unicode="&#xe5a;" horiz-adv-x="795" 
d="M423 295h-3q-17 -31 -57.5 -52t-97.5 -21t-100.5 22t-68 62.5t-24.5 95.5q0 56 25 93.5t67.5 56t94.5 18.5q16 0 35 -2t34 -6v-92q-20 4 -41 4q-40 0 -65 -19t-25 -55t25.5 -58t70.5 -22q61 0 95.5 40.5t34.5 115.5v85h124v-561h-124v295zM601 561h124v-561h-124v561z
" />
    <glyph glyph-name="uni0E5B" unicode="&#xe5b;" horiz-adv-x="1228" 
d="M345 24q-81 0 -141.5 33t-93 92t-32.5 137q0 72 27 126t78 83.5t121 29.5q63 0 108.5 -26t69.5 -75t24 -114h-110q0 56 -23 86.5t-64 30.5q-32 0 -56.5 -17t-38 -47.5t-13.5 -69.5q0 -51 19.5 -89t55.5 -59t84 -21q67 0 115 40t74 112t28 168h96l56 -199h3l44 175h75
l48 -168h3l37 144h63q19 -160 121 -160q18 0 41 6v-88q-20 -8 -48 -8q-55 0 -92.5 30.5t-47.5 84.5h-3l-43 -158h-62l-53 192h-2l-46 -209h-76l-48 198h-4q-14 -81 -54.5 -139.5t-102 -89.5t-137.5 -31z" />
    <glyph glyph-name="endash" unicode="&#x2013;" horiz-adv-x="500" 
d="M0 230v111h500v-111h-500z" />
    <glyph glyph-name="emdash" unicode="&#x2014;" horiz-adv-x="1000" 
d="M0 230v111h1000v-111h-1000z" />
    <glyph glyph-name="quoteleft" unicode="&#x2018;" horiz-adv-x="280" 
d="M221 705l-43 -266h-119l69 266h93z" />
    <glyph glyph-name="quoteright" unicode="&#x2019;" horiz-adv-x="280" 
d="M60 439l41 266h119l-66 -266h-94z" />
    <glyph glyph-name="quotesinglbase" unicode="&#x201a;" horiz-adv-x="280" 
d="M63 -149l41 265h119l-66 -265h-94z" />
    <glyph glyph-name="quotedblbase" unicode="&#x201e;" horiz-adv-x="494" 
d="M63 -149l41 265h118l-66 -265h-93zM272 -149l41 265h119l-66 -265h-94z" />
    <glyph glyph-name="dagger" unicode="&#x2020;" horiz-adv-x="484" 
d="M293 273h-102v260h-120v96h120v131h102v-131h120v-96h-120v-260z" />
    <glyph glyph-name="daggerdbl" unicode="&#x2021;" horiz-adv-x="484" 
d="M293 375v-102h-102v102h-120v90h121v100h-121v90h120v105h102v-105h120v-90h-121v-100h121v-90h-120z" />
    <glyph glyph-name="bullet" unicode="&#x2022;" horiz-adv-x="484" 
d="M242 110q-34 0 -63.5 13t-52 35.5t-35.5 52.5t-13 64t13 64t35.5 52.5t52 35.5t63.5 13t64 -13t52.5 -35.5t35.5 -52.5t13 -64t-13 -64t-35.5 -52.5t-52.5 -35.5t-64 -13z" />
    <glyph glyph-name="ellipsis" unicode="&#x2026;" horiz-adv-x="786" 
d="M135 -5q-30 0 -50.5 20t-20.5 50q0 29 20.5 49.5t50.5 20.5q29 0 49.5 -20.5t20.5 -49.5q0 -30 -20.5 -50t-49.5 -20zM393 -5q-29 0 -49.5 20t-20.5 50q0 29 20.5 49.5t49.5 20.5t49.5 -20.5t20.5 -49.5q0 -30 -20.5 -50t-49.5 -20zM651 -5q-29 0 -49 20t-20 50
q0 29 20 49.5t49 20.5q30 0 50.5 -20.5t20.5 -49.5q0 -30 -20.5 -50t-50.5 -20z" />
    <glyph glyph-name="perthousand" unicode="&#x2030;" horiz-adv-x="1142" 
d="M335 537q0 -84 -42 -132.5t-114 -48.5t-114 48.5t-42 132.5q0 82 42 130.5t114 48.5t114 -48.5t42 -130.5zM82 0l515 705h106l-515 -705h-106zM179 433q27 0 42.5 27.5t15.5 76.5t-15.5 76.5t-42.5 27.5t-42.5 -27.5t-15.5 -76.5t15.5 -76.5t42.5 -27.5zM762 171
q0 -83 -42 -131.5t-114 -48.5t-114 48.5t-42 131.5t42 131.5t114 48.5t114 -48.5t42 -131.5zM1120 171q0 -83 -42.5 -131.5t-114.5 -48.5q-71 0 -113 48.5t-42 131.5t42 131.5t113 48.5q72 0 114.5 -48.5t42.5 -131.5zM606 67q27 0 42.5 28t15.5 76q0 49 -15.5 76.5
t-42.5 27.5t-42.5 -27.5t-15.5 -76.5q0 -48 15.5 -76t42.5 -28zM963 67q28 0 43 28t15 76q0 49 -15 76.5t-43 27.5q-26 0 -41.5 -27.5t-15.5 -76.5q0 -48 15.5 -76t41.5 -28z" />
    <glyph glyph-name="guilsinglleft" unicode="&#x2039;" horiz-adv-x="984" 
d="M471 197h-247l-88 -197h-127l313 705h597v-106h-330v-194h312v-101h-312v-198h330v-106h-448v197zM264 295h207v310h-71z" />
    <glyph glyph-name="guilsinglright" unicode="&#x203a;" horiz-adv-x="409" 
d="M59 479h120l171 -201v-4l-169 -202h-122l170 201v6z" />
    <glyph glyph-name="Euro" unicode="&#x20ac;" horiz-adv-x="632" 
d="M263 239q27 -70 86 -107t139 -37q29 0 56.5 2t42.5 7v-107q-17 -5 -44.5 -7.5t-55.5 -2.5q-67 0 -125 16.5t-104.5 48t-79 79t-48.5 108.5h-94v74h82q-1 9 -1 18.5v20.5v20.5t1 19.5h-82v73h94q16 62 48.5 109t79 78.5t104.5 48t125 16.5q26 0 54 -3t45 -8v-106
q-17 4 -44 6.5t-53 2.5q-80 0 -139.5 -36.5t-86.5 -107.5h262v-73h-279q-2 -10 -2 -19.5v-20.5t0.5 -20.5t1.5 -18.5h279v-74h-262z" />
    <glyph glyph-name="infinity" unicode="&#x221e;" horiz-adv-x="634" 
d="M37 0v561h561v-561h-561zM147 423v-285h54v130h66v50h-66v55h107v50h-161zM359 138v89h5l61 -89h64l-75 98q25 5 38.5 22.5t13.5 43.5q0 31 -21 51t-63 20h-74v-235h51zM359 331h12q44 0 44 -31q0 -32 -44 -32h-12v63z" />
    <glyph glyph-name="maitholowleftthai" 
d="M-497 687q0 17 -7.5 24t-26.5 7h-27v81h89q73 0 73 -67v-20h135v-81h-236v56z" />
    <glyph glyph-name="maitrilowleftthai" 
d="M-604 718q0 40 20.5 61.5t57.5 21.5q28 0 47.5 -13t26.5 -34h3q6 20 25.5 33.5t47.5 13.5q34 0 54.5 -20t20.5 -52v-19h61v-80h-150v55q0 28 -20 28t-20 -28v-13h-40v13q0 28 -21 28q-20 0 -20 -28v-55h-93v88z" />
    <glyph glyph-name="maichattawalowleftthai" 
d="M-433 687h-69v73h69v53h106v-53h71v-73h-71v-56h-106v56z" />
    <glyph glyph-name="thanthakhatlowleftthai" 
d="M-510 653q0 65 33.5 98.5t100.5 33.5h116v-89h-82q-49 0 -49 -48v-17h-119v22z" />
    <glyph glyph-name="maitholowrightthai" 
d="M-289 687q0 17 -7 24t-26 7h-28v81h91q73 0 73 -67v-20h169v-81h-272v56z" />
    <glyph glyph-name="maitrilowrightthai" 
d="M-458 710q0 42 25.5 67.5t69.5 25.5q33 0 56 -13.5t29 -37.5h4q6 24 28.5 37.5t56.5 13.5q43 0 68.5 -23t25.5 -60v-8h113v-81h-209v55q0 15 -8 23t-21 8t-20.5 -8t-7.5 -23v-13h-55v13q0 15 -7.5 23t-21.5 8q-12 0 -20 -8t-8 -23v-55h-98v79z" />
    <glyph glyph-name="maichattawalowrightthai" 
d="M-183 687h-79v73h79v53h114v-53h81v-73h-81v-56h-114v56z" />
    <glyph glyph-name="thanthakhatlowrightthai" 
d="M-292 653q0 64 36.5 98t106.5 34h130v-89h-103q-24 0 -36.5 -12t-12.5 -36v-17h-121v22z" />
    <glyph glyph-name="yoyingnobasethai" horiz-adv-x="932" 
d="M634 -12q-67 0 -118.5 25t-80 73t-28.5 115v144q0 64 -31 96t-90 32q-55 0 -86 -26t-33 -72h109v-75q-49 -8 -70.5 -30.5t-21.5 -66.5v-36q0 -42 17.5 -58t58.5 -16q15 0 22 2v-95q-19 -4 -55 -4q-60 0 -96.5 15t-53.5 49t-17 89v33q0 54 22 87.5t69 50.5v3h-106v29
q0 66 29.5 116t85 77t130.5 27q71 0 125 -24t84 -71t30 -114v-165q0 -52 30 -81t78 -29q30 0 54.5 13t39 37.5t14.5 59.5v363h124v-360q0 -67 -30 -115t-83 -73t-122 -25z" />
    <glyph glyph-name="maihanakatleftthai" 
d="M-423 631q-69 0 -101.5 30.5t-32.5 95.5v29h117v-24q0 -22 10 -31.5t32 -9.5h142v-90h-167z" />
    <glyph glyph-name="nikhahitleftthai" 
d="M-368 616q-32 0 -57.5 13t-40 35.5t-14.5 50.5q0 29 14.5 51.5t40 35t57.5 12.5t57.5 -12.5t40 -35t14.5 -51.5q0 -28 -14.5 -50.5t-40 -35.5t-57.5 -13zM-368 677q16 0 26.5 11t10.5 27t-10.5 27t-26.5 11t-27 -11t-11 -27t11 -27t27 -11z" />
    <glyph glyph-name="maitaikhuleftthai" 
d="M-344 625q-31 0 -51.5 17.5t-29.5 44.5l-36 -60h-15q-49 0 -79 30.5t-30 83.5q0 35 13 61.5t37.5 41.5t57.5 15h220v-74h-205q-18 0 -28.5 -12.5t-10.5 -32.5q0 -18 9 -28t23 -11l28 42h36q6 -21 13 -31.5t20 -10.5q23 0 23 31v12h85v-14q0 -51 -21 -78t-59 -27z" />
    <glyph glyph-name="maiekupperleftthai" 
d="M-369 1031h108v-175h-108v175z" />
    <glyph glyph-name="maithoupperleftthai" 
d="M-239 912q0 18 -7 25.5t-26 7.5h-28v79h89q73 0 73 -67v-22h151v-79h-252v56z" />
    <glyph glyph-name="maitriupperleftthai" 
d="M-339 928q0 43 23.5 67.5t64.5 24.5q31 0 52 -13t27 -37h3q6 24 26.5 37t52.5 13q38 0 60 -20.5t22 -54.5v-10h79v-79h-166v48q0 14 -6.5 22.5t-18.5 8.5t-19 -8.5t-7 -22.5v-13h-49v13q0 14 -6.5 22.5t-18.5 8.5t-19 -8.5t-7 -22.5v-48h-93v72z" />
    <glyph glyph-name="maichattawaupperleftthai" 
d="M-368 912h-79v73h79v54h105v-54h81v-73h-81v-56h-105v56z" />
    <glyph glyph-name="thanthakhatupperleftthai" 
d="M-257 875q0 65 35 98.5t105 33.5h126v-89h-100q-24 0 -36.5 -12t-12.5 -36v-14h-117v19z" />
    <glyph glyph-name="saraulowthai" 
d="M-168 -305q0 10 -8 14t-19 4q-9 0 -20 -1v73q11 3 28.5 5t30.5 2q43 0 68 -15.5t25 -45.5v-145h-105v109z" />
    <glyph glyph-name="sarauulowthai" 
d="M-208 -416q-71 0 -107.5 26.5t-36.5 72.5v14q0 9 -7.5 13.5t-18.5 4.5q-9 0 -20 -2v73q11 4 27.5 5.5t31.5 1.5q44 0 68 -12.5t24 -41.5v-44q0 -16 9.5 -25t28.5 -9q18 0 28.5 9t10.5 25v95h107v-107q0 -48 -37.5 -73.5t-107.5 -25.5z" />
    <glyph glyph-name="phinthulowthai" 
d="M-123 -349q-20 0 -37 9.5t-26.5 26t-9.5 37.5t9.5 37.5t26.5 25.5t37 9t37 -9t26.5 -25.5t9.5 -37.5t-9.5 -37.5t-26.5 -26t-37 -9.5z" />
    <glyph glyph-name="lochula.short" horiz-adv-x="700" 
d="M545 164v167q0 43 -18.5 63.5t-60.5 20.5h-97v84h115q30 0 50.5 6.5t33 25.5t15.5 54h126q-6 -69 -45 -104q-31 -28 -77 -33q24 -7 39 -18q23 -16 32 -41.5t9 -66.5v-162q0 -81 -42 -126.5t-115 -45.5q-53 0 -90.5 25t-57.5 73h-5q-20 -48 -57.5 -73t-90.5 -25
q-73 0 -115 45.5t-42 126.5v401h122v-397q0 -76 63 -76q64 0 64 76v147h118v-147q0 -76 64 -76q62 0 62 76z" />
    <glyph glyph-name="saraamleft" horiz-adv-x="534" 
d="M-368 616q-32 0 -57.5 13t-40 35.5t-14.5 50.5q0 29 14.5 51.5t40 35t57.5 12.5t57.5 -12.5t40 -35t14.5 -51.5q0 -28 -14.5 -50.5t-40 -35.5t-57.5 -13zM-368 677q16 0 26.5 11t10.5 27t-10.5 27t-26.5 11t-27 -11t-11 -27t11 -27t27 -11zM372 378q0 49 -25.5 72
t-69.5 23q-46 0 -71.5 -23.5t-28.5 -65.5h-121q4 59 32 101t77 64.5t116 22.5q64 0 112 -21.5t75.5 -64.5t27.5 -106v-380h-124v378z" />
    <glyph glyph-name="yamakkanleftthai" 
d="M-392 624q-46 0 -73.5 19t-27.5 55q0 32 19.5 50.5t51.5 18.5h14q-9 5 -14.5 15.5t-5.5 22.5q0 19 14 30t38 11h103v-51h-45q-24 0 -24 -19q0 -9 6 -15.5t16 -9.5v-28h-58q-27 0 -27 -20q0 -25 40 -25q15 0 27 4v-52q-25 -6 -54 -6z" />
    <glyph glyph-name="thothannobasethai" horiz-adv-x="600" 
d="M154 162q-10 23 -21.5 30t-32.5 7q-15 0 -31 -3v95q33 8 65 8q29 0 48.5 -6t34.5 -21.5t29 -43.5l61 -134h3q50 38 78 96t28 127q0 75 -34 115.5t-102 40.5q-46 0 -75 -20t-38 -56h-121q10 85 73 130t163 45q59 0 106 -19q16 -8 31 -17l37 50h135l-96 -119q16 -19 26 -43
q19 -46 19 -105q0 -101 -48.5 -182.5t-128.5 -136.5h-133z" />
    <glyph glyph-name="maieklowrightthai" 
d="M-184 806h118v-175h-118v175z" />
    <glyph glyph-name="saraileftthai" 
d="M-605 721h344v-90h-344v90z" />
    <glyph glyph-name="saraiileftthai" 
d="M-605 721h236v71h108v-161h-344v90z" />
    <glyph glyph-name="saraueleftthai" 
d="M-605 721h174q0 23 11 42q12 19 32 30t45 11q26 0 46.5 -11t32 -30.5t11.5 -45.5t-11.5 -45.5t-32.5 -30t-47 -10.5h-261v90zM-344 680q14 0 23.5 10.5t9.5 26.5t-9.5 26t-23.5 10q-15 0 -24 -10t-9 -26t9 -26.5t24 -10.5z" />
    <glyph glyph-name="saraueeleftthai" 
d="M-605 721h147v71h74v-71h49v71h74v-161h-344v90z" />
    <glyph glyph-name="maieklowleftthai" 
d="M-408 806h117v-175h-117v175z" />
    </font>
</defs>
</svg>
