<?xml version="1.0" standalone="no"?>
<!DOCTYPE svg PUBLIC "-//W3C//DTD SVG 1.1//EN" "http://www.w3.org/Graphics/SVG/1.1/DTD/svg11.dtd" >
<svg xmlns="http://www.w3.org/2000/svg" xmlns:xlink="http://www.w3.org/1999/xlink" version="1.1">
<metadata>
Created by FontForge 20201107 at Mon Aug 28 00:17:51 2023
 By 
</metadata>
<defs>
<font id="FRSFHeavy" horiz-adv-x="0" >
  <font-face 
    font-family="FR SF Heavy"
    font-weight="850"
    font-stretch="normal"
    units-per-em="1000"
    panose-1="2 0 0 0 0 0 0 0 0 0"
    ascent="800"
    descent="-200"
    x-height="532"
    cap-height="705"
    bbox="-644 -426 1215 1058"
    underline-thickness="260"
    underline-position="-380"
    unicode-range="U+0020-221E"
  />
<missing-glyph horiz-adv-x="524" 
 />
    <glyph glyph-name="copyright" unicode="&#x3b;&#x3b;For&#x20;Education&#x20;Used&#x20;Only&#x3b;&#x3b;" horiz-adv-x="826" 
d="M413 -61q-79 0 -149 30t-122.5 82.5t-82.5 122.5t-30 150t30 150t82.5 122t122.5 82t149 30q80 0 149.5 -30t122 -82t82.5 -122t30 -150t-30 -150t-82.5 -122.5t-122 -82.5t-149.5 -30zM413 25q62 0 116 23.5t94.5 64t64 95t23.5 116.5t-23.5 116.5t-64 95t-94.5 63.5
t-116 23q-61 0 -115.5 -23t-95 -63.5t-64 -95t-23.5 -116.5t23.5 -116.5t64 -95t95 -64t115.5 -23.5zM485 369q-4 25 -20.5 40.5t-43.5 15.5q-33 0 -51.5 -26.5t-18.5 -74.5q0 -49 18.5 -75t51.5 -26q55 0 64 52h104q-5 -65 -49.5 -102.5t-119.5 -37.5q-85 0 -134 50.5
t-49 138.5t48.5 138t133.5 50q74 0 119.5 -39t50.5 -104h-104z" />
    <glyph glyph-name="registered" unicode="&#x3b;&#x3b;Registered&#x3b;&#x3b;" horiz-adv-x="580" 
d="M290 269q-54 0 -101 19.5t-81.5 53.5t-54 80.5t-19.5 100.5t19.5 101t54 81t81.5 53.5t101 19.5t101 -19.5t81.5 -53.5t54 -81t19.5 -101t-19.5 -100.5t-54 -80.5t-81.5 -53.5t-101 -19.5zM290 339q39 0 72 14t57.5 38.5t38 58t13.5 73.5t-13.5 74t-38 58.5t-57.5 38.5
t-72 14t-72 -14t-57.5 -38.5t-38 -58.5t-13.5 -74t13.5 -73.5t38 -58t57.5 -38.5t72 -14zM188 411v230h124q39 0 63 -20.5t24 -54.5q0 -26 -12.5 -44.5t-33.5 -25.5l58 -85h-79l-48 75h-29v-75h-67zM255 535h40q33 0 33 26q0 27 -32 27h-41v-53z" />
    <glyph glyph-name="multiply" unicode="&#x3b;&#x3b;Multiply&#x3b;&#x3b;" horiz-adv-x="670" 
d="M188 35l-105 103l148 148l-148 148l105 104l147 -148l148 148l103 -104l-147 -148l147 -148l-103 -103l-148 147z" />
    <glyph glyph-name="divide" unicode="&#x3b;&#x3b;Divide&#x3b;&#x3b;" horiz-adv-x="670" 
d="M335 397q-42 0 -67 24t-25 62q0 39 25 62.5t67 23.5t67.5 -23.5t25.5 -62.5q0 -38 -25.5 -62t-67.5 -24zM63 223v124h543v-124h-543zM335 1q-42 0 -67 24t-25 62t25 62t67 24t67.5 -24t25.5 -62t-25.5 -62t-67.5 -24z" />
    <glyph glyph-name="quotedblleft" unicode="&#x2018;&#x2018;" horiz-adv-x="554" 
d="M261 705l-38 -289h-160l72 289h126zM490 705l-31 -289h-159l65 289h125z" />
    <glyph glyph-name="quotedblright" unicode="&#x2019;&#x2019;" horiz-adv-x="554" 
d="M63 416l31 289h159l-64 -289h-126zM292 416l39 289h159l-72 -289h-126z" />
    <glyph glyph-name="trademark" unicode="&#x3b;&#x3b;Trademark&#x3b;&#x3b;" horiz-adv-x="923" 
d="M146 337v272h-108v96h333v-96h-107v-272h-118zM751 337v212h-1l-88 -196h-58l-88 196h-2v-212h-99v368h136l80 -204h3l80 204h137v-368h-100z" />
    <glyph glyph-name="rulakkhangyao" unicode="&#xe24;&#xe32;" horiz-adv-x="1004" 
d="M406 339q0 52 -23.5 77t-72.5 25q-43 0 -67.5 -18.5t-26.5 -54.5h84v-94q-39 -5 -59 -23.5t-20 -50.5v-15q0 -31 17 -45.5t51 -14.5q14 0 20 2v-127q-25 -6 -69 -6q-68 0 -110.5 15.5t-63.5 49t-21 88.5v24q0 55 25 88.5t79 52.5v3h-107v33q0 69 34.5 120.5t97 79
t144.5 27.5q73 0 123 -24t81 -74h3q31 50 77.5 74t115.5 24q68 0 119.5 -22t80.5 -67.5t29 -112.5v-583h-176v564q0 42 -25 64.5t-70 22.5q-44 0 -69 -22.5t-25 -64.5v-564h-176v549z" />
    <glyph glyph-name="lulakkhangyao" unicode="&#xe26;&#xe32;" horiz-adv-x="1017" 
d="M419 339q0 52 -23.5 77t-72.5 25q-43 0 -68 -19t-28 -54h85v-94q-22 -3 -34 -11t-16.5 -22.5t-4.5 -40.5v-57q0 -78 -42.5 -113.5t-129.5 -35.5q-35 0 -57 6v127q6 -2 16 -2q20 0 29 9.5t9 30.5v23q0 57 18.5 86.5t62.5 37.5v3h-109v34q0 68 34.5 119.5t97.5 79t145 27.5
q71 0 122 -23.5t82 -73.5h4q30 50 76.5 73.5t115.5 23.5q68 0 119.5 -22t80 -67.5t28.5 -112.5v-583h-175v564q0 42 -25 64.5t-70 22.5q-44 0 -69 -22.5t-25 -64.5v-564h-176v549z" />
    <glyph glyph-name=".notdef" horiz-adv-x="524" 
 />
    <glyph glyph-name=".null" 
 />
    <glyph glyph-name="uni000D" horiz-adv-x="310" 
 />
    <glyph glyph-name="space" unicode=" " horiz-adv-x="194" 
 />
    <glyph glyph-name="exclam" unicode="!" horiz-adv-x="342" 
d="M260 705l-15 -474h-147l-15 474h177zM171 -16q-19 0 -36 6.5t-29.5 18.5t-19.5 28t-7 35q0 18 7 34t19.5 28t29.5 18.5t36 6.5t36 -6.5t29.5 -18.5t20 -28t7.5 -34q0 -19 -7.5 -35t-20 -28t-29.5 -18.5t-36 -6.5z" />
    <glyph glyph-name="quotedbl" unicode="&#x22;" horiz-adv-x="485" 
d="M46 416v289h145v-289h-145zM293 416v289h146v-289h-146z" />
    <glyph glyph-name="numbersign" unicode="#" horiz-adv-x="656" 
d="M345 180h-109l-36 -180h-128l35 180h-107l23 123h109l21 108h-108l23 123h109l34 171h128l-33 -171h109l34 171h129l-35 -171h113l-24 -123h-113l-21 -108h112l-23 -123h-114l-35 -180h-129zM376 290l28 134h-130l-27 -134h129z" />
    <glyph glyph-name="dollar" unicode="$" horiz-adv-x="670" 
d="M305 -66v60q-125 6 -193.5 61.5t-68.5 149.5h169q2 -32 27.5 -55t65.5 -27v157l-58 13q-94 20 -142.5 72t-48.5 133q0 95 65 151.5t184 65.5v66h70v-67q54 -5 98 -22t75 -45t48 -64.5t17 -80.5h-164q-1 29 -21.5 52t-52.5 28v-152l58 -11q194 -38 194 -203
q0 -97 -65 -154t-187 -67v-61h-70zM228 514q0 -55 77 -70v139q-35 -2 -56 -21t-21 -48zM460 196q0 57 -85 73v-146q40 3 62.5 22.5t22.5 50.5z" />
    <glyph glyph-name="percent" unicode="%" horiz-adv-x="859" 
d="M355 534q0 -87 -44.5 -136.5t-122.5 -49.5t-122.5 49.5t-44.5 136.5t44.5 137t122.5 50t122.5 -50t44.5 -137zM105 0l514 705h135l-513 -705h-136zM188 448q20 0 30.5 22.5t10.5 64.5t-10.5 64.5t-30.5 22.5t-31 -22.5t-11 -64.5t11 -64.5t31 -22.5zM839 175
q0 -87 -45 -136.5t-123 -49.5t-122.5 49.5t-44.5 136.5t44.5 136.5t122.5 49.5t123 -49.5t45 -136.5zM671 89q20 0 31 23t11 64q0 42 -11 64.5t-31 22.5q-19 0 -30 -22.5t-11 -64.5q0 -41 11 -64t30 -23z" />
    <glyph glyph-name="ampersand" unicode="&#x26;" horiz-adv-x="719" 
d="M494 52q-36 -31 -92 -48t-122 -17q-58 0 -104.5 13.5t-79 39t-50 62t-17.5 81.5q0 60 30.5 103t96.5 80q2 1 7 4t11 6.5t11 6l5 2.5q-48 49 -67.5 85t-19.5 75q0 36 16 67t44 53t66.5 34.5t83.5 12.5q46 0 84 -12t65.5 -33.5t42.5 -51.5t15 -66q0 -108 -139 -184
l113 -122q21 36 21 105v46h139v-59q0 -56 -16 -107.5t-45 -87.5l136 -140h-186zM306 440q76 41 76 96q0 30 -19 49t-49 19t-49 -19.5t-19 -48.5q0 -22 13 -43t47 -53zM248 290q-32 -21 -46.5 -42.5t-14.5 -50.5q0 -41 30.5 -66t80.5 -25q34 0 63.5 11t45.5 29l-141 152
l-10 -4t-8 -4z" />
    <glyph glyph-name="quotesingle" unicode="'" horiz-adv-x="237" 
d="M46 416v289h145v-289h-145z" />
    <glyph glyph-name="parenleft" unicode="(" horiz-adv-x="413" 
d="M87 276q0 131 35.5 235.5t112.5 193.5h162q-27 -32 -51 -80t-42 -105t-28 -119t-10 -124q0 -61 10 -123.5t28 -119.5t42 -105t51 -81h-162q-77 90 -112.5 195t-35.5 233z" />
    <glyph glyph-name="parenright" unicode=")" horiz-adv-x="413" 
d="M327 276q0 -138 -38.5 -241.5t-109.5 -186.5h-163q25 30 48.5 75.5t42 102t29.5 120.5t11 131t-11 131t-29.5 120.5t-42 101.5t-48.5 75h163q72 -83 110 -186t38 -243z" />
    <glyph glyph-name="asterisk" unicode="*" horiz-adv-x="487" 
d="M279 480l16 -135h-102l16 135l-110 -81l-51 89l123 54l-123 53l52 90l108 -80l-15 134h103l-15 -133l108 79l52 -90l-125 -54l125 -52l-52 -90z" />
    <glyph glyph-name="plus" unicode="+" horiz-adv-x="670" 
d="M412 3h-154v207h-195v149h195v207h154v-207h194v-149h-194v-207z" />
    <glyph glyph-name="comma" unicode="," horiz-adv-x="291" 
d="M45 -162l31 289h160l-65 -289h-126z" />
    <glyph glyph-name="hyphen" unicode="-" horiz-adv-x="448" 
d="M63 212v149h322v-149h-322z" />
    <glyph glyph-name="period" unicode="." horiz-adv-x="291" 
d="M145 -6q-38 0 -64 26t-26 64q0 19 7 35.5t19 29t28.5 19.5t35.5 7t35.5 -7t29 -19.5t19.5 -29t7 -35.5q0 -38 -26.5 -64t-64.5 -26z" />
    <glyph glyph-name="slash" unicode="/" horiz-adv-x="413" 
d="M0 -152l250 857h163l-250 -857h-163z" />
    <glyph glyph-name="zero" unicode="0" horiz-adv-x="674" 
d="M337 -18q-69 0 -124 25.5t-94 73.5t-59.5 117t-20.5 156t21 155.5t59.5 116t93.5 72.5t124 25t124 -25t93.5 -72.5t59.5 -116t21 -155.5q0 -86 -20.5 -155t-59.5 -117t-94 -74t-124 -26zM337 122q53 0 84.5 58.5t31.5 173.5t-31.5 172t-84.5 57q-52 0 -84 -57.5
t-32 -171.5q0 -115 31.5 -173.5t84.5 -58.5z" />
    <glyph glyph-name="one" unicode="1" horiz-adv-x="500" 
d="M220 547h-3l-176 -119v155l179 122h178v-705h-178v547z" />
    <glyph glyph-name="two" unicode="2" horiz-adv-x="623" 
d="M36 488q0 52 20 95t56 74t86.5 48t111.5 17q60 0 109 -15.5t83.5 -43t53 -66t18.5 -84.5q0 -35 -12 -65.5t-30.5 -57.5t-41 -50t-43.5 -44l-168 -155v-3h304v-138h-537v120l275 253q44 42 62 71.5t18 62.5q0 34 -26 57t-71 23t-74.5 -27.5t-29.5 -71.5v-4h-164v4z" />
    <glyph glyph-name="three" unicode="3" horiz-adv-x="649" 
d="M232 422h85q46 0 73 23t27 61t-26.5 60.5t-74.5 22.5q-47 0 -75 -25t-30 -67h-162q1 51 21 92.5t56 71t86.5 45.5t111.5 16q59 0 106.5 -13.5t81.5 -38.5t52.5 -60t18.5 -79q0 -65 -40.5 -108.5t-105.5 -54.5v-4q79 -8 125.5 -52t46.5 -117q0 -48 -21 -87.5t-59.5 -67.5
t-92 -43t-119.5 -15q-62 0 -113 16t-87.5 46t-57.5 72t-24 93h171q2 -39 32 -62.5t82 -23.5q48 0 78 24.5t30 62.5q0 42 -29.5 65t-80.5 23h-86v124z" />
    <glyph glyph-name="four" unicode="4" horiz-adv-x="670" 
d="M382 114h-348v150q23 45 49 91.5t58 99t71.5 114t89.5 136.5h249v-451h88v-140h-88v-114h-169v114zM186 248h201v335h-4q-32 -48 -59 -89t-50.5 -80t-45 -78.5t-42.5 -83.5v-4z" />
    <glyph glyph-name="five" unicode="5" horiz-adv-x="646" 
d="M332 -18q-60 0 -110.5 16.5t-87 46.5t-57.5 71t-22 90h163q6 -38 38 -62t77 -24q51 0 82 31.5t31 82.5q0 52 -31 84.5t-82 32.5q-35 0 -63 -15t-45 -43h-159l34 412h471v-138h-333l-13 -174h4q20 38 60 60t96 22q50 0 92.5 -17.5t73 -49t47.5 -75t17 -95.5
q0 -57 -20.5 -104.5t-57.5 -81t-89.5 -52t-115.5 -18.5z" />
    <glyph glyph-name="six" unicode="6" horiz-adv-x="666" 
d="M345 -18q-80 0 -137.5 30.5t-95 81.5t-55.5 117.5t-18 138.5q0 87 21.5 156t61.5 117t97 73.5t127 25.5q53 0 100 -15t83 -41.5t59 -63.5t30 -81h-174q-9 29 -36 46.5t-63 17.5q-33 0 -59.5 -16t-44.5 -46t-27 -73t-6 -97h4q20 51 67 82.5t116 31.5q50 0 92.5 -17.5
t73.5 -48.5t48.5 -73.5t17.5 -92.5q0 -55 -21 -101.5t-58.5 -80.5t-89 -52.5t-113.5 -18.5zM343 121q24 0 44.5 8.5t35.5 23t23.5 34.5t8.5 43q0 47 -31.5 78t-79.5 31q-24 0 -44.5 -8.5t-35.5 -23t-23.5 -34.5t-8.5 -43q0 -47 32 -78t79 -31z" />
    <glyph glyph-name="seven" unicode="7" horiz-adv-x="585" 
d="M375 563v4h-347v138h524v-139l-284 -566h-187z" />
    <glyph glyph-name="eight" unicode="8" horiz-adv-x="681" 
d="M340 -18q-68 0 -123.5 15t-95 42.5t-61 66t-21.5 85.5q0 36 12.5 67t35.5 54.5t55 38.5t70 20v4q-32 6 -59 21t-46 36t-29.5 47.5t-10.5 56.5q0 41 20 75t56 58.5t86.5 38.5t110.5 14t110.5 -14t86.5 -38.5t56 -59t20 -75.5q0 -59 -40 -103t-104 -57v-4q38 -5 70 -20.5
t55 -39t35.5 -54.5t12.5 -67q0 -46 -22 -84.5t-61.5 -66t-95 -42.5t-123.5 -15zM340 425q42 0 69.5 25t27.5 62q0 38 -27.5 63t-69.5 25t-69 -25t-27 -63q0 -37 27 -62t69 -25zM340 105q51 0 82.5 28.5t31.5 70.5t-31.5 70t-82.5 28t-82 -28t-31 -70t31 -70.5t82 -28.5z" />
    <glyph glyph-name="nine" unicode="9" horiz-adv-x="669" 
d="M322 -18q-54 0 -101 15t-83 42t-59.5 64t-30.5 81h175q9 -29 37 -46.5t65 -17.5q66 0 103 60.5t31 172.5h-3q-17 -51 -64.5 -83t-118.5 -32q-49 0 -92 17.5t-74.5 48.5t-49.5 73.5t-18 92.5q0 56 21.5 102t59 79.5t89.5 52t113 18.5q81 0 139 -30t95.5 -80.5t55.5 -117
t18 -139.5q0 -87 -21 -156t-60.5 -117t-97 -74t-129.5 -26zM324 367q48 0 79.5 30.5t31.5 77.5t-31.5 78.5t-78.5 31.5q-24 0 -44.5 -8.5t-35.5 -23.5t-24 -35t-9 -43q0 -47 32 -77.5t80 -30.5z" />
    <glyph glyph-name="colon" unicode=":" horiz-adv-x="291" 
d="M145 337q-38 0 -64 26.5t-26 64.5q0 19 7 35.5t19 29t28.5 19.5t35.5 7t35.5 -7t29 -19.5t19.5 -29t7 -35.5q0 -38 -26.5 -64.5t-64.5 -26.5zM145 -6q-38 0 -64 26t-26 64q0 19 7 35.5t19 29t28.5 19.5t35.5 7t35.5 -7t29 -19.5t19.5 -29t7 -35.5q0 -38 -26.5 -64
t-64.5 -26z" />
    <glyph glyph-name="semicolon" unicode=";" horiz-adv-x="291" 
d="M145 337q-38 0 -64 26.5t-26 64.5q0 19 7 35.5t19 29t28.5 19.5t35.5 7t35.5 -7t29 -19.5t19.5 -29t7 -35.5q0 -38 -26.5 -64.5t-64.5 -26.5zM41 -162l31 289h159l-64 -289h-126z" />
    <glyph glyph-name="less" unicode="&#x3c;" horiz-adv-x="670" 
d="M270 288v-5l307 -133v-169l-484 238v132l484 241v-169z" />
    <glyph glyph-name="equal" unicode="=" horiz-adv-x="670" 
d="M70 336v148h530v-148h-530zM70 86v148h530v-148h-530z" />
    <glyph glyph-name="greater" unicode="&#x3e;" horiz-adv-x="670" 
d="M93 592l484 -241v-132l-484 -238v169l307 133v5l-307 135v169z" />
    <glyph glyph-name="question" unicode="?" horiz-adv-x="557" 
d="M25 500q1 48 18.5 86.5t49.5 66.5t78.5 43t104.5 15q56 0 101 -14t77 -39.5t49.5 -61.5t17.5 -80q0 -55 -25.5 -93.5t-79.5 -70.5q-25 -15 -41.5 -26.5t-26.5 -23.5t-14 -25.5t-4 -30.5v-23h-152l-2 19q-7 63 12.5 100.5t70.5 66.5q25 15 41.5 26.5t26 23t13 24t3.5 28.5
q0 30 -21.5 48.5t-56.5 18.5t-57 -21.5t-24 -56.5h-159zM257 -16q-19 0 -36 6.5t-29.5 18.5t-19.5 28t-7 35q0 18 7 34t19.5 28t29.5 18.5t36 6.5t36 -6.5t29.5 -18.5t19.5 -28t7 -34q0 -19 -7 -35t-19.5 -28t-29.5 -18.5t-36 -6.5z" />
    <glyph glyph-name="at" unicode="@" horiz-adv-x="888" 
d="M452 711q88 0 160.5 -26t125 -74t81.5 -115t29 -149q0 -57 -13.5 -103.5t-39 -78.5t-62 -49.5t-82.5 -17.5q-48 0 -79.5 19t-41.5 54h-9q-31 -74 -114 -74q-38 0 -69.5 15t-53.5 42t-34 65t-12 84q0 45 11.5 81.5t33 62.5t51 40.5t65.5 14.5q40 0 70.5 -18.5t44.5 -50.5
h8v57h112v-248q0 -26 11 -40.5t32 -14.5q32 0 51 39.5t19 108.5q0 66 -21 120t-60 91.5t-93.5 58t-121.5 20.5q-70 0 -128 -23.5t-100 -66t-65 -102.5t-23 -132q0 -74 24 -132.5t67.5 -99.5t106 -62.5t138.5 -21.5q34 0 66 4t51 10v-87q-26 -7 -59.5 -11t-68.5 -4
q-94 0 -172.5 29t-135 82t-87.5 128t-31 168q0 90 30.5 165t86 129t132.5 83.5t169 29.5zM437 401q-33 0 -52 -26.5t-19 -74.5t18.5 -75t52.5 -27t53 27t19 75t-19.5 74.5t-52.5 26.5z" />
    <glyph glyph-name="A" unicode="A" horiz-adv-x="721" 
d="M472 155h-230l-45 -155h-183l237 705h219l237 -705h-190zM276 284h161l-78 271h-4z" />
    <glyph glyph-name="B" unicode="B" horiz-adv-x="658" 
d="M53 0v705h328q105 0 163.5 -47t58.5 -129q0 -30 -10.5 -56t-29 -46t-44 -33.5t-54.5 -17.5v-4q36 -1 67 -14.5t54.5 -36t36.5 -53t13 -65.5q0 -46 -17 -83.5t-49 -64t-77.5 -41t-102.5 -14.5h-337zM232 417h93q49 0 76.5 22t27.5 60q0 37 -25 58t-71 21h-101v-161z
M339 127q56 0 85.5 23.5t29.5 68.5q0 43 -30 66.5t-86 23.5h-106v-182h107z" />
    <glyph glyph-name="C" unicode="C" horiz-adv-x="727" 
d="M376 -12q-79 0 -142.5 24.5t-107.5 71.5t-68 114.5t-24 154.5q0 86 24 154t68.5 114.5t107.5 71t142 24.5q67 0 124 -20.5t100 -57.5t68 -89t27 -114h-173q-6 63 -46 100t-100 37q-74 0 -117 -58.5t-43 -161.5q0 -104 43 -163t117 -59q60 0 99.5 36t47.5 99h173
q-3 -63 -28 -114.5t-67 -87.5t-99.5 -56t-125.5 -20z" />
    <glyph glyph-name="D" unicode="D" horiz-adv-x="711" 
d="M339 705q160 0 249 -90t89 -259q0 -84 -23 -150.5t-66.5 -112t-106 -69.5t-142.5 -24h-286v705h286zM232 145h84q88 0 133.5 52.5t45.5 158.5q0 100 -47 152t-132 52h-84v-415z" />
    <glyph glyph-name="E" unicode="E" horiz-adv-x="584" 
d="M536 0h-483v705h483v-145h-304v-140h286v-132h-286v-143h304v-145z" />
    <glyph glyph-name="F" unicode="F" horiz-adv-x="559" 
d="M53 0v705h480v-145h-301v-160h273v-137h-273v-263h-179z" />
    <glyph glyph-name="G" unicode="G" horiz-adv-x="737" 
d="M702 298q0 -72 -21.5 -129.5t-63 -97.5t-101 -61.5t-134.5 -21.5q-81 0 -145.5 24.5t-109.5 71.5t-69 115t-24 155q0 86 24 153t68 114t108 71.5t143 24.5q64 0 119 -18t97 -50.5t68 -77.5t33 -99h-177q-13 48 -50 74.5t-89 26.5q-77 0 -119.5 -57t-42.5 -160
q0 -106 46 -165t124 -59q61 0 99.5 32.5t42.5 85.5l1 11h-129v123h302v-86z" />
    <glyph glyph-name="H" unicode="H" horiz-adv-x="746" 
d="M513 0v284h-281v-284h-179v705h179v-277h281v277h179v-705h-179z" />
    <glyph glyph-name="I" unicode="I" horiz-adv-x="286" 
d="M53 0v705h179v-705h-179z" />
    <glyph glyph-name="J" unicode="J" horiz-adv-x="591" 
d="M185 229q0 -42 23 -66.5t61 -24.5q40 0 61 24.5t21 71.5v471h178v-472q0 -119 -68 -182.5t-190 -63.5q-59 0 -107 17t-81.5 48.5t-52 76t-18.5 100.5h173z" />
    <glyph glyph-name="K" unicode="K" horiz-adv-x="701" 
d="M692 0h-217l-234 292h-4v-292h-179v705h179v-285h4l238 285h196l-277 -332z" />
    <glyph glyph-name="K" unicode="&#x41a;" horiz-adv-x="701" 
d="M692 0h-217l-234 292h-4v-292h-179v705h179v-285h4l238 285h196l-277 -332z" />
    <glyph glyph-name="L" unicode="L" horiz-adv-x="553" 
d="M524 0h-471v705h179v-560h292v-145z" />
    <glyph glyph-name="M" unicode="M" horiz-adv-x="880" 
d="M669 0v440h-3l-175 -433h-102l-174 433h-4v-440h-158v705h207l178 -453h4l178 453h207v-705h-158z" />
    <glyph glyph-name="N" unicode="N" horiz-adv-x="722" 
d="M53 0v705h143l299 -410h4v410h170v-705h-142l-300 414h-4v-414h-170z" />
    <glyph glyph-name="O" unicode="O" horiz-adv-x="764" 
d="M382 717q80 0 144 -25.5t109 -72.5t69.5 -115t24.5 -152t-24.5 -151.5t-69.5 -115t-109 -72.5t-144 -25t-144.5 25t-109.5 72.5t-69.5 115t-24.5 151.5t24.5 152t69.5 115t109.5 72.5t144.5 25.5zM382 571q-37 0 -68 -15.5t-52.5 -44t-33.5 -69t-12 -90.5t11.5 -90.5
t33.5 -69t52.5 -44t68.5 -15.5t68 15.5t52 44t33.5 69t11.5 90.5t-11.5 90.5t-33.5 69t-52 44t-68 15.5z" />
    <glyph glyph-name="P" unicode="P" horiz-adv-x="639" 
d="M358 705q57 0 104 -18t80 -50.5t51.5 -78.5t18.5 -103q0 -56 -19.5 -102t-54 -78.5t-83 -50t-107.5 -17.5h-116v-207h-179v705h305zM232 341h78q57 0 89 29t32 85q0 55 -31.5 83.5t-88.5 28.5h-79v-226z" />
    <glyph glyph-name="Q" unicode="Q" horiz-adv-x="763" 
d="M382 -12q-80 0 -144.5 25t-109.5 72t-69.5 114.5t-24.5 152.5q0 84 24.5 151.5t69.5 115t109.5 73t144.5 25.5t144 -25.5t109 -73t69.5 -115t24.5 -151.5q0 -89 -26.5 -159t-77.5 -115l87 -137h-166l-43 65q-55 -18 -121 -18zM382 131q10 0 19.5 1t17.5 4l-71 112h152
l15 -21q32 50 32 125q0 50 -11.5 91t-33.5 70t-52 45t-68 16t-68.5 -16t-52.5 -45t-33.5 -70t-11.5 -91t11.5 -91t33.5 -70t52.5 -44.5t68.5 -15.5z" />
    <glyph glyph-name="R" unicode="R" horiz-adv-x="662" 
d="M232 0h-179v705h302q133 0 201.5 -61.5t68.5 -171.5q0 -65 -31 -119t-89 -80l141 -273h-201l-121 247h-92v-247zM232 369h105q50 0 77.5 27t27.5 73q0 45 -28.5 72.5t-76.5 27.5h-105v-200z" />
    <glyph glyph-name="S" unicode="S" horiz-adv-x="651" 
d="M201 204q3 -18 13.5 -32.5t27.5 -25t39 -16.5t47 -6q53 0 84 20.5t31 52.5q0 29 -24.5 45.5t-85.5 29.5l-92 18q-98 19 -147.5 70t-49.5 132q0 51 21 93t58.5 71t89 45t112.5 16q66 0 118 -15.5t88 -44t55.5 -68.5t20.5 -90h-165q-3 38 -35 60t-80 22t-76 -19.5
t-28 -51.5q0 -29 24.5 -46t80.5 -28l91 -18q105 -20 153.5 -68t48.5 -133q0 -52 -21 -94.5t-60 -72.5t-94 -46t-123 -16q-135 0 -212.5 56.5t-79.5 159.5h170z" />
    <glyph glyph-name="T" unicode="T" horiz-adv-x="612" 
d="M217 0v560h-195v145h568v-145h-194v-560h-179z" />
    <glyph glyph-name="U" unicode="U" horiz-adv-x="713" 
d="M232 269q0 -62 32.5 -96.5t92.5 -34.5t92 34.5t32 96.5v436h179v-455q0 -59 -21.5 -107.5t-61.5 -83t-95.5 -53t-124.5 -18.5t-125 18.5t-96 53t-61.5 83t-21.5 107.5v455h179v-436z" />
    <glyph glyph-name="V" unicode="V" horiz-adv-x="703" 
d="M239 0l-225 705h204l136 -530h3l136 530h196l-225 -705h-225z" />
    <glyph glyph-name="W" unicode="W" horiz-adv-x="987" 
d="M373 0h-169l-184 705h185l95 -476h4l118 476h143l118 -476h4l95 476h185l-184 -705h-169l-118 440h-4z" />
    <glyph glyph-name="X" unicode="X" horiz-adv-x="712" 
d="M236 353v4l-215 348h209l129 -239h4l130 239h199l-224 -350v-3l222 -352h-201l-137 229h-4l-137 -229h-190z" />
    <glyph glyph-name="Y" unicode="Y" horiz-adv-x="693" 
d="M257 0v242l-243 463h193l140 -293h3l140 293h189l-243 -463v-242h-179z" />
    <glyph glyph-name="Z" unicode="Z" horiz-adv-x="638" 
d="M41 114l335 443v3h-330v145h540v-114l-333 -443v-3h344v-145h-556v114z" />
    <glyph glyph-name="bracketleft" unicode="[" horiz-adv-x="413" 
d="M400 705v-126h-136v-606h136v-125h-302v857h302z" />
    <glyph glyph-name="backslash" unicode="\" horiz-adv-x="413" 
d="M0 705h167l246 -857h-166z" />
    <glyph glyph-name="bracketright" unicode="]" horiz-adv-x="413" 
d="M315 -152h-301v125h135v606h-135v126h301v-857z" />
    <glyph glyph-name="asciicircum" unicode="^" horiz-adv-x="499" 
d="M163 395h-144l159 294h145l156 -294h-148l-78 162h-8z" />
    <glyph glyph-name="underscore" unicode="_" horiz-adv-x="426" 
d="M-21 -182v130h467v-130h-467z" />
    <glyph glyph-name="grave" unicode="`" horiz-adv-x="495" 
d="M244 624l-127 154h151l110 -154h-134z" />
    <glyph glyph-name="a" unicode="a" horiz-adv-x="571" 
d="M200 -8q-37 0 -69.5 12t-57 33t-38.5 51t-14 66q0 75 55.5 116t159.5 47l124 8v30q0 32 -20.5 49t-54.5 17q-35 0 -56.5 -16.5t-25.5 -40.5h-156q4 82 69 131t177 49q54 0 97.5 -13t74.5 -36.5t48 -56.5t17 -73v-365h-169v76h-3q-22 -41 -66 -62.5t-92 -21.5zM262 111
q20 0 37.5 6t31 16.5t21.5 25t8 32.5v37l-96 -7q-35 -2 -53 -17t-18 -38q0 -26 19 -40.5t50 -14.5z" />
    <glyph glyph-name="b" unicode="b" horiz-adv-x="620" 
d="M383 -8q-59 0 -101 26.5t-62 72.5h-3v-91h-173v705h174v-267h3q20 48 62 75t99 27q101 0 156.5 -71.5t55.5 -202.5t-55 -202.5t-156 -71.5zM317 404q-45 0 -72.5 -37.5t-27.5 -100.5q0 -64 27 -101.5t73 -37.5t73 37.5t27 101.5q0 63 -27 100.5t-73 37.5z" />
    <glyph glyph-name="c" unicode="c" horiz-adv-x="568" 
d="M387 322q-5 42 -28.5 66.5t-61.5 24.5q-46 0 -71 -38t-25 -109q0 -72 25 -109.5t71 -37.5q38 0 61.5 23t28.5 65h159q-1 -51 -19.5 -91.5t-51 -69t-78.5 -44t-102 -15.5q-62 0 -112 19t-85 55t-54 88t-19 117t19 116.5t54 87.5t84.5 55t111.5 19q56 0 102 -16t79 -45
t51.5 -70t19.5 -91h-159z" />
    <glyph glyph-name="d" unicode="d" horiz-adv-x="618" 
d="M237 -8q-100 0 -156 72.5t-56 202.5q0 64 14.5 114.5t42.5 86t67.5 54t89.5 18.5q58 0 100 -28.5t59 -73.5h4v267h173v-705h-172v91h-4q-16 -42 -59 -70.5t-103 -28.5zM302 404q-47 0 -73 -37t-26 -101q0 -65 26 -102t73 -37q48 0 74 36.5t26 102.5q0 64 -26.5 101
t-73.5 37z" />
    <glyph glyph-name="e" unicode="e" horiz-adv-x="578" 
d="M549 168q-6 -41 -26.5 -74.5t-53.5 -57t-77 -36.5t-96 -13q-64 0 -114 19t-85 54.5t-53.5 87t-18.5 115.5q0 65 18.5 116.5t53 88.5t83.5 56.5t110 19.5q60 0 108.5 -19t82.5 -54t52.5 -84t18.5 -110v-49h-359v-11q0 -48 29 -77.5t76 -29.5q35 0 60.5 15.5t34.5 42.5h156
zM293 421q-40 0 -67 -26t-30 -68h193q-2 42 -28 68t-68 26z" />
    <glyph glyph-name="f" unicode="f" horiz-adv-x="383" 
d="M85 404h-71v124h71v31q0 79 43 116t147 37q23 0 46.5 -2.5t37.5 -4.5v-108q-8 2 -18 2.5t-20 0.5q-36 0 -52 -13t-16 -36v-23h104v-124h-99v-404h-173v404z" />
    <glyph glyph-name="g" unicode="g" horiz-adv-x="617" 
d="M297 -200q-57 0 -103 12.5t-79 34t-52.5 52t-22.5 66.5h167q6 -23 31 -37.5t63 -14.5q50 0 75.5 24.5t25.5 63.5v98h-4q-16 -42 -59 -68.5t-102 -26.5q-48 0 -87 18t-66.5 51.5t-43 82.5t-15.5 112q0 128 57 200t157 72q58 0 100 -28.5t60 -73.5h4v94h172v-526
q0 -48 -20 -86t-57 -64.5t-88 -41t-113 -14.5zM302 132q47 0 73.5 34.5t26.5 99.5q0 64 -26.5 101t-73.5 37t-73 -36.5t-26 -101.5t26 -99.5t73 -34.5z" />
    <glyph glyph-name="h" unicode="h" horiz-adv-x="608" 
d="M44 705h170v-273h3q21 54 63.5 82t103.5 28q89 0 136.5 -53t47.5 -148v-341h-172v304q0 45 -22 71t-65 26q-45 0 -68 -28t-23 -73v-300h-174v705z" />
    <glyph glyph-name="i" unicode="i" horiz-adv-x="259" 
d="M129 575q-38 0 -63 24.5t-25 60.5t25 60t63 24t63.5 -24t25.5 -60t-25.5 -60.5t-63.5 -24.5zM43 532h173v-532h-173v532z" />
    <glyph glyph-name="j" unicode="j" horiz-adv-x="259" 
d="M129 575q-38 0 -63 24.5t-25 60.5t25 60t63 24t63.5 -24t25.5 -60t-25.5 -60.5t-63.5 -24.5zM216 -24q0 -81 -52.5 -124t-151.5 -43q-12 0 -27.5 0.5t-23.5 1.5v123q4 -1 10 -1h11q32 0 46.5 11.5t14.5 38.5v549h173v-556z" />
    <glyph glyph-name="k" unicode="k" horiz-adv-x="585" 
d="M583 0h-205l-155 214h-4v-214h-173v705h173v-377h4l152 204h193l-194 -244z" />
    <glyph glyph-name="k" unicode="&#x43a;" horiz-adv-x="585" 
d="M583 0h-205l-155 214h-4v-214h-173v705h173v-377h4l152 204h193l-194 -244z" />
    <glyph glyph-name="l" unicode="l" horiz-adv-x="262" 
d="M44 705h174v-705h-174v705z" />
    <glyph glyph-name="m" unicode="m" horiz-adv-x="895" 
d="M42 532h168v-103h3q16 52 56.5 82.5t95.5 30.5q60 0 98.5 -29.5t49.5 -83.5h4q15 51 59.5 82t104.5 31q39 0 71 -13t55 -37t35.5 -57t12.5 -74v-361h-173v317q0 84 -75 84q-35 0 -55.5 -23t-20.5 -63v-315h-165v319q0 40 -19.5 61t-54.5 21t-56 -23.5t-21 -63.5v-314
h-173v532z" />
    <glyph glyph-name="n" unicode="n" horiz-adv-x="602" 
d="M42 532h168v-100h3q21 53 62 81.5t103 28.5q90 0 137.5 -52.5t47.5 -148.5v-341h-173v304q0 46 -21.5 71.5t-64.5 25.5q-42 0 -65.5 -28t-23.5 -72v-301h-173v532z" />
    <glyph glyph-name="o" unicode="o" horiz-adv-x="595" 
d="M297 -13q-63 0 -113 18.5t-85.5 54.5t-54.5 88t-19 118q0 65 19.5 116.5t55 87.5t85.5 55t112 19t112.5 -19t86 -55t54.5 -87.5t19 -116.5q0 -67 -19 -119t-54 -87.5t-85.5 -54t-113.5 -18.5zM297 114q45 0 71 39t26 113q0 72 -26 111.5t-71 39.5q-44 0 -70 -39.5
t-26 -111.5q0 -74 25.5 -113t70.5 -39z" />
    <glyph glyph-name="p" unicode="p" horiz-adv-x="617" 
d="M378 540q102 0 157.5 -71.5t55.5 -202.5t-55 -202.5t-155 -71.5q-59 0 -101 26t-62 73h-3v-263h-173v704h172v-95h3q20 48 62 75.5t99 27.5zM314 127q46 0 73 37.5t27 101.5q0 63 -27 100.5t-73 37.5t-73 -37.5t-27 -100.5q0 -64 27 -101.5t73 -37.5z" />
    <glyph glyph-name="q" unicode="q" horiz-adv-x="617" 
d="M239 540q59 0 100.5 -29t59.5 -74h4v95h172v-704h-173v263h-4q-16 -43 -59 -71t-102 -28q-100 0 -156 72.5t-56 202.5q0 64 14.5 114.5t42.5 86t67.5 54t89.5 18.5zM302 127q47 0 73.5 36.5t26.5 102.5q0 64 -26.5 101t-73.5 37t-73 -36.5t-26 -101.5t26 -102t73 -37z
" />
    <glyph glyph-name="r" unicode="r" horiz-adv-x="393" 
d="M42 532h168v-101h3q30 109 125 109q25 0 44 -7v-148q-23 10 -55 10q-55 0 -83.5 -29.5t-28.5 -85.5v-280h-173v532z" />
    <glyph glyph-name="s" unicode="s" horiz-adv-x="541" 
d="M33 371q0 80 63.5 126.5t173.5 46.5q109 0 172 -47.5t64 -130.5h-158q-1 29 -22.5 45.5t-56.5 16.5q-32 0 -51 -13t-19 -33q0 -32 59 -45l112 -22q80 -17 115.5 -51.5t35.5 -95.5q0 -41 -18 -74.5t-50.5 -57t-78.5 -36.5t-102 -13q-117 0 -182 49t-70 131h168
q4 -30 26.5 -46.5t60.5 -16.5q35 0 55 12t20 33q0 16 -13.5 26t-44.5 16l-101 21q-78 17 -118 57t-40 102z" />
    <glyph glyph-name="t" unicode="t" horiz-adv-x="384" 
d="M258 651v-119h96v-128h-96v-223q0 -55 61 -55h19t16 2v-123q-13 -2 -31.5 -4t-44.5 -2q-104 0 -148.5 34.5t-44.5 112.5v258h-72v128h72v119h173z" />
    <glyph glyph-name="u" unicode="u" horiz-adv-x="602" 
d="M560 0h-168v101h-3q-18 -53 -56.5 -82t-98.5 -29q-43 0 -78.5 13.5t-61.5 39t-40.5 63t-14.5 84.5v342h173v-304q0 -48 23 -72.5t64 -24.5t64.5 27.5t23.5 72.5v301h173v-532z" />
    <glyph glyph-name="v" unicode="v" horiz-adv-x="551" 
d="M376 0h-199l-178 532h186l92 -387h4l91 387h181z" />
    <glyph glyph-name="w" unicode="w" horiz-adv-x="830" 
d="M686 0h-187l-84 358h-4l-83 -358h-183l-139 532h175l68 -376h3l81 376h166l82 -376h3l68 376h171z" />
    <glyph glyph-name="x" unicode="x" horiz-adv-x="559" 
d="M272 175l-85 -175h-180l160 264l-159 268h195l80 -170h3l78 170h187l-159 -264l159 -268h-187l-88 175h-4z" />
    <glyph glyph-name="y" unicode="y" horiz-adv-x="573" 
d="M122 -196h-11h-21t-20.5 0.5t-10.5 0.5v131q1 0 6.5 -0.5t12 -0.5h12h6.5q41 0 61 10.5t24 34.5q0 2 1 10t0 10l-180 532h191l97 -402h2l96 402h183l-170 -531q-17 -53 -41 -90.5t-57.5 -61t-78 -34.5t-102.5 -11z" />
    <glyph glyph-name="z" unicode="z" horiz-adv-x="525" 
d="M32 92l250 306v4h-244v130h446v-106l-227 -293v-3h236v-130h-461v92z" />
    <glyph glyph-name="braceleft" unicode="{" horiz-adv-x="413" 
d="M160 268q67 -8 102.5 -40t35.5 -86v-85q0 -48 17.5 -67.5t61.5 -19.5h23v-122h-41q-121 0 -173.5 45t-52.5 148v59q0 51 -27.5 73.5t-91.5 23.5v159q64 0 91.5 22.5t27.5 74.5v62q0 101 52.5 145.5t173.5 44.5h41v-122h-23q-44 0 -61.5 -20t-17.5 -68v-84
q0 -54 -35.5 -86t-102.5 -39v-18z" />
    <glyph glyph-name="bar" unicode="|" horiz-adv-x="413" 
d="M124 -152v857h166v-857h-166z" />
    <glyph glyph-name="braceright" unicode="}" horiz-adv-x="413" 
d="M254 286q-67 7 -103 39t-36 86v84q0 48 -17.5 68t-61.5 20h-22v122h41q60 0 102.5 -11t70 -34t40 -59t12.5 -86v-62q0 -52 27.5 -74.5t92.5 -22.5v-159q-65 -1 -92.5 -23.5t-27.5 -73.5v-58q0 -103 -52.5 -148.5t-172.5 -45.5h-41v122h22q44 0 61.5 19.5t17.5 67.5v85
q0 54 36 86t103 40v18z" />
    <glyph glyph-name="asciitilde" unicode="~" horiz-adv-x="670" 
d="M312 301q-20 20 -33.5 28t-30.5 8q-48 0 -50 -87h-129q-3 52 6.5 94t30.5 72t52.5 46t71.5 16q34 0 65 -15.5t65 -49.5q19 -20 32 -27.5t30 -7.5q24 0 36.5 22.5t13.5 64.5h129q3 -52 -6.5 -94t-30.5 -72t-52.5 -46t-71.5 -16q-34 0 -64 15t-64 49z" />
    <glyph glyph-name="uni00A0" unicode="&#xa0;" 
 />
    <glyph glyph-name="exclamdown" unicode="&#xa1;" horiz-adv-x="342" 
d="M171 393q-19 0 -36 7t-29.5 18.5t-19.5 27.5t-7 34q0 19 7 35t19.5 28t29.5 18.5t36 6.5t36 -6.5t29.5 -18.5t20 -28t7.5 -35q0 -18 -7.5 -34t-20 -27.5t-29.5 -18.5t-36 -7zM98 320h147l15 -473h-177z" />
    <glyph glyph-name="cent" unicode="&#xa2;" horiz-adv-x="670" 
d="M614 265q-7 -85 -62.5 -139.5t-143.5 -68.5v-92h-136v95q-49 10 -88.5 33.5t-68 59t-44 82t-15.5 102.5q0 55 15.5 101.5t44 81.5t68 59t88.5 34v95h136v-93q43 -7 79.5 -25.5t63.5 -46t43.5 -63t19.5 -77.5h-158q-8 38 -37 61.5t-69 23.5q-52 0 -86.5 -39.5
t-34.5 -111.5t34.5 -112t85.5 -40q43 0 71 21t36 59h158z" />
    <glyph glyph-name="sterling" unicode="&#xa3;" horiz-adv-x="670" 
d="M618 146v-146h-564v134q66 8 106 49.5t40 103.5v9t-1 9h-142v117h106q-11 27 -19.5 55t-8.5 59q0 90 73.5 139t209.5 49q23 0 47 -2t47 -5.5t42.5 -8t32.5 -9.5v-135q-26 11 -65.5 18t-77.5 7q-63 0 -97 -22.5t-34 -64.5q0 -20 5.5 -40t13.5 -40h188v-117h-154
q0 -45 -19.5 -88t-58.5 -67v-4h330z" />
    <glyph glyph-name="currency" unicode="&#xa4;" horiz-adv-x="670" 
d="M542 426q28 -51 28 -111t-28 -111l69 -68l-97 -97l-68 68q-25 -13 -53 -20t-58 -7t-58 7t-53 20l-68 -68l-96 97l68 68q-28 51 -28 111t28 111l-68 68l96 97l68 -69q51 28 111 28t111 -28l68 69l97 -97zM229 315q0 -22 8.5 -41.5t23 -34t33.5 -23t41 -8.5t41.5 8.5t34 23
t23 34t8.5 41.5t-8.5 41.5t-23 34.5t-34 23.5t-41.5 8.5t-41 -8.5t-33.5 -23.5t-23 -34.5t-8.5 -41.5z" />
    <glyph glyph-name="yen" unicode="&#xa5;" horiz-adv-x="670" 
d="M425 89v-89h-179v89h-131v89h131v58h-131v89h88l-200 380h191l139 -291h5l138 291h191l-200 -380h89v-89h-131v-58h131v-89h-131z" />
    <glyph glyph-name="brokenbar" unicode="&#xa6;" horiz-adv-x="413" 
d="M124 363v342h166v-342h-166zM124 -152v341h166v-341h-166z" />
    <glyph glyph-name="section" unicode="&#xa7;" horiz-adv-x="487" 
d="M241 -145q-47 0 -86.5 12t-68.5 34.5t-46 53.5t-19 69h144q3 -24 24.5 -39t52.5 -15q32 0 51.5 15t19.5 40q0 18 -14 30.5t-46 23.5l-95 33q-76 27 -109.5 62t-33.5 89q0 45 28 80t76 51v9q-53 26 -75 57t-22 78q0 38 16 69.5t45 53.5t70 34t92 12q47 0 86.5 -12t68 -34
t45.5 -53.5t19 -69.5h-143q-3 24 -24 39t-52 15t-50.5 -15.5t-19.5 -40.5q0 -18 13.5 -30t46.5 -24l91 -33q78 -29 112 -63.5t34 -85.5q0 -47 -29 -83t-78 -51v-9q54 -25 77.5 -55.5t23.5 -77.5q0 -38 -16 -69.5t-45.5 -53.5t-71 -34t-92.5 -12zM281 209q20 6 34 22.5
t14 35.5q0 20 -16.5 36.5t-45.5 25.5l-60 23q-20 -6 -34 -23t-14 -35q0 -20 16.5 -36t45.5 -26z" />
    <glyph glyph-name="dieresis" unicode="&#xa8;" horiz-adv-x="438" 
d="M136 628q-18 0 -31.5 13t-13.5 32q0 18 13.5 31t31.5 13q19 0 32 -13t13 -31q0 -19 -13 -32t-32 -13zM302 628q-18 0 -31 13t-13 32q0 18 13 31t31 13q19 0 32 -13t13 -31q0 -19 -13 -32t-32 -13z" />
    <glyph glyph-name="ordfeminine" unicode="&#xaa;" horiz-adv-x="407" 
d="M138 336q-53 0 -87.5 31.5t-34.5 79.5q0 105 151 114l79 4v18q0 17 -11.5 27t-31.5 10t-33 -9.5t-15 -23.5h-121q3 60 49.5 93.5t125.5 33.5q76 0 122.5 -34t46.5 -90v-249h-132v49h-3q-14 -25 -42 -39.5t-63 -14.5zM188 427q25 0 41.5 12t16.5 31v23l-58 -4
q-18 -2 -28.5 -9.5t-10.5 -21.5t11 -22.5t28 -8.5z" />
    <glyph glyph-name="guillemotleft" unicode="&#xab;" horiz-adv-x="676" 
d="M201 275l168 -200h-154l-166 199v4l170 200h150l-168 -199v-4zM458 275l168 -200h-152l-167 199v4l170 200h149l-168 -199v-4z" />
    <glyph glyph-name="logicalnot" unicode="&#xac;" horiz-adv-x="670" 
d="M603 17h-153v196h-383v147h536v-343z" />
    <glyph glyph-name="uni00AD" unicode="&#xad;" horiz-adv-x="487" 
d="M99 208v154h289v-154h-289z" />
    <glyph glyph-name="macron" unicode="&#xaf;" horiz-adv-x="488" 
d="M409 632h-329v80h329v-80z" />
    <glyph glyph-name="degree" unicode="&#xb0;" horiz-adv-x="372" 
d="M186 383q-35 0 -65 12.5t-52 34.5t-34.5 52t-12.5 65t12.5 65t34.5 52t52 34.5t65 12.5t65 -12.5t52 -34.5t34.5 -52t12.5 -65t-12.5 -65t-34.5 -52t-52 -34.5t-65 -12.5zM186 478q29 0 48 20.5t19 48.5q0 29 -19 49t-48 20q-27 0 -47 -20t-20 -49q0 -28 19.5 -48.5
t47.5 -20.5z" />
    <glyph glyph-name="plusminus" unicode="&#xb1;" horiz-adv-x="670" 
d="M409 211h-148v104h-167v126h167v104h148v-104h167v-126h-167v-104zM94 27v124h481v-124h-481z" />
    <glyph glyph-name="twosuperior" unicode="&#xb2;" horiz-adv-x="339" 
d="M12 761q0 58 41.5 91.5t113.5 33.5q67 0 107.5 -29t40.5 -77q0 -29 -14 -52t-49 -50l-66 -53v-2h132v-96h-299v86l148 121q12 11 17 18.5t5 15.5q0 24 -29 24q-13 0 -22 -8.5t-9 -22.5v-3h-117v3z" />
    <glyph glyph-name="threesuperior" unicode="&#xb3;" horiz-adv-x="353" 
d="M131 744h43q14 0 22.5 6.5t8.5 17.5q0 25 -33 25q-15 0 -24.5 -9t-10.5 -23h-115q-2 57 39.5 91t112.5 34q68 0 109 -27t41 -72q0 -29 -20.5 -51t-52.5 -27v-3q40 -5 62 -27t22 -55q0 -51 -43 -80t-118 -29q-69 0 -112 34.5t-46 91.5h123q2 -26 34 -26q14 0 23 6.5
t9 17.5t-8.5 17.5t-24.5 6.5h-41v81z" />
    <glyph glyph-name="acute" unicode="&#xb4;" horiz-adv-x="495" 
d="M116 624l111 154h151l-128 -154h-134z" />
    <glyph glyph-name="uni00B5" unicode="&#xb5;" horiz-adv-x="654" 
d="M42 532h171v-302q0 -48 20 -73.5t67 -25.5q44 0 68 27.5t24 72.5v301h171v-355q0 -32 8.5 -44.5t30.5 -12.5q7 0 15 1.5t12 3.5l4 -120q-15 -4 -39.5 -7t-44.5 -3q-56 0 -88 18.5t-52 61.5q-2 4 -3.5 7.5t-3.5 7.5h-3q-14 -47 -43.5 -73.5t-71.5 -26.5q-22 0 -40 7.5
t-26 17.5h-3v-187h-173v704z" />
    <glyph glyph-name="paragraph" unicode="&#xb6;" horiz-adv-x="789" 
d="M320 -133v324h-10q-58 0 -107 20t-85 54.5t-56 81.5t-20 100q0 55 19.5 102.5t54.5 82t84.5 54t110.5 19.5h171v-838h-162zM570 705h163v-838h-163v838z" />
    <glyph glyph-name="periodcentered" unicode="&#xb7;" horiz-adv-x="337" 
d="M169 221q-19 0 -36 7t-29.5 19.5t-20 29.5t-7.5 36q0 20 7.5 36.5t20 29.5t29.5 20t36 7t36 -7t29.5 -20t19.5 -29.5t7 -36.5q0 -19 -7 -36t-19.5 -29.5t-29.5 -19.5t-36 -7z" />
    <glyph glyph-name="cedilla" unicode="&#xb8;" horiz-adv-x="495" 
d="M184 -55l31 62h81v-7l-23 -48q38 0 61.5 -22t23.5 -59q0 -46 -32.5 -69.5t-92.5 -24.5q-20 0 -38.5 2t-28.5 6v64q9 -3 23 -4.5t28 -1.5q50 0 50 22q0 14 -12 19.5t-42 5.5h-29v55z" />
    <glyph glyph-name="onesuperior" unicode="&#xb9;" horiz-adv-x="283" 
d="M107 768h-3l-82 -53v105l84 55h132v-348h-131v241z" />
    <glyph glyph-name="ordmasculine" unicode="&#xba;" horiz-adv-x="422" 
d="M211 332q-90 0 -140.5 49t-50.5 142q0 91 51.5 141t139.5 50t139.5 -50t51.5 -141q0 -93 -50.5 -142t-140.5 -49zM211 429q25 0 39.5 24t14.5 70q0 45 -14.5 69.5t-39.5 24.5t-39 -24.5t-14 -69.5q0 -46 14 -70t39 -24z" />
    <glyph glyph-name="guillemotright" unicode="&#xbb;" horiz-adv-x="676" 
d="M49 478h150l170 -200v-4l-167 -199h-153l168 200v4zM307 478h150l169 -200v-4l-166 -199h-153l168 200v4z" />
    <glyph glyph-name="onequarter" unicode="&#xbc;" horiz-adv-x="835" 
d="M112 600h-3l-82 -53v105l84 55h132v-348h-131v241zM67 0l514 705h135l-513 -705h-136zM655 42h-169v106q24 49 50.5 95t62.5 105h179v-209h37v-97h-37v-42h-123v42zM590 133h70v133h-3q-14 -25 -23.5 -43.5t-17 -33t-13.5 -27.5t-13 -27v-2z" />
    <glyph glyph-name="onehalf" unicode="&#xbd;" horiz-adv-x="833" 
d="M112 600h-3l-82 -53v105l84 55h132v-348h-131v241zM67 0l514 705h135l-513 -705h-136zM508 234q0 58 41.5 91.5t113.5 33.5q67 0 107.5 -29t40.5 -77q0 -29 -14 -51.5t-48 -50.5l-67 -53v-2h132v-96h-299v86l149 122q21 18 21 33q0 25 -29 25q-13 0 -22 -9t-9 -23v-3
h-117v3z" />
    <glyph glyph-name="threequarters" unicode="&#xbe;" horiz-adv-x="874" 
d="M131 576h43q14 0 22.5 6.5t8.5 17.5q0 25 -33 25q-15 0 -24.5 -9t-10.5 -23h-115q-2 57 39.5 91t112.5 34q68 0 109 -27t41 -72q0 -29 -20.5 -51t-52.5 -27v-3q40 -5 62 -27t22 -55q0 -51 -43 -80t-118 -29q-69 0 -112 34.5t-46 91.5h123q2 -26 34 -26q14 0 23 6.5
t9 17.5t-8.5 17.5t-24.5 6.5h-41v81zM117 0l513 705h136l-514 -705h-135zM694 42h-170v106q25 49 51 95t63 105h178v-209h38v-97h-38v-42h-122v42zM628 133h70v133h-3q-13 -25 -22.5 -43.5t-17 -33t-14 -27.5l-13.5 -27v-2z" />
    <glyph glyph-name="questiondown" unicode="&#xbf;" horiz-adv-x="557" 
d="M299 393q-19 0 -36 7t-29.5 18.5t-19.5 27.5t-7 34q0 19 7 35t19.5 28t29.5 18.5t36 6.5t36 -6.5t29.5 -18.5t20 -28t7.5 -35q0 -18 -7.5 -34t-20 -27.5t-29.5 -18.5t-36 -7zM532 51q0 -48 -17.5 -87t-49.5 -66.5t-78 -42.5t-105 -15q-56 0 -101 14t-77 39.5t-49.5 62
t-17.5 80.5q0 54 25.5 92.5t79.5 70.5q25 14 41.5 26t26 24t13.5 25.5t4 30.5v23h152l1 -19q8 -63 -11.5 -100t-70.5 -67q-25 -14 -41 -26t-25.5 -23.5t-13.5 -24t-4 -28.5q0 -30 22 -48.5t57 -18.5t57 21.5t23 56.5h159z" />
    <glyph glyph-name="Agrave" unicode="&#xc0;" horiz-adv-x="721" 
d="M164 917h151l112 -154h-132zM472 155h-230l-45 -155h-183l237 705h219l237 -705h-190zM276 284h161l-78 271h-4z" />
    <glyph glyph-name="Aacute" unicode="&#xc1;" horiz-adv-x="721" 
d="M291 760l112 153h152l-132 -153h-132zM472 155h-230l-45 -155h-183l237 705h219l237 -705h-190zM276 284h161l-78 271h-4z" />
    <glyph glyph-name="Acircumflex" unicode="&#xc2;" horiz-adv-x="721" 
d="M427 910l127 -160h-122l-70 94h-4l-69 -94h-122l127 160h133zM472 155h-230l-45 -155h-183l237 705h219l237 -705h-190zM276 284h161l-78 271h-4z" />
    <glyph glyph-name="Atilde" unicode="&#xc3;" horiz-adv-x="721" 
d="M433 759q-26 0 -45 9.5t-33.5 21.5t-26.5 21.5t-25 9.5q-17 0 -25 -15.5t-9 -38.5h-89q0 33 9 58.5t25 43.5t36.5 27t44.5 9q27 0 45.5 -9.5t33.5 -21.5t27 -21.5t25 -9.5q17 0 24.5 15t8.5 41h89q0 -33 -9 -59t-25 -44t-37 -27.5t-44 -9.5zM472 155h-230l-45 -155h-183
l237 705h219l237 -705h-190zM276 284h161l-78 271h-4z" />
    <glyph glyph-name="Adieresis" unicode="&#xc4;" horiz-adv-x="721" 
d="M256 758q-31 0 -51.5 20t-20.5 49t20.5 49t51.5 20t51.5 -20t20.5 -49t-20.5 -49t-51.5 -20zM464 758q-31 0 -51 20t-20 49t20 49t51 20q32 0 52 -20t20 -49t-20 -49t-52 -20zM472 155h-230l-45 -155h-183l237 705h219l237 -705h-190zM276 284h161l-78 271h-4z" />
    <glyph glyph-name="Aring" unicode="&#xc5;" horiz-adv-x="721" 
d="M360 742q-21 0 -40 8t-33 21.5t-22.5 32t-8.5 39.5t8.5 39.5t22.5 32.5t33 22t40 8t40 -8t33.5 -22t22.5 -32.5t8 -39.5t-8 -39.5t-22.5 -32t-33.5 -21.5t-40 -8zM360 803q17 0 29.5 11.5t12.5 28.5t-12.5 29t-29.5 12t-29 -12t-12 -29t12 -28.5t29 -11.5zM472 155h-230
l-45 -155h-183l237 705h219l237 -705h-190zM276 284h161l-78 271h-4z" />
    <glyph glyph-name="AE" unicode="&#xc6;" horiz-adv-x="1012" 
d="M473 160h-215l-62 -160h-177l281 705h652v-144h-320v-142h302v-132h-302v-143h320v-144h-479v160zM305 289h168v281h-60z" />
    <glyph glyph-name="Ccedilla" unicode="&#xc7;" horiz-adv-x="727" 
d="M696 266q-3 -58 -25 -106.5t-59 -84.5t-87.5 -58t-110.5 -28l-18 -37q38 0 61 -22t23 -59q0 -46 -32 -69.5t-93 -24.5q-20 0 -38.5 2t-27.5 6v64q8 -3 22.5 -4.5t28.5 -1.5q50 0 50 22q0 14 -12.5 19.5t-42.5 5.5h-28v55l23 45q-69 7 -124 34.5t-93 74t-58.5 110.5
t-20.5 144q0 86 24 154t68.5 114.5t107.5 71t142 24.5q67 0 124 -20.5t100 -57.5t68 -89t27 -114h-173q-6 63 -46 100t-100 37q-74 0 -117 -58.5t-43 -161.5q0 -104 43 -163t117 -59q60 0 99.5 36t47.5 99h173z" />
    <glyph glyph-name="Egrave" unicode="&#xc8;" horiz-adv-x="584" 
d="M98 917h152l111 -154h-132zM536 0h-483v705h483v-145h-304v-140h286v-132h-286v-143h304v-145z" />
    <glyph glyph-name="Eacute" unicode="&#xc9;" horiz-adv-x="584" 
d="M225 760l112 153h152l-132 -153h-132zM536 0h-483v705h483v-145h-304v-140h286v-132h-286v-143h304v-145z" />
    <glyph glyph-name="Ecircumflex" unicode="&#xca;" horiz-adv-x="584" 
d="M361 910l127 -160h-122l-70 94h-4l-69 -94h-122l127 160h133zM536 0h-483v705h483v-145h-304v-140h286v-132h-286v-143h304v-145z" />
    <glyph glyph-name="Edieresis" unicode="&#xcb;" horiz-adv-x="584" 
d="M190 758q-31 0 -51.5 20t-20.5 49t20.5 49t51.5 20t51.5 -20t20.5 -49t-20.5 -49t-51.5 -20zM398 758q-31 0 -51 20t-20 49t20 49t51 20q32 0 52 -20t20 -49t-20 -49t-52 -20zM536 0h-483v705h483v-145h-304v-140h286v-132h-286v-143h304v-145z" />
    <glyph glyph-name="Igrave" unicode="&#xcc;" horiz-adv-x="286" 
d="M-54 917h152l112 -154h-132zM53 0v705h179v-705h-179z" />
    <glyph glyph-name="Iacute" unicode="&#xcd;" horiz-adv-x="286" 
d="M74 760l112 153h152l-132 -153h-132zM53 0v705h179v-705h-179z" />
    <glyph glyph-name="Icircumflex" unicode="&#xce;" horiz-adv-x="286" 
d="M209 910l128 -160h-122l-70 94h-4l-70 -94h-122l128 160h132zM53 0v705h179v-705h-179z" />
    <glyph glyph-name="Idieresis" unicode="&#xcf;" horiz-adv-x="286" 
d="M39 758q-31 0 -51.5 20t-20.5 49t20.5 49t51.5 20t51 -20t20 -49t-20 -49t-51 -20zM247 758q-31 0 -51.5 20t-20.5 49t20.5 49t51.5 20q32 0 52 -20t20 -49t-20 -49t-52 -20zM53 0v705h179v-705h-179z" />
    <glyph glyph-name="Eth" unicode="&#xd0;" horiz-adv-x="724" 
d="M351 705q80 0 142.5 -23t105.5 -67t66 -109.5t23 -149.5t-23 -150.5t-66 -112t-105.5 -69.5t-142.5 -24h-287v293h-39v123h39v289h287zM327 145q88 0 133.5 52.5t45.5 158.5q0 100 -47 152t-132 52h-83v-144h118v-123h-118v-148h83z" />
    <glyph glyph-name="Ntilde" unicode="&#xd1;" horiz-adv-x="722" 
d="M434 759q-26 0 -45 9.5t-33.5 21.5t-26.5 21.5t-25 9.5q-17 0 -25 -15.5t-9 -38.5h-89q0 33 9 58.5t25 43.5t36.5 27t44.5 9q27 0 45.5 -9.5t33.5 -21.5t27 -21.5t25 -9.5q17 0 24.5 15t8.5 41h89q0 -33 -9 -59t-25 -44t-37 -27.5t-44 -9.5zM53 0v705h143l299 -410h4v410
h170v-705h-142l-300 414h-4v-414h-170z" />
    <glyph glyph-name="Ograve" unicode="&#xd2;" horiz-adv-x="764" 
d="M185 917h152l112 -154h-132zM382 717q80 0 144 -25.5t109 -72.5t69.5 -115t24.5 -152t-24.5 -151.5t-69.5 -115t-109 -72.5t-144 -25t-144.5 25t-109.5 72.5t-69.5 115t-24.5 151.5t24.5 152t69.5 115t109.5 72.5t144.5 25.5zM382 571q-37 0 -68 -15.5t-52.5 -44
t-33.5 -69t-12 -90.5t11.5 -90.5t33.5 -69t52.5 -44t68.5 -15.5t68 15.5t52 44t33.5 69t11.5 90.5t-11.5 90.5t-33.5 69t-52 44t-68 15.5z" />
    <glyph glyph-name="Oacute" unicode="&#xd3;" horiz-adv-x="764" 
d="M313 760l111 153h153l-133 -153h-131zM382 717q80 0 144 -25.5t109 -72.5t69.5 -115t24.5 -152t-24.5 -151.5t-69.5 -115t-109 -72.5t-144 -25t-144.5 25t-109.5 72.5t-69.5 115t-24.5 151.5t24.5 152t69.5 115t109.5 72.5t144.5 25.5zM382 571q-37 0 -68 -15.5
t-52.5 -44t-33.5 -69t-12 -90.5t11.5 -90.5t33.5 -69t52.5 -44t68.5 -15.5t68 15.5t52 44t33.5 69t11.5 90.5t-11.5 90.5t-33.5 69t-52 44t-68 15.5z" />
    <glyph glyph-name="Ocircumflex" unicode="&#xd4;" horiz-adv-x="764" 
d="M448 910l128 -160h-122l-70 94h-4l-70 -94h-122l127 160h133zM382 717q80 0 144 -25.5t109 -72.5t69.5 -115t24.5 -152t-24.5 -151.5t-69.5 -115t-109 -72.5t-144 -25t-144.5 25t-109.5 72.5t-69.5 115t-24.5 151.5t24.5 152t69.5 115t109.5 72.5t144.5 25.5zM382 571
q-37 0 -68 -15.5t-52.5 -44t-33.5 -69t-12 -90.5t11.5 -90.5t33.5 -69t52.5 -44t68.5 -15.5t68 15.5t52 44t33.5 69t11.5 90.5t-11.5 90.5t-33.5 69t-52 44t-68 15.5z" />
    <glyph glyph-name="Otilde" unicode="&#xd5;" horiz-adv-x="764" 
d="M454 759q-26 0 -45 9.5t-33.5 21.5t-26.5 21.5t-25 9.5q-17 0 -25 -15.5t-9 -38.5h-88q0 33 9 58.5t25 43.5t36.5 27t44.5 9q27 0 45.5 -9.5t33 -21.5t26.5 -21.5t25 -9.5q17 0 24.5 15t9.5 41h88q0 -33 -9 -59t-25 -44t-36.5 -27.5t-44.5 -9.5zM382 717q80 0 144 -25.5
t109 -72.5t69.5 -115t24.5 -152t-24.5 -151.5t-69.5 -115t-109 -72.5t-144 -25t-144.5 25t-109.5 72.5t-69.5 115t-24.5 151.5t24.5 152t69.5 115t109.5 72.5t144.5 25.5zM382 571q-37 0 -68 -15.5t-52.5 -44t-33.5 -69t-12 -90.5t11.5 -90.5t33.5 -69t52.5 -44t68.5 -15.5
t68 15.5t52 44t33.5 69t11.5 90.5t-11.5 90.5t-33.5 69t-52 44t-68 15.5z" />
    <glyph glyph-name="Odieresis" unicode="&#xd6;" horiz-adv-x="764" 
d="M277 758q-31 0 -51 20t-20 49t20 49t51 20q32 0 52 -20t20 -49t-20 -49t-52 -20zM486 758q-31 0 -51.5 20t-20.5 49t20.5 49t51.5 20t51.5 -20t20.5 -49t-20.5 -49t-51.5 -20zM382 717q80 0 144 -25.5t109 -72.5t69.5 -115t24.5 -152t-24.5 -151.5t-69.5 -115t-109 -72.5
t-144 -25t-144.5 25t-109.5 72.5t-69.5 115t-24.5 151.5t24.5 152t69.5 115t109.5 72.5t144.5 25.5zM382 571q-37 0 -68 -15.5t-52.5 -44t-33.5 -69t-12 -90.5t11.5 -90.5t33.5 -69t52.5 -44t68.5 -15.5t68 15.5t52 44t33.5 69t11.5 90.5t-11.5 90.5t-33.5 69t-52 44
t-68 15.5z" />
    <glyph glyph-name="Oslash" unicode="&#xd8;" horiz-adv-x="764" 
d="M608 644q59 -48 90 -121.5t31 -170.5q0 -84 -24.5 -151.5t-69.5 -115t-109 -72.5t-144 -25q-87 0 -158 31l-34 -57l-50 31l33 54q-67 46 -103 123.5t-36 181.5q0 84 24.5 152t69.5 115t109.5 72.5t144.5 25.5q100 0 175 -40l38 63l55 -28zM474 541q-37 30 -92 30
q-37 0 -68 -15.5t-52.5 -44t-33.5 -69t-12 -90.5q0 -101 45 -160zM307 152q35 -19 75 -19q38 0 68 15.5t52 44t33.5 69t11.5 90.5q0 85 -32 140z" />
    <glyph glyph-name="Ugrave" unicode="&#xd9;" horiz-adv-x="713" 
d="M160 917h152l112 -154h-132zM232 269q0 -62 32.5 -96.5t92.5 -34.5t92 34.5t32 96.5v436h179v-455q0 -59 -21.5 -107.5t-61.5 -83t-95.5 -53t-124.5 -18.5t-125 18.5t-96 53t-61.5 83t-21.5 107.5v455h179v-436z" />
    <glyph glyph-name="Uacute" unicode="&#xda;" horiz-adv-x="713" 
d="M288 760l111 153h153l-133 -153h-131zM232 269q0 -62 32.5 -96.5t92.5 -34.5t92 34.5t32 96.5v436h179v-455q0 -59 -21.5 -107.5t-61.5 -83t-95.5 -53t-124.5 -18.5t-125 18.5t-96 53t-61.5 83t-21.5 107.5v455h179v-436z" />
    <glyph glyph-name="Ucircumflex" unicode="&#xdb;" horiz-adv-x="713" 
d="M423 910l128 -160h-122l-70 94h-4l-70 -94h-122l128 160h132zM232 269q0 -62 32.5 -96.5t92.5 -34.5t92 34.5t32 96.5v436h179v-455q0 -59 -21.5 -107.5t-61.5 -83t-95.5 -53t-124.5 -18.5t-125 18.5t-96 53t-61.5 83t-21.5 107.5v455h179v-436z" />
    <glyph glyph-name="Udieresis" unicode="&#xdc;" horiz-adv-x="713" 
d="M252 758q-31 0 -51 20t-20 49t20 49t51 20q32 0 52 -20t20 -49t-20 -49t-52 -20zM461 758q-31 0 -51.5 20t-20.5 49t20.5 49t51.5 20t51.5 -20t20.5 -49t-20.5 -49t-51.5 -20zM232 269q0 -62 32.5 -96.5t92.5 -34.5t92 34.5t32 96.5v436h179v-455q0 -59 -21.5 -107.5
t-61.5 -83t-95.5 -53t-124.5 -18.5t-125 18.5t-96 53t-61.5 83t-21.5 107.5v455h179v-436z" />
    <glyph glyph-name="Yacute" unicode="&#xdd;" horiz-adv-x="693" 
d="M277 760l112 153h153l-133 -153h-132zM257 0v242l-243 463h193l140 -293h3l140 293h189l-243 -463v-242h-179z" />
    <glyph glyph-name="Thorn" unicode="&#xde;" horiz-adv-x="675" 
d="M251 705v-107h134q55 0 100 -16t77.5 -46.5t50 -74t17.5 -98.5q0 -54 -18.5 -97t-52.5 -73.5t-81 -46.5t-104 -16h-124v-130h-179v705h180zM250 266h85q54 0 84 24.5t30 72.5t-29.5 72.5t-82.5 24.5h-87v-194z" />
    <glyph glyph-name="germandbls" unicode="&#xdf;" horiz-adv-x="683" 
d="M61 0v517q0 90 70 141.5t192 51.5q57 0 104.5 -13t81.5 -37t53 -57.5t19 -73.5q0 -57 -27.5 -98.5t-73.5 -53.5v-8q36 -2 65 -16.5t50 -38.5t32.5 -56t11.5 -69q0 -92 -63.5 -144.5t-175.5 -52.5q-27 0 -54.5 2.5t-42.5 5.5v135q13 -5 27.5 -7t32.5 -2q48 0 73.5 21.5
t25.5 58.5q0 36 -29.5 58t-81.5 22h-38v133h23q35 0 56.5 21t21.5 56q0 36 -23.5 57t-64.5 21q-92 0 -92 -96v-478h-173z" />
    <glyph glyph-name="agrave" unicode="&#xe0;" horiz-adv-x="571" 
d="M228 605l-127 155h151l111 -155h-135zM200 -8q-37 0 -69.5 12t-57 33t-38.5 51t-14 66q0 75 55.5 116t159.5 47l124 8v30q0 32 -20.5 49t-54.5 17q-35 0 -56.5 -16.5t-25.5 -40.5h-156q4 82 69 131t177 49q54 0 97.5 -13t74.5 -36.5t48 -56.5t17 -73v-365h-169v76h-3
q-22 -41 -66 -62.5t-92 -21.5zM262 111q20 0 37.5 6t31 16.5t21.5 25t8 32.5v37l-96 -7q-35 -2 -53 -17t-18 -38q0 -26 19 -40.5t50 -14.5z" />
    <glyph glyph-name="aacute" unicode="&#xe1;" horiz-adv-x="571" 
d="M220 605l111 155h151l-127 -155h-135zM200 -8q-37 0 -69.5 12t-57 33t-38.5 51t-14 66q0 75 55.5 116t159.5 47l124 8v30q0 32 -20.5 49t-54.5 17q-35 0 -56.5 -16.5t-25.5 -40.5h-156q4 82 69 131t177 49q54 0 97.5 -13t74.5 -36.5t48 -56.5t17 -73v-365h-169v76h-3
q-22 -41 -66 -62.5t-92 -21.5zM262 111q20 0 37.5 6t31 16.5t21.5 25t8 32.5v37l-96 -7q-35 -2 -53 -17t-18 -38q0 -26 19 -40.5t50 -14.5z" />
    <glyph glyph-name="acircumflex" unicode="&#xe2;" horiz-adv-x="571" 
d="M483 599h-125l-66 89h-3l-67 -89h-124l126 159h133zM200 -8q-37 0 -69.5 12t-57 33t-38.5 51t-14 66q0 75 55.5 116t159.5 47l124 8v30q0 32 -20.5 49t-54.5 17q-35 0 -56.5 -16.5t-25.5 -40.5h-156q4 82 69 131t177 49q54 0 97.5 -13t74.5 -36.5t48 -56.5t17 -73v-365
h-169v76h-3q-22 -41 -66 -62.5t-92 -21.5zM262 111q20 0 37.5 6t31 16.5t21.5 25t8 32.5v37l-96 -7q-35 -2 -53 -17t-18 -38q0 -26 19 -40.5t50 -14.5z" />
    <glyph glyph-name="atilde" unicode="&#xe3;" horiz-adv-x="571" 
d="M363 600q-26 0 -45 9.5t-33.5 21.5t-26.5 21.5t-25 9.5q-17 0 -25 -15.5t-9 -38.5h-88q0 33 9 59t25 44t36.5 27t44.5 9q27 0 45.5 -9.5t33 -21.5t26.5 -21.5t25 -9.5q17 0 25 15t9 41h89q0 -33 -9.5 -59.5t-25 -44.5t-36.5 -27.5t-45 -9.5zM200 -8q-37 0 -69.5 12
t-57 33t-38.5 51t-14 66q0 75 55.5 116t159.5 47l124 8v30q0 32 -20.5 49t-54.5 17q-35 0 -56.5 -16.5t-25.5 -40.5h-156q4 82 69 131t177 49q54 0 97.5 -13t74.5 -36.5t48 -56.5t17 -73v-365h-169v76h-3q-22 -41 -66 -62.5t-92 -21.5zM262 111q20 0 37.5 6t31 16.5t21.5 25
t8 32.5v37l-96 -7q-35 -2 -53 -17t-18 -38q0 -26 19 -40.5t50 -14.5z" />
    <glyph glyph-name="adieresis" unicode="&#xe4;" horiz-adv-x="571" 
d="M186 600q-31 0 -51.5 20t-20.5 48q0 29 20.5 49t51.5 20q32 0 52 -20t20 -49q0 -28 -20 -48t-52 -20zM395 600q-31 0 -51.5 20t-20.5 48q0 29 20.5 49t51.5 20t51 -20t20 -49q0 -28 -20 -48t-51 -20zM200 -8q-37 0 -69.5 12t-57 33t-38.5 51t-14 66q0 75 55.5 116
t159.5 47l124 8v30q0 32 -20.5 49t-54.5 17q-35 0 -56.5 -16.5t-25.5 -40.5h-156q4 82 69 131t177 49q54 0 97.5 -13t74.5 -36.5t48 -56.5t17 -73v-365h-169v76h-3q-22 -41 -66 -62.5t-92 -21.5zM262 111q20 0 37.5 6t31 16.5t21.5 25t8 32.5v37l-96 -7q-35 -2 -53 -17
t-18 -38q0 -26 19 -40.5t50 -14.5z" />
    <glyph glyph-name="aring" unicode="&#xe5;" horiz-adv-x="571" 
d="M291 583q-23 0 -44 9t-36.5 24t-24.5 35t-9 42q0 23 9 43t24.5 35t36.5 23.5t44 8.5t43.5 -8.5t35.5 -23.5t24 -35t9 -43q0 -22 -9 -42t-24 -35t-35.5 -24t-43.5 -9zM291 650q17 0 30.5 12.5t13.5 30.5t-13.5 31t-30.5 13q-19 0 -32 -13t-13 -31t13 -30.5t32 -12.5z
M200 -8q-37 0 -69.5 12t-57 33t-38.5 51t-14 66q0 75 55.5 116t159.5 47l124 8v30q0 32 -20.5 49t-54.5 17q-35 0 -56.5 -16.5t-25.5 -40.5h-156q4 82 69 131t177 49q54 0 97.5 -13t74.5 -36.5t48 -56.5t17 -73v-365h-169v76h-3q-22 -41 -66 -62.5t-92 -21.5zM262 111
q20 0 37.5 6t31 16.5t21.5 25t8 32.5v37l-96 -7q-35 -2 -53 -17t-18 -38q0 -26 19 -40.5t50 -14.5z" />
    <glyph glyph-name="ae" unicode="&#xe6;" horiz-adv-x="900" 
d="M621 -13q-68 0 -120 25.5t-78 69.5h-4q-26 -42 -74 -66t-116 -24q-48 0 -86.5 12t-65.5 33.5t-41.5 51t-14.5 65.5q0 74 55 115.5t161 47.5l123 7v26q0 31 -23 51t-58 20q-33 0 -56.5 -15.5t-26.5 -41.5h-153q2 41 19.5 74t48.5 56.5t72.5 36.5t91.5 13q63 0 107.5 -18.5
t67.5 -48.5h4q26 32 69 49.5t103 17.5q55 0 101 -18.5t79 -53t51 -84t18 -111.5v-49h-357v-11q0 -48 29 -77.5t76 -29.5q34 0 58.5 15.5t34.5 42.5h156q-6 -41 -26.5 -74.5t-53.5 -57t-76.5 -36.5t-94.5 -13zM617 421q-40 0 -67 -26t-30 -68h192q-2 43 -27.5 68.5
t-67.5 25.5zM259 108q21 0 39 6.5t32 18t22 26.5t8 32v36l-101 -7q-35 -3 -55 -17.5t-20 -37.5q0 -25 21.5 -41t53.5 -16z" />
    <glyph glyph-name="ccedilla" unicode="&#xe7;" horiz-adv-x="568" 
d="M387 322q-5 42 -28.5 66.5t-61.5 24.5q-46 0 -71 -38t-25 -109q0 -72 25 -109.5t71 -37.5q38 0 61.5 23t28.5 65h159q-3 -94 -60 -151.5t-154 -66.5l-19 -37q38 0 61.5 -22t23.5 -59q0 -46 -32 -69.5t-93 -24.5q-20 0 -38.5 2t-27.5 6v64q8 -3 22.5 -4.5t28.5 -1.5
q50 0 50 22q0 14 -12.5 19.5t-42.5 5.5h-28v55l23 45q-105 14 -164 86t-59 190q0 65 19 116.5t54 87.5t84.5 55t111.5 19q56 0 102 -16t79 -45t51.5 -70t19.5 -91h-159z" />
    <glyph glyph-name="egrave" unicode="&#xe8;" horiz-adv-x="578" 
d="M227 605l-127 155h151l111 -155h-135zM549 168q-6 -41 -26.5 -74.5t-53.5 -57t-77 -36.5t-96 -13q-64 0 -114 19t-85 54.5t-53.5 87t-18.5 115.5q0 65 18.5 116.5t53 88.5t83.5 56.5t110 19.5q60 0 108.5 -19t82.5 -54t52.5 -84t18.5 -110v-49h-359v-11q0 -48 29 -77.5
t76 -29.5q35 0 60.5 15.5t34.5 42.5h156zM293 421q-40 0 -67 -26t-30 -68h193q-2 42 -28 68t-68 26z" />
    <glyph glyph-name="eacute" unicode="&#xe9;" horiz-adv-x="578" 
d="M219 605l111 155h151l-127 -155h-135zM549 168q-6 -41 -26.5 -74.5t-53.5 -57t-77 -36.5t-96 -13q-64 0 -114 19t-85 54.5t-53.5 87t-18.5 115.5q0 65 18.5 116.5t53 88.5t83.5 56.5t110 19.5q60 0 108.5 -19t82.5 -54t52.5 -84t18.5 -110v-49h-359v-11q0 -48 29 -77.5
t76 -29.5q35 0 60.5 15.5t34.5 42.5h156zM293 421q-40 0 -67 -26t-30 -68h193q-2 42 -28 68t-68 26z" />
    <glyph glyph-name="ecircumflex" unicode="&#xea;" horiz-adv-x="578" 
d="M482 599h-125l-65 89h-4l-67 -89h-124l126 159h133zM549 168q-6 -41 -26.5 -74.5t-53.5 -57t-77 -36.5t-96 -13q-64 0 -114 19t-85 54.5t-53.5 87t-18.5 115.5q0 65 18.5 116.5t53 88.5t83.5 56.5t110 19.5q60 0 108.5 -19t82.5 -54t52.5 -84t18.5 -110v-49h-359v-11
q0 -48 29 -77.5t76 -29.5q35 0 60.5 15.5t34.5 42.5h156zM293 421q-40 0 -67 -26t-30 -68h193q-2 42 -28 68t-68 26z" />
    <glyph glyph-name="edieresis" unicode="&#xeb;" horiz-adv-x="578" 
d="M185 600q-31 0 -51.5 20t-20.5 48q0 29 20.5 49t51.5 20q32 0 52 -20t20 -49q0 -28 -20 -48t-52 -20zM394 600q-31 0 -51.5 20t-20.5 48q0 29 20.5 49t51.5 20t51 -20t20 -49q0 -28 -20 -48t-51 -20zM549 168q-6 -41 -26.5 -74.5t-53.5 -57t-77 -36.5t-96 -13
q-64 0 -114 19t-85 54.5t-53.5 87t-18.5 115.5q0 65 18.5 116.5t53 88.5t83.5 56.5t110 19.5q60 0 108.5 -19t82.5 -54t52.5 -84t18.5 -110v-49h-359v-11q0 -48 29 -77.5t76 -29.5q35 0 60.5 15.5t34.5 42.5h156zM293 421q-40 0 -67 -26t-30 -68h193q-2 42 -28 68t-68 26z
" />
    <glyph glyph-name="igrave" unicode="&#xec;" horiz-adv-x="259" 
d="M67 605l-127 155h151l111 -155h-135zM43 532h173v-532h-173v532z" />
    <glyph glyph-name="iacute" unicode="&#xed;" horiz-adv-x="259" 
d="M59 605l111 155h151l-127 -155h-135zM43 532h173v-532h-173v532z" />
    <glyph glyph-name="icircumflex" unicode="&#xee;" horiz-adv-x="259" 
d="M322 599h-125l-66 89h-4l-66 -89h-124l126 159h133zM43 532h173v-532h-173v532z" />
    <glyph glyph-name="idieresis" unicode="&#xef;" horiz-adv-x="259" 
d="M25 600q-31 0 -51.5 20t-20.5 48q0 29 20.5 49t51.5 20t51.5 -20t20.5 -49q0 -28 -20.5 -48t-51.5 -20zM233 600q-31 0 -51 20t-20 48q0 29 20 49t51 20q32 0 52 -20t20 -49q0 -28 -20 -48t-52 -20zM43 532h173v-532h-173v532z" />
    <glyph glyph-name="eth" unicode="&#xf0;" horiz-adv-x="609" 
d="M297 -8q-60 0 -110 18t-85.5 52t-55.5 83.5t-20 113.5q0 58 17 103t46.5 76t70 47t87.5 16q40 0 71.5 -13t51.5 -37h8q-10 30 -32.5 63t-45.5 56l-138 -47l-32 76l108 36q-42 33 -127 86h218q11 -8 24.5 -18.5t24.5 -20.5l130 45l34 -76l-96 -32q126 -135 126 -324
q0 -73 -20.5 -130t-57 -95t-87 -58t-110.5 -20zM302 389q-47 0 -72.5 -34.5t-25.5 -96.5q0 -61 26 -96t72 -35t72 35t26 96q0 62 -26 96.5t-72 34.5z" />
    <glyph glyph-name="ntilde" unicode="&#xf1;" horiz-adv-x="602" 
d="M375 600q-26 0 -45 9.5t-33.5 21.5t-26.5 21.5t-25 9.5q-17 0 -25.5 -15.5t-9.5 -38.5h-88q0 33 9 59t25 44t36.5 27t44.5 9q27 0 45.5 -9.5t33.5 -21.5t27 -21.5t25 -9.5q17 0 24.5 15t8.5 41h89q0 -33 -9 -59.5t-25 -44.5t-37 -27.5t-44 -9.5zM42 532h168v-100h3
q21 53 62 81.5t103 28.5q90 0 137.5 -52.5t47.5 -148.5v-341h-173v304q0 46 -21.5 71.5t-64.5 25.5q-42 0 -65.5 -28t-23.5 -72v-301h-173v532z" />
    <glyph glyph-name="ograve" unicode="&#xf2;" horiz-adv-x="595" 
d="M235 605l-127 155h151l111 -155h-135zM297 -13q-63 0 -113 18.5t-85.5 54.5t-54.5 88t-19 118q0 65 19.5 116.5t55 87.5t85.5 55t112 19t112.5 -19t86 -55t54.5 -87.5t19 -116.5q0 -67 -19 -119t-54 -87.5t-85.5 -54t-113.5 -18.5zM297 114q45 0 71 39t26 113
q0 72 -26 111.5t-71 39.5q-44 0 -70 -39.5t-26 -111.5q0 -74 25.5 -113t70.5 -39z" />
    <glyph glyph-name="oacute" unicode="&#xf3;" horiz-adv-x="595" 
d="M227 605l111 155h151l-127 -155h-135zM297 -13q-63 0 -113 18.5t-85.5 54.5t-54.5 88t-19 118q0 65 19.5 116.5t55 87.5t85.5 55t112 19t112.5 -19t86 -55t54.5 -87.5t19 -116.5q0 -67 -19 -119t-54 -87.5t-85.5 -54t-113.5 -18.5zM297 114q45 0 71 39t26 113
q0 72 -26 111.5t-71 39.5q-44 0 -70 -39.5t-26 -111.5q0 -74 25.5 -113t70.5 -39z" />
    <glyph glyph-name="ocircumflex" unicode="&#xf4;" horiz-adv-x="595" 
d="M490 599h-125l-66 89h-4l-66 -89h-125l127 159h133zM297 -13q-63 0 -113 18.5t-85.5 54.5t-54.5 88t-19 118q0 65 19.5 116.5t55 87.5t85.5 55t112 19t112.5 -19t86 -55t54.5 -87.5t19 -116.5q0 -67 -19 -119t-54 -87.5t-85.5 -54t-113.5 -18.5zM297 114q45 0 71 39
t26 113q0 72 -26 111.5t-71 39.5q-44 0 -70 -39.5t-26 -111.5q0 -74 25.5 -113t70.5 -39z" />
    <glyph glyph-name="otilde" unicode="&#xf5;" horiz-adv-x="595" 
d="M370 600q-26 0 -45 9.5t-33.5 21.5t-26.5 21.5t-25 9.5q-17 0 -25 -15.5t-9 -38.5h-88q0 33 9 59t25 44t36.5 27t44.5 9q27 0 45.5 -9.5t33 -21.5t26.5 -21.5t25 -9.5q17 0 25 15t9 41h88q0 -33 -9 -59.5t-25 -44.5t-36.5 -27.5t-44.5 -9.5zM297 -13q-63 0 -113 18.5
t-85.5 54.5t-54.5 88t-19 118q0 65 19.5 116.5t55 87.5t85.5 55t112 19t112.5 -19t86 -55t54.5 -87.5t19 -116.5q0 -67 -19 -119t-54 -87.5t-85.5 -54t-113.5 -18.5zM297 114q45 0 71 39t26 113q0 72 -26 111.5t-71 39.5q-44 0 -70 -39.5t-26 -111.5q0 -74 25.5 -113
t70.5 -39z" />
    <glyph glyph-name="odieresis" unicode="&#xf6;" horiz-adv-x="595" 
d="M193 600q-31 0 -51.5 20t-20.5 48q0 29 20.5 49t51.5 20t51.5 -20t20.5 -49q0 -28 -20.5 -48t-51.5 -20zM401 600q-31 0 -51 20t-20 48q0 29 20 49t51 20q32 0 52 -20t20 -49q0 -28 -20 -48t-52 -20zM297 -13q-63 0 -113 18.5t-85.5 54.5t-54.5 88t-19 118
q0 65 19.5 116.5t55 87.5t85.5 55t112 19t112.5 -19t86 -55t54.5 -87.5t19 -116.5q0 -67 -19 -119t-54 -87.5t-85.5 -54t-113.5 -18.5zM297 114q45 0 71 39t26 113q0 72 -26 111.5t-71 39.5q-44 0 -70 -39.5t-26 -111.5q0 -74 25.5 -113t70.5 -39z" />
    <glyph glyph-name="oslash" unicode="&#xf8;" horiz-adv-x="595" 
d="M471 492q48 -35 73 -92.5t25 -133.5q0 -67 -19 -119t-54 -87.5t-85.5 -54t-113.5 -18.5t-117 20l-30 -49l-49 28l29 48q-51 35 -78 93.5t-27 138.5q0 65 19.5 116.5t55 87.5t85.5 55t112 19q69 0 124 -23l30 50l52 -27zM349 399q-22 18 -52 18q-44 0 -70 -39.5
t-26 -111.5q0 -53 14 -89zM252 127q21 -13 45 -13q45 0 71 39t26 113q0 44 -11 79z" />
    <glyph glyph-name="ugrave" unicode="&#xf9;" horiz-adv-x="602" 
d="M238 605l-127 155h151l111 -155h-135zM560 0h-168v101h-3q-18 -53 -56.5 -82t-98.5 -29q-43 0 -78.5 13.5t-61.5 39t-40.5 63t-14.5 84.5v342h173v-304q0 -48 23 -72.5t64 -24.5t64.5 27.5t23.5 72.5v301h173v-532z" />
    <glyph glyph-name="uacute" unicode="&#xfa;" horiz-adv-x="602" 
d="M230 605l111 155h152l-128 -155h-135zM560 0h-168v101h-3q-18 -53 -56.5 -82t-98.5 -29q-43 0 -78.5 13.5t-61.5 39t-40.5 63t-14.5 84.5v342h173v-304q0 -48 23 -72.5t64 -24.5t64.5 27.5t23.5 72.5v301h173v-532z" />
    <glyph glyph-name="ucircumflex" unicode="&#xfb;" horiz-adv-x="602" 
d="M494 599h-125l-66 89h-4l-67 -89h-124l126 159h133zM560 0h-168v101h-3q-18 -53 -56.5 -82t-98.5 -29q-43 0 -78.5 13.5t-61.5 39t-40.5 63t-14.5 84.5v342h173v-304q0 -48 23 -72.5t64 -24.5t64.5 27.5t23.5 72.5v301h173v-532z" />
    <glyph glyph-name="udieresis" unicode="&#xfc;" horiz-adv-x="602" 
d="M196 600q-31 0 -51 20t-20 48q0 29 20 49t51 20q32 0 52 -20t20 -49q0 -28 -20 -48t-52 -20zM405 600q-31 0 -51.5 20t-20.5 48q0 29 20.5 49t51.5 20t51.5 -20t20.5 -49q0 -28 -20.5 -48t-51.5 -20zM560 0h-168v101h-3q-18 -53 -56.5 -82t-98.5 -29q-43 0 -78.5 13.5
t-61.5 39t-40.5 63t-14.5 84.5v342h173v-304q0 -48 23 -72.5t64 -24.5t64.5 27.5t23.5 72.5v301h173v-532z" />
    <glyph glyph-name="yacute" unicode="&#xfd;" horiz-adv-x="573" 
d="M216 605l111 155h152l-128 -155h-135zM122 -196h-11h-21t-20.5 0.5t-10.5 0.5v131q1 0 6.5 -0.5t12 -0.5h12h6.5q41 0 61 10.5t24 34.5q0 2 1 10t0 10l-180 532h191l97 -402h2l96 402h183l-170 -531q-17 -53 -41 -90.5t-57.5 -61t-78 -34.5t-102.5 -11z" />
    <glyph glyph-name="thorn" unicode="&#xfe;" horiz-adv-x="621" 
d="M382 540q101 0 156.5 -71.5t55.5 -202.5t-55 -202.5t-155 -71.5q-57 0 -98 23.5t-59 66.5h-10v-243h-173v866h173v-260h9q19 45 60 70t96 25zM316 127q48 0 74.5 36.5t26.5 102.5q0 65 -26.5 101.5t-73.5 36.5t-73.5 -36.5t-27.5 -101.5q1 -66 27 -102.5t73 -36.5z" />
    <glyph glyph-name="ydieresis" unicode="&#xff;" horiz-adv-x="573" 
d="M182 600q-31 0 -51.5 20t-20.5 48q0 29 20.5 49t51.5 20q32 0 52 -20t20 -49q0 -28 -20 -48t-52 -20zM391 600q-31 0 -51.5 20t-20.5 48q0 29 20.5 49t51.5 20t51 -20t20 -49q0 -28 -20 -48t-51 -20zM122 -196h-11h-21t-20.5 0.5t-10.5 0.5v131q1 0 6.5 -0.5t12 -0.5h12
h6.5q41 0 61 10.5t24 34.5q0 2 1 10t0 10l-180 532h191l97 -402h2l96 402h183l-170 -531q-17 -53 -41 -90.5t-57.5 -61t-78 -34.5t-102.5 -11z" />
    <glyph glyph-name="OE" unicode="&#x152;" horiz-adv-x="1082" 
d="M576 117q-10 -30 -32 -54.5t-52 -42.5t-66 -28t-75 -10q-68 0 -125.5 27t-99 76t-65 117t-23.5 150q0 83 23.5 151t65.5 116.5t99.5 75.5t126.5 27q77 0 136.5 -36t86.5 -102v121h458v-145h-301v-140h283v-132h-283v-143h301v-145h-458v117zM386 574q-37 0 -68 -16
t-52.5 -45t-33.5 -70t-12 -91t12 -91t33.5 -70t52.5 -44.5t68 -15.5q38 0 68.5 15.5t52.5 44.5t33.5 70t11.5 91t-12 91t-33.5 70t-52 45t-68.5 16z" />
    <glyph glyph-name="oe" unicode="&#x153;" horiz-adv-x="939" 
d="M675 -13q-63 0 -114 23.5t-76 65.5h-8q-32 -44 -78 -66.5t-109 -22.5q-61 0 -110 19.5t-83.5 55.5t-53 87.5t-18.5 114.5t18.5 115t53 88.5t83 56.5t108.5 20q127 0 188 -89h8q26 41 75 65t109 24q55 0 100.5 -19.5t77.5 -54.5t50 -84t18 -109v-49h-350v-18
q0 -45 28.5 -72.5t75.5 -27.5q33 0 56.5 14t30.5 37h156q-6 -38 -26 -70t-51 -55t-71.5 -36t-87.5 -13zM749 327q-2 43 -27 69t-64 26q-40 0 -66 -26.5t-28 -68.5h185zM195 265q0 -69 25 -107.5t70 -38.5t70 38.5t25 107.5t-25 108.5t-70 39.5t-70 -39.5t-25 -108.5z" />
    <glyph glyph-name="Scaron" unicode="&#x160;" horiz-adv-x="651" 
d="M133 911h122l70 -94h4l70 94h122l-127 -160h-133zM201 204q3 -18 13.5 -32.5t27.5 -25t39 -16.5t47 -6q53 0 84 20.5t31 52.5q0 29 -24.5 45.5t-85.5 29.5l-92 18q-98 19 -147.5 70t-49.5 132q0 51 21 93t58.5 71t89 45t112.5 16q66 0 118 -15.5t88 -44t55.5 -68.5
t20.5 -90h-165q-3 38 -35 60t-80 22t-76 -19.5t-28 -51.5q0 -29 24.5 -46t80.5 -28l91 -18q105 -20 153.5 -68t48.5 -133q0 -52 -21 -94.5t-60 -72.5t-94 -46t-123 -16q-135 0 -212.5 56.5t-79.5 159.5h170z" />
    <glyph glyph-name="scaron" unicode="&#x161;" horiz-adv-x="541" 
d="M205 599l-126 159h124l67 -90h3l66 90h125l-126 -159h-133zM33 371q0 80 63.5 126.5t173.5 46.5q109 0 172 -47.5t64 -130.5h-158q-1 29 -22.5 45.5t-56.5 16.5q-32 0 -51 -13t-19 -33q0 -32 59 -45l112 -22q80 -17 115.5 -51.5t35.5 -95.5q0 -41 -18 -74.5t-50.5 -57
t-78.5 -36.5t-102 -13q-117 0 -182 49t-70 131h168q4 -30 26.5 -46.5t60.5 -16.5q35 0 55 12t20 33q0 16 -13.5 26t-44.5 16l-101 21q-78 17 -118 57t-40 102z" />
    <glyph glyph-name="Ydieresis" unicode="&#x178;" horiz-adv-x="693" 
d="M242 758q-31 0 -51.5 20t-20.5 49t20.5 49t51.5 20q32 0 52 -20t20 -49t-20 -49t-52 -20zM451 758q-31 0 -51.5 20t-20.5 49t20.5 49t51.5 20t51 -20t20 -49t-20 -49t-51 -20zM257 0v242l-243 463h193l140 -293h3l140 293h189l-243 -463v-242h-179z" />
    <glyph glyph-name="Zcaron" unicode="&#x17d;" horiz-adv-x="638" 
d="M125 911h123l69 -94h4l70 94h122l-127 -160h-133zM41 114l335 443v3h-330v145h540v-114l-333 -443v-3h344v-145h-556v114z" />
    <glyph glyph-name="zcaron" unicode="&#x17e;" horiz-adv-x="525" 
d="M196 599l-127 159h125l66 -90h4l66 90h125l-126 -159h-133zM32 92l250 306v4h-244v130h446v-106l-227 -293v-3h236v-130h-461v92z" />
    <glyph glyph-name="florin" unicode="&#x192;" horiz-adv-x="670" 
d="M630 561q-16 7 -37 11t-41 4q-90 0 -105 -93l-9 -58h165v-119h-185l-17 -108q-18 -110 -81.5 -160t-173.5 -50q-32 0 -60.5 5t-45.5 13v135q17 -8 39 -13t43 -5q46 0 69.5 22t32.5 73l14 88h-151v119h170l12 78q18 109 81 158.5t183 49.5q13 0 27 -1t27 -3.5t24.5 -5.5
t18.5 -7v-133z" />
    <glyph glyph-name="circumflex" unicode="&#x2c6;" horiz-adv-x="495" 
d="M440 617h-125l-65 89h-4l-67 -89h-124l126 160h133z" />
    <glyph glyph-name="tilde" unicode="&#x2dc;" horiz-adv-x="495" 
d="M316 619q-26 0 -45 9.5t-33.5 21.5t-26.5 21.5t-25 9.5q-17 0 -25 -16t-9 -39h-89q0 33 9.5 59t25 44t36.5 27t45 9q27 0 45.5 -9.5t33 -21.5t26.5 -21.5t25 -9.5q17 0 24.5 15t9.5 41h88q0 -33 -9 -59t-25 -44t-37 -27.5t-44 -9.5z" />
    <glyph glyph-name="uni0E1E" unicode="&#x51d;" horiz-adv-x="836" 
d="M502 0l-84 378h-3l-83 -378h-184l-138 561h175l67 -396h4l81 396h165l82 -396h4l67 396h171l-137 -561h-187z" />
    <glyph glyph-name="uni0E1E" unicode="&#xe1e;" horiz-adv-x="836" 
d="M502 0l-84 378h-3l-83 -378h-184l-138 561h175l67 -396h4l81 396h165l82 -396h4l67 396h171l-137 -561h-187z" />
    <glyph glyph-name="uni0E01" unicode="&#xe01;" horiz-adv-x="630" 
d="M56 178q0 54 21 87t66 46v3h-109v39q0 67 35 117.5t97.5 77.5t146.5 27q78 0 137.5 -25.5t92.5 -73.5t33 -115v-361h-176v340q0 52 -23.5 77t-72.5 25q-44 0 -69 -19.5t-27 -54.5h91v-94q-37 -6 -52.5 -27.5t-15.5 -64.5v-182h-175v178z" />
    <glyph glyph-name="uni0E02" unicode="&#xe02;" horiz-adv-x="598" 
d="M297 -12q-76 0 -131.5 25t-85 72.5t-29.5 114.5v33q0 27 7 49t17 38t25 36q14 19 21 31t7 24q0 15 -12 23.5t-32 8.5t-40 -5v123q11 3 33.5 5t49.5 2q61 0 99 -13t55.5 -40t17.5 -71q0 -34 -9.5 -59t-28.5 -56q-17 -29 -25.5 -50.5t-8.5 -49.5v-30q0 -38 18.5 -58
t51.5 -20t52 20t19 58v362h176v-361q0 -67 -30 -114.5t-85.5 -72.5t-131.5 -25z" />
    <glyph glyph-name="uni0E03" unicode="&#xe03;" horiz-adv-x="607" 
d="M304 -12q-77 0 -132.5 25t-85 72t-29.5 112v14q0 32 9 56.5t23.5 43.5t35.5 40q25 24 35.5 38t10.5 32q0 26 -22 26q-14 0 -22 -11.5t-12 -36.5h-39q-1 21 -13 31.5t-30 10.5h-6v125h6q30 0 53.5 -17t33.5 -55h3q11 33 37.5 52.5t68.5 19.5q50 0 76.5 -28.5t26.5 -85.5
q0 -30 -7 -52.5t-18 -39t-28 -37.5q-17 -19 -26 -33t-15 -31.5t-6 -40.5v-17q0 -39 19.5 -59.5t52.5 -20.5t53 21t20 59v360h176v-360q0 -67 -30 -114.5t-86 -73t-133 -25.5z" />
    <glyph glyph-name="uni0E04" unicode="&#xe04;" horiz-adv-x="652" 
d="M57 344q0 71 32 122.5t92.5 78.5t144.5 27t144 -27t92.5 -78.5t32.5 -122.5v-344h-176v344q0 45 -26 70t-71 25q-46 0 -71.5 -25t-25.5 -70v-112h3q10 36 36.5 57t61.5 21q17 0 35 -4v-140q-10 1 -28 1q-51 0 -79.5 -30.5t-28.5 -92.5v-44h-168v344z" />
    <glyph glyph-name="uni0E05" unicode="&#xe05;" horiz-adv-x="668" 
d="M57 418q0 45 18.5 78.5t51.5 51.5t76 18q47 0 81 -20.5t44 -54.5h4q10 33 45.5 54t83.5 21q43 0 77.5 -18t53.5 -51.5t19 -78.5v-418h-176v398q0 18 -9 28t-25 10q-17 0 -26 -10t-9 -29v-25h-72v25q0 19 -9 29t-26 10q-15 0 -24.5 -10t-9.5 -28v-166h3q10 35 38 56.5
t64 21.5q16 0 34 -4v-140q-9 1 -27 1q-52 0 -82 -31t-30 -92v-44h-168v418z" />
    <glyph glyph-name="uni0E06" unicode="&#xe06;" horiz-adv-x="651" 
d="M416 -7q-69 0 -113.5 29.5t-64.5 74.5h-3v-97h-174v207q0 33 9.5 59t24 45t38.5 43q22 21 32 35.5t10 31.5q0 26 -22 26q-13 0 -21 -10.5t-10 -30.5h-35q-5 17 -18.5 26t-31.5 9h-6v125h6q30 0 53.5 -17t33.5 -55h3q11 33 37 52.5t69 19.5q50 0 76 -28.5t26 -85.5
q0 -30 -7 -53t-17.5 -39t-27.5 -37q-24 -28 -36 -49.5t-12 -47.5t12.5 -45.5t35 -30.5t51.5 -11q40 0 62 24.5t22 70.5v327h176v-374q0 -62 -21.5 -105.5t-61.5 -66t-95 -22.5z" />
    <glyph glyph-name="uni0E07" unicode="&#xe07;" horiz-adv-x="630" 
d="M9 561h188l129 -427h2q21 11 40 33.5t31.5 58t12.5 81.5q0 65 -25.5 96t-66.5 31q-18 0 -33 -4v126q41 11 85 11q106 0 162 -62.5t56 -175.5q0 -78 -24 -143.5t-66.5 -113t-95.5 -72.5h-208z" />
    <glyph glyph-name="uni0E08" unicode="&#xe08;" horiz-adv-x="605" 
d="M146 134q-11 26 -23.5 34.5t-34.5 8.5q-14 0 -29 -3v122q21 5 41 8t44 3q35 0 57.5 -6.5t38 -22.5t28.5 -46l46 -110h3q33 33 52.5 82.5t19.5 106.5q0 64 -24.5 97t-72.5 33q-32 0 -54 -15.5t-30 -46.5h-167q8 97 74.5 146.5t175.5 49.5q86 0 147.5 -31.5t93.5 -89.5
t32 -137q0 -67 -22 -128t-58 -109t-80 -80h-197z" />
    <glyph glyph-name="uni0E09" unicode="&#xe09;" horiz-adv-x="642" 
d="M234 -7q-67 0 -108 35t-41 106v17q0 17 -6.5 23t-19.5 6t-19 -2v120q40 9 86 9q56 0 86 -18.5t30 -62.5v-22q0 -32 17 -48.5t50 -16.5q47 0 75 29t28 78v105q0 42 -25 66t-72 24q-38 0 -64 -16t-31 -48h-176q4 63 39.5 107.5t96 67.5t141.5 23q84 0 144 -25t91 -71.5
t31 -110.5v-368h-174v101h-3q-19 -44 -63 -76t-113 -32z" />
    <glyph glyph-name="uni0E0A" unicode="&#xe0a;" horiz-adv-x="607" 
d="M305 -12q-77 0 -133.5 24t-86.5 70t-30 111v40q0 27 7 49t16.5 38t25.5 36q12 16 18 29t6 25q0 16 -11.5 24.5t-32.5 8.5q-20 0 -40 -5v123q11 3 33.5 5t47.5 2q86 0 126.5 -30t40.5 -95v-2h23q30 0 48 16.5t18 45.5v58h175v-51q0 -50 -24 -83t-67 -49v-4q89 -31 89 -129
v-48q0 -67 -30.5 -113.5t-86.5 -71t-132 -24.5zM259 328q-16 -30 -24 -48q-8 -20 -8 -44v-35q0 -39 22 -60t56 -21q33 0 54.5 21t21.5 60v64q0 30 -18.5 46.5t-53.5 16.5h-50z" />
    <glyph glyph-name="uni0E0B" unicode="&#xe0b;" horiz-adv-x="612" 
d="M308 -12q-77 0 -133.5 24t-87 70t-30.5 111v20q0 31 9.5 55.5t24.5 43.5t38 42q22 20 32.5 34.5t10.5 32.5q0 26 -22 26q-14 0 -22 -10.5t-10 -30.5h-34q-6 17 -19.5 26t-31.5 9h-6v125h6q30 0 53.5 -17t33.5 -55h3q12 34 34.5 53t64.5 19q50 0 77 -28.5t27 -85.5v-11h5
q28 0 44.5 17.5t16.5 48.5v54h169v-51q0 -51 -23.5 -84t-67.5 -48v-4q88 -31 88 -129v-48q0 -67 -30 -113.5t-86.5 -71t-133.5 -24.5zM283 328q-2 -3 -4 -5q-25 -29 -37.5 -51t-12.5 -52v-19q0 -39 22 -60t57 -21t56 21t21 60v53q0 36 -18 55t-51 19h-33z" />
    <glyph glyph-name="uni0E0C" unicode="&#xe0c;" horiz-adv-x="950" 
d="M725 -7q-67 0 -106 29t-58 77h-3v-99h-171v340q0 102 -86 102q-38 0 -60 -19.5t-25 -54.5h79v-94q-37 -5 -55.5 -23.5t-18.5 -50.5v-15q0 -31 16 -45.5t48 -14.5q12 0 19 2v-127q-25 -6 -66 -6q-69 0 -111 16t-62 49.5t-20 87.5v24q0 55 23 88.5t73 52.5v3h-99v33
q0 69 32.5 120.5t93 79t141.5 27.5q78 0 134.5 -25.5t86 -73t29.5 -115.5v-122q0 -49 21.5 -74.5t60.5 -25.5q35 0 55.5 21.5t20.5 62.5v338h176v-390q0 -55 -20.5 -95.5t-58.5 -61.5t-89 -21z" />
    <glyph glyph-name="uni0E0D" unicode="&#xe0d;" horiz-adv-x="948" 
d="M636 -215q-72 0 -127.5 20t-88 58.5t-36.5 91.5h178q5 -28 25 -43.5t52 -15.5q38 0 58.5 22.5t20.5 61.5v121h-2q-16 -44 -55 -71.5t-106 -27.5q-81 0 -124.5 43.5t-43.5 125.5v169q0 52 -21.5 77t-64.5 25q-39 0 -60.5 -19.5t-24.5 -54.5h79v-94q-37 -5 -55.5 -23.5
t-18.5 -50.5v-15q0 -31 16 -45.5t48 -14.5q12 0 19 2v-127q-25 -6 -66 -6q-69 0 -111 16t-62 49.5t-20 87.5v24q0 55 23 88.5t73 52.5v3h-99v33q0 70 31.5 121t91.5 78.5t144 27.5q79 0 135 -25t85.5 -72.5t29.5 -115.5v-142q0 -37 20 -58t55 -21q40 0 61.5 25t21.5 73v322
h176v-566q0 -67 -32 -114.5t-89.5 -71.5t-135.5 -24z" />
    <glyph glyph-name="uni0E0E" unicode="&#xe0e;" horiz-adv-x="649" 
d="M53 -193q0 49 20.5 86t61 56.5t96.5 19.5q55 0 104.5 -19t80.5 -52h3v442q0 52 -23.5 77t-72.5 25q-43 0 -68 -19.5t-28 -54.5h85v-94q-22 -3 -34 -11t-16.5 -22.5t-4.5 -40.5v-52q0 -78 -42.5 -113.5t-129.5 -35.5q-35 0 -57 5v128q6 -2 16 -2q20 0 29 9t9 30v19
q0 57 18.5 86.5t62.5 37.5v3h-109v34q0 68 34.5 119.5t97.5 79t145 27.5q78 0 137.5 -25.5t93 -73.5t33.5 -115v-571h-172q-19 24 -57 42.5t-77 18.5q-36 0 -55.5 -15.5t-19.5 -40.5v-5h-161v17z" />
    <glyph glyph-name="uni0E0F" unicode="&#xe0f;" horiz-adv-x="649" 
d="M452 -216q-51 0 -84.5 19.5t-51.5 53.5l-43 -67h-55l-41 65q-10 -30 -39 -47.5t-65 -17.5h-27v125h19q24 0 46.5 11t34.5 32h56l41 -66l44 66h58q13 -52 45 -52q29 0 29 39v395q0 52 -23.5 77t-72.5 25q-43 0 -68 -19.5t-28 -54.5h85v-94q-22 -3 -34 -11t-16.5 -22.5
t-4.5 -40.5v-52q0 -78 -42.5 -113.5t-129.5 -35.5q-35 0 -57 5v128q6 -2 16 -2q20 0 29 9t9 30v19q0 57 18.5 86.5t62.5 37.5v3h-109v34q0 68 34.5 119.5t97.5 79t145 27.5q78 0 137.5 -25.5t93 -73.5t33.5 -115v-430q0 -71 -37.5 -109t-105.5 -38z" />
    <glyph glyph-name="uni0E10" unicode="&#xe10;" horiz-adv-x="609" 
d="M146 134q-11 26 -23.5 34.5t-34.5 8.5q-14 0 -29 -3v122q21 5 41 8t44 3q35 0 57.5 -6.5t38 -22.5t28.5 -46l46 -110h3q33 33 52.5 82.5t19.5 106.5q0 64 -24.5 97t-72.5 33q-32 0 -54 -15.5t-30 -46.5h-167q8 97 74.5 146.5t175.5 49.5q58 0 105 -23q7 -3 13 -7l33 52
h174l-99 -140q47 -52 47 -140q0 -67 -22 -128t-58 -109t-80 -80h-197zM399 -229q-90 0 -131 81q-30 -77 -123 -77h-48v129h33q33 0 55.5 11t34.5 35h70q7 -24 23 -41t41 -17q20 0 31 12.5t11 32.5v13h141v-41q0 -43 -17.5 -74t-49 -47.5t-71.5 -16.5z" />
    <glyph glyph-name="uni0E11" unicode="&#xe11;" horiz-adv-x="653" 
d="M65 187q0 40 7 68t21 51t39 48q24 23 33.5 36.5t9.5 30.5q0 26 -22 26q-13 0 -21 -10.5t-10 -30.5h-35q-5 17 -18.5 26t-31.5 9h-6v125h6q30 0 53.5 -17t33.5 -55h3q23 70 89 70q34 0 56.5 -18t22.5 -52q0 -12 -4 -29h3q33 58 70 80.5t89 22.5q69 0 106 -34t37 -101v-433
h-176v376q0 21 -8.5 31.5t-23.5 10.5q-18 0 -41.5 -17.5t-54.5 -56.5q-21 -27 -32 -45.5t-15.5 -40.5t-4.5 -55v-203h-175v187z" />
    <glyph glyph-name="uni0E12" unicode="&#xe12;" horiz-adv-x="999" 
d="M283 -7q-118 0 -178.5 77.5t-60.5 221.5q0 82 20 144.5t61.5 97t101.5 34.5q39 0 68 -15.5t41 -47.5h5q17 33 49.5 48t72.5 15q70 0 107.5 -42.5t37.5 -117.5v-169q0 -49 21.5 -74.5t60.5 -25.5q36 0 56 21.5t20 62.5v338h175v-390q0 -56 -20 -96t-58 -61t-91 -21
q-65 0 -104.5 29.5t-58.5 76.5h-2v-99h-170v383q0 21 -9 31.5t-24 10.5q-14 0 -23 -10.5t-9 -31.5v-14h-71v13q0 21 -8.5 32t-22.5 11q-23 0 -35 -30t-12 -97q0 -89 24.5 -131t82.5 -42q19 0 42 5v-126q-42 -11 -89 -11z" />
    <glyph glyph-name="uni0E13" unicode="&#xe13;" horiz-adv-x="953" 
d="M554 -7q-53 0 -90 21t-57 60.5t-20 94.5v171q0 102 -86 102q-38 0 -60 -19.5t-25 -54.5h79v-94q-37 -5 -55.5 -23.5t-18.5 -50.5v-15q0 -31 16 -45.5t48 -14.5q12 0 19 2v-127q-25 -6 -66 -6q-69 0 -111 16t-62 49.5t-20 87.5v24q0 55 23 88.5t73 52.5v3h-99v33
q0 69 32.5 120.5t93 79t141.5 27.5q78 0 134.5 -25.5t86 -73t29.5 -115.5v-144q0 -37 20 -57.5t55 -20.5q40 0 61.5 25t21.5 73v324h176v-561h-175v99h-2q-17 -47 -56 -76.5t-106 -29.5z" />
    <glyph glyph-name="uni0E14" unicode="&#xe14;" horiz-adv-x="660" 
d="M292 -6q-78 0 -133.5 33.5t-85 97t-29.5 149.5q0 93 35 159.5t100.5 102.5t155.5 36q84 0 144 -27.5t92 -80t32 -126.5v-338h-176v327q0 56 -25.5 84t-70.5 28q-56 0 -84 -41.5t-28 -120.5q0 -71 27 -111.5t78 -40.5q19 0 39 4v-127q-32 -8 -71 -8z" />
    <glyph glyph-name="uni0E15" unicode="&#xe15;" horiz-adv-x="672" 
d="M284 -7q-119 0 -179.5 77.5t-60.5 218.5q0 85 20 147t61.5 96.5t101.5 34.5q40 0 69.5 -15.5t40.5 -48.5h5q36 64 126 64q70 0 108.5 -42.5t38.5 -116.5v-408h-176v383q0 21 -9 31.5t-24 10.5q-14 0 -23.5 -10.5t-9.5 -31.5v-14h-71v13q0 21 -8.5 32t-23.5 11
q-23 0 -35 -30t-12 -97q0 -89 25 -131t84 -42q18 0 41 5v-126q-41 -11 -89 -11z" />
    <glyph glyph-name="uni0E16" unicode="&#xe16;" horiz-adv-x="636" 
d="M240 -6q-68 0 -110.5 15.5t-63.5 49t-21 88.5v29q0 100 104 136v3h-107v33q0 69 34.5 120.5t96.5 79t145 27.5q78 0 138 -25.5t93 -73.5t33 -115v-361h-176v340q0 52 -23.5 77t-72.5 25q-43 0 -67.5 -19t-26.5 -55h84v-94q-40 -6 -59.5 -22.5t-19.5 -48.5v-18
q0 -31 17 -45.5t51 -14.5q14 0 20 2v-127q-25 -6 -69 -6z" />
    <glyph glyph-name="uni0E17" unicode="&#xe17;" horiz-adv-x="650" 
d="M60 561h174v-101h3q20 48 64 78t111 30q55 0 96 -22.5t63.5 -65.5t22.5 -105v-375h-176v324q0 48 -23.5 73t-64.5 25q-45 0 -69.5 -29t-24.5 -78v-315h-176v561z" />
    <glyph glyph-name="uni0E18" unicode="&#xe18;" horiz-adv-x="583" 
d="M304 -12q-123 0 -184.5 46t-61.5 144v61h163v-55q0 -35 21.5 -51.5t60.5 -16.5q78 0 78 62v16q0 25 -9.5 37t-33.5 18l-291 61v80q0 82 51 126.5t145 44.5h277v-123h-274q-21 0 -31 -9.5t-10 -26.5v-4l213 -44q69 -15 99.5 -49.5t30.5 -97.5v-31q0 -96 -59.5 -142
t-184.5 -46z" />
    <glyph glyph-name="uni0E19" unicode="&#xe19;" horiz-adv-x="650" 
d="M242 -7q-56 0 -97.5 22.5t-64.5 66t-23 104.5v375h176v-325q0 -97 86 -97q45 0 70.5 29t25.5 78v315h175v-561h-173v101h-3q-20 -49 -63 -78.5t-109 -29.5z" />
    <glyph glyph-name="uni0E1A" unicode="&#xe1a;" horiz-adv-x="644" 
d="M322 -12q-82 0 -141.5 27t-91.5 78t-32 121v347h176v-347q0 -44 23.5 -68t65.5 -24q41 0 65 24.5t24 67.5v347h176v-347q0 -70 -32 -121t-92 -78t-141 -27z" />
    <glyph glyph-name="uni0E1B" unicode="&#xe1b;" horiz-adv-x="651" 
d="M326 -12q-82 0 -142.5 27t-93.5 78t-33 121v347h176v-347q0 -43 25 -67.5t68 -24.5t68 24t25 68v543h176v-543q0 -70 -32.5 -121t-93 -78t-143.5 -27z" />
    <glyph glyph-name="uni0E1C" unicode="&#xe1c;" horiz-adv-x="736" 
d="M506 165v396h173v-392q0 -83 -44 -132t-119 -49q-54 0 -93.5 27t-56.5 76h-9q-17 -49 -56.5 -76t-93.5 -27q-75 0 -119 49t-44 132v224q0 65 19.5 103t60 55t107.5 17q39 0 66 -5v-128q-14 3 -27 3q-29 0 -41 -14t-12 -46v-213q0 -43 32 -43q31 0 31 43v213h164v-213
q0 -43 30 -43q32 0 32 43z" />
    <glyph glyph-name="uni0E1D" unicode="&#xe1d;" horiz-adv-x="736" 
d="M506 165v592h173v-588q0 -83 -44 -132t-119 -49q-54 0 -93.5 27t-56.5 76h-9q-17 -49 -56.5 -76t-93.5 -27q-75 0 -119 49t-44 132v224q0 65 19.5 103t60 55t107.5 17q39 0 66 -5v-128q-14 3 -27 3q-29 0 -41 -14t-12 -46v-213q0 -43 32 -43q31 0 31 43v213h164v-213
q0 -43 30 -43q32 0 32 43z" />
    <glyph glyph-name="uni0E1F" unicode="&#xe1f;" horiz-adv-x="836" 
d="M859 757l-170 -757h-187l-84 378h-3l-83 -378h-184l-138 561h175l67 -396h4l81 396h165l82 -396h4l100 592h171z" />
    <glyph glyph-name="uni0E20" unicode="&#xe20;" horiz-adv-x="649" 
d="M85 -6q-35 0 -57 6v127q6 -2 16 -2q20 0 29 9.5t9 30.5v23q0 57 18.5 86.5t62.5 37.5v3h-109v34q0 68 34.5 119.5t97.5 79t145 27.5q78 0 137.5 -25.5t93 -73.5t33.5 -115v-361h-176v340q0 52 -23.5 77t-72.5 25q-43 0 -68 -19.5t-28 -54.5h85v-94q-22 -3 -34 -11
t-16.5 -22.5t-4.5 -40.5v-57q0 -78 -42.5 -113.5t-129.5 -35.5z" />
    <glyph glyph-name="uni0E21" unicode="&#xe21;" horiz-adv-x="650" 
d="M408 -7q-66 0 -108.5 29.5t-63.5 78.5h-3v-101h-173v561h176v-315q0 -49 25 -78t70 -29q40 0 63 24.5t23 72.5v325h176v-375q0 -61 -22.5 -104.5t-64.5 -66t-98 -22.5z" />
    <glyph glyph-name="uni0E22" unicode="&#xe22;" horiz-adv-x="625" 
d="M199 0q-49 0 -85.5 18.5t-56 52t-19.5 79.5q0 54 28.5 91.5t80.5 52.5v3q-46 11 -72 45t-26 84q0 41 17 71.5t50 47t78 16.5h134v-123h-63q-26 0 -40.5 -12.5t-14.5 -34.5q0 -23 15 -35.5t41 -12.5h59v-97h-44q-29 0 -45.5 -15.5t-16.5 -41.5q0 -28 17 -43.5t47 -15.5
h107v431h175v-561h-366z" />
    <glyph glyph-name="uni0E23" unicode="&#xe23;" horiz-adv-x="591" 
d="M300 -12q-76 0 -133.5 21t-90.5 63t-34 101h165q5 -28 30 -44t66 -16q34 0 52.5 11.5t18.5 33.5q0 17 -15 27t-52 19l-76 18q-89 21 -136 64.5t-47 110.5q0 55 30 94.5t84.5 60.5t126.5 21t127 -21t86 -61.5t32 -95.5h-164q-3 25 -27 39t-60 14q-31 0 -49.5 -10.5
t-18.5 -30.5t18.5 -31t58.5 -20l98 -21q159 -34 159 -164q0 -56 -29.5 -97.5t-86 -63.5t-133.5 -22z" />
    <glyph glyph-name="uni0E24" unicode="&#xe24;" horiz-adv-x="636" 
d="M406 340q0 52 -23.5 77t-72.5 25q-43 0 -67.5 -19t-26.5 -55h84v-94q-39 -5 -59 -23.5t-20 -50.5v-15q0 -31 17 -45.5t51 -14.5q14 0 20 2v-127q-25 -6 -69 -6q-68 0 -110.5 15.5t-63.5 49t-21 88.5v24q0 55 25 88.5t79 52.5v3h-107v33q0 69 34.5 120.5t97 79t144.5 27.5
q78 0 138 -25.5t93 -73.5t33 -115v-571h-176v550z" />
    <glyph glyph-name="uni0E25" unicode="&#xe25;" horiz-adv-x="624" 
d="M230 -7q-56 0 -98.5 18t-66.5 54t-24 88q0 72 48 117.5t148 54.5l154 12v28q0 76 -78 76q-39 0 -60.5 -17t-23.5 -47h-174q2 61 35 105.5t91.5 68.5t135.5 24q74 0 130 -22t88 -68t32 -113v-372h-176v230l-104 -9q-32 -2 -51 -15.5t-19 -38.5q0 -24 16.5 -37t47.5 -13
q23 0 46 7v-117q-45 -14 -97 -14z" />
    <glyph glyph-name="uni0E26" unicode="&#xe26;" horiz-adv-x="649" 
d="M419 340q0 52 -23.5 77t-72.5 25q-43 0 -68 -19.5t-28 -54.5h85v-94q-22 -3 -34 -11t-16.5 -22.5t-4.5 -40.5v-57q0 -78 -42.5 -113.5t-129.5 -35.5q-35 0 -57 6v127q6 -2 16 -2q20 0 29 9.5t9 30.5v23q0 57 18.5 86.5t62.5 37.5v3h-109v34q0 68 34.5 119.5t97.5 79
t145 27.5q78 0 137.5 -25.5t93 -73.5t33.5 -115v-571h-176v550z" />
    <glyph glyph-name="uni0E27" unicode="&#xe27;" horiz-adv-x="601" 
d="M293 -12q-110 0 -174 50.5t-76 145.5h173q6 -31 26 -46.5t51 -15.5q44 0 66.5 39.5t22.5 117.5q0 79 -23.5 119t-68.5 40q-32 0 -53.5 -18.5t-28.5 -53.5h-171q10 100 75.5 153t178.5 53q130 0 199.5 -75.5t69.5 -216.5q0 -93 -30.5 -158.5t-90.5 -99.5t-146 -34z" />
    <glyph glyph-name="uni0E28" unicode="&#xe28;" horiz-adv-x="655" 
d="M57 344q0 71 32 122.5t92.5 78.5t143.5 27q58 0 104 -19q7 -4 13 -7l34 51h174l-96 -137q10 -12 18 -25q23 -43 23 -102v-333h-176v344q0 45 -26 70t-71 25q-46 0 -71.5 -25t-25.5 -70v-112h3q10 36 36.5 57t61.5 21q17 0 35 -4v-140q-10 1 -28 1q-50 0 -79 -34t-29 -96
v-37h-168v344z" />
    <glyph glyph-name="uni0E29" unicode="&#xe29;" horiz-adv-x="672" 
d="M324 -12q-82 0 -142 27.5t-92.5 78.5t-32.5 121v346h176v-346q0 -44 24.5 -68.5t66.5 -24.5q43 0 68 25t25 68v48h-103v127h103v171h176v-171h53v-127h-53v-48q0 -70 -32.5 -121.5t-93 -78.5t-143.5 -27z" />
    <glyph glyph-name="uni0E2A" unicode="&#xe2a;" horiz-adv-x="624" 
d="M230 -7q-56 0 -98.5 18t-66.5 54t-24 88q0 72 48 117.5t148 54.5l154 12v28q0 76 -78 76q-39 0 -60.5 -17t-23.5 -47h-174q2 61 34.5 105.5t88.5 68.5t128 24q61 0 108 -24l31 46h174l-92 -131q8 -9 15 -20q25 -43 25 -100v-346h-176v230l-104 -9q-32 -2 -51 -15.5
t-19 -38.5q0 -24 16.5 -37t47.5 -13q23 0 46 7v-117q-45 -14 -97 -14z" />
    <glyph glyph-name="uni0E2B" unicode="&#xe2b;" horiz-adv-x="628" 
d="M60 561h176v-155h71q52 0 72.5 25.5t20.5 79.5v50h176v-50q0 -65 -32.5 -106t-97.5 -54v-3q48 -7 76.5 -26.5t41 -52.5t12.5 -82v-187h-176v178q0 37 -6.5 57t-25.5 29t-58 9h-74v-273h-176v561z" />
    <glyph glyph-name="uni0E2C" unicode="&#xe2c;" horiz-adv-x="733" 
d="M506 165v317q0 26 -6 42t-21 23.5t-41 7.5h-91v107h91q44 0 66.5 19.5t24.5 65.5h183q-2 -67 -37 -107q-29 -33 -75 -43q24 -7 39 -18q22 -17 31 -45t9 -73v-292q0 -83 -44 -132t-119 -49q-54 0 -93.5 27t-56.5 76h-9q-17 -49 -56.5 -76t-93.5 -27q-75 0 -119 49t-44 132
v392h173v-396q0 -43 32 -43q31 0 31 43v213h164v-213q0 -43 30 -43q32 0 32 43z" />
    <glyph glyph-name="uni0E2D" unicode="&#xe2d;" horiz-adv-x="634" 
d="M313 -13q-83 0 -144 31t-94 90t-33 140v62h263v-97h-86l1 -5q3 -41 28 -64.5t65 -23.5q50 0 76 42t26 118q0 77 -26.5 117.5t-76.5 40.5q-34 0 -57 -18.5t-30 -53.5h-177q8 67 45 113t94.5 69.5t127.5 23.5q87 0 149.5 -35.5t95.5 -101t33 -155.5q0 -89 -33.5 -155
t-96.5 -102t-150 -36z" />
    <glyph glyph-name="uni0E2E" unicode="&#xe2e;" horiz-adv-x="641" 
d="M312 -13q-82 0 -143 31t-94 90t-33 140v62h263v-97h-86l1 -5q3 -41 28 -64.5t65 -23.5q50 0 76 42t26 118q0 77 -26.5 117.5t-76.5 40.5q-34 0 -57 -18.5t-30 -53.5h-177q8 66 43.5 112.5t90.5 70t119 23.5q62 0 112 -21q11 -5 21 -10l38 56h173l-103 -147
q51 -63 51 -171q0 -89 -33.5 -154.5t-97 -101.5t-150.5 -36z" />
    <glyph glyph-name="uni0E2F" unicode="&#xe2f;" horiz-adv-x="620" 
d="M384 268h-3q-20 -27 -59 -44t-90 -17q-59 0 -102.5 23.5t-67 67t-23.5 100.5q0 59 24.5 98t67.5 58.5t100 19.5q23 0 46.5 -3.5t41.5 -8.5v-118q-19 5 -40 5q-29 0 -46.5 -13t-17.5 -38t19.5 -40.5t52.5 -15.5q46 0 71.5 31t25.5 89v99h176v-561h-176v268z" />
    <glyph glyph-name="uni0E30" unicode="&#xe30;" horiz-adv-x="367" 
d="M198 321q-59 0 -93 13t-49.5 42.5t-15.5 81.5v54h167v-31q0 -29 28 -29h87v-131h-124zM198 25q-59 0 -93 13t-49.5 43t-15.5 82v53h167v-30q0 -30 28 -30h87v-131h-124z" />
    <glyph glyph-name="uni0E31" unicode="&#xe31;" 
d="M-229 631q-81 0 -115.5 36.5t-34.5 109.5v29h159v-24q0 -18 9 -27t30 -9h213v-115h-261z" />
    <glyph glyph-name="uni0E32" unicode="&#xe32;" horiz-adv-x="557" 
d="M324 372q0 69 -61 69t-67 -67h-164q4 63 32 107.5t81 69t127 24.5q105 0 166.5 -49.5t61.5 -148.5v-377h-176v372z" />
    <glyph glyph-name="uni0E33" unicode="&#xe33;" horiz-adv-x="557" 
d="M-92 626q-35 0 -63 12.5t-43 35.5t-15 53q0 29 15 52t43 35.5t63 12.5t62.5 -12.5t42.5 -35.5t15 -52q0 -30 -15 -53t-42.5 -35.5t-62.5 -12.5zM-92 690q16 0 26 10t10 27q0 16 -10 26t-26 10t-26.5 -10t-10.5 -26q0 -17 10.5 -27t26.5 -10zM349 372q0 69 -61 69
q-62 0 -67 -67h-164q3 63 31.5 107.5t81 69t126.5 24.5q105 0 166.5 -49.5t61.5 -148.5v-377h-175v372z" />
    <glyph glyph-name="uni0E34" unicode="&#xe34;" 
d="M-548 746h494v-115h-494v115z" />
    <glyph glyph-name="uni0E35" unicode="&#xe35;" 
d="M-548 746h355v73h139v-188h-494v115z" />
    <glyph glyph-name="uni0E36" unicode="&#xe36;" 
d="M-548 746h278q2 20 13 36q15 20 40.5 31.5t56.5 11.5q35 0 61.5 -12.5t41 -34.5t14.5 -50q0 -29 -14.5 -51t-41 -34t-61.5 -12h-388v115zM-160 692q16 0 26 10t10 26t-10 25.5t-26 9.5t-26 -9.5t-10 -25.5t10 -26t26 -10z" />
    <glyph glyph-name="uni0E37" unicode="&#xe37;" 
d="M-548 746h208v73h112v-73h61v73h113v-188h-494v115z" />
    <glyph glyph-name="uni0E38" unicode="&#xe38;" 
d="M-192 -172q0 10 -7 15t-19 5t-19 -1v89q13 4 35 6.5t38 2.5q52 0 81 -16.5t29 -49.5v-143h-138v92z" />
    <glyph glyph-name="uni0E39" unicode="&#xe39;" 
d="M-219 -271q-80 0 -122 23.5t-42 67.5v8q0 10 -6.5 15t-19.5 5q-11 0 -19 -1v89q13 4 35 6.5t39 2.5q52 0 80.5 -15.5t28.5 -48.5v-38q0 -10 7 -15.5t19 -5.5t19.5 5.5t7.5 15.5v98h138v-121q0 -45 -42 -68t-123 -23z" />
    <glyph glyph-name="uni0E3A" unicode="&#xe3a;" 
d="M-135 -224q-24 0 -44 11t-31 30.5t-11 44.5q0 24 11 43.5t31 30.5t44 11q25 0 44.5 -11t30.5 -30.5t11 -43.5q0 -25 -11 -44.5t-30.5 -30.5t-44.5 -11z" />
    <glyph glyph-name="uni0E3F" unicode="&#xe3f;" horiz-adv-x="670" 
d="M460 370q35 -2 64.5 -15.5t52 -36t35 -52t12.5 -63.5q0 -46 -17.5 -83.5t-49.5 -64t-77.5 -41t-102.5 -14.5h-27v-66h-71v66h-233v705h233v68h71v-68h18q106 0 164.5 -47t58.5 -129q0 -28 -10 -54t-27.5 -46t-41.5 -33t-52 -17v-9zM221 417h58v161h-58v-161zM350 420
q35 6 54 26t19 52t-19 53t-54 26v-157zM279 126v183h-58v-183h58zM350 127q48 3 69.5 26.5t21.5 65.5q0 82 -91 89v-181z" />
    <glyph glyph-name="uni0E40" unicode="&#xe40;" horiz-adv-x="347" 
d="M246 -6q-64 0 -104 15t-59.5 48t-19.5 86v418h176v-381q0 -28 12.5 -41.5t38.5 -13.5q13 0 20 2v-127q-24 -6 -64 -6z" />
    <glyph glyph-name="uni0E41" unicode="&#xe41;" horiz-adv-x="632" 
d="M271 -6q-65 0 -105 15t-59 48t-19 86v418h176v-381q0 -28 12.5 -41.5t37.5 -13.5q13 0 20 2v-127q-23 -6 -63 -6zM556 -6q-65 0 -105 15t-59 48t-19 86v418h176v-381q0 -28 12.5 -41.5t37.5 -13.5q13 0 21 2v-127q-24 -6 -64 -6z" />
    <glyph glyph-name="uni0E42" unicode="&#xe42;" horiz-adv-x="387" 
d="M288 -6q-65 0 -105 15t-59.5 47.5t-19.5 86.5v430q0 55 -9.5 87t-33 51t-68.5 33v35q0 83 46.5 121t136.5 38h257v-120h-273q-15 0 -23 -5t-8 -17q59 -12 92.5 -43.5t46 -76t12.5 -103.5v-393q0 -28 12.5 -41.5t38.5 -13.5q13 0 20 2v-127q-24 -6 -63 -6z" />
    <glyph glyph-name="uni0E43" unicode="&#xe43;" horiz-adv-x="382" 
d="M284 -6q-65 0 -105 15t-59 47.5t-19 86.5v370q0 53 18.5 95t55.5 80q34 35 48.5 55t14.5 41q0 20 -13.5 31t-36.5 11q-49 0 -52 -49h-154q6 83 61.5 126t154.5 43q94 0 146 -39t52 -111q0 -29 -8 -53t-19.5 -42.5t-29.5 -40.5q-17 -22 -30 -41.5t-22.5 -47.5t-9.5 -59
v-332q0 -28 12 -41.5t38 -13.5q13 0 20 2v-127q-24 -6 -63 -6z" />
    <glyph glyph-name="uni0E44" unicode="&#xe44;" horiz-adv-x="406" 
d="M310 -6q-66 0 -106 15t-59 47.5t-19 86.5v427q0 91 34 152t110 94v2h-250l35 120h374v-108q-60 -25 -93.5 -91.5t-33.5 -168.5v-390q0 -28 12.5 -41.5t38.5 -13.5q12 0 20 2v-127q-25 -6 -63 -6z" />
    <glyph glyph-name="uni0E45" unicode="&#xe45;" horiz-adv-x="557" 
d="M324 372q0 69 -61 69t-67 -67h-164q4 63 32 107.5t81 69t127 24.5q105 0 166.5 -49.5t61.5 -148.5v-587h-176v582z" />
    <glyph glyph-name="uni0E46" unicode="&#xe46;" horiz-adv-x="715" 
d="M428 384q0 54 -35 54q-18 0 -27 -13t-9 -40v-37h-66v37q0 26 -9.5 39.5t-26.5 13.5q-19 0 -28.5 -18.5t-9.5 -51.5q0 -43 17.5 -65.5t52.5 -22.5q9 0 21 2v-130q-26 -5 -57 -5q-61 0 -107.5 27t-72 78t-25.5 119q0 58 19.5 103.5t55.5 71t84 25.5q40 0 70.5 -18t43.5 -49
h3q14 31 48.5 49t79.5 18q47 0 81.5 -20t53.5 -57t19 -87v-617h-176v594z" />
    <glyph glyph-name="uni0E47" unicode="&#xe47;" 
d="M-198 625q-40 0 -65.5 18.5t-37.5 49.5l-45 -67h-17q-41 0 -72.5 15.5t-49 43.5t-17.5 67q0 38 16.5 67t48 45t73.5 16h280v-89h-246q-18 0 -28.5 -11.5t-10.5 -28.5q0 -16 9.5 -25t23.5 -10l29 38h36q6 -19 13.5 -28.5t21.5 -9.5q23 0 23 29v9h120v-14
q0 -56 -27.5 -85.5t-77.5 -29.5z" />
    <glyph glyph-name="uni0E48" unicode="&#xe48;" 
d="M-193 1055h139v-182h-139v182z" />
    <glyph glyph-name="uni0E49" unicode="&#xe49;" 
d="M-257 931q0 15 -7.5 22.5t-23.5 7.5h-30v93h104q44 0 65 -18t21 -56v-14h135v-93h-264v58z" />
    <glyph glyph-name="uni0E4A" unicode="&#xe4a;" 
d="M-368 952q0 48 25 75.5t66 27.5q30 0 50.5 -11.5t29.5 -32.5h3q10 21 30.5 32.5t50.5 11.5q38 0 62 -21t24 -57v-11h73v-93h-180v51q0 11 -5.5 17.5t-14.5 6.5q-10 0 -15.5 -6.5t-5.5 -17.5v-10h-39v10q0 11 -6 17.5t-15 6.5t-14.5 -6.5t-5.5 -17.5v-51h-113v79z" />
    <glyph glyph-name="uni0E4B" unicode="&#xe4b;" 
d="M-192 923h-77v89h77v46h138v-46h80v-89h-80v-50h-138v50z" />
    <glyph glyph-name="uni0E4C" unicode="&#xe4c;" 
d="M-280 897q0 70 40 106.5t119 36.5h146v-111h-102q-43 0 -43 -41v-15h-160v24z" />
    <glyph glyph-name="uni0E4D" unicode="&#xe4d;" 
d="M-151 626q-35 0 -62.5 12.5t-42.5 35.5t-15 53q0 29 15 52t42.5 35.5t62.5 12.5t62.5 -12.5t43 -35.5t15.5 -52q0 -30 -15.5 -53t-43 -35.5t-62.5 -12.5zM-151 690q16 0 26.5 10t10.5 27q0 16 -10.5 26t-26.5 10t-26.5 -10t-10.5 -26q0 -17 10.5 -27t26.5 -10z" />
    <glyph glyph-name="uni0E4E" unicode="&#xe4e;" 
d="M-190 625q-55 0 -85 20.5t-30 59.5q0 31 18.5 49.5t51.5 18.5h11q-10 5 -16 16t-6 24q0 21 16.5 33t45.5 12h118v-63h-39q-13 0 -19.5 -4t-6.5 -13q0 -18 22 -21v-27h-47q-23 0 -23 -18q0 -10 8 -15t26 -5q13 0 23 3v-63q-29 -7 -68 -7z" />
    <glyph glyph-name="uni0E4F" unicode="&#xe4f;" horiz-adv-x="661" 
d="M330 14q-69 0 -125 31.5t-87.5 87t-31.5 125.5t31.5 125.5t87.5 87.5t125 32q70 0 125.5 -32t87.5 -87.5t32 -125.5t-32 -125.5t-87.5 -87t-125.5 -31.5zM330 93q46 0 83 21.5t58 59t21 84.5t-21 84.5t-58 59t-83 21.5q-45 0 -82 -21.5t-58 -59t-21 -84.5t21 -84.5
t58 -59t82 -21.5zM330 131q-36 0 -64 16.5t-44.5 45.5t-16.5 65t16.5 65.5t44.5 46t64 16.5t64.5 -16.5t44.5 -46t16 -65.5t-16 -65t-44.5 -45.5t-64.5 -16.5zM330 194q27 0 44 18t17 46t-17.5 46.5t-43.5 18.5t-43 -18.5t-17 -46.5t17 -46t43 -18z" />
    <glyph glyph-name="uni0E50" unicode="&#xe50;" horiz-adv-x="631" 
d="M315 -11q-78 0 -139 33t-95.5 91.5t-34.5 134.5t34 134.5t95.5 91t139.5 32.5q79 0 140.5 -32.5t95.5 -91t34 -134.5t-34.5 -134.5t-95.5 -91.5t-140 -33zM315 118q28 0 49 15.5t33 45t12 69.5t-12 69.5t-33 45t-49 15.5q-27 0 -48 -16t-33 -45t-12 -69t12 -69t33 -45
t48 -16z" />
    <glyph glyph-name="uni0E51" unicode="&#xe51;" horiz-adv-x="606" 
d="M203 83q63 0 102.5 18.5t58 56.5t18.5 98q0 61 -21 91.5t-65 30.5q-35 0 -56 -19t-21 -54q0 -31 16 -51t44 -20q7 0 14 1v-103q-25 -4 -50 -4q-58 0 -102 20t-69 60t-25 97q0 63 30.5 108t87 69t132.5 24q83 0 141.5 -29.5t88.5 -85.5t30 -135q0 -90 -39 -154.5
t-113.5 -99t-177.5 -34.5q-17 0 -24 1v114z" />
    <glyph glyph-name="uni0E52" unicode="&#xe52;" horiz-adv-x="753" 
d="M382 -11q-112 0 -183 27.5t-104 83.5t-33 141v390h168v-364q0 -54 15.5 -85.5t51.5 -46t100 -14.5q55 0 86.5 11.5t44.5 36.5t13 67v118q0 35 -22 35q-21 0 -21 -33v-17h-48v17q0 16 -5.5 24.5t-14.5 8.5q-11 0 -17 -14t-6 -39q0 -30 10.5 -43t33.5 -13q7 0 18 2v-97
q-15 -3 -38 -3q-84 0 -126 37.5t-42 124.5q0 82 30 122t92 40q33 0 55 -14t35 -43h3q14 30 36.5 43.5t61.5 13.5q60 0 91 -33t31 -102v-138q0 -82 -32.5 -136t-102.5 -81t-181 -27z" />
    <glyph glyph-name="uni0E53" unicode="&#xe53;" horiz-adv-x="703" 
d="M253 -5q-104 0 -150.5 68t-46.5 193q0 128 44.5 189t123.5 61q48 0 79.5 -21.5t50.5 -63.5h2q19 42 53.5 63.5t83.5 21.5q44 0 77.5 -17t52.5 -49.5t19 -76.5v-363h-168v321q0 41 -33 41q-18 0 -26.5 -11.5t-8.5 -32.5v-135h-108v135q0 21 -8.5 32.5t-24.5 11.5
q-22 0 -31.5 -26t-9.5 -90q0 -43 5.5 -69.5t21 -40t45.5 -13.5q11 0 29 2v-123q-36 -7 -72 -7z" />
    <glyph glyph-name="uni0E54" unicode="&#xe54;" horiz-adv-x="611" 
d="M276 0q-111 0 -169 63.5t-58 185.5q0 126 61 191t175 65h27q41 0 59 17t18 55v54h174v-99q0 -79 -39.5 -118.5t-116.5 -39.5h-54q-67 0 -98 -30t-31 -99q0 -57 21 -86.5t68 -29.5h57v2q-18 14 -27.5 36.5t-9.5 48.5q0 52 33.5 77t96.5 25q22 0 44 -2.5t31 -5.5v-96
q-5 1 -18 1q-40 0 -40 -34q0 -24 14.5 -38t40.5 -14h28v-129h-287z" />
    <glyph glyph-name="uni0E55" unicode="&#xe55;" horiz-adv-x="611" 
d="M276 0q-111 0 -169 63t-58 181q0 82 29 136.5t87 83.5v3q-16 12 -24.5 29t-8.5 38q0 29 14 51t39 34.5t58 12.5q31 0 56 -12t39 -33.5t14 -49.5q0 -18 -7 -29v-3h7q28 0 40 18t12 46v62h159v-107q0 -79 -39.5 -118.5t-116.5 -39.5h-54q-67 0 -98 -29t-31 -95
q0 -55 21.5 -84t67.5 -29h57v2q-18 14 -27.5 36.5t-9.5 48.5q0 52 33.5 77t96.5 25q22 0 44 -2.5t31 -5.5v-96q-5 1 -18 1q-40 0 -40 -34q0 -24 14.5 -38t40.5 -14h28v-129h-287zM242 497q15 0 25 10t10 27q0 15 -10 25.5t-25 10.5q-16 0 -26 -10.5t-10 -25.5q0 -17 10 -27
t26 -10z" />
    <glyph glyph-name="uni0E56" unicode="&#xe56;" horiz-adv-x="606" 
d="M299 -10q-71 0 -125 27t-83 76t-29 113v45h216v-83h-54q3 -21 21.5 -36t49.5 -15q44 0 67.5 34t23.5 94q0 62 -25.5 96t-69.5 34q-32 0 -54.5 -15t-32.5 -38h-131l-46 309h162l18 -155h3q18 14 49.5 22t66.5 8q69 0 122 -31.5t82.5 -89t29.5 -133.5q0 -79 -32 -138
t-91.5 -91.5t-137.5 -32.5z" />
    <glyph glyph-name="uni0E57" unicode="&#xe57;" horiz-adv-x="892" 
d="M253 -5q-103 0 -150 67t-47 190q0 129 46.5 191.5t126.5 62.5q45 0 77 -20t45 -56h3q11 35 45.5 55.5t79.5 20.5q40 0 72.5 -17t52 -48t19.5 -71v-238h6q25 0 37 32t12 98v369h168v-373q0 -130 -62.5 -194t-196.5 -64h-118v325q0 41 -31 41q-35 0 -35 -44v-133h-108v133
q0 21 -8 32.5t-22 11.5q-21 0 -31 -30.5t-10 -88.5q0 -40 5.5 -66t21.5 -41t46 -15q16 0 28 3v-126q-36 -7 -72 -7z" />
    <glyph glyph-name="uni0E58" unicode="&#xe58;" horiz-adv-x="656" 
d="M465 -7q-46 0 -82.5 23.5t-55.5 66.5h-3l-48 -84h-29q-59 0 -103.5 28.5t-69.5 84.5t-25 137q0 82 26 139.5t73.5 87t114.5 29.5h84q43 0 61.5 17.5t18.5 56.5v52h173v-96q0 -80 -40 -120.5t-119 -40.5h-112q-53 0 -79.5 -32t-26.5 -98q0 -43 11 -70.5t29 -36.5l44 67h50
q3 -32 16 -51.5t37 -19.5q18 0 28.5 10t10.5 29v43h-40v86h196v-149q0 -76 -36.5 -117.5t-103.5 -41.5z" />
    <glyph glyph-name="uni0E59" unicode="&#xe59;" horiz-adv-x="658" 
d="M264 -4q-106 0 -157 66t-51 192q0 132 53.5 193t153.5 61q44 0 77.5 -11.5t49.5 -35.5h3q1 15 6 23.5t12 13t19 10.5q14 6 22 12t13.5 17.5t5.5 30.5v63h161v-90q0 -51 -10.5 -78t-28.5 -39.5t-53 -27.5q-20 -8 -30.5 -15t-16 -20.5t-5.5 -37.5q0 -31 11 -57l112 -266
h-167l-123 331q-7 18 -15.5 25.5t-23.5 7.5q-26 0 -42 -25.5t-16 -90.5q0 -47 9 -74t27 -38.5t46 -11.5q13 0 28 2v-124q-32 -6 -70 -6z" />
    <glyph glyph-name="uni0E5A" unicode="&#xe5a;" horiz-adv-x="868" 
d="M408 268h-3q-19 -27 -58 -44t-90 -17q-59 0 -103 23.5t-67.5 67t-23.5 100.5q0 59 24.5 98t67.5 58.5t100 19.5q24 0 47 -3.5t42 -8.5v-118q-19 5 -41 5q-29 0 -46.5 -13t-17.5 -38t19.5 -40.5t52.5 -15.5q46 0 71.5 31t25.5 89v99h176v-561h-176v268zM632 561h176v-561
h-176v561z" />
    <glyph glyph-name="uni0E5B" unicode="&#xe5b;" horiz-adv-x="1191" 
d="M321 24q-85 0 -145 32.5t-90.5 92t-30.5 140.5q0 111 56.5 173.5t166.5 62.5q101 0 152 -60t51 -170h-141q0 50 -13.5 74.5t-39.5 24.5q-27 0 -43.5 -25t-16.5 -63q0 -71 31.5 -109t91.5 -38q52 0 92 31t63 95t23 159h131l45 -167h3l38 143h91l38 -136h3l31 112h71
q10 -64 40.5 -101t80.5 -37q18 0 41 5v-124q-20 -8 -48 -8q-56 0 -93 29.5t-45 82.5h-4l-44 -140h-73l-39 160h-3l-37 -177h-97l-37 172h-5q-18 -75 -59 -127.5t-101.5 -79.5t-134.5 -27z" />
    <glyph glyph-name="endash" unicode="&#x2013;" horiz-adv-x="500" 
d="M0 208v154h500v-154h-500z" />
    <glyph glyph-name="emdash" unicode="&#x2014;" horiz-adv-x="1000" 
d="M0 208v154h1000v-154h-1000z" />
    <glyph glyph-name="quoteleft" unicode="&#x2018;" horiz-adv-x="304" 
d="M251 705l-39 -289h-159l72 289h126z" />
    <glyph glyph-name="quoteright" unicode="&#x2019;" horiz-adv-x="304" 
d="M57 416l31 289h159l-64 -289h-126z" />
    <glyph glyph-name="quotesinglbase" unicode="&#x201a;" horiz-adv-x="304" 
d="M65 -162l31 289h159l-64 -289h-126z" />
    <glyph glyph-name="quotedblbase" unicode="&#x201e;" horiz-adv-x="554" 
d="M63 -162l31 289h159l-64 -289h-126zM300 -162l31 289h159l-64 -289h-126z" />
    <glyph glyph-name="dagger" unicode="&#x2020;" horiz-adv-x="487" 
d="M313 267h-139v242h-114v133h114v129h139v-129h114v-133h-114v-242z" />
    <glyph glyph-name="daggerdbl" unicode="&#x2021;" horiz-adv-x="487" 
d="M313 362v-95h-139v95h-114v117h114v81h-114v117h114v94h139v-94h114v-117h-114v-81h114v-117h-114z" />
    <glyph glyph-name="bullet" unicode="&#x2022;" horiz-adv-x="487" 
d="M244 90q-39 0 -73 15t-59.5 40.5t-40.5 60t-15 72.5t15 72.5t40.5 60t59.5 40.5t73 15q38 0 72 -15t59.5 -40.5t40.5 -60t15 -72.5t-15 -72.5t-40.5 -60t-59.5 -40.5t-72 -15z" />
    <glyph glyph-name="ellipsis" unicode="&#x2026;" horiz-adv-x="852" 
d="M145 -6q-38 0 -64 26t-26 64q0 19 7 35.5t19 29t28.5 19.5t35.5 7t35.5 -7t29 -19.5t19.5 -29t7 -35.5q0 -38 -26.5 -64t-64.5 -26zM426 -6q-19 0 -35.5 7t-29 19t-19.5 28.5t-7 35.5q0 38 26.5 64.5t64.5 26.5q19 0 35.5 -7t29 -19.5t19.5 -29t7 -35.5q0 -38 -26.5 -64
t-64.5 -26zM707 -6q-19 0 -35.5 7t-29 19t-19.5 28.5t-7 35.5q0 38 26.5 64.5t64.5 26.5q19 0 35.5 -7t28.5 -19.5t19 -29t7 -35.5q0 -38 -26 -64t-64 -26z" />
    <glyph glyph-name="perthousand" unicode="&#x2030;" horiz-adv-x="1235" 
d="M355 534q0 -87 -44.5 -136.5t-122.5 -49.5t-122.5 49.5t-44.5 136.5t44.5 137t122.5 50t122.5 -50t44.5 -137zM105 0l514 705h135l-513 -705h-136zM188 448q20 0 30.5 22.5t10.5 64.5t-10.5 64.5t-30.5 22.5t-31 -22.5t-11 -64.5t11 -64.5t31 -22.5zM839 175
q0 -87 -45 -136.5t-123 -49.5t-122.5 49.5t-44.5 136.5t44.5 136.5t122.5 49.5t123 -49.5t45 -136.5zM1215 175q0 -87 -45 -136.5t-123 -49.5t-122.5 49.5t-44.5 136.5t44.5 136.5t122.5 49.5t123 -49.5t45 -136.5zM671 89q20 0 31 23t11 64q0 42 -11 64.5t-31 22.5
q-19 0 -30 -22.5t-11 -64.5q0 -41 11 -64t30 -23zM1047 89q20 0 31 23t11 64q0 42 -11 64.5t-31 22.5t-30.5 -22.5t-10.5 -64.5q0 -41 10.5 -64t30.5 -23z" />
    <glyph glyph-name="guilsinglleft" unicode="&#x2039;" horiz-adv-x="417" 
d="M201 275l168 -200h-154l-166 199v4l170 200h150l-168 -199v-4z" />
    <glyph glyph-name="guilsinglright" unicode="&#x203a;" horiz-adv-x="417" 
d="M49 478h150l170 -200v-4l-167 -199h-153l168 200v4z" />
    <glyph glyph-name="Euro" unicode="&#x20ac;" horiz-adv-x="670" 
d="M321 236q26 -51 76.5 -77.5t118.5 -26.5q33 0 60.5 2t41.5 6v-146q-22 -5 -47 -6.5t-55 -1.5q-153 0 -252.5 66t-132.5 184h-83v83h69q0 8 -0.5 16.5t-0.5 17.5v7l1 13v7h-69v82h81q32 122 132 189.5t255 67.5q26 0 53 -3.5t46 -8.5v-144q-39 9 -95 9q-72 0 -124 -28
t-78 -82h260v-82h-283v-7l-1 -13q0 -11 0.5 -20.5t1.5 -20.5h282v-83h-257z" />
    <glyph glyph-name="infinity" unicode="&#x221e;" horiz-adv-x="634" 
d="M37 0v561h561v-561h-561zM147 423v-285h54v130h66v50h-66v55h107v50h-161zM359 138v89h5l61 -89h64l-75 98q25 5 38.5 22.5t13.5 43.5q0 31 -21 51t-63 20h-74v-235h51zM359 331h12q44 0 44 -31q0 -32 -44 -32h-12v63z" />
    <glyph glyph-name="maitholowleftthai" 
d="M-326 689q0 15 -7 22t-23 7h-31v94h108q44 0 65.5 -18.5t21.5 -55.5v-13h178v-94h-312v58z" />
    <glyph glyph-name="maitrilowleftthai" 
d="M-643 728q0 41 23 64t61 23q27 0 46 -11.5t28 -31.5h3q9 20 28 31.5t46 11.5q36 0 58 -21t22 -56v-14h62v-93h-164v53q0 11 -4.5 17t-12.5 6q-9 0 -13.5 -6t-4.5 -17v-10h-35v10q0 11 -5 17t-13 6t-13 -6t-5 -17v-53h-107v97z" />
    <glyph glyph-name="maichattawalowleftthai" 
d="M-488 681h-67v89h67v45h141v-45h71v-89h-71v-50h-141v50z" />
    <glyph glyph-name="thanthakhatlowleftthai" 
d="M-557 663q0 70 35.5 106t108.5 36h124v-111h-60q-43 0 -43 -41v-22h-165v32z" />
    <glyph glyph-name="maitholowrightthai" 
d="M-326 689q0 15 -7 22t-23 7h-31v94h108q44 0 65.5 -18.5t21.5 -55.5v-13h178v-94h-312v58z" />
    <glyph glyph-name="maitrilowrightthai" 
d="M-489 712q0 48 28 75.5t73 27.5q34 0 56.5 -11t32.5 -33h3q11 22 33.5 33t55.5 11q43 0 70 -21.5t27 -58.5v-10h110v-94h-229v53q0 11 -6.5 17.5t-16.5 6.5t-16 -6.5t-6 -17.5v-10h-45v10q0 11 -6.5 17.5t-16.5 6.5t-16 -6.5t-6 -17.5v-53h-125v81z" />
    <glyph glyph-name="maichattawalowrightthai" 
d="M-223 681h-77v89h77v45h160v-45h81v-89h-81v-50h-160v50z" />
    <glyph glyph-name="thanthakhatlowrightthai" 
d="M-333 663q0 69 42 105.5t123 36.5h156v-111h-110q-22 0 -33.5 -10t-11.5 -31v-22h-166v32z" />
    <glyph glyph-name="yoyingnobasethai" horiz-adv-x="939" 
d="M628 -12q-74 0 -128.5 25.5t-83.5 75t-29 120.5v131q0 52 -21.5 77t-64.5 25q-39 0 -60.5 -19.5t-24.5 -54.5h79v-94q-37 -5 -55.5 -23.5t-18.5 -50.5v-15q0 -31 16 -45.5t48 -14.5q12 0 19 2v-127q-25 -6 -66 -6q-69 0 -111 16t-62 49.5t-20 87.5v24q0 55 23 88.5
t73 52.5v3h-99v33q0 70 31.5 121t91.5 78.5t144 27.5q79 0 135 -25t85.5 -72.5t29.5 -115.5v-160q0 -39 20 -59.5t55 -20.5t55 20.5t20 59.5v359h176v-352q0 -107 -67 -164t-190 -57z" />
    <glyph glyph-name="maihanakatleftthai" 
d="M-465 631q-80 0 -115 36.5t-35 109.5v29h159v-24q0 -18 9.5 -27t29.5 -9h139v-115h-187z" />
    <glyph glyph-name="nikhahitleftthai" 
d="M-408 626q-35 0 -62.5 12.5t-42.5 35.5t-15 53q0 29 15 52t42.5 35.5t62.5 12.5t63 -12.5t43 -35.5t15 -52q0 -30 -15 -53t-43 -35.5t-63 -12.5zM-408 690q16 0 26.5 10t10.5 27q0 16 -10.5 26t-26.5 10t-26 -10t-10 -26q0 -17 10 -27t26 -10z" />
    <glyph glyph-name="maitaikhuleftthai" 
d="M-367 625q-34 0 -58 19t-33 49l-41 -67h-15q-34 0 -60.5 15.5t-41 43.5t-14.5 67q0 38 13.5 67t40 45t61.5 16h243v-89h-225q-17 0 -27 -11.5t-10 -28.5q0 -15 8.5 -24t21.5 -11l30 38h34q5 -18 13 -28t21 -10q25 0 25 29v9h102v-14q0 -56 -23 -85.5t-65 -29.5z" />
    <glyph glyph-name="maiekupperleftthai" 
d="M-427 1055h139v-182h-139v182z" />
    <glyph glyph-name="maithoupperleftthai" 
d="M-257 931q0 15 -7.5 22.5t-23.5 7.5h-30v93h104q44 0 65 -18t21 -56v-14h135v-93h-264v58z" />
    <glyph glyph-name="maitriupperleftthai" 
d="M-368 952q0 48 25 75.5t66 27.5q30 0 50.5 -11.5t29.5 -32.5h3q10 21 30.5 32.5t50.5 11.5q38 0 62 -21t24 -57v-11h73v-93h-180v51q0 11 -5.5 17.5t-14.5 6.5q-10 0 -15.5 -6.5t-5.5 -17.5v-10h-39v10q0 11 -6 17.5t-15 6.5t-14.5 -6.5t-5.5 -17.5v-51h-113v79z" />
    <glyph glyph-name="maichattawaupperleftthai" 
d="M-427 923h-77v89h77v46h138v-46h80v-89h-80v-50h-138v50z" />
    <glyph glyph-name="thanthakhatupperleftthai" 
d="M-280 897q0 70 40 106.5t119 36.5h146v-111h-102q-43 0 -43 -41v-15h-160v24z" />
    <glyph glyph-name="saraulowthai" 
d="M-192 -326q0 11 -7 15.5t-19 4.5t-19 -1v88q13 5 35 8t39 3q51 0 80 -17t29 -50v-143h-138v92z" />
    <glyph glyph-name="sarauulowthai" 
d="M-219 -426q-80 0 -122 24t-42 68v8q0 10 -6.5 15t-19.5 5q-11 0 -19 -2v89q14 5 36 8t38 3q52 0 80.5 -16t28.5 -49v-38q0 -10 7 -16t19 -6t19.5 6t7.5 16v98h138v-121q0 -45 -42 -68.5t-123 -23.5z" />
    <glyph glyph-name="phinthulowthai" 
d="M-135 -378q-24 0 -44 11t-31 30.5t-11 44.5q0 24 11 43.5t31 30.5t44 11q25 0 44.5 -11t30.5 -30.5t11 -43.5q0 -25 -11 -44.5t-30.5 -30.5t-44.5 -11z" />
    <glyph glyph-name="lochula.short" horiz-adv-x="732" 
d="M506 165v155q0 26 -6 42t-21 23.5t-41 7.5h-91v107h91q44 0 66.5 19.5t24.5 65.5h183q-2 -67 -37 -107q-29 -33 -75 -43q24 -7 39 -18q22 -17 31 -45t9 -73v-130q0 -83 -44 -132t-119 -49q-54 0 -93.5 27t-56.5 76h-9q-17 -49 -56.5 -76t-93.5 -27q-75 0 -119 49t-44 132
v392h173v-396q0 -43 32 -43q31 0 31 43v135h164v-135q0 -43 30 -43q32 0 32 43z" />
    <glyph glyph-name="saraamleft" horiz-adv-x="557" 
d="M-408 626q-35 0 -62.5 12.5t-42.5 35.5t-15 53q0 29 15 52t42.5 35.5t62.5 12.5t63 -12.5t43 -35.5t15 -52q0 -30 -15 -53t-43 -35.5t-63 -12.5zM-408 690q16 0 26.5 10t10.5 27q0 16 -10.5 26t-26.5 10t-26 -10t-10 -26q0 -17 10 -27t26 -10zM349 372q0 69 -61 69
q-62 0 -67 -67h-164q3 63 31.5 107.5t81 69t126.5 24.5q105 0 166.5 -49.5t61.5 -148.5v-377h-175v372z" />
    <glyph glyph-name="yamakkanleftthai" 
d="M-415 625q-55 0 -85 20.5t-30 59.5q0 31 18.5 49.5t51.5 18.5h11q-10 5 -16 16t-6 24q0 21 16.5 33t45.5 12h118v-63h-39q-13 0 -19.5 -4t-6.5 -13q0 -18 22 -21v-27h-47q-23 0 -23 -18q0 -10 8 -15t26 -5q13 0 23 3v-63q-29 -7 -68 -7z" />
    <glyph glyph-name="thothannobasethai" horiz-adv-x="609" 
d="M146 134q-11 26 -23.5 34.5t-34.5 8.5q-14 0 -29 -3v122q21 5 41 8t44 3q35 0 57.5 -6.5t38 -22.5t28.5 -46l46 -110h3q33 33 52.5 82.5t19.5 106.5q0 64 -24.5 97t-72.5 33q-32 0 -54 -15.5t-30 -46.5h-167q8 97 74.5 146.5t175.5 49.5q58 0 105 -23q7 -3 13 -7l33 52
h174l-99 -140q47 -52 47 -140q0 -67 -22 -128t-58 -109t-80 -80h-197z" />
    <glyph glyph-name="maieklowrightthai" 
d="M-222 813h161v-182h-161v182z" />
    <glyph glyph-name="saraileftthai" 
d="M-644 746h355v-115h-355v115z" />
    <glyph glyph-name="saraiileftthai" 
d="M-644 746h217v73h138v-188h-355v115z" />
    <glyph glyph-name="saraueleftthai" 
d="M-644 746h162q2 20 11 36q13 20 35 31.5t50 11.5q31 0 54 -12.5t35.5 -34.5t12.5 -50q0 -29 -13 -51t-36 -34t-53 -12h-258v115zM-386 692q14 0 23 10t9 26t-9 25.5t-23 9.5t-22.5 -9.5t-8.5 -25.5t8.5 -26t22.5 -10z" />
    <glyph glyph-name="saraueeleftthai" 
d="M-644 746h131v73h86v-73h53v73h85v-188h-355v115z" />
    <glyph glyph-name="maieklowleftthai" 
d="M-467 813h161v-182h-161v182z" />
    </font>
</defs>
</svg>
