<?xml version="1.0" standalone="no"?>
<!DOCTYPE svg PUBLIC "-//W3C//DTD SVG 1.1//EN" "http://www.w3.org/Graphics/SVG/1.1/DTD/svg11.dtd" >
<svg xmlns="http://www.w3.org/2000/svg" xmlns:xlink="http://www.w3.org/1999/xlink" version="1.1">
<metadata>
Created by FontForge 20201107 at Mon Aug 28 00:17:25 2023
 By 
</metadata>
<defs>
<font id="FRSFRegular" horiz-adv-x="0" >
  <font-face 
    font-family="FR SF Regular"
    font-weight="300"
    font-stretch="normal"
    units-per-em="1000"
    panose-1="2 0 0 0 0 0 0 0 0 0"
    ascent="800"
    descent="-200"
    x-height="508"
    cap-height="705"
    bbox="-553 -411 1177 1028"
    underline-thickness="260"
    underline-position="-380"
    unicode-range="U+0020-221E"
  />
<missing-glyph horiz-adv-x="524" 
 />
    <glyph glyph-name="quotedblleft" unicode="&#x2018;&#x2018;" horiz-adv-x="452" 
d="M200 705l-47 -249h-91l67 249h71zM390 705l-48 -249h-90l67 249h71z" />
    <glyph glyph-name="quotedblright" unicode="&#x2019;&#x2019;" horiz-adv-x="452" 
d="M62 456l48 249h90l-67 -249h-71zM252 456l47 249h91l-67 -249h-71z" />
    <glyph glyph-name="rulakkhangyao" unicode="&#xe24;&#xe32;" horiz-adv-x="959" 
d="M436 348q0 73 -40 110t-114 37q-69 0 -108.5 -30t-43.5 -86h128v-60q-55 -8 -78.5 -35t-23.5 -79v-53q0 -33 8.5 -51t26 -25t49.5 -7q15 0 23 2v-71q-13 -3 -46 -3q-53 0 -85 15t-47 48.5t-15 90.5v39q0 54 20 89t63 51v3h-105v21q0 65 29 114.5t83 76t125 26.5
q69 0 119 -26.5t74 -78.5h2q27 53 71.5 79t115.5 26q65 0 114 -22.5t76 -69t27 -116.5v-563h-86v558q0 65 -36.5 101t-101.5 36t-101.5 -36t-36.5 -101v-558h-86v548z" />
    <glyph glyph-name="lulakkhangyao" unicode="&#xe26;&#xe32;" horiz-adv-x="973" 
d="M450 348q0 73 -39.5 110t-112.5 37q-69 0 -112 -30.5t-47 -85.5h130v-60q-33 -6 -50 -19.5t-23.5 -35.5t-6.5 -59v-72q0 -49 -12.5 -78.5t-43 -43.5t-86.5 -14h-10v73h12q31 0 43 12.5t12 45.5v62q0 39 5 65t20 45t42 30v3h-114v23q0 65 31.5 114t86.5 75t126 26
q66 0 116.5 -24t75.5 -76h3q27 50 71.5 75t113.5 25q65 0 114 -22.5t76 -69t27 -116.5v-563h-86v558q0 65 -36.5 101t-101.5 36t-101.5 -36t-36.5 -101v-558h-86v548z" />
    <glyph glyph-name="trademark2" unicode="&#x3b;&#x3b;Trademark&#x3b;&#x3b;" horiz-adv-x="875" 
d="M167 348v302h-119v55h304v-55h-119v-302h-66zM730 348v251h-1l-110 -248h-45l-109 248h-2v-251h-60v357h76l117 -267h2l115 267h77v-357h-60z" />
    <glyph glyph-name="copyright2" unicode="&#x3b;&#x3b;For&#x20;Education&#x20;Used&#x20;Only&#x3b;&#x3b;" horiz-adv-x="833" 
d="M417 -82q-82 0 -152.5 29.5t-123 81.5t-82.5 123t-30 154t30 154t82.5 122.5t123 81t152.5 29.5t152.5 -29.5t122.5 -81t82 -122.5t30 -154t-30 -154t-82 -123t-122.5 -81.5t-152.5 -29.5zM417 -14q67 0 125 24.5t101 67t67.5 101t24.5 127.5t-24.5 127t-67.5 101
t-101 67t-125 24t-125.5 -24t-101.5 -67t-67.5 -101t-24.5 -127t24.5 -127.5t67.5 -101t101.5 -67t125.5 -24.5zM533 375q-8 32 -35.5 54t-72.5 22q-57 0 -90.5 -38.5t-33.5 -105.5q0 -69 34 -108t90 -39q42 0 70.5 19t37.5 55h68q-9 -59 -55 -96.5t-121 -37.5
q-44 0 -79.5 14.5t-61 41t-39 65t-13.5 86.5q0 47 13.5 85t39 64.5t61 41t79.5 14.5q38 0 68.5 -11t53 -29.5t36.5 -43.5t18 -53h-68z" />
    <glyph glyph-name="registered2" unicode="&#x3b;&#x3b;Registered&#x3b;&#x3b;" horiz-adv-x="566" 
d="M283 289q-49 0 -91.5 18t-74 49t-50 73t-18.5 90t18 90t49.5 72.5t74.5 48.5t92 18t92 -18t74.5 -48.5t50 -72.5t18.5 -90t-18.5 -90t-50 -73t-74.5 -49t-92 -18zM283 338q38 0 71 14t57.5 38.5t38.5 57.5t14 71t-14 71t-38.5 57t-57.5 38t-71 14q-37 0 -70 -14
t-57.5 -38t-38.5 -57t-14 -71t14 -71t38.5 -57.5t57.5 -38.5t70 -14zM195 413v220h108q34 0 55.5 -19t21.5 -48q0 -26 -14 -43.5t-38 -21.5l63 -88h-58l-53 82h-39v-82h-46zM241 530h52q37 0 37 33q0 31 -35 31h-54v-64z" />
    <glyph glyph-name="multiply2" unicode="&#x3b;&#x3b;Multiply&#x3b;&#x3b;" horiz-adv-x="605" 
d="M152 82l-50 51l149 150l-149 151l50 50l151 -150l150 150l50 -50l-149 -151l149 -150l-50 -51l-150 150z" />
    <glyph glyph-name="divide2" unicode="&#x3b;&#x3b;Divide&#x3b;&#x3b;" horiz-adv-x="605" 
d="M303 392q-26 0 -43.5 17t-17.5 44q0 26 17.5 43.5t43.5 17.5t43.5 -17.5t17.5 -43.5q0 -27 -17.5 -44t-43.5 -17zM54 242v72h497v-72h-497zM303 43q-26 0 -43.5 17t-17.5 44q0 26 17.5 43.5t43.5 17.5t43.5 -17.5t17.5 -43.5q0 -27 -17.5 -44t-43.5 -17z" />
    <glyph glyph-name=".notdef" horiz-adv-x="524" 
 />
    <glyph glyph-name=".null" 
 />
    <glyph glyph-name="uni000D" horiz-adv-x="310" 
 />
    <glyph glyph-name="space" unicode=" " horiz-adv-x="205" 
 />
    <glyph glyph-name="exclam" unicode="!" horiz-adv-x="267" 
d="M177 705l-6 -471h-76l-6 471h88zM133 -5q-23 0 -39 16.5t-16 39.5q0 24 16 39.5t39 15.5q24 0 40 -15.5t16 -39.5q0 -23 -16 -39.5t-40 -16.5z" />
    <glyph glyph-name="quotedbl" unicode="&#x22;" horiz-adv-x="394" 
d="M66 456v249h78v-249h-78zM250 456v249h78v-249h-78z" />
    <glyph glyph-name="numbersign" unicode="#" horiz-adv-x="601" 
d="M344 197h-160l-40 -197h-69l39 197h-114l14 70h115l36 178h-121l15 70h120l40 190h69l-38 -190h159l40 190h70l-40 -190h122l-14 -70h-122l-37 -178h128l-14 -70h-128l-40 -197h-70zM359 266l37 180h-162l-36 -180h161z" />
    <glyph glyph-name="dollar" unicode="$" horiz-adv-x="605" 
d="M271 -67v66q-49 3 -89.5 18.5t-69.5 41t-45 59.5t-16 75h84q4 -50 39.5 -80.5t96.5 -38.5v254l-40 11q-78 20 -120.5 66.5t-42.5 115.5q0 81 54.5 132t148.5 60v68h65v-68q46 -4 83 -19.5t64 -40.5t42.5 -58.5t16.5 -72.5h-84q-1 46 -34.5 77.5t-87.5 38.5v-239l41 -10
q91 -24 134 -69.5t43 -120.5q0 -88 -57.5 -140t-160.5 -60v-66h-65zM152 526q0 -89 119 -113v225q-52 -3 -85.5 -34.5t-33.5 -77.5zM469 192q0 49 -32 78.5t-101 44.5v-242q64 3 98.5 34t34.5 85z" />
    <glyph glyph-name="percent" unicode="%" horiz-adv-x="731" 
d="M320 538q0 -80 -40 -127.5t-108 -47.5q-67 0 -107.5 47.5t-40.5 127.5q0 81 40.5 128t107.5 47q68 0 108 -47t40 -128zM66 0l516 705h84l-515 -705h-85zM172 422q32 0 51 31t19 85t-19 85t-51 31t-50.5 -31t-18.5 -85t18.5 -85t50.5 -31zM708 168q0 -80 -40.5 -127.5
t-107.5 -47.5q-68 0 -108 47.5t-40 127.5t40 127.5t108 47.5q67 0 107.5 -47.5t40.5 -127.5zM560 52q32 0 50.5 31t18.5 85t-18.5 85t-50.5 31t-51 -31t-19 -85t19 -85t51 -31z" />
    <glyph glyph-name="ampersand" unicode="&#x26;" horiz-adv-x="669" 
d="M501 71q-45 -40 -103.5 -61.5t-121.5 -21.5q-52 0 -95.5 14.5t-74.5 41t-48.5 63t-17.5 80.5q0 122 138 196q11 5 17.5 8.5t9.5 4.5q-47 50 -67 88t-20 76q0 33 13.5 61.5t37 49.5t56 33t70.5 12q39 0 72 -11.5t56.5 -32.5t37 -50t13.5 -63q0 -54 -35.5 -96t-115.5 -85
l174 -188q17 32 25.5 77t8.5 111v21h81v-22q0 -81 -14.5 -140.5t-43.5 -105.5l123 -131h-110zM276 428q63 32 89.5 61t26.5 67q0 41 -26.5 66t-69.5 25q-42 0 -68.5 -25.5t-26.5 -66.5q0 -29 16.5 -57.5t58.5 -69.5zM229 332q-55 -34 -78.5 -65.5t-23.5 -73.5q0 -59 43 -95
t114 -36q48 0 93 17.5t73 47.5l-198 217q-5 -2 -12.5 -6t-10.5 -6z" />
    <glyph glyph-name="quotesingle" unicode="'" horiz-adv-x="210" 
d="M66 456v249h78v-249h-78z" />
    <glyph glyph-name="parenleft" unicode="(" horiz-adv-x="322" 
d="M93 277q0 128 34 232.5t104 195.5h72q-26 -30 -49 -78.5t-39.5 -106t-26 -120.5t-9.5 -123t9.5 -122.5t26 -120t39.5 -106t49 -78.5h-72q-70 90 -104 194.5t-34 232.5z" />
    <glyph glyph-name="parenright" unicode=")" horiz-adv-x="322" 
d="M229 277q0 -84 -12.5 -149.5t-32.5 -117t-44.5 -90.5t-48.5 -70h-71q16 19 37 57t40 92.5t32.5 124.5t13.5 153t-13.5 153.5t-32.5 125t-40 92.5t-37 57h71q24 -31 48.5 -70t44.5 -91t32.5 -117.5t12.5 -149.5z" />
    <glyph glyph-name="asterisk" unicode="*" horiz-adv-x="482" 
d="M269 506l5 -140h-64l5 140l-120 -75l-30 58l123 63l-123 63l31 56l119 -73l-5 139h64l-5 -140l119 74l31 -56l-124 -64l124 -62l-31 -58z" />
    <glyph glyph-name="plus" unicode="+" horiz-adv-x="605" 
d="M342 15h-79v223h-209v79h209v219h79v-219h208v-79h-208v-223z" />
    <glyph glyph-name="comma" unicode="," horiz-adv-x="254" 
d="M42 -140l48 248h90l-67 -248h-71z" />
    <glyph glyph-name="hyphen" unicode="-" horiz-adv-x="429" 
d="M54 246v79h321v-79h-321z" />
    <glyph glyph-name="period" unicode="." horiz-adv-x="254" 
d="M127 -5q-23 0 -39.5 16.5t-16.5 39.5t16.5 39t39.5 16t39.5 -16t16.5 -39t-16.5 -39.5t-39.5 -16.5z" />
    <glyph glyph-name="slash" unicode="/" horiz-adv-x="322" 
d="M0 -150l250 855h72l-249 -855h-73z" />
    <glyph glyph-name="zero" unicode="0" horiz-adv-x="606" 
d="M304 -12q-62 0 -110.5 25.5t-81.5 73t-50.5 115t-17.5 151.5q0 83 17.5 150t51 114t82 73t109.5 26t109 -25.5t81 -73t50.5 -114.5t17.5 -150q0 -84 -17 -151.5t-50 -115t-81 -73t-110 -25.5zM304 65q41 0 73 20.5t53.5 58t32.5 90.5t11 119q0 65 -11 117.5t-33 90
t-53.5 58t-72.5 20.5t-73 -20.5t-54 -58t-33.5 -90t-11.5 -117.5q0 -66 11.5 -119t33 -90.5t53.5 -58t74 -20.5z" />
    <glyph glyph-name="one" unicode="1" horiz-adv-x="443" 
d="M237 611h-2l-187 -134v93l188 135h86v-705h-85v611z" />
    <glyph glyph-name="two" unicode="2" horiz-adv-x="566" 
d="M53 501q0 47 17.5 86t48.5 68t73.5 45t92.5 16q47 0 88 -15t71.5 -41t48 -61t17.5 -76q0 -30 -7.5 -57t-25 -56.5t-47 -64.5t-73.5 -81l-178 -184v-2h343v-78h-465v61l248 261q36 37 58.5 64t35.5 49t18 41.5t5 41.5q0 25 -11 47.5t-29.5 39t-44 26t-54.5 9.5
q-31 0 -57.5 -10.5t-46 -29.5t-30.5 -44t-11 -55h-85z" />
    <glyph glyph-name="three" unicode="3" horiz-adv-x="592" 
d="M201 399h84q30 0 55.5 9.5t44 26t28.5 39t10 49.5q0 53 -35 85t-102 32q-61 0 -99 -32t-43 -88h-85q8 91 69.5 143.5t161.5 52.5q47 0 87.5 -13.5t70 -37.5t46.5 -57t17 -73q0 -67 -39 -111.5t-105 -56.5v-2q80 -5 127.5 -50.5t47.5 -120.5q0 -45 -19.5 -83t-53 -65.5
t-79 -42.5t-97.5 -15q-55 0 -100 14.5t-77 41t-50.5 63t-20.5 80.5h84q6 -55 48.5 -89t114.5 -34q35 0 64.5 9.5t50.5 26.5t33 40t12 51q0 63 -43.5 98.5t-119.5 35.5h-88v74z" />
    <glyph glyph-name="four" unicode="4" horiz-adv-x="605" 
d="M392 146h-354v80q23 42 50.5 88.5t64.5 103.5t84.5 127t109.5 160h130v-481h100v-78h-100v-146h-85v146zM125 224h267v407h-1q-50 -71 -90 -129.5t-72 -107.5t-57.5 -90.5t-46.5 -77.5v-2z" />
    <glyph glyph-name="five" unicode="5" horiz-adv-x="585" 
d="M299 -12q-50 0 -93 15t-75 42t-51 64.5t-22 82.5h86q3 -28 16 -51.5t33.5 -40t48 -26t58.5 -9.5q36 0 66 12t51 33.5t33 51t12 65.5q0 35 -12 65t-33 51.5t-50.5 33.5t-64.5 12q-50 0 -89.5 -21t-61.5 -58h-83l39 395h403v-79h-331l-21 -229h2q23 32 64.5 50t92.5 18
t94 -17.5t73.5 -49t48 -75t17.5 -94.5q0 -53 -18.5 -97.5t-52 -76.5t-79.5 -49.5t-101 -17.5z" />
    <glyph glyph-name="six" unicode="6" horiz-adv-x="599" 
d="M312 -12q-75 0 -126 31.5t-82.5 81.5t-45.5 113t-14 126q0 89 18.5 159t54 118.5t86.5 74t115 25.5q45 0 83.5 -13t69.5 -37t51.5 -57.5t29.5 -75.5h-90q-14 48 -53 76.5t-92 28.5q-89 0 -137.5 -75t-50.5 -217h2q24 52 77.5 83t119.5 31q50 0 93 -17.5t74.5 -48.5
t49 -73.5t17.5 -92.5q0 -52 -18.5 -96.5t-52 -76.5t-79.5 -50t-100 -18zM311 66q34 0 63.5 12.5t51 34t34 51t12.5 62.5q0 35 -12 64t-33 50t-50.5 32.5t-64.5 11.5t-64.5 -11.5t-51.5 -32.5t-34 -49.5t-12 -62.5t12.5 -63.5t34.5 -51.5t51 -34.5t63 -12.5z" />
    <glyph glyph-name="seven" unicode="7" horiz-adv-x="547" 
d="M417 625v1h-380v79h466v-82l-313 -623h-92z" />
    <glyph glyph-name="eight" unicode="8" horiz-adv-x="599" 
d="M299 -12q-56 0 -103 15t-80.5 42t-52.5 64t-19 81q0 33 11 62.5t30.5 53.5t47.5 41t62 25v2q-57 17 -90 59t-33 98q0 40 17 74t47.5 58.5t72 38.5t90.5 14q50 0 91.5 -14t71.5 -38.5t47 -58.5t17 -74q0 -55 -32.5 -97t-90.5 -60v-2q35 -8 63 -25t47.5 -41t30.5 -53.5
t11 -62.5q0 -44 -19 -81t-53 -64t-81 -42t-103 -15zM299 406q31 0 56.5 8.5t44 24.5t29 37.5t10.5 46.5q0 52 -38.5 85t-101.5 33q-62 0 -101 -33t-39 -85q0 -25 10.5 -46.5t29 -37.5t44 -24.5t56.5 -8.5zM299 65q36 0 66.5 10t52.5 27.5t34.5 41.5t12.5 53t-12.5 53
t-34.5 41.5t-52.5 27.5t-66.5 10t-66.5 -10t-52.5 -27.5t-34.5 -41.5t-12.5 -53t12.5 -53t34.5 -41.5t52.5 -27.5t66.5 -10z" />
    <glyph glyph-name="nine" unicode="9" horiz-adv-x="599" 
d="M281 -12q-45 0 -84 13t-69.5 37t-51.5 58t-29 75h90q14 -48 53 -77t92 -29q88 0 136.5 76t50.5 217h-1q-23 -52 -76 -83.5t-121 -31.5q-50 0 -93 17.5t-74.5 48.5t-49 74t-17.5 93q0 52 18.5 96t52 76.5t79.5 50.5t100 18q80 0 140.5 -41t92.5 -117q34 -81 34 -195
q0 -89 -18.5 -159t-53.5 -118t-85.5 -73.5t-115.5 -25.5zM286 320q35 0 65 12t51.5 33t34 49.5t12.5 62.5t-12.5 63.5t-34 51t-51 34t-63.5 12.5t-63.5 -12.5t-51.5 -34t-34.5 -50.5t-12.5 -62q0 -34 12 -63.5t33.5 -50.5t51 -33t63.5 -12z" />
    <glyph glyph-name="colon" unicode=":" horiz-adv-x="254" 
d="M127 354q-23 0 -39.5 16.5t-16.5 39.5t16.5 39.5t39.5 16.5t39.5 -16.5t16.5 -39.5t-16.5 -39.5t-39.5 -16.5zM127 -5q-23 0 -39.5 16.5t-16.5 39.5t16.5 39t39.5 16t39.5 -16t16.5 -39t-16.5 -39.5t-39.5 -16.5z" />
    <glyph glyph-name="semicolon" unicode=";" horiz-adv-x="254" 
d="M127 354q-23 0 -39.5 16.5t-16.5 39.5t16.5 39.5t39.5 16.5t39.5 -16.5t16.5 -39.5t-16.5 -39.5t-39.5 -16.5zM42 -140l48 248h90l-67 -248h-71z" />
    <glyph glyph-name="less" unicode="&#x3c;" horiz-adv-x="605" 
d="M172 283v-4l345 -185v-91l-429 240v69l429 257v-90z" />
    <glyph glyph-name="equal" unicode="=" horiz-adv-x="605" 
d="M64 334v75h477v-75h-477zM64 147v75h477v-75h-477z" />
    <glyph glyph-name="greater" unicode="&#x3e;" horiz-adv-x="605" 
d="M88 570l429 -257v-69l-429 -240v91l345 184v5l-345 195v91z" />
    <glyph glyph-name="question" unicode="?" horiz-adv-x="489" 
d="M27 521q2 39 16.5 73.5t41 60t65.5 40.5t90 15q46 0 84 -13.5t65.5 -37t42.5 -56t15 -70.5q0 -57 -27 -98.5t-75 -69.5q-46 -28 -62.5 -52.5t-16.5 -62.5v-32h-86v45q0 48 23.5 83t74.5 65q42 26 60 52.5t18 65.5q0 45 -32 75t-87 30q-56 0 -89 -30.5t-37 -82.5h-84z
M223 -5q-23 0 -39.5 16.5t-16.5 39.5q0 24 16.5 39.5t39.5 15.5q24 0 40 -15.5t16 -39.5q0 -23 -16 -39.5t-40 -16.5z" />
    <glyph glyph-name="at" unicode="@" horiz-adv-x="875" 
d="M451 701q85 0 157 -26t124 -73t81.5 -113.5t29.5 -147.5q0 -58 -12.5 -106t-36.5 -82.5t-58 -53t-77 -18.5q-42 0 -73 22.5t-36 59.5h-4q-16 -37 -48.5 -57.5t-75.5 -20.5q-38 0 -69.5 15t-54 42.5t-34.5 66t-12 84.5q0 45 12.5 82t35 63.5t54 41.5t68.5 15
q39 0 71.5 -19t46.5 -50h4v59h74v-286q0 -24 13 -39t42 -15q44 0 72.5 51t28.5 146q0 67 -24 121.5t-67.5 93.5t-104 60.5t-133.5 21.5q-71 0 -131.5 -25.5t-104 -72t-68 -110t-24.5 -140.5q0 -83 26 -147t72 -107.5t109 -66t136 -22.5q50 0 95 6t69 17v-61
q-32 -11 -74.5 -17.5t-90.5 -6.5q-89 0 -164.5 26.5t-130 78.5t-85.5 128t-31 174q0 92 29.5 167t83 128.5t127.5 83t163 29.5zM434 427q-49 0 -76.5 -36t-27.5 -100t27.5 -100.5t75.5 -36.5q51 0 80.5 37t29.5 100t-29.5 99.5t-79.5 36.5z" />
    <glyph glyph-name="A" unicode="A" horiz-adv-x="631" 
d="M456 202h-281l-71 -202h-92l260 705h87l260 -705h-93zM201 276h229l-113 322h-3z" />
    <glyph glyph-name="B" unicode="B" horiz-adv-x="604" 
d="M68 0v705h267q45 0 82.5 -12.5t64.5 -36t41.5 -56t14.5 -71.5q0 -27 -9.5 -53t-26 -47t-38.5 -35t-48 -19v-4q72 -9 114.5 -55.5t42.5 -117.5q0 -94 -63 -146t-176 -52h-266zM156 401h132q78 0 119.5 30t41.5 88q0 52 -34.5 80t-99.5 28h-159v-226zM321 78q80 0 121 31.5
t41 92.5q0 123 -170 123h-157v-247h165z" />
    <glyph glyph-name="C" unicode="C" horiz-adv-x="686" 
d="M358 -12q-73 0 -131.5 25.5t-99.5 73t-63.5 115t-22.5 151.5q0 83 22.5 150t64 114.5t100 73t130.5 25.5q58 0 107.5 -16.5t88 -47.5t63.5 -74t34 -96h-89q-8 35 -27 63t-45.5 48t-60 31t-71.5 11q-51 0 -93 -20t-72 -57t-46 -89t-16 -116q0 -65 16 -117.5t46 -89.5
t72 -57t94 -20q78 0 131 35.5t72 100.5h89q-24 -105 -99.5 -161t-193.5 -56z" />
    <glyph glyph-name="D" unicode="D" horiz-adv-x="678" 
d="M305 705q78 0 140 -24t105 -69t65.5 -110.5t22.5 -148.5q0 -84 -22.5 -149.5t-65 -110.5t-104.5 -69t-141 -24h-237v705h237zM156 79h143q121 0 185 70.5t64 202.5q0 133 -64 203t-185 70h-143v-546z" />
    <glyph glyph-name="E" unicode="E" horiz-adv-x="552" 
d="M505 0h-437v705h437v-80h-349v-226h331v-78h-331v-242h349v-79z" />
    <glyph glyph-name="F" unicode="F" horiz-adv-x="528" 
d="M68 0v705h428v-80h-340v-242h312v-78h-312v-305h-88z" />
    <glyph glyph-name="G" unicode="G" horiz-adv-x="707" 
d="M663 292q0 -72 -20.5 -128.5t-58.5 -95.5t-93.5 -59.5t-126.5 -20.5q-74 0 -133.5 26t-101.5 74t-65 116t-23 152q0 83 23 149.5t65 113t101.5 72t133.5 25.5q57 0 106.5 -16t88 -46t64 -72.5t35.5 -95.5h-92q-22 72 -74.5 110.5t-127.5 38.5q-54 0 -97.5 -19t-73.5 -55
t-46 -87.5t-16 -117.5t16 -119.5t46.5 -90.5t73.5 -57t97 -20q47 0 86 14.5t66.5 41t43 63t15.5 81.5v12h-199v77h287v-66z" />
    <glyph glyph-name="H" unicode="H" horiz-adv-x="699" 
d="M543 0v321h-387v-321h-88v705h88v-305h387v305h88v-705h-88z" />
    <glyph glyph-name="I" unicode="I" horiz-adv-x="225" 
d="M68 0v705h88v-705h-88z" />
    <glyph glyph-name="J" unicode="J" horiz-adv-x="495" 
d="M108 166q2 -45 32.5 -73.5t78.5 -28.5q59 0 89.5 34t30.5 99v508h88v-509q0 -101 -54.5 -157t-152.5 -56q-44 0 -80.5 13.5t-63 38t-41 58t-14.5 73.5h87z" />
    <glyph glyph-name="K" unicode="K" horiz-adv-x="617" 
d="M485 0l-325 342h-4v-342h-88v705h88v-325h4l303 325h110l-320 -337l353 -368h-121z" />
    <glyph glyph-name="K" unicode="&#x4a0;" horiz-adv-x="617" 
d="M485 0l-325 342h-4v-342h-88v705h88v-325h4l303 325h110l-320 -337l353 -368h-121z" />
    <glyph glyph-name="L" unicode="L" horiz-adv-x="524" 
d="M496 0h-428v705h88v-626h340v-79z" />
    <glyph glyph-name="M" unicode="M" horiz-adv-x="831" 
d="M681 0v543h-4l-224 -538h-75l-224 538h-4v-543h-82v705h102l244 -588h3l244 588h102v-705h-82z" />
    <glyph glyph-name="N" unicode="N" horiz-adv-x="699" 
d="M68 0v705h86l386 -554h4v554h87v-705h-86l-385 551h-5v-551h-87z" />
    <glyph glyph-name="O" unicode="O" horiz-adv-x="731" 
d="M366 716q75 0 135 -25.5t102 -72.5t64.5 -114.5t22.5 -151.5t-22.5 -151.5t-64.5 -114.5t-102 -72.5t-135 -25.5t-135 25.5t-102.5 72.5t-65 114.5t-22.5 151.5t22.5 151.5t65 114.5t102.5 72.5t135 25.5zM366 635q-54 0 -97.5 -19.5t-74 -56.5t-47 -89.5t-16.5 -117.5
t16.5 -117.5t47 -89t74 -56.5t97.5 -20t97.5 20t73.5 56.5t46.5 89t16.5 117.5t-16.5 117.5t-46.5 89.5t-73.5 56.5t-97.5 19.5z" />
    <glyph glyph-name="P" unicode="P" horiz-adv-x="578" 
d="M320 705q50 0 91 -16.5t71 -46.5t46.5 -71.5t16.5 -91.5t-16.5 -92t-46.5 -72t-71.5 -47t-91.5 -17h-163v-251h-88v705h252zM156 330h141q75 0 116.5 39t41.5 110q0 70 -41 108.5t-117 38.5h-141v-296z" />
    <glyph glyph-name="Q" unicode="Q" horiz-adv-x="731" 
d="M366 -12q-75 0 -135 25.5t-102.5 72.5t-65 114.5t-22.5 151.5t22.5 151.5t65 114.5t102.5 72.5t135 25.5t135 -25.5t102 -72.5t64.5 -114.5t22.5 -151.5q0 -103 -33 -180t-95 -123l94 -129h-99l-65 90q-29 -11 -60 -16.5t-66 -5.5zM366 69q40 0 74 12l-87 121h98l60 -82
q43 35 66 94.5t23 137.5q0 65 -16.5 117.5t-46.5 89.5t-73.5 56.5t-97.5 19.5t-97.5 -19.5t-74 -56.5t-47 -89.5t-16.5 -117.5t16.5 -117.5t47 -89t74 -56.5t97.5 -20z" />
    <glyph glyph-name="R" unicode="R" horiz-adv-x="599" 
d="M156 0h-88v705h265q51 0 92 -15t70.5 -42.5t45.5 -66t16 -86.5q0 -75 -37.5 -128.5t-103.5 -74.5l163 -292h-103l-151 279h-169v-279zM156 356h169q68 0 104.5 35t36.5 101q0 63 -38 98.5t-107 35.5h-165v-270z" />
    <glyph glyph-name="S" unicode="S" horiz-adv-x="594" 
d="M123 194q3 -28 17.5 -51.5t38.5 -40.5t56 -26t69 -9q36 0 66 9t52 25t34.5 38t12.5 48q0 45 -32.5 73.5t-103.5 47.5l-91 23q-98 25 -142.5 69.5t-44.5 116.5q0 44 18 80.5t51 63t79 41t101 14.5q53 0 97 -15t76.5 -41.5t51.5 -63.5t20 -81h-88q-5 57 -48 89.5t-112 32.5
t-112 -32t-43 -84q0 -40 31.5 -65.5t103.5 -44.5l73 -19q55 -14 94 -32t64 -41t36.5 -53t11.5 -68q0 -48 -18.5 -87t-53 -66.5t-83 -42t-109.5 -14.5q-56 0 -103 14.5t-81 41.5t-54 65t-23 85h88z" />
    <glyph glyph-name="T" unicode="T" horiz-adv-x="581" 
d="M247 0v625h-223v80h533v-80h-223v-625h-87z" />
    <glyph glyph-name="U" unicode="U" horiz-adv-x="696" 
d="M156 253q0 -40 13 -74t37.5 -58.5t60 -38t81.5 -13.5t81.5 13.5t60 38t37.5 58.5t13 74v452h88v-458q0 -56 -19 -103.5t-55 -82t-88 -54t-118 -19.5t-118 19.5t-88 54t-55 82t-19 103.5v458h88v-452z" />
    <glyph glyph-name="V" unicode="V" horiz-adv-x="631" 
d="M272 0l-260 705h92l210 -598h3l209 598h93l-260 -705h-87z" />
    <glyph glyph-name="W" unicode="W" horiz-adv-x="924" 
d="M297 0h-83l-192 705h92l141 -576h4l158 576h89l159 -576h4l141 576h92l-192 -705h-83l-163 559h-5z" />
    <glyph glyph-name="X" unicode="X" horiz-adv-x="635" 
d="M262 353v3l-237 349h106l188 -284h3l191 284h100l-243 -353v-3l237 -349h-105l-187 281h-3l-190 -281h-100z" />
    <glyph glyph-name="Y" unicode="Y" horiz-adv-x="612" 
d="M262 0v303l-250 402h100l193 -317h3l192 317h100l-250 -402v-303h-88z" />
    <glyph glyph-name="Z" unicode="Z" horiz-adv-x="617" 
d="M48 62l402 560v3h-388v80h499v-63l-400 -559v-4h408v-79h-521v62z" />
    <glyph glyph-name="bracketleft" unicode="[" horiz-adv-x="322" 
d="M312 705v-67h-129v-722h129v-66h-211v855h211z" />
    <glyph glyph-name="backslash" unicode="\" horiz-adv-x="322" 
d="M0 705h73l249 -855h-72z" />
    <glyph glyph-name="bracketright" unicode="]" horiz-adv-x="322" 
d="M222 -150h-212v66h130v722h-130v67h212v-855z" />
    <glyph glyph-name="asciicircum" unicode="^" horiz-adv-x="437" 
d="M108 398h-81l145 307h93l146 -307h-82l-106 232h-8z" />
    <glyph glyph-name="underscore" unicode="_" horiz-adv-x="404" 
d="M-26 -115v63h457v-63h-457z" />
    <glyph glyph-name="grave" unicode="`" horiz-adv-x="491" 
d="M270 629l-121 146h92l103 -146h-74z" />
    <glyph glyph-name="a" unicode="a" horiz-adv-x="502" 
d="M204 -9q-38 0 -69 11t-53.5 31t-34.5 48.5t-12 62.5q0 65 48 104t136 44l145 8v43q0 47 -29 73t-82 26q-50 0 -79.5 -21.5t-37.5 -59.5h-82q2 33 17 61.5t41 49.5t62 33t81 12q90 0 142 -45t52 -121v-351h-80v87h-2q-23 -44 -67.5 -70t-95.5 -26zM223 63q30 0 56 10
t44.5 27.5t29.5 41.5t11 51v41l-135 -8q-52 -3 -80 -25t-28 -57q0 -37 28 -59t74 -22z" />
    <glyph glyph-name="b" unicode="b" horiz-adv-x="554" 
d="M308 -9q-57 0 -99 25t-66 70h-2v-86h-81v705h85v-282h1q24 44 66.5 69t96.5 25q48 0 87.5 -18.5t67.5 -53t43.5 -83t15.5 -108.5t-15.5 -108.5t-43.5 -83t-68 -53t-88 -18.5zM291 442q-32 0 -59 -13.5t-46.5 -38t-30.5 -59.5t-11 -77t11 -77t30.5 -59.5t46.5 -38
t59 -13.5q68 0 107 50t39 138q0 87 -39 137.5t-107 50.5z" />
    <glyph glyph-name="c" unicode="c" horiz-adv-x="501" 
d="M394 341q-9 41 -41.5 71t-88.5 30q-33 0 -60 -13t-46.5 -37.5t-30 -59.5t-10.5 -78q0 -89 41 -138.5t107 -49.5q52 0 85.5 26t44.5 72h83q-5 -38 -22.5 -70t-45.5 -55t-65 -35.5t-80 -12.5q-53 0 -96.5 18t-74 52t-47.5 83t-17 110q0 60 17 108.5t47.5 83t74 53
t95.5 18.5q48 0 85.5 -14.5t64.5 -39t43 -56t20 -66.5h-83z" />
    <glyph glyph-name="d" unicode="d" horiz-adv-x="554" 
d="M248 -9q-49 0 -89 18.5t-68.5 53t-44.5 83t-16 108.5t16 108.5t44.5 83t68 53t87.5 18.5q54 0 96 -25t65 -67h2v280h85v-705h-81v86h-1q-25 -45 -67 -70t-97 -25zM264 442q-68 0 -107.5 -50.5t-39.5 -137.5t39.5 -137.5t107.5 -50.5q66 0 106 51t40 137q0 42 -10.5 77
t-30 59.5t-46 38t-59.5 13.5z" />
    <glyph glyph-name="e" unicode="e" horiz-adv-x="512" 
d="M476 146q-6 -33 -24 -61.5t-46 -49.5t-64 -32.5t-78 -11.5q-54 0 -97.5 18.5t-74 52t-46.5 82t-16 108.5q0 59 16.5 108t46.5 84t72.5 54t94.5 19q51 0 92.5 -18t70 -51t44 -80t15.5 -105v-32h-364v-5q0 -73 39.5 -117t108.5 -44q49 0 82 22.5t44 58.5h84zM259 443
q-30 0 -55 -11t-43.5 -30.5t-29.5 -46t-13 -58.5h276q-1 32 -11 58.5t-27.5 46t-42 30.5t-54.5 11z" />
    <glyph glyph-name="f" unicode="f" horiz-adv-x="304" 
d="M83 438h-71v70h71v56q0 74 34 109t105 35q14 0 28 -0.5t23 -2.5v-69q-8 1 -17.5 2t-20.5 1q-68 0 -68 -75v-56h104v-70h-104v-438h-84v438z" />
    <glyph glyph-name="g" unicode="g" horiz-adv-x="549" 
d="M265 -191q-42 0 -79 11t-65.5 31t-47 47.5t-23.5 59.5h88q12 -35 47 -56t83 -21q66 0 103.5 34.5t37.5 91.5v80h-2q-23 -42 -65.5 -66.5t-96.5 -24.5q-49 0 -88.5 18.5t-67.5 52.5t-43.5 82t-15.5 107q0 60 15.5 108t43.5 82t68.5 52.5t89.5 18.5q54 0 96.5 -25t68.5 -70
h1v86h81v-498q0 -45 -16 -82.5t-46 -63.5t-72 -40.5t-95 -14.5zM262 71q33 0 60 13t46.5 37.5t30 58.5t10.5 76t-10.5 76.5t-30 58.5t-46.5 37.5t-60 13.5q-66 0 -105.5 -50t-39.5 -136t39.5 -135.5t105.5 -49.5z" />
    <glyph glyph-name="h" unicode="h" horiz-adv-x="539" 
d="M60 705h85v-278h1q22 42 62.5 66t99.5 24q84 0 131 -52t47 -137v-328h-85v312q0 61 -30 95t-90 34q-63 0 -99.5 -39.5t-36.5 -105.5v-296h-85v705z" />
    <glyph glyph-name="i" unicode="i" horiz-adv-x="204" 
d="M102 593q-22 0 -37.5 15.5t-15.5 37.5t15.5 37.5t37.5 15.5t37.5 -15.5t15.5 -37.5t-15.5 -37.5t-37.5 -15.5zM60 508h85v-508h-85v508z" />
    <glyph glyph-name="j" unicode="j" horiz-adv-x="204" 
d="M102 593q-22 0 -37.5 15.5t-15.5 37.5t15.5 37.5t37.5 15.5t37.5 -15.5t15.5 -37.5t-15.5 -37.5t-37.5 -15.5zM145 -25q0 -78 -38 -114t-120 -36h-8t-8 1v70q23 0 40 2.5t28 11t16 23.5t5 41v534h85v-533z" />
    <glyph glyph-name="k" unicode="k" horiz-adv-x="488" 
d="M367 0l-219 244h-4v-244h-84v705h84v-422h4l217 225h105l-238 -240l244 -268h-109z" />
    <glyph glyph-name="k" unicode="&#x4a1;" horiz-adv-x="488" 
d="M367 0l-219 244h-4v-244h-84v705h84v-422h4l217 225h105l-238 -240l244 -268h-109z" />
    <glyph glyph-name="l" unicode="l" horiz-adv-x="204" 
d="M60 705h85v-705h-85v705z" />
    <glyph glyph-name="m" unicode="m" horiz-adv-x="803" 
d="M55 508h80v-81h2q18 40 55.5 65t88.5 25q53 0 89.5 -25.5t53.5 -71.5h2q21 45 63 71t96 26q76 0 120.5 -45.5t44.5 -120.5v-351h-84v331q0 52 -27.5 81t-78.5 29t-83 -33t-32 -85v-323h-85v340q0 46 -28 73.5t-76 27.5q-51 0 -83.5 -34.5t-32.5 -88.5v-318h-85v508z" />
    <glyph glyph-name="n" unicode="n" horiz-adv-x="527" 
d="M55 508h80v-81h2q22 41 62 65.5t99 24.5q85 0 130.5 -50t45.5 -137v-330h-85v314q0 62 -28.5 94.5t-88.5 32.5t-96 -38.5t-36 -103.5v-299h-85v508z" />
    <glyph glyph-name="o" unicode="o" horiz-adv-x="531" 
d="M266 -9q-53 0 -96.5 18.5t-74.5 52.5t-48 82.5t-17 109.5t17 109.5t48 82.5t74.5 52.5t96.5 18.5t96 -18.5t73.5 -52.5t47.5 -82.5t17 -109.5t-17 -109.5t-47.5 -82.5t-73.5 -52.5t-96 -18.5zM266 66q67 0 107.5 48.5t40.5 139.5t-40.5 139.5t-107.5 48.5
q-68 0 -108.5 -48.5t-40.5 -139.5t40.5 -139.5t108.5 -48.5z" />
    <glyph glyph-name="p" unicode="p" horiz-adv-x="549" 
d="M302 517q48 0 88 -18.5t68.5 -53t44.5 -83t16 -108.5t-15.5 -108.5t-44 -83t-68 -53t-87.5 -18.5q-55 0 -97 25t-65 67h-2v-252h-85v677h81v-86h2q23 43 65.5 69t98.5 26zM285 66q68 0 107.5 50.5t39.5 137.5t-39.5 137.5t-107.5 50.5q-33 0 -59.5 -13.5t-45.5 -38
t-29.5 -59.5t-10.5 -77t10.5 -77t29.5 -59.5t45.5 -38t59.5 -13.5z" />
    <glyph glyph-name="q" unicode="q" horiz-adv-x="549" 
d="M247 517q55 0 97 -25.5t67 -69.5h2v86h81v-677h-85v254h-2q-24 -44 -66 -69t-96 -25q-48 0 -88 18.5t-68 53t-43.5 83t-15.5 108.5t15.5 108.5t44 83t68.5 53t89 18.5zM262 66q33 0 60 13.5t46.5 38t30 59.5t10.5 77t-10.5 77t-30 59.5t-46.5 38t-60 13.5q-67 0 -106 -50
t-39 -138t39 -138t106 -50z" />
    <glyph glyph-name="r" unicode="r" horiz-adv-x="308" 
d="M55 508h80v-83h2q13 42 45.5 67t77.5 25q11 0 20 -1.5t14 -2.5v-82q-5 2 -17 3.5t-28 1.5q-50 0 -79.5 -33t-29.5 -87v-316h-85v508z" />
    <glyph glyph-name="s" unicode="s" horiz-adv-x="465" 
d="M46 368q0 33 14 60t39 47t60 31t77 11q39 0 72.5 -11t58.5 -31t39.5 -47.5t15.5 -59.5h-81q-5 37 -33 58t-75 21t-75 -20.5t-28 -54.5q0 -52 84 -73l79 -19q77 -19 108.5 -50.5t31.5 -87.5q0 -33 -15 -60.5t-42 -48t-64 -31.5t-82 -11q-84 0 -137 41.5t-60 109.5h85
q14 -81 118 -81q52 0 81.5 20t29.5 55q0 27 -17.5 43t-60.5 28l-89 22q-134 34 -134 139z" />
    <glyph glyph-name="t" unicode="t" horiz-adv-x="301" 
d="M167 630v-122h99v-70h-99v-302q0 -67 63 -67q8 0 19.5 0.5t16.5 1.5v-71q-8 -2 -23.5 -3t-30.5 -1q-70 0 -99.5 31t-29.5 105v306h-76v70h76v122h84z" />
    <glyph glyph-name="u" unicode="u" horiz-adv-x="527" 
d="M472 0h-80v83h-2q-23 -45 -62.5 -68.5t-98.5 -23.5q-84 0 -130 50t-46 137v330h85v-315q0 -62 28.5 -94.5t88.5 -32.5q62 0 97 39t35 104v299h85v-508z" />
    <glyph glyph-name="v" unicode="v" horiz-adv-x="483" 
d="M285 0h-87l-187 508h90l140 -418h2l140 418h89z" />
    <glyph glyph-name="w" unicode="w" horiz-adv-x="715" 
d="M560 0h-87l-115 393h-2l-114 -393h-86l-142 508h84l102 -413h2l114 413h82l116 -413h2l101 413h84z" />
    <glyph glyph-name="x" unicode="x" horiz-adv-x="469" 
d="M233 193l-123 -193h-94l173 254l-170 254h95l122 -191h2l120 191h95l-171 -251l169 -257h-95l-121 193h-2z" />
    <glyph glyph-name="y" unicode="y" horiz-adv-x="486" 
d="M97 -190q-8 0 -18.5 0.5t-17.5 2.5v71q7 -2 16 -2h17q35 0 56.5 18.5t36.5 63.5l12 36l-188 508h91l141 -423h1l141 423h89l-200 -544q-16 -44 -33 -73.5t-37.5 -47.5t-46 -25.5t-60.5 -7.5z" />
    <glyph glyph-name="z" unicode="z" horiz-adv-x="468" 
d="M44 61l282 376v1h-281v70h377v-62l-279 -375v-1h280v-70h-379v61z" />
    <glyph glyph-name="braceleft" unicode="{" horiz-adv-x="322" 
d="M89 271q107 -10 107 -114v-128q0 -59 22.5 -84.5t74.5 -25.5h19v-69h-26q-88 0 -129 41t-41 127v109q0 29 -5.5 49t-18 32t-32.5 17.5t-50 5.5v93q59 0 82.5 23t23.5 81v109q0 85 41 126.5t129 41.5h26v-69h-19q-52 0 -74.5 -25.5t-22.5 -84.5v-129q0 -53 -26.5 -80.5
t-80.5 -33.5v-12z" />
    <glyph glyph-name="bar" unicode="|" horiz-adv-x="322" 
d="M125 -150v855h72v-855h-72z" />
    <glyph glyph-name="braceright" unicode="}" horiz-adv-x="322" 
d="M233 283q-54 6 -80.5 33.5t-26.5 80.5v129q0 59 -22.5 84.5t-74.5 25.5h-19v69h27q87 0 128 -41.5t41 -126.5v-109q0 -58 23.5 -81t82.5 -23v-93q-60 0 -83 -22.5t-23 -80.5v-106q0 -172 -169 -172h-27v69h19q52 0 74.5 25.5t22.5 83.5v128q0 106 107 115v12z" />
    <glyph glyph-name="asciitilde" unicode="~" horiz-adv-x="605" 
d="M281 311q-26 27 -43.5 38t-34.5 11q-64 0 -69 -88h-78q-1 78 39 123t110 45q31 0 59.5 -14.5t60.5 -46.5q26 -26 43 -37t34 -11q64 0 70 87h77q1 -78 -38.5 -123t-109.5 -45q-32 0 -60 14.5t-60 46.5z" />
    <glyph glyph-name="uni00A0" unicode="&#xa0;" 
 />
    <glyph glyph-name="exclamdown" unicode="&#xa1;" horiz-adv-x="267" 
d="M133 432q-23 0 -39 16.5t-16 39.5q0 24 16 39.5t39 15.5q24 0 40 -15.5t16 -39.5q0 -23 -16 -39.5t-40 -16.5zM95 304h76l6 -471h-88z" />
    <glyph glyph-name="cent" unicode="&#xa2;" horiz-adv-x="605" 
d="M549 263q-4 -36 -20.5 -67t-42.5 -55t-60 -39t-75 -19v-83h-84v83q-48 8 -87 31t-66.5 58t-42.5 81.5t-15 100.5t15 99.5t42.5 80.5t66.5 57.5t87 29.5v84h84v-83q41 -4 76 -20.5t61 -41t42 -55.5t19 -66h-85q-10 51 -51 80.5t-102 29.5q-37 0 -68 -14.5t-53.5 -40.5
t-34.5 -61.5t-12 -78.5t12.5 -79.5t34.5 -63t53 -41t68 -14.5q63 0 102.5 25t50.5 82h85z" />
    <glyph glyph-name="sterling" unicode="&#xa3;" horiz-adv-x="605" 
d="M566 75v-75h-518v74q32 8 59.5 24.5t47.5 39.5t31.5 50.5t11.5 56.5q0 19 -3 37t-8 37h-139v70h114q-11 32 -20.5 64t-9.5 65q0 96 67 149.5t186 53.5q45 0 83.5 -7.5t62.5 -18.5v-78q-18 11 -58.5 19t-83.5 8q-78 0 -122.5 -33t-44.5 -91q0 -34 9 -66.5t20 -64.5h230
v-70h-207q5 -18 8 -35.5t3 -35.5q0 -31 -8.5 -57.5t-23 -47.5t-32.5 -37.5t-38 -28.5v-2h383z" />
    <glyph glyph-name="currency" unicode="&#xa4;" horiz-adv-x="605" 
d="M461 427q15 -23 24 -50t9 -57q0 -29 -9 -56.5t-25 -50.5l83 -82l-52 -52l-82 83q-23 -16 -50 -24.5t-56 -8.5t-56.5 9t-50.5 24l-82 -83l-52 52l83 83q-15 23 -24 50t-9 56t9 56t24 50l-83 83l52 52l82 -82q23 15 50.5 23.5t56.5 8.5t56 -8.5t50 -23.5l82 82l52 -52z
M174 320q0 -26 10 -49.5t27.5 -41t41 -28t50.5 -10.5t50.5 10.5t41 28t27.5 41t10 49.5q0 27 -10 50.5t-27.5 41t-41 27.5t-50.5 10t-50.5 -10t-41 -27.5t-27.5 -41t-10 -50.5z" />
    <glyph glyph-name="yen" unicode="&#xa5;" horiz-adv-x="605" 
d="M347 131v-131h-88v131h-135v67h135v81h-135v66h108l-223 360h100l192 -316h3l192 316h100l-223 -360h109v-66h-135v-81h135v-67h-135z" />
    <glyph glyph-name="brokenbar" unicode="&#xa6;" horiz-adv-x="322" 
d="M125 363v342h72v-342h-72zM125 -150v342h72v-342h-72z" />
    <glyph glyph-name="section" unicode="&#xa7;" horiz-adv-x="482" 
d="M244 -125q-85 0 -140 40t-60 106h86q5 -34 37.5 -54.5t80.5 -20.5q50 0 81 21t31 56q0 28 -23 46t-74 32l-69 19q-81 21 -117.5 55t-36.5 85q0 47 28.5 80.5t79.5 47.5v8q-106 42 -106 133q0 34 14 62t40 48.5t62 31.5t79 11q82 0 134 -37.5t61 -103.5h-85q-5 32 -35 51
t-77 19q-49 0 -79 -21t-30 -56q0 -28 22 -46t73 -32l69 -19q80 -21 116.5 -54t36.5 -83q0 -25 -9 -47.5t-25.5 -41t-39.5 -31t-50 -18.5v-8q124 -27 124 -125q0 -34 -15 -62.5t-41 -48.5t-62.5 -31.5t-80.5 -11.5zM250 187q45 0 75.5 26.5t30.5 66.5q0 64 -83 81l-40 9
q-22 0 -41.5 -7.5t-34 -20t-23 -29.5t-8.5 -36q0 -30 21.5 -51.5t61.5 -30.5z" />
    <glyph glyph-name="dieresis" unicode="&#xa8;" horiz-adv-x="490" 
d="M154 635q-22 0 -37.5 15.5t-15.5 38.5t15.5 38.5t37.5 15.5q23 0 38.5 -15.5t15.5 -38.5t-15.5 -38.5t-38.5 -15.5zM336 635q-22 0 -38 15.5t-16 38.5t16 38.5t38 15.5t38 -15.5t16 -38.5t-16 -38.5t-38 -15.5z" />
    <glyph glyph-name="ordfeminine" unicode="&#xaa;" horiz-adv-x="356" 
d="M140 348q-54 0 -86.5 28t-32.5 76q0 47 34.5 73t100.5 31l94 5v27q0 62 -73 62q-29 0 -48 -13.5t-24 -36.5h-67q1 24 12 44t29.5 34.5t44 22.5t55.5 8q65 0 103.5 -31t38.5 -84v-243h-68v59h-2q-14 -29 -45 -45.5t-66 -16.5zM159 404q39 0 65 22.5t26 57.5v27l-85 -5
q-73 -6 -73 -52q0 -23 18.5 -36.5t48.5 -13.5z" />
    <glyph glyph-name="guillemotleft" unicode="&#xab;" horiz-adv-x="636" 
d="M165 272l171 -201h-99l-171 203v4l171 203h99l-171 -202v-7zM398 272l172 -201h-100l-171 203v4l171 203h100l-172 -202v-7z" />
    <glyph glyph-name="logicalnot" unicode="&#xac;" horiz-adv-x="605" 
d="M534 62h-73v185h-390v72h463v-257z" />
    <glyph glyph-name="uni00AD" unicode="&#xad;" horiz-adv-x="482" 
d="M119 246v79h244v-79h-244z" />
    <glyph glyph-name="macron" unicode="&#xaf;" horiz-adv-x="488" 
d="M384 660h-280v57h280v-57z" />
    <glyph glyph-name="degree" unicode="&#xb0;" horiz-adv-x="358" 
d="M179 433q-29 0 -54.5 11t-44 29.5t-29.5 44t-11 54.5t11 54.5t29.5 44t44 29.5t54.5 11t54.5 -11t44 -29.5t29.5 -44t11 -54.5t-11 -54.5t-29.5 -44t-44 -29.5t-54.5 -11zM179 496q32 0 54.5 22.5t22.5 53.5q0 32 -22.5 54.5t-54.5 22.5q-15 0 -29 -6t-24.5 -16.5
t-17 -24.5t-6.5 -30q0 -31 23 -53.5t54 -22.5z" />
    <glyph glyph-name="plusminus" unicode="&#xb1;" horiz-adv-x="605" 
d="M338 181h-71v142h-213v67h213v142h71v-142h213v-67h-213v-142zM54 55v72h497v-72h-497z" />
    <glyph glyph-name="twosuperior" unicode="&#xb2;" horiz-adv-x="301" 
d="M22 782q0 49 35 79.5t92 30.5q56 0 89.5 -27t33.5 -72q0 -26 -13.5 -49t-48.5 -56l-80 -76v-1h147v-62h-251v53l129 121q23 22 32 36.5t9 29.5q0 19 -14 31t-36 12t-36.5 -14.5t-14.5 -35.5v-2h-73v2z" />
    <glyph glyph-name="threesuperior" unicode="&#xb3;" horiz-adv-x="314" 
d="M112 748h41q23 0 36.5 11.5t13.5 31.5q0 19 -13.5 30t-37.5 11q-23 0 -36.5 -12.5t-15.5 -32.5h-72q2 48 36.5 76.5t91.5 28.5q55 0 88 -24.5t33 -65.5q0 -30 -18.5 -51.5t-50.5 -26.5v-2q38 -3 60 -24.5t22 -55.5q0 -45 -37.5 -72.5t-99.5 -27.5q-58 0 -93.5 28.5
t-37.5 76.5h75q2 -20 17 -31.5t40 -11.5t40 12t15 32q0 21 -15 33t-41 12h-41v55z" />
    <glyph glyph-name="acute" unicode="&#xb4;" horiz-adv-x="491" 
d="M146 629l103 146h92l-120 -146h-75z" />
    <glyph glyph-name="uni00B5" unicode="&#xb5;" horiz-adv-x="575" 
d="M55 508h85v-312q0 -63 29.5 -96t86.5 -33q63 0 98.5 38t35.5 104v299h84v-378q0 -34 10.5 -47.5t33.5 -13.5q7 0 14.5 1t12.5 3v-71q-7 -2 -19 -4t-24 -2q-43 0 -69 17t-37 55q-1 4 -1.5 8t-1.5 9h-1q-23 -44 -58.5 -69t-80.5 -25q-37 0 -67.5 17t-44.5 46h-1v-223h-85
v677z" />
    <glyph glyph-name="paragraph" unicode="&#xb6;" horiz-adv-x="586" 
d="M290 -107v388h-10q-49 0 -91.5 15.5t-73.5 43.5t-48.5 66t-17.5 83q0 47 18 87t49 68.5t73.5 44.5t91.5 16h97v-812h-88zM450 705h88v-812h-88v812z" />
    <glyph glyph-name="periodcentered" unicode="&#xb7;" horiz-adv-x="254" 
d="M127 239q-24 0 -40.5 16t-16.5 40q0 25 16.5 41t40.5 16t40.5 -16t16.5 -41q0 -24 -16.5 -40t-40.5 -16z" />
    <glyph glyph-name="cedilla" unicode="&#xb8;" horiz-adv-x="491" 
d="M168 -78l32 82h61v-4l-28 -63q48 -1 76.5 -21t28.5 -58q0 -41 -33.5 -63.5t-80.5 -23.5q-22 0 -43 2t-31 5v50q8 -2 27 -4t34 -2q62 0 62 35q0 17 -16.5 24.5t-54.5 7.5h-34v33z" />
    <glyph glyph-name="onesuperior" unicode="&#xb9;" horiz-adv-x="243" 
d="M123 815h-2l-87 -59v69l86 59h77v-335h-74v266z" />
    <glyph glyph-name="ordmasculine" unicode="&#xba;" horiz-adv-x="375" 
d="M187 347q-77 0 -122 48.5t-45 132.5t45 132.5t122 48.5q78 0 123 -48.5t45 -132.5t-45 -132.5t-123 -48.5zM187 406q45 0 70.5 32t25.5 90q0 57 -25.5 89.5t-70.5 32.5t-69.5 -32.5t-24.5 -89.5q0 -58 24.5 -90t69.5 -32z" />
    <glyph glyph-name="guillemotright" unicode="&#xbb;" horiz-adv-x="636" 
d="M66 481h100l170 -203v-4l-170 -203h-100l171 201v7zM299 481h100l171 -203v-4l-171 -203h-100l172 201v7z" />
    <glyph glyph-name="onequarter" unicode="&#xbc;" horiz-adv-x="714" 
d="M127 636h-1l-87 -59v69l86 59h77v-335h-75v266zM44 0l516 705h84l-515 -705h-85zM581 56h-166v67q11 21 23.5 42.5t28 46.5t34.5 55t44 67h111v-215h42v-63h-42v-56h-75v56zM483 116h100v164h-2q-20 -31 -35 -54.5t-26 -42.5t-20 -34.5t-17 -30.5v-2z" />
    <glyph glyph-name="onehalf" unicode="&#xbd;" horiz-adv-x="714" 
d="M127 636h-1l-87 -59v69l86 59h77v-335h-75v266zM44 0l516 705h84l-515 -705h-85zM443 232q0 50 35.5 80t92.5 30q55 0 89 -27t34 -71q0 -26 -13.5 -49t-48.5 -56l-81 -76v-1h147v-62h-250v53l129 120q23 23 31.5 37.5t8.5 28.5q0 20 -13.5 31.5t-36.5 11.5
q-22 0 -36.5 -14t-14.5 -36v-1h-73v1z" />
    <glyph glyph-name="threequarters" unicode="&#xbe;" horiz-adv-x="768" 
d="M112 569h41q23 0 36.5 11.5t13.5 31.5q0 19 -13.5 30t-37.5 11q-23 0 -36.5 -12.5t-15.5 -33.5h-72q2 48 36.5 76.5t91.5 28.5q55 0 88 -24t33 -65q0 -30 -18.5 -51.5t-50.5 -26.5v-2q38 -3 60 -24.5t22 -55.5q0 -46 -37.5 -73.5t-99.5 -27.5q-58 0 -93.5 29t-37.5 77h75
q2 -20 17 -31.5t40 -11.5t40 12t15 32q0 21 -15 33t-41 12h-41v55zM98 0l516 705h84l-515 -705h-85zM634 56h-165v67q11 21 23.5 42.5t28 46.5t34.5 55t44 67h110v-215h43v-63h-43v-56h-75v56zM537 116h99v164h-1q-20 -31 -35 -54.5t-26 -42.5t-20 -34.5t-17 -30.5v-2z" />
    <glyph glyph-name="questiondown" unicode="&#xbf;" horiz-adv-x="489" 
d="M260 432q-23 0 -39.5 16.5t-16.5 39.5q0 24 16.5 39.5t39.5 15.5q24 0 39.5 -15.5t15.5 -39.5q0 -23 -15.5 -39.5t-39.5 -16.5zM462 16q-2 -40 -16 -74.5t-40.5 -60t-65.5 -40.5t-90 -15q-46 0 -84.5 13.5t-66 37t-42.5 56t-15 70.5q0 57 27.5 98t74.5 70
q23 14 38.5 26.5t24.5 26t12.5 28.5t3.5 34v32h86v-45q1 -49 -23 -83.5t-75 -64.5q-42 -26 -60 -52.5t-18 -64.5q0 -47 32.5 -76.5t87.5 -29.5t88 30t37 84h84z" />
    <glyph glyph-name="Agrave" unicode="&#xc0;" horiz-adv-x="631" 
d="M145 903h94l108 -141h-76zM456 202h-281l-71 -202h-92l260 705h87l260 -705h-93zM201 276h229l-113 322h-3z" />
    <glyph glyph-name="Aacute" unicode="&#xc1;" horiz-adv-x="631" 
d="M284 762l108 141h94l-127 -141h-75zM456 202h-281l-71 -202h-92l260 705h87l260 -705h-93zM201 276h229l-113 322h-3z" />
    <glyph glyph-name="Acircumflex" unicode="&#xc2;" horiz-adv-x="631" 
d="M348 897l138 -145h-81l-88 94h-3l-88 -94h-81l138 145h65zM456 202h-281l-71 -202h-92l260 705h87l260 -705h-93zM201 276h229l-113 322h-3z" />
    <glyph glyph-name="Atilde" unicode="&#xc3;" horiz-adv-x="631" 
d="M379 771q-24 0 -41.5 11.5t-31.5 26t-26.5 26t-27.5 11.5q-17 0 -27 -17.5t-8 -52.5h-57q0 60 25 92.5t67 32.5q26 0 44 -11.5t32 -25.5t26 -25.5t26 -11.5q15 0 24.5 17t9.5 52h57q0 -59 -25.5 -92t-66.5 -33zM456 202h-281l-71 -202h-92l260 705h87l260 -705h-93z
M201 276h229l-113 322h-3z" />
    <glyph glyph-name="Adieresis" unicode="&#xc4;" horiz-adv-x="631" 
d="M225 783q-23 0 -38.5 15.5t-15.5 38.5t15.5 38.5t38.5 15.5q22 0 37.5 -15.5t15.5 -38.5t-15.5 -38.5t-37.5 -15.5zM406 783q-22 0 -37.5 15.5t-15.5 38.5t15.5 38.5t37.5 15.5q23 0 38.5 -15.5t15.5 -38.5t-15.5 -38.5t-38.5 -15.5zM456 202h-281l-71 -202h-92l260 705
h87l260 -705h-93zM201 276h229l-113 322h-3z" />
    <glyph glyph-name="Aring" unicode="&#xc5;" horiz-adv-x="631" 
d="M315 740q-19 0 -36 7.5t-29.5 20t-20 29.5t-7.5 36q0 20 7.5 37t20 29.5t29.5 20t36 7.5q20 0 37 -7.5t29.5 -20t20 -29.5t7.5 -37q0 -19 -7.5 -36t-20 -29.5t-29.5 -20t-37 -7.5zM315 783q21 0 36 15t15 35q0 21 -15 36t-36 15q-20 0 -35 -15t-15 -36q0 -20 15 -35
t35 -15zM456 202h-281l-71 -202h-92l260 705h87l260 -705h-93zM201 276h229l-113 322h-3z" />
    <glyph glyph-name="AE" unicode="&#xc6;" horiz-adv-x="963" 
d="M470 224h-271l-106 -224h-91l336 705h558v-80h-338v-230h320v-79h-320v-237h338v-79h-426v224zM234 299h236v332h-78z" />
    <glyph glyph-name="Ccedilla" unicode="&#xc7;" horiz-adv-x="686" 
d="M562 482q-8 35 -27 63t-45.5 48t-60 31t-71.5 11q-51 0 -93 -20t-72 -57t-46 -89t-16 -116q0 -65 16 -117.5t46 -89.5t72 -57t94 -20q78 0 131 35.5t72 100.5h89q-23 -97 -89 -152t-169 -63l-23 -53q48 -1 76.5 -21t28.5 -58q0 -42 -33.5 -64t-81.5 -23q-21 0 -42 2
t-31 5v50q8 -2 27 -4t34 -2q62 0 62 35q0 17 -16.5 24.5t-54.5 7.5h-34v33l26 67q-67 5 -120.5 32.5t-91 74.5t-58 112t-20.5 145q0 83 22.5 150t64 114.5t100 73t130.5 25.5q58 0 107.5 -16.5t88 -47.5t63.5 -74t34 -96h-89z" />
    <glyph glyph-name="Egrave" unicode="&#xc8;" horiz-adv-x="552" 
d="M116 903h94l108 -141h-75zM505 0h-437v705h437v-80h-349v-226h331v-78h-331v-242h349v-79z" />
    <glyph glyph-name="Eacute" unicode="&#xc9;" horiz-adv-x="552" 
d="M255 762l108 141h95l-127 -141h-76zM505 0h-437v705h437v-80h-349v-226h331v-78h-331v-242h349v-79z" />
    <glyph glyph-name="Ecircumflex" unicode="&#xca;" horiz-adv-x="552" 
d="M319 897l139 -145h-82l-88 94h-3l-88 -94h-81l138 145h65zM505 0h-437v705h437v-80h-349v-226h331v-78h-331v-242h349v-79z" />
    <glyph glyph-name="Edieresis" unicode="&#xcb;" horiz-adv-x="552" 
d="M196 783q-22 0 -38 15.5t-16 38.5t16 38.5t38 15.5t38 -15.5t16 -38.5t-16 -38.5t-38 -15.5zM377 783q-22 0 -37.5 15.5t-15.5 38.5t15.5 38.5t37.5 15.5q23 0 38.5 -15.5t15.5 -38.5t-15.5 -38.5t-38.5 -15.5zM505 0h-437v705h437v-80h-349v-226h331v-78h-331v-242h349
v-79z" />
    <glyph glyph-name="Igrave" unicode="&#xcc;" horiz-adv-x="225" 
d="M-59 903h95l108 -141h-76zM68 0v705h88v-705h-88z" />
    <glyph glyph-name="Iacute" unicode="&#xcd;" horiz-adv-x="225" 
d="M81 762l107 141h95l-127 -141h-75zM68 0v705h88v-705h-88z" />
    <glyph glyph-name="Icircumflex" unicode="&#xce;" horiz-adv-x="225" 
d="M145 897l138 -145h-81l-88 94h-3l-89 -94h-81l139 145h65zM68 0v705h88v-705h-88z" />
    <glyph glyph-name="Idieresis" unicode="&#xcf;" horiz-adv-x="225" 
d="M21 783q-22 0 -37.5 15.5t-15.5 38.5t15.5 38.5t37.5 15.5q23 0 38.5 -15.5t15.5 -38.5t-15.5 -38.5t-38.5 -15.5zM203 783q-22 0 -38 15.5t-16 38.5t16 38.5t38 15.5t38 -15.5t16 -38.5t-16 -38.5t-38 -15.5zM68 0v705h88v-705h-88z" />
    <glyph glyph-name="Eth" unicode="&#xd0;" horiz-adv-x="689" 
d="M312 705q78 0 140 -24t104.5 -69t65 -110.5t22.5 -148.5q0 -84 -22.5 -149.5t-65 -110.5t-104.5 -69t-140 -24h-237v324h-63v79h63v302h237zM306 79q120 0 184 70.5t64 202.5q0 133 -63.5 203t-184.5 70h-143v-222h135v-79h-135v-245h143z" />
    <glyph glyph-name="Ntilde" unicode="&#xd1;" horiz-adv-x="699" 
d="M414 771q-24 0 -41.5 11.5t-32 26t-27 26t-27.5 11.5q-17 0 -26.5 -17.5t-8.5 -52.5h-57q0 60 25.5 92.5t67.5 32.5q26 0 43.5 -11.5t31.5 -25.5t26 -25.5t26 -11.5q34 0 34 69h57q0 -59 -25.5 -92t-65.5 -33zM68 0v705h86l386 -554h4v554h87v-705h-86l-385 551h-5v-551
h-87z" />
    <glyph glyph-name="Ograve" unicode="&#xd2;" horiz-adv-x="731" 
d="M195 903h95l107 -141h-75zM366 716q75 0 135 -25.5t102 -72.5t64.5 -114.5t22.5 -151.5t-22.5 -151.5t-64.5 -114.5t-102 -72.5t-135 -25.5t-135 25.5t-102.5 72.5t-65 114.5t-22.5 151.5t22.5 151.5t65 114.5t102.5 72.5t135 25.5zM366 635q-54 0 -97.5 -19.5t-74 -56.5
t-47 -89.5t-16.5 -117.5t16.5 -117.5t47 -89t74 -56.5t97.5 -20t97.5 20t73.5 56.5t46.5 89t16.5 117.5t-16.5 117.5t-46.5 89.5t-73.5 56.5t-97.5 19.5z" />
    <glyph glyph-name="Oacute" unicode="&#xd3;" horiz-adv-x="731" 
d="M334 762l108 141h95l-127 -141h-76zM366 716q75 0 135 -25.5t102 -72.5t64.5 -114.5t22.5 -151.5t-22.5 -151.5t-64.5 -114.5t-102 -72.5t-135 -25.5t-135 25.5t-102.5 72.5t-65 114.5t-22.5 151.5t22.5 151.5t65 114.5t102.5 72.5t135 25.5zM366 635q-54 0 -97.5 -19.5
t-74 -56.5t-47 -89.5t-16.5 -117.5t16.5 -117.5t47 -89t74 -56.5t97.5 -20t97.5 20t73.5 56.5t46.5 89t16.5 117.5t-16.5 117.5t-46.5 89.5t-73.5 56.5t-97.5 19.5z" />
    <glyph glyph-name="Ocircumflex" unicode="&#xd4;" horiz-adv-x="731" 
d="M398 897l139 -145h-81l-89 94h-3l-88 -94h-81l138 145h65zM366 716q75 0 135 -25.5t102 -72.5t64.5 -114.5t22.5 -151.5t-22.5 -151.5t-64.5 -114.5t-102 -72.5t-135 -25.5t-135 25.5t-102.5 72.5t-65 114.5t-22.5 151.5t22.5 151.5t65 114.5t102.5 72.5t135 25.5z
M366 635q-54 0 -97.5 -19.5t-74 -56.5t-47 -89.5t-16.5 -117.5t16.5 -117.5t47 -89t74 -56.5t97.5 -20t97.5 20t73.5 56.5t46.5 89t16.5 117.5t-16.5 117.5t-46.5 89.5t-73.5 56.5t-97.5 19.5z" />
    <glyph glyph-name="Otilde" unicode="&#xd5;" horiz-adv-x="731" 
d="M430 771q-24 0 -41.5 11.5t-32 26t-27 26t-27.5 11.5q-17 0 -26.5 -17.5t-7.5 -52.5h-58q0 60 25.5 92.5t67.5 32.5q26 0 44 -11.5t32 -25.5t26 -25.5t25 -11.5q34 0 34 69h57q0 -59 -25.5 -92t-65.5 -33zM366 716q75 0 135 -25.5t102 -72.5t64.5 -114.5t22.5 -151.5
t-22.5 -151.5t-64.5 -114.5t-102 -72.5t-135 -25.5t-135 25.5t-102.5 72.5t-65 114.5t-22.5 151.5t22.5 151.5t65 114.5t102.5 72.5t135 25.5zM366 635q-54 0 -97.5 -19.5t-74 -56.5t-47 -89.5t-16.5 -117.5t16.5 -117.5t47 -89t74 -56.5t97.5 -20t97.5 20t73.5 56.5
t46.5 89t16.5 117.5t-16.5 117.5t-46.5 89.5t-73.5 56.5t-97.5 19.5z" />
    <glyph glyph-name="Odieresis" unicode="&#xd6;" horiz-adv-x="731" 
d="M275 783q-22 0 -38 15.5t-16 38.5t16 38.5t38 15.5t38 -15.5t16 -38.5t-16 -38.5t-38 -15.5zM457 783q-23 0 -38.5 15.5t-15.5 38.5t15.5 38.5t38.5 15.5q22 0 37.5 -15.5t15.5 -38.5t-15.5 -38.5t-37.5 -15.5zM366 716q75 0 135 -25.5t102 -72.5t64.5 -114.5
t22.5 -151.5t-22.5 -151.5t-64.5 -114.5t-102 -72.5t-135 -25.5t-135 25.5t-102.5 72.5t-65 114.5t-22.5 151.5t22.5 151.5t65 114.5t102.5 72.5t135 25.5zM366 635q-54 0 -97.5 -19.5t-74 -56.5t-47 -89.5t-16.5 -117.5t16.5 -117.5t47 -89t74 -56.5t97.5 -20t97.5 20
t73.5 56.5t46.5 89t16.5 117.5t-16.5 117.5t-46.5 89.5t-73.5 56.5t-97.5 19.5z" />
    <glyph glyph-name="Oslash" unicode="&#xd8;" horiz-adv-x="731" 
d="M610 609q39 -48 59.5 -112.5t20.5 -144.5q0 -84 -22.5 -151.5t-64.5 -114.5t-102 -72.5t-135 -25.5q-56 0 -103.5 14.5t-85.5 40.5l-51 -66l-49 37l54 69q-44 48 -67 116t-23 153q0 84 22.5 151.5t65 114.5t102.5 72.5t135 25.5q122 0 202 -65l59 76l48 -34zM515 582
q-59 53 -149 53q-54 0 -97.5 -19.5t-74 -56.5t-47 -89.5t-16.5 -117.5q0 -61 14.5 -110.5t41.5 -85.5zM229 112q57 -43 137 -43q54 0 97.5 20t73.5 56.5t46.5 89t16.5 117.5q0 111 -46 183z" />
    <glyph glyph-name="Ugrave" unicode="&#xd9;" horiz-adv-x="696" 
d="M177 903h95l107 -141h-75zM156 253q0 -40 13 -74t37.5 -58.5t60 -38t81.5 -13.5t81.5 13.5t60 38t37.5 58.5t13 74v452h88v-458q0 -56 -19 -103.5t-55 -82t-88 -54t-118 -19.5t-118 19.5t-88 54t-55 82t-19 103.5v458h88v-452z" />
    <glyph glyph-name="Uacute" unicode="&#xda;" horiz-adv-x="696" 
d="M317 762l107 141h95l-127 -141h-75zM156 253q0 -40 13 -74t37.5 -58.5t60 -38t81.5 -13.5t81.5 13.5t60 38t37.5 58.5t13 74v452h88v-458q0 -56 -19 -103.5t-55 -82t-88 -54t-118 -19.5t-118 19.5t-88 54t-55 82t-19 103.5v458h88v-452z" />
    <glyph glyph-name="Ucircumflex" unicode="&#xdb;" horiz-adv-x="696" 
d="M381 897l138 -145h-81l-88 94h-3l-89 -94h-81l138 145h66zM156 253q0 -40 13 -74t37.5 -58.5t60 -38t81.5 -13.5t81.5 13.5t60 38t37.5 58.5t13 74v452h88v-458q0 -56 -19 -103.5t-55 -82t-88 -54t-118 -19.5t-118 19.5t-88 54t-55 82t-19 103.5v458h88v-452z" />
    <glyph glyph-name="Udieresis" unicode="&#xdc;" horiz-adv-x="696" 
d="M257 783q-22 0 -37.5 15.5t-15.5 38.5t15.5 38.5t37.5 15.5q23 0 38.5 -15.5t15.5 -38.5t-15.5 -38.5t-38.5 -15.5zM439 783q-22 0 -38 15.5t-16 38.5t16 38.5t38 15.5t38 -15.5t16 -38.5t-16 -38.5t-38 -15.5zM156 253q0 -40 13 -74t37.5 -58.5t60 -38t81.5 -13.5
t81.5 13.5t60 38t37.5 58.5t13 74v452h88v-458q0 -56 -19 -103.5t-55 -82t-88 -54t-118 -19.5t-118 19.5t-88 54t-55 82t-19 103.5v458h88v-452z" />
    <glyph glyph-name="Yacute" unicode="&#xdd;" horiz-adv-x="612" 
d="M275 762l107 141h95l-127 -141h-75zM262 0v303l-250 402h100l193 -317h3l192 317h100l-250 -402v-303h-88z" />
    <glyph glyph-name="Thorn" unicode="&#xde;" horiz-adv-x="602" 
d="M166 705v-130h182q41 0 78 -13.5t65.5 -39.5t45.5 -64t17 -86t-17 -86t-46 -64.5t-66 -40t-78 -13.5h-181v-168h-88v705h88zM166 247h157q61 0 101 31t40 94t-40 94t-101 31h-157v-250z" />
    <glyph glyph-name="germandbls" unicode="&#xdf;" horiz-adv-x="585" 
d="M85 0v522q0 42 14 76.5t40 59t63 37.5t82 13q44 0 80 -13t62 -36.5t40.5 -55.5t14.5 -71q0 -60 -28.5 -104.5t-78.5 -60.5v-2q75 -11 116.5 -57.5t41.5 -119.5q0 -44 -15.5 -80t-43.5 -61.5t-67.5 -39.5t-88.5 -14q-41 0 -68 7v74q12 -4 28.5 -5.5t33.5 -1.5q63 0 100 33
t37 90q0 60 -41.5 95t-116.5 35h-29v82h24q54 0 84 33.5t30 91.5q0 48 -31 78t-82 30q-56 0 -87 -32.5t-31 -89.5v-513h-83z" />
    <glyph glyph-name="agrave" unicode="&#xe0;" horiz-adv-x="502" 
d="M206 581l-120 147h92l102 -147h-74zM204 -9q-38 0 -69 11t-53.5 31t-34.5 48.5t-12 62.5q0 65 48 104t136 44l145 8v43q0 47 -29 73t-82 26q-50 0 -79.5 -21.5t-37.5 -59.5h-82q2 33 17 61.5t41 49.5t62 33t81 12q90 0 142 -45t52 -121v-351h-80v87h-2q-23 -44 -67.5 -70
t-95.5 -26zM223 63q30 0 56 10t44.5 27.5t29.5 41.5t11 51v41l-135 -8q-52 -3 -80 -25t-28 -57q0 -37 28 -59t74 -22z" />
    <glyph glyph-name="aacute" unicode="&#xe1;" horiz-adv-x="502" 
d="M213 581l103 147h92l-120 -147h-75zM204 -9q-38 0 -69 11t-53.5 31t-34.5 48.5t-12 62.5q0 65 48 104t136 44l145 8v43q0 47 -29 73t-82 26q-50 0 -79.5 -21.5t-37.5 -59.5h-82q2 33 17 61.5t41 49.5t62 33t81 12q90 0 142 -45t52 -121v-351h-80v87h-2q-23 -44 -67.5 -70
t-95.5 -26zM223 63q30 0 56 10t44.5 27.5t29.5 41.5t11 51v41l-135 -8q-52 -3 -80 -25t-28 -57q0 -37 28 -59t74 -22z" />
    <glyph glyph-name="acircumflex" unicode="&#xe2;" horiz-adv-x="502" 
d="M415 581h-80l-85 94h-2l-85 -94h-80l133 147h66zM204 -9q-38 0 -69 11t-53.5 31t-34.5 48.5t-12 62.5q0 65 48 104t136 44l145 8v43q0 47 -29 73t-82 26q-50 0 -79.5 -21.5t-37.5 -59.5h-82q2 33 17 61.5t41 49.5t62 33t81 12q90 0 142 -45t52 -121v-351h-80v87h-2
q-23 -44 -67.5 -70t-95.5 -26zM223 63q30 0 56 10t44.5 27.5t29.5 41.5t11 51v41l-135 -8q-52 -3 -80 -25t-28 -57q0 -37 28 -59t74 -22z" />
    <glyph glyph-name="atilde" unicode="&#xe3;" horiz-adv-x="502" 
d="M315 585q-24 0 -41.5 11.5t-32 25.5t-27 25.5t-27.5 11.5q-17 0 -26.5 -17.5t-7.5 -51.5h-58q0 60 25.5 92t67.5 32q26 0 44 -11.5t32 -25.5t26 -25.5t25 -11.5q34 0 34 70h58q0 -59 -26 -92t-66 -33zM204 -9q-38 0 -69 11t-53.5 31t-34.5 48.5t-12 62.5q0 65 48 104
t136 44l145 8v43q0 47 -29 73t-82 26q-50 0 -79.5 -21.5t-37.5 -59.5h-82q2 33 17 61.5t41 49.5t62 33t81 12q90 0 142 -45t52 -121v-351h-80v87h-2q-23 -44 -67.5 -70t-95.5 -26zM223 63q30 0 56 10t44.5 27.5t29.5 41.5t11 51v41l-135 -8q-52 -3 -80 -25t-28 -57
q0 -37 28 -59t74 -22z" />
    <glyph glyph-name="adieresis" unicode="&#xe4;" horiz-adv-x="502" 
d="M158 587q-22 0 -38 15.5t-16 38.5t16 38.5t38 15.5t38 -15.5t16 -38.5t-16 -38.5t-38 -15.5zM340 587q-22 0 -38 15.5t-16 38.5t16 38.5t38 15.5t38 -15.5t16 -38.5t-16 -38.5t-38 -15.5zM204 -9q-38 0 -69 11t-53.5 31t-34.5 48.5t-12 62.5q0 65 48 104t136 44l145 8v43
q0 47 -29 73t-82 26q-50 0 -79.5 -21.5t-37.5 -59.5h-82q2 33 17 61.5t41 49.5t62 33t81 12q90 0 142 -45t52 -121v-351h-80v87h-2q-23 -44 -67.5 -70t-95.5 -26zM223 63q30 0 56 10t44.5 27.5t29.5 41.5t11 51v41l-135 -8q-52 -3 -80 -25t-28 -57q0 -37 28 -59t74 -22z" />
    <glyph glyph-name="aring" unicode="&#xe5;" horiz-adv-x="502" 
d="M249 553q-19 0 -36 7.5t-29.5 20t-20 29.5t-7.5 36t7.5 36t20 29.5t29.5 20t36 7.5t36 -7.5t29.5 -20t20 -29.5t7.5 -36t-7.5 -36t-20 -29.5t-29.5 -20t-36 -7.5zM249 596q21 0 35.5 14.5t14.5 35.5t-14.5 35.5t-35.5 14.5t-35.5 -14.5t-14.5 -35.5t14.5 -35.5
t35.5 -14.5zM204 -9q-38 0 -69 11t-53.5 31t-34.5 48.5t-12 62.5q0 65 48 104t136 44l145 8v43q0 47 -29 73t-82 26q-50 0 -79.5 -21.5t-37.5 -59.5h-82q2 33 17 61.5t41 49.5t62 33t81 12q90 0 142 -45t52 -121v-351h-80v87h-2q-23 -44 -67.5 -70t-95.5 -26zM223 63
q30 0 56 10t44.5 27.5t29.5 41.5t11 51v41l-135 -8q-52 -3 -80 -25t-28 -57q0 -37 28 -59t74 -22z" />
    <glyph glyph-name="ae" unicode="&#xe6;" horiz-adv-x="834" 
d="M594 -9q-63 0 -110.5 29t-72.5 80h-5q-31 -52 -79 -80.5t-112 -28.5q-42 0 -75.5 11t-57.5 30.5t-37 48t-13 62.5q0 66 49 104t141 43l142 7v36q0 47 -33 78t-85 31q-48 0 -77.5 -23t-33.5 -58h-83q2 33 16 61.5t39 49.5t59.5 33t76.5 12q64 0 110.5 -26.5t64.5 -73.5h4
q26 48 70 74t103 26q48 0 86.5 -18t66 -51t42 -80t14.5 -105v-32h-356v-5q0 -72 40 -116.5t107 -44.5q46 0 77 22t42 59h84q-6 -33 -23.5 -61.5t-44.5 -49.5t-61.5 -32.5t-74.5 -11.5zM588 443q-60 0 -97.5 -40.5t-42.5 -105.5h268q-2 66 -36 106t-92 40zM218 64
q31 0 57.5 10t46 27.5t31 41t11.5 50.5v38l-133 -7q-54 -3 -83 -23.5t-29 -55.5t27 -58t72 -23z" />
    <glyph glyph-name="ccedilla" unicode="&#xe7;" horiz-adv-x="501" 
d="M478 164q-9 -69 -57 -115t-121 -55l-25 -57q48 -1 76.5 -21t28.5 -58q0 -41 -33.5 -63.5t-80.5 -23.5q-22 0 -43 2t-31 5v50q8 -2 27 -4t34 -2q62 0 62 35q0 17 -16.5 24.5t-54.5 7.5h-34v33l28 71q-47 4 -85.5 24t-65.5 53.5t-42 80t-15 103.5q0 60 17 108.5t47.5 83
t74 53t95.5 18.5q48 0 85.5 -14.5t64.5 -39t43 -56t20 -66.5h-83q-9 41 -41.5 71t-88.5 30q-33 0 -60 -13t-46.5 -37.5t-30 -59.5t-10.5 -78q0 -89 41 -138.5t107 -49.5q52 0 85.5 26t44.5 72h83z" />
    <glyph glyph-name="egrave" unicode="&#xe8;" horiz-adv-x="512" 
d="M217 581l-120 147h92l103 -147h-75zM476 146q-6 -33 -24 -61.5t-46 -49.5t-64 -32.5t-78 -11.5q-54 0 -97.5 18.5t-74 52t-46.5 82t-16 108.5q0 59 16.5 108t46.5 84t72.5 54t94.5 19q51 0 92.5 -18t70 -51t44 -80t15.5 -105v-32h-364v-5q0 -73 39.5 -117t108.5 -44
q49 0 82 22.5t44 58.5h84zM259 443q-30 0 -55 -11t-43.5 -30.5t-29.5 -46t-13 -58.5h276q-1 32 -11 58.5t-27.5 46t-42 30.5t-54.5 11z" />
    <glyph glyph-name="eacute" unicode="&#xe9;" horiz-adv-x="512" 
d="M225 581l102 147h92l-120 -147h-74zM476 146q-6 -33 -24 -61.5t-46 -49.5t-64 -32.5t-78 -11.5q-54 0 -97.5 18.5t-74 52t-46.5 82t-16 108.5q0 59 16.5 108t46.5 84t72.5 54t94.5 19q51 0 92.5 -18t70 -51t44 -80t15.5 -105v-32h-364v-5q0 -73 39.5 -117t108.5 -44
q49 0 82 22.5t44 58.5h84zM259 443q-30 0 -55 -11t-43.5 -30.5t-29.5 -46t-13 -58.5h276q-1 32 -11 58.5t-27.5 46t-42 30.5t-54.5 11z" />
    <glyph glyph-name="ecircumflex" unicode="&#xea;" horiz-adv-x="512" 
d="M426 581h-80l-84 94h-3l-85 -94h-79l133 147h65zM476 146q-6 -33 -24 -61.5t-46 -49.5t-64 -32.5t-78 -11.5q-54 0 -97.5 18.5t-74 52t-46.5 82t-16 108.5q0 59 16.5 108t46.5 84t72.5 54t94.5 19q51 0 92.5 -18t70 -51t44 -80t15.5 -105v-32h-364v-5q0 -73 39.5 -117
t108.5 -44q49 0 82 22.5t44 58.5h84zM259 443q-30 0 -55 -11t-43.5 -30.5t-29.5 -46t-13 -58.5h276q-1 32 -11 58.5t-27.5 46t-42 30.5t-54.5 11z" />
    <glyph glyph-name="edieresis" unicode="&#xeb;" horiz-adv-x="512" 
d="M169 587q-22 0 -37.5 15.5t-15.5 38.5t15.5 38.5t37.5 15.5q23 0 38.5 -15.5t15.5 -38.5t-15.5 -38.5t-38.5 -15.5zM351 587q-22 0 -38 15.5t-16 38.5t16 38.5t38 15.5t38 -15.5t16 -38.5t-16 -38.5t-38 -15.5zM476 146q-6 -33 -24 -61.5t-46 -49.5t-64 -32.5t-78 -11.5
q-54 0 -97.5 18.5t-74 52t-46.5 82t-16 108.5q0 59 16.5 108t46.5 84t72.5 54t94.5 19q51 0 92.5 -18t70 -51t44 -80t15.5 -105v-32h-364v-5q0 -73 39.5 -117t108.5 -44q49 0 82 22.5t44 58.5h84zM259 443q-30 0 -55 -11t-43.5 -30.5t-29.5 -46t-13 -58.5h276
q-1 32 -11 58.5t-27.5 46t-42 30.5t-54.5 11z" />
    <glyph glyph-name="igrave" unicode="&#xec;" horiz-adv-x="204" 
d="M59 581l-120 147h92l102 -147h-74zM60 508h85v-508h-85v508z" />
    <glyph glyph-name="iacute" unicode="&#xed;" horiz-adv-x="204" 
d="M66 581l103 147h92l-120 -147h-75zM60 508h85v-508h-85v508z" />
    <glyph glyph-name="icircumflex" unicode="&#xee;" horiz-adv-x="204" 
d="M268 581h-80l-84 94h-3l-85 -94h-79l132 147h66zM60 508h85v-508h-85v508z" />
    <glyph glyph-name="idieresis" unicode="&#xef;" horiz-adv-x="204" 
d="M11 587q-22 0 -37.5 15.5t-15.5 38.5t15.5 38.5t37.5 15.5q23 0 38.5 -15.5t15.5 -38.5t-15.5 -38.5t-38.5 -15.5zM193 587q-22 0 -38 15.5t-16 38.5t16 38.5t38 15.5t38 -15.5t16 -38.5t-16 -38.5t-38 -15.5zM60 508h85v-508h-85v508z" />
    <glyph glyph-name="eth" unicode="&#xf0;" horiz-adv-x="545" 
d="M272 -9q-54 0 -97 17.5t-73 50.5t-46 80t-16 106q0 57 15.5 103.5t44.5 79.5t69.5 51t91.5 18q21 0 42.5 -6t40.5 -16.5t34 -24.5t23 -31h8q-5 20 -14 42t-20.5 43.5t-24.5 41.5t-27 36l-131 -42l-17 53l109 35q-17 20 -39.5 40.5t-56.5 49.5h102q17 -14 33.5 -30.5
t33.5 -35.5l118 39l17 -54l-95 -30q54 -74 79 -156t25 -181q0 -64 -16 -116t-45.5 -88t-72 -55.5t-95.5 -19.5zM273 423q-67 0 -107 -48.5t-40 -129.5q0 -82 40 -130.5t107 -48.5q68 0 107.5 48.5t39.5 130.5q0 40 -10.5 73t-29.5 56t-46.5 36t-60.5 13z" />
    <glyph glyph-name="ntilde" unicode="&#xf1;" horiz-adv-x="527" 
d="M331 585q-24 0 -41.5 11.5t-32 25.5t-27 25.5t-27.5 11.5q-17 0 -26.5 -17.5t-8.5 -51.5h-57q0 60 25.5 92t67.5 32q26 0 43.5 -11.5t31.5 -25.5t26 -25.5t26 -11.5q34 0 34 70h57q0 -59 -25.5 -92t-65.5 -33zM55 508h80v-81h2q22 41 62 65.5t99 24.5q85 0 130.5 -50
t45.5 -137v-330h-85v314q0 62 -28.5 94.5t-88.5 32.5t-96 -38.5t-36 -103.5v-299h-85v508z" />
    <glyph glyph-name="ograve" unicode="&#xf2;" horiz-adv-x="531" 
d="M223 581l-120 147h91l103 -147h-74zM266 -9q-53 0 -96.5 18.5t-74.5 52.5t-48 82.5t-17 109.5t17 109.5t48 82.5t74.5 52.5t96.5 18.5t96 -18.5t73.5 -52.5t47.5 -82.5t17 -109.5t-17 -109.5t-47.5 -82.5t-73.5 -52.5t-96 -18.5zM266 66q67 0 107.5 48.5t40.5 139.5
t-40.5 139.5t-107.5 48.5q-68 0 -108.5 -48.5t-40.5 -139.5t40.5 -139.5t108.5 -48.5z" />
    <glyph glyph-name="oacute" unicode="&#xf3;" horiz-adv-x="531" 
d="M230 581l103 147h91l-120 -147h-74zM266 -9q-53 0 -96.5 18.5t-74.5 52.5t-48 82.5t-17 109.5t17 109.5t48 82.5t74.5 52.5t96.5 18.5t96 -18.5t73.5 -52.5t47.5 -82.5t17 -109.5t-17 -109.5t-47.5 -82.5t-73.5 -52.5t-96 -18.5zM266 66q67 0 107.5 48.5t40.5 139.5
t-40.5 139.5t-107.5 48.5q-68 0 -108.5 -48.5t-40.5 -139.5t40.5 -139.5t108.5 -48.5z" />
    <glyph glyph-name="ocircumflex" unicode="&#xf4;" horiz-adv-x="531" 
d="M431 581h-79l-85 94h-3l-84 -94h-80l133 147h65zM266 -9q-53 0 -96.5 18.5t-74.5 52.5t-48 82.5t-17 109.5t17 109.5t48 82.5t74.5 52.5t96.5 18.5t96 -18.5t73.5 -52.5t47.5 -82.5t17 -109.5t-17 -109.5t-47.5 -82.5t-73.5 -52.5t-96 -18.5zM266 66q67 0 107.5 48.5
t40.5 139.5t-40.5 139.5t-107.5 48.5q-68 0 -108.5 -48.5t-40.5 -139.5t40.5 -139.5t108.5 -48.5z" />
    <glyph glyph-name="otilde" unicode="&#xf5;" horiz-adv-x="531" 
d="M332 585q-24 0 -41.5 11.5t-32 25.5t-27 25.5t-27.5 11.5q-17 0 -27 -17.5t-8 -51.5h-57q0 60 25.5 92t67.5 32q26 0 43.5 -11.5t31.5 -25.5t26 -25.5t26 -11.5q34 0 34 70h57q0 -59 -25.5 -92t-65.5 -33zM266 -9q-53 0 -96.5 18.5t-74.5 52.5t-48 82.5t-17 109.5
t17 109.5t48 82.5t74.5 52.5t96.5 18.5t96 -18.5t73.5 -52.5t47.5 -82.5t17 -109.5t-17 -109.5t-47.5 -82.5t-73.5 -52.5t-96 -18.5zM266 66q67 0 107.5 48.5t40.5 139.5t-40.5 139.5t-107.5 48.5q-68 0 -108.5 -48.5t-40.5 -139.5t40.5 -139.5t108.5 -48.5z" />
    <glyph glyph-name="odieresis" unicode="&#xf6;" horiz-adv-x="531" 
d="M175 587q-22 0 -38 15.5t-16 38.5t16 38.5t38 15.5t38 -15.5t16 -38.5t-16 -38.5t-38 -15.5zM356 587q-22 0 -37.5 15.5t-15.5 38.5t15.5 38.5t37.5 15.5q23 0 38.5 -15.5t15.5 -38.5t-15.5 -38.5t-38.5 -15.5zM266 -9q-53 0 -96.5 18.5t-74.5 52.5t-48 82.5t-17 109.5
t17 109.5t48 82.5t74.5 52.5t96.5 18.5t96 -18.5t73.5 -52.5t47.5 -82.5t17 -109.5t-17 -109.5t-47.5 -82.5t-73.5 -52.5t-96 -18.5zM266 66q67 0 107.5 48.5t40.5 139.5t-40.5 139.5t-107.5 48.5q-68 0 -108.5 -48.5t-40.5 -139.5t40.5 -139.5t108.5 -48.5z" />
    <glyph glyph-name="oslash" unicode="&#xf8;" horiz-adv-x="531" 
d="M433 449q32 -35 49.5 -83.5t17.5 -111.5q0 -61 -17 -109.5t-47.5 -82.5t-73.5 -52.5t-96 -18.5q-68 0 -121 31l-27 -40l-49 32l30 44q-33 35 -51 84t-18 112q0 61 17 109.5t48 82.5t74.5 52.5t96.5 18.5q35 0 66 -8.5t58 -24.5l29 43l47 -29zM345 419q-34 23 -79 23
q-68 0 -108.5 -48.5t-40.5 -139.5q0 -78 30 -125zM188 87q33 -21 78 -21q67 0 107.5 48.5t40.5 139.5q0 38 -7.5 69t-21.5 54z" />
    <glyph glyph-name="ugrave" unicode="&#xf9;" horiz-adv-x="527" 
d="M219 581l-120 147h92l102 -147h-74zM472 0h-80v83h-2q-23 -45 -62.5 -68.5t-98.5 -23.5q-84 0 -130 50t-46 137v330h85v-315q0 -62 28.5 -94.5t88.5 -32.5q62 0 97 39t35 104v299h85v-508z" />
    <glyph glyph-name="uacute" unicode="&#xfa;" horiz-adv-x="527" 
d="M227 581l102 147h92l-120 -147h-74zM472 0h-80v83h-2q-23 -45 -62.5 -68.5t-98.5 -23.5q-84 0 -130 50t-46 137v330h85v-315q0 -62 28.5 -94.5t88.5 -32.5q62 0 97 39t35 104v299h85v-508z" />
    <glyph glyph-name="ucircumflex" unicode="&#xfb;" horiz-adv-x="527" 
d="M428 581h-80l-84 94h-3l-85 -94h-79l132 147h66zM472 0h-80v83h-2q-23 -45 -62.5 -68.5t-98.5 -23.5q-84 0 -130 50t-46 137v330h85v-315q0 -62 28.5 -94.5t88.5 -32.5q62 0 97 39t35 104v299h85v-508z" />
    <glyph glyph-name="udieresis" unicode="&#xfc;" horiz-adv-x="527" 
d="M171 587q-22 0 -37.5 15.5t-15.5 38.5t15.5 38.5t37.5 15.5q23 0 38.5 -15.5t15.5 -38.5t-15.5 -38.5t-38.5 -15.5zM353 587q-22 0 -38 15.5t-16 38.5t16 38.5t38 15.5t38 -15.5t16 -38.5t-16 -38.5t-38 -15.5zM472 0h-80v83h-2q-23 -45 -62.5 -68.5t-98.5 -23.5
q-84 0 -130 50t-46 137v330h85v-315q0 -62 28.5 -94.5t88.5 -32.5q62 0 97 39t35 104v299h85v-508z" />
    <glyph glyph-name="yacute" unicode="&#xfd;" horiz-adv-x="486" 
d="M208 581l102 147h92l-120 -147h-74zM97 -190q-8 0 -18.5 0.5t-17.5 2.5v71q7 -2 16 -2h17q35 0 56.5 18.5t36.5 63.5l12 36l-188 508h91l141 -423h1l141 423h89l-200 -544q-16 -44 -33 -73.5t-37.5 -47.5t-46 -25.5t-60.5 -7.5z" />
    <glyph glyph-name="thorn" unicode="&#xfe;" horiz-adv-x="553" 
d="M310 517q48 0 87.5 -18.5t67 -53t42.5 -83t15 -108.5t-15 -108.5t-43 -83t-67 -53t-87 -18.5q-55 0 -97 22t-62 63h-7v-245h-84v874h80v-282h7q25 44 67.5 69t95.5 25zM289 66q69 0 108 50t39 138t-39 138t-108 50q-68 0 -107.5 -50t-39.5 -138q0 -87 39.5 -137.5
t107.5 -50.5z" />
    <glyph glyph-name="ydieresis" unicode="&#xff;" horiz-adv-x="486" 
d="M152 587q-22 0 -37.5 15.5t-15.5 38.5t15.5 38.5t37.5 15.5q23 0 38.5 -15.5t15.5 -38.5t-15.5 -38.5t-38.5 -15.5zM334 587q-22 0 -38 15.5t-16 38.5t16 38.5t38 15.5t38 -15.5t16 -38.5t-16 -38.5t-38 -15.5zM97 -190q-8 0 -18.5 0.5t-17.5 2.5v71q7 -2 16 -2h17
q35 0 56.5 18.5t36.5 63.5l12 36l-188 508h91l141 -423h1l141 423h89l-200 -544q-16 -44 -33 -73.5t-37.5 -47.5t-46 -25.5t-60.5 -7.5z" />
    <glyph glyph-name="OE" unicode="&#x152;" horiz-adv-x="1082" 
d="M608 111q-37 -59 -99 -91t-140 -32q-76 0 -136.5 25.5t-103 72.5t-65.5 114.5t-23 151.5t23 151.5t65.5 114.5t103 72.5t136.5 25.5q79 0 140.5 -31t98.5 -90v110h427v-80h-339v-226h320v-78h-320v-242h339v-79h-427v111zM369 635q-55 0 -99 -19.5t-75 -56.5t-47.5 -89.5
t-16.5 -117.5t16.5 -117.5t47.5 -89t75 -56.5t99 -20t99 20t74.5 56.5t47 89t16.5 117.5t-16.5 117.5t-47.5 89t-75 56.5t-98 20z" />
    <glyph glyph-name="oe" unicode="&#x153;" horiz-adv-x="896" 
d="M648 -9q-62 0 -112.5 28t-77.5 73h-4q-32 -50 -78 -75.5t-111 -25.5q-54 0 -97 18.5t-74 53t-47.5 83t-16.5 108.5t16.5 108.5t47.5 83t74 53t97 18.5q65 0 111 -27t78 -79h4q26 48 74.5 77t111.5 29q51 0 92 -18t69.5 -51t44 -80t15.5 -104v-33h-364v-5q0 -36 11 -65.5
t30.5 -51t46.5 -33t60 -11.5q48 0 82 23t45 58h83q-5 -33 -23.5 -61.5t-46.5 -49t-64 -32.5t-77 -12zM777 297q-2 65 -38 105.5t-96 40.5t-98.5 -40.5t-43.5 -105.5h276zM117 254q0 -88 39 -138t109 -50t109.5 50t39.5 138q0 89 -39.5 138.5t-109.5 49.5t-109 -50t-39 -138z
" />
    <glyph glyph-name="Scaron" unicode="&#x160;" horiz-adv-x="594" 
d="M133 902h81l88 -93h3l89 93h81l-139 -145h-65zM123 194q3 -28 17.5 -51.5t38.5 -40.5t56 -26t69 -9q36 0 66 9t52 25t34.5 38t12.5 48q0 45 -32.5 73.5t-103.5 47.5l-91 23q-98 25 -142.5 69.5t-44.5 116.5q0 44 18 80.5t51 63t79 41t101 14.5q53 0 97 -15t76.5 -41.5
t51.5 -63.5t20 -81h-88q-5 57 -48 89.5t-112 32.5t-112 -32t-43 -84q0 -40 31.5 -65.5t103.5 -44.5l73 -19q55 -14 94 -32t64 -41t36.5 -53t11.5 -68q0 -48 -18.5 -87t-53 -66.5t-83 -42t-109.5 -14.5q-56 0 -103 14.5t-81 41.5t-54 65t-23 85h88z" />
    <glyph glyph-name="scaron" unicode="&#x161;" horiz-adv-x="465" 
d="M203 581l-133 147h80l84 -96h3l85 96h79l-132 -147h-66zM46 368q0 33 14 60t39 47t60 31t77 11q39 0 72.5 -11t58.5 -31t39.5 -47.5t15.5 -59.5h-81q-5 37 -33 58t-75 21t-75 -20.5t-28 -54.5q0 -52 84 -73l79 -19q77 -19 108.5 -50.5t31.5 -87.5q0 -33 -15 -60.5
t-42 -48t-64 -31.5t-82 -11q-84 0 -137 41.5t-60 109.5h85q14 -81 118 -81q52 0 81.5 20t29.5 55q0 27 -17.5 43t-60.5 28l-89 22q-134 34 -134 139z" />
    <glyph glyph-name="Ydieresis" unicode="&#x178;" horiz-adv-x="612" 
d="M215 783q-22 0 -37.5 15.5t-15.5 38.5t15.5 38.5t37.5 15.5q23 0 38.5 -15.5t15.5 -38.5t-15.5 -38.5t-38.5 -15.5zM397 783q-22 0 -38 15.5t-16 38.5t16 38.5t38 15.5t38 -15.5t16 -38.5t-16 -38.5t-38 -15.5zM262 0v303l-250 402h100l193 -317h3l192 317h100l-250 -402
v-303h-88z" />
    <glyph glyph-name="Zcaron" unicode="&#x17d;" horiz-adv-x="617" 
d="M138 902h81l88 -93h3l88 93h81l-138 -145h-65zM48 62l402 560v3h-388v80h499v-63l-400 -559v-4h408v-79h-521v62z" />
    <glyph glyph-name="zcaron" unicode="&#x17e;" horiz-adv-x="468" 
d="M201 581l-133 147h80l84 -96h3l85 96h79l-132 -147h-66zM44 61l282 376v1h-281v70h377v-62l-279 -375v-1h280v-70h-379v61z" />
    <glyph glyph-name="florin" unicode="&#x192;" horiz-adv-x="605" 
d="M587 620q-20 10 -44 15t-48 5q-57 0 -86.5 -24.5t-37.5 -78.5l-16 -110h180v-71h-190l-28 -189q-25 -179 -192 -179q-29 0 -57 6t-50 17v82q19 -12 46.5 -19.5t52.5 -7.5q54 0 81.5 25.5t35.5 85.5l26 179h-164v71h174l17 115q12 86 62 130t135 44q28 0 55.5 -5t47.5 -15
v-76z" />
    <glyph glyph-name="circumflex" unicode="&#x2c6;" horiz-adv-x="491" 
d="M411 629h-79l-85 94h-3l-84 -94h-80l133 146h65z" />
    <glyph glyph-name="tilde" unicode="&#x2dc;" horiz-adv-x="491" 
d="M310 633q-24 0 -41.5 11.5t-32 25.5t-27 25.5t-27.5 11.5q-17 0 -26.5 -17.5t-8.5 -51.5h-57q0 60 25.5 92t67.5 32q26 0 43.5 -11.5t31.5 -25.5t26 -25.5t26 -11.5q34 0 34 70h57q0 -59 -25.5 -92t-65.5 -33z" />
    <glyph glyph-name="uni0E01" unicode="&#xe01;" horiz-adv-x="599" 
d="M81 190q0 54 17.5 86.5t60.5 48.5v3h-115v28q0 65 31.5 114t87.5 75t128 26q68 0 121.5 -24t84.5 -72t31 -117v-358h-86v348q0 73 -40 110t-114 37q-70 0 -114 -30.5t-48 -85.5h130v-60q-49 -8 -69 -35t-20 -79v-205h-86v190z" />
    <glyph glyph-name="uni0E02" unicode="&#xe02;" horiz-adv-x="549" 
d="M66 187v54q0 38 13.5 68t38.5 66q19 27 27.5 44.5t8.5 34.5q0 38 -50 38q-21 0 -43 -8v75q7 3 22.5 5t34.5 2q58 0 88.5 -24.5t30.5 -75.5q0 -31 -10.5 -55.5t-32.5 -57.5q-21 -33 -32 -57.5t-11 -54.5v-55q0 -60 31 -91.5t88 -31.5q58 0 90.5 31.5t32.5 91.5v375h86
v-374q0 -63 -26.5 -108t-74 -68t-109.5 -23q-63 0 -108.5 23.5t-70 68t-24.5 107.5z" />
    <glyph glyph-name="uni0E03" unicode="&#xe03;" horiz-adv-x="563" 
d="M66 191v19q0 35 8.5 59.5t25.5 46t50 56.5q37 37 50 54.5t13 36.5q0 16 -8 24.5t-22 8.5q-18 0 -31.5 -16t-18.5 -47h-47q-3 27 -21 39.5t-40 12.5h-5v81h5q27 0 52.5 -17.5t35.5 -54.5h3q11 35 31 53.5t54 18.5q40 0 65.5 -25.5t25.5 -71.5q0 -35 -17 -63.5t-55 -66.5
q-28 -28 -41 -45t-20.5 -36.5t-7.5 -47.5v-20q0 -59 33 -93t93 -34q40 0 69.5 15.5t45 44.5t15.5 67v371h86v-370q0 -61 -26.5 -107t-75.5 -71t-115 -25q-67 0 -114 25t-71.5 71t-24.5 107z" />
    <glyph glyph-name="uni0E04" unicode="&#xe04;" horiz-adv-x="608" 
d="M71 346q0 70 29.5 120.5t82.5 77.5t121 27q69 0 122 -27t82.5 -77.5t29.5 -120.5v-346h-86v346q0 71 -39.5 110t-108.5 39t-108 -39t-39 -110v-121h3q14 43 52.5 62t86.5 19q24 0 42 -4v-76q-22 2 -38 2q-71 0 -108.5 -34t-37.5 -97v-97h-86v346z" />
    <glyph glyph-name="uni0E05" unicode="&#xe05;" horiz-adv-x="613" 
d="M71 429q0 45 18.5 76t48 46t61.5 15q30 0 52 -11t35.5 -27t18.5 -31h4q4 15 17.5 31t36 27t51.5 11q32 0 61.5 -15t48 -46t18.5 -76v-429h-85v429q0 29 -15.5 45.5t-40.5 16.5q-24 0 -39.5 -16.5t-15.5 -45.5v-33h-79v33q0 29 -15.5 45.5t-39.5 16.5q-25 0 -40 -16.5
t-15 -45.5v-204h3q14 43 52.5 62t86.5 19q24 0 42 -4v-76q-22 2 -38 2q-71 0 -108.5 -34t-37.5 -97v-97h-86v429z" />
    <glyph glyph-name="uni0E06" unicode="&#xe06;" horiz-adv-x="601" 
d="M159 79h-3v-79h-86v193q0 41 10.5 71t29.5 54.5t57 65.5q28 29 39 45.5t11 34.5q0 15 -8 23.5t-22 8.5q-19 0 -32 -16t-18 -47h-47q-3 27 -21 39.5t-40 12.5h-5v81h5q27 0 52.5 -17.5t35.5 -54.5h3q11 35 31 53.5t54 18.5q40 0 65 -25.5t25 -71.5q0 -25 -8.5 -46.5
t-22.5 -39t-39 -45.5q-21 -22 -35 -39.5t-24 -40.5t-10 -48q0 -33 21 -65t59.5 -52.5t89.5 -20.5q118 0 118 124v365h86v-365q0 -64 -22 -109t-63 -69t-99 -24q-59 0 -108.5 23.5t-78.5 61.5z" />
    <glyph glyph-name="uni0E07" unicode="&#xe07;" horiz-adv-x="573" 
d="M14 561h91l187 -484h4q35 18 67.5 51.5t54.5 84.5t22 117q0 76 -34 118t-97 42q-23 0 -44 -7v75q27 8 58 8q66 0 112 -29t69.5 -81t23.5 -122q0 -83 -29 -149.5t-74.5 -112.5t-98.5 -72h-91z" />
    <glyph glyph-name="uni0E08" unicode="&#xe08;" horiz-adv-x="570" 
d="M155 183q-9 20 -20 25.5t-31 5.5q-16 0 -31 -3v76q25 6 50 6q24 0 41.5 -6t32.5 -21t28 -42l72 -150h4q62 41 96 105.5t34 141.5q0 83 -40.5 128.5t-121.5 45.5q-57 0 -92 -22t-44 -61h-87q8 50 38 86t78 54.5t109 18.5q81 0 136 -31t83 -87.5t28 -131.5
q0 -196 -190 -321h-84z" />
    <glyph glyph-name="uni0E09" unicode="&#xe09;" horiz-adv-x="602" 
d="M90 159v30q0 14 -6 19t-17 5q-10 0 -25 -3v76q25 6 49 6q85 0 85 -72v-48q0 -100 104 -100q48 0 85.5 21t58.5 60t21 92v94q0 71 -38.5 113.5t-120.5 42.5q-59 0 -99.5 -23.5t-49.5 -64.5h-87q7 52 39 89t84 56t117 19q80 0 134 -28.5t80.5 -80t26.5 -119.5v-343h-86v93
h-3q-28 -46 -75 -72.5t-107 -26.5q-50 0 -88.5 19.5t-60 57t-21.5 88.5z" />
    <glyph glyph-name="uni0E0A" unicode="&#xe0a;" horiz-adv-x="573" 
d="M71 191v50q0 38 13.5 68t38.5 66q15 23 23 41.5t8 35.5q0 22 -13 31t-37 9q-21 0 -43 -8v75q7 3 22.5 5t34.5 2q59 0 89 -25t30 -78q0 -30 -9.5 -55.5t-28.5 -54.5q-21 -33 -32 -57.5t-11 -54.5v-51q0 -59 33.5 -93t95.5 -34q41 0 71 15.5t45.5 44.5t15.5 67v71
q0 44 -25.5 68.5t-69.5 24.5h-21v72h21q25 0 45 11.5t32 31.5t12 45v47h86v-47q0 -49 -21 -77t-62 -44v-4q42 -11 65 -44t23 -84v-70q0 -61 -27 -107t-76.5 -71t-115.5 -25t-113.5 25t-73 70.5t-25.5 107.5z" />
    <glyph glyph-name="uni0E0B" unicode="&#xe0b;" horiz-adv-x="571" 
d="M68 191v24q0 31 9.5 55.5t25 45t45.5 54.5q35 39 48 57.5t13 36.5q0 15 -8 23.5t-21 8.5q-17 0 -29.5 -16t-17.5 -47h-47q-3 27 -21 39.5t-40 12.5h-5v81h5q27 0 52 -17.5t34 -54.5h3q10 33 31 52.5t54 19.5q39 0 63.5 -25.5t24.5 -71.5q0 -26 -8.5 -47t-21.5 -38
t-39 -45q-24 -27 -37 -43t-20.5 -34.5t-7.5 -41.5v-30q0 -59 33.5 -93t95.5 -34q41 0 71 15.5t46 44.5t16 67v71q0 44 -23 68.5t-62 24.5h-4v72h4q22 0 41 11.5t30.5 31.5t11.5 45v47h86v-47q0 -48 -22.5 -76t-64.5 -45v-4q42 -11 65 -44t23 -84v-70q0 -61 -27 -107
t-76.5 -71t-115.5 -25t-114 25t-73.5 70.5t-25.5 107.5z" />
    <glyph glyph-name="uni0E0C" unicode="&#xe0c;" horiz-adv-x="928" 
d="M511 83h-3v-83h-86v348q0 73 -38.5 110t-109.5 37q-66 0 -103 -31t-41 -85h128v-60q-55 -9 -79.5 -36t-24.5 -78v-53q0 -33 8.5 -51t26.5 -25t49 -7q15 0 23 2v-71q-13 -3 -46 -3q-53 0 -85 15t-47 48.5t-15 90.5v39q0 108 85 140v3h-105v21q0 65 28 114t80 76t121 27
q65 0 117.5 -24t83 -71t30.5 -113v-128q0 -48 18 -85t50.5 -57.5t73.5 -20.5q34 0 61.5 15t43.5 46t16 77v351h86v-365q0 -63 -24.5 -108.5t-66.5 -69.5t-94 -24t-93.5 24t-67.5 65z" />
    <glyph glyph-name="uni0E0D" unicode="&#xe0d;" horiz-adv-x="930" 
d="M428 -53h89q9 -36 42 -56.5t78 -20.5q42 0 73 18t46.5 48.5t15.5 67.5v89h-2q-19 -39 -61.5 -64t-102.5 -25q-56 0 -97.5 23t-64 66t-22.5 101v154q0 73 -38.5 110t-109.5 37q-66 0 -103 -31t-41 -85h128v-60q-55 -8 -78.5 -35t-23.5 -79v-53q0 -33 8.5 -51t26 -25
t49.5 -7q15 0 23 2v-71q-13 -3 -46 -3q-53 0 -85 15t-47 48.5t-15 90.5v39q0 54 20 89t63 51v3h-105v21q0 65 28 114t80 76t121 27q65 0 117.5 -24t83 -71t30.5 -113v-164q0 -56 32.5 -86.5t85.5 -30.5q43 0 76 20t51 54.5t18 78.5v326h86v-557q0 -57 -26.5 -104.5t-76 -76
t-116.5 -28.5q-52 0 -97 18t-75 52t-38 82z" />
    <glyph glyph-name="uni0E0E" unicode="&#xe0e;" horiz-adv-x="607" 
d="M114 -194q0 40 20 72t57 50t85 18q38 0 73 -10.5t60.5 -27t37.5 -33.5h3v473q0 73 -39.5 110t-112.5 37q-69 0 -112 -30.5t-47 -85.5h130v-60q-33 -6 -50 -19.5t-23.5 -35.5t-6.5 -59v-72q0 -49 -12.5 -78.5t-43 -43.5t-86.5 -14h-10v73h12q31 0 43 12.5t12 45.5v62
q0 39 5 65t20 45t42 30v3h-114v23q0 65 31.5 114t86.5 75t126 26q67 0 120.5 -24t84 -72t30.5 -117v-558h-82q-8 15 -32 33.5t-58 31t-71 12.5q-47 0 -70.5 -20.5t-23.5 -50.5v-6h-85v6z" />
    <glyph glyph-name="uni0E0F" unicode="&#xe0f;" horiz-adv-x="607" 
d="M336 -133l-45 -67h-40l-37 65q-13 -32 -40.5 -48.5t-70.5 -16.5h-13v87h13q33 0 54 11t32 36h46l36 -59l42 59h54q8 -30 18.5 -44.5t30.5 -14.5q34 0 34 46v427q0 73 -39.5 110t-112.5 37q-69 0 -112 -30.5t-47 -85.5h130v-60q-33 -6 -50 -19.5t-23.5 -35.5t-6.5 -59v-72
q0 -49 -12.5 -78.5t-43 -43.5t-86.5 -14h-10v73h12q31 0 43 12.5t12 45.5v62q0 39 5 65t20 45t42 30v3h-114v23q0 65 31.5 114t86.5 75t126 26q67 0 120.5 -24t84 -72t30.5 -117v-443q0 -58 -27.5 -89t-73.5 -31q-39 0 -63 20t-36 52z" />
    <glyph glyph-name="uni0E10" unicode="&#xe10;" horiz-adv-x="584" 
d="M155 183q-9 20 -20 25.5t-31 5.5q-16 0 -31 -3v76q25 6 50 6q24 0 41.5 -6t32.5 -21t28 -42l72 -150h4q62 41 96 105.5t34 141.5q0 83 -40.5 128.5t-121.5 45.5q-57 0 -92 -22t-44 -61h-87q8 50 38 86t78 54.5t109 18.5q93 0 151 -43l40 51h107l-93 -105q15 -21 26 -49
q16 -46 16 -104q0 -196 -190 -321h-84zM273 -135q-13 -32 -41 -48.5t-71 -16.5h-57v87h57q34 0 55 11t32 36h56q8 -28 22 -45t38 -17q17 0 27 10t10 27v25h84v-34q0 -54 -28.5 -79t-75.5 -25q-42 0 -65.5 18t-42.5 51z" />
    <glyph glyph-name="uni0E11" unicode="&#xe11;" horiz-adv-x="608" 
d="M75 173q0 49 9 83t27.5 62.5t53.5 65.5q28 30 40 47t12 33q0 15 -8 23.5t-22 8.5q-19 0 -32 -16t-18 -47h-47q-3 27 -21 39.5t-40 12.5h-5v81h5q27 0 52.5 -17.5t35.5 -54.5h3q11 34 30 53.5t54 19.5q31 0 52 -16.5t21 -44.5q0 -8 -2 -16h3q29 42 63.5 59.5t75.5 17.5
q55 0 88 -31t33 -99v-437h-86v431q0 27 -13.5 42.5t-36.5 15.5q-21 0 -43 -13.5t-47 -38.5t-63 -68q-37 -43 -54.5 -68.5t-25.5 -53.5t-8 -71v-176h-86v173z" />
    <glyph glyph-name="uni0E12" unicode="&#xe12;" horiz-adv-x="981" 
d="M57 292q0 81 18.5 142.5t56 96t93.5 34.5q35 0 61.5 -15.5t37.5 -47.5h4q16 33 44 48t64 15q60 0 92.5 -37t32.5 -109v-184q0 -48 18 -85t50.5 -57.5t73.5 -20.5q33 0 61 15t44 46t16 77v351h86v-365q0 -63 -24.5 -108.5t-66.5 -69.5t-94 -24t-93.5 24t-68.5 65h-2v-83
h-86v417q0 37 -15.5 54.5t-40.5 17.5q-24 0 -39.5 -17.5t-15.5 -54.5v-21h-77v16q0 37 -17 57t-42 20q-41 0 -62.5 -50t-21.5 -140q0 -113 36 -172t113 -59q29 0 59 8v-72q-37 -11 -81 -11q-67 0 -115.5 34.5t-73.5 101.5t-25 163z" />
    <glyph glyph-name="uni0E13" unicode="&#xe13;" horiz-adv-x="931" 
d="M422 184v164q0 73 -38.5 110t-109.5 37q-66 0 -103 -31t-41 -85h128v-60q-55 -8 -78.5 -35t-23.5 -79v-53q0 -33 8.5 -51t26 -25t49.5 -7q15 0 23 2v-71q-13 -3 -46 -3q-53 0 -85 15t-47 48.5t-15 90.5v39q0 54 20 89t63 51v3h-105v21q0 65 28 114t80 76t121 27
q65 0 117.5 -24t83 -71t30.5 -113v-174q0 -56 32.5 -86.5t85.5 -30.5q43 0 76 20t51 54.5t18 78.5v336h86v-561h-86v83h-2q-19 -39 -62.5 -64t-104.5 -25q-56 0 -96.5 23t-62 66t-21.5 101z" />
    <glyph glyph-name="uni0E14" unicode="&#xe14;" horiz-adv-x="630" 
d="M52 278q0 90 31.5 156t92 101.5t146.5 35.5q71 0 124 -25t83 -74.5t30 -121.5v-350h-86v350q0 75 -40 110t-109 35q-92 0 -138.5 -57.5t-46.5 -161.5q0 -95 40.5 -151.5t125.5 -56.5q31 0 61 8v-72q-37 -11 -80 -11q-73 0 -125.5 35.5t-80.5 100t-28 149.5z" />
    <glyph glyph-name="uni0E15" unicode="&#xe15;" horiz-adv-x="643" 
d="M57 292q0 81 18.5 142.5t56.5 96t96 34.5q37 0 64 -15.5t38 -47.5h3q32 63 112 63q62 0 94.5 -37t32.5 -109v-419h-86v417q0 37 -15.5 54.5t-42.5 17.5t-42.5 -17.5t-15.5 -54.5v-21h-78v16q0 38 -17 57.5t-44 19.5q-44 0 -65.5 -49.5t-21.5 -140.5q0 -114 37 -172.5
t118 -58.5q29 0 59 8v-72q-37 -11 -81 -11q-70 0 -119.5 34.5t-75 101.5t-25.5 163z" />
    <glyph glyph-name="uni0E16" unicode="&#xe16;" horiz-adv-x="593" 
d="M68 151v39q0 54 21 88t64 47v3h-105v26q0 65 29 114.5t83 76t125 26.5q68 0 121.5 -24t84.5 -72t31 -117v-358h-85v348q0 73 -40.5 110t-114.5 37q-69 0 -108.5 -30t-43.5 -86h128v-60q-55 -9 -79.5 -36t-24.5 -78v-53q0 -33 8.5 -51t26.5 -25t49 -7q15 0 23 2v-71
q-13 -3 -46 -3q-53 0 -85 15t-47 48.5t-15 90.5z" />
    <glyph glyph-name="uni0E17" unicode="&#xe17;" horiz-adv-x="606" 
d="M74 561h86v-93h3q28 48 70.5 73.5t102.5 25.5q59 0 104 -23.5t70.5 -69.5t25.5 -109v-365h-86v351q0 70 -36.5 104t-98.5 34q-47 0 -82 -21t-54 -59.5t-19 -92.5v-316h-86v561z" />
    <glyph glyph-name="uni0E18" unicode="&#xe18;" horiz-adv-x="560" 
d="M68 171v88h85v-88q0 -56 40 -81.5t109 -25.5q68 0 101.5 24.5t33.5 76.5v40q0 30 -18.5 47t-61.5 27l-301 72v59q0 74 40.5 112.5t119.5 38.5h284v-76h-281q-40 0 -58 -16.5t-18 -51.5v-10l245 -56q69 -17 101 -53t32 -94v-35q0 -181 -220 -181q-108 0 -170.5 44
t-62.5 139z" />
    <glyph glyph-name="uni0E19" unicode="&#xe19;" horiz-adv-x="604" 
d="M71 193v368h86v-355q0 -69 35 -101.5t92 -32.5q47 0 83.5 21t57 60t20.5 92v316h86v-561h-83v93h-3q-29 -49 -73 -74t-105 -25q-60 0 -104 23.5t-68 68t-24 107.5z" />
    <glyph glyph-name="uni0E1A" unicode="&#xe1a;" horiz-adv-x="601" 
d="M71 200v361h86v-361q0 -42 18 -72.5t50.5 -47t74.5 -16.5q41 0 74 16.5t51.5 47.5t18.5 72v361h86v-361q0 -65 -30 -112.5t-82.5 -73.5t-117.5 -26q-67 0 -119 26t-81 73.5t-29 112.5z" />
    <glyph glyph-name="uni0E1B" unicode="&#xe1b;" horiz-adv-x="606" 
d="M71 200v361h86v-361q0 -42 18.5 -73t51.5 -47t76 -16q42 0 75 16.5t52 47t19 72.5v551h86v-551q0 -65 -30 -113t-83 -73.5t-119 -25.5q-68 0 -120.5 26t-82 73.5t-29.5 112.5z" />
    <glyph glyph-name="uni0E1C" unicode="&#xe1c;" horiz-adv-x="729" 
d="M573 158v403h85v-407q0 -78 -39.5 -122t-110.5 -44q-105 0 -149 96h-2q-44 -96 -149 -96q-71 0 -110.5 44t-39.5 122v258q0 79 33 116.5t115 37.5q24 0 37 -3v-71q-8 2 -22 2q-29 0 -45.5 -7.5t-24.5 -25t-8 -50.5v-253q0 -45 22.5 -70t63.5 -25q42 0 64.5 25t22.5 70
v303h84v-303q0 -45 22.5 -70t64.5 -25q41 0 63.5 25t22.5 70z" />
    <glyph glyph-name="uni0E1D" unicode="&#xe1d;" horiz-adv-x="729" 
d="M573 158v547h85v-551q0 -78 -39.5 -122t-110.5 -44q-105 0 -149 96h-2q-44 -96 -149 -96q-71 0 -110.5 44t-39.5 122v258q0 79 33 116.5t115 37.5q24 0 37 -3v-71q-8 2 -22 2q-29 0 -45.5 -7.5t-24.5 -25t-8 -50.5v-253q0 -45 22.5 -70t63.5 -25q42 0 64.5 25t22.5 70
v303h84v-303q0 -45 22.5 -70t64.5 -25q41 0 63.5 25t22.5 70z" />
    <glyph glyph-name="uni0E1E" unicode="&#xe1e;" horiz-adv-x="808" 
d="M532 0l-127 434h-2l-127 -434h-95l-157 561h93l113 -436h2l126 436h91l127 -436h3l112 436h93l-157 -561h-95z" />
    <glyph glyph-name="uni0E1F" unicode="&#xe1f;" horiz-adv-x="808" 
d="M627 0h-95l-127 434h-2l-127 -434h-95l-157 561h93l113 -436h2l126 436h91l127 -436h3l161 626h93z" />
    <glyph glyph-name="uni0E20" unicode="&#xe20;" horiz-adv-x="607" 
d="M37 -3v73h12q31 0 43 12.5t12 45.5v62q0 39 5 65t20 44t42 26v3h-114v28q0 65 31.5 114t86.5 75t126 26q67 0 120.5 -24t84 -72t30.5 -117v-358h-86v348q0 73 -39.5 110t-112.5 37q-69 0 -112 -30.5t-47 -85.5h130v-60q-33 -6 -50 -19.5t-23.5 -35.5t-6.5 -59v-72
q0 -49 -12.5 -78.5t-43 -43.5t-86.5 -14h-10z" />
    <glyph glyph-name="uni0E21" unicode="&#xe21;" horiz-adv-x="604" 
d="M160 93h-3v-93h-83v561h86v-316q0 -53 20.5 -92t57 -60t83.5 -21q56 0 91.5 32.5t35.5 101.5v355h86v-368q0 -63 -24 -107.5t-68.5 -68t-103.5 -23.5q-61 0 -105 25t-73 74z" />
    <glyph glyph-name="uni0E22" unicode="&#xe22;" horiz-adv-x="583" 
d="M49 152q0 53 29.5 90t80.5 52v3q-43 10 -69 45t-26 83q0 40 18.5 71t51.5 48t75 17h113v-75h-96q-37 0 -59 -21t-22 -55q0 -36 23.5 -56.5t58.5 -20.5h95v-74h-82q-45 0 -71 -25t-26 -65q0 -28 13 -49.5t35.5 -32.5t50.5 -11h182v485h86v-561h-300q-44 0 -81 19t-58.5 54
t-21.5 79z" />
    <glyph glyph-name="uni0E23" unicode="&#xe23;" horiz-adv-x="523" 
d="M42 155h89q11 -46 47.5 -69t95.5 -23q57 0 88.5 21t31.5 62q0 33 -24 52.5t-81 35.5l-73 19q-84 23 -122 61t-38 97q0 53 27 89t72.5 53.5t102.5 17.5q59 0 107 -19t75.5 -55t29.5 -85h-90q-2 39 -35 61.5t-90 22.5q-51 0 -82 -19.5t-31 -59.5q0 -26 14 -44t39 -29
t65 -22l71 -19q74 -21 111.5 -56.5t37.5 -98.5q0 -50 -24.5 -86.5t-70.5 -55t-109 -18.5q-66 0 -116.5 19.5t-81 57t-36.5 90.5z" />
    <glyph glyph-name="uni0E24" unicode="&#xe24;" horiz-adv-x="593" 
d="M437 348q0 73 -40.5 110t-114.5 37q-69 0 -108.5 -30t-43.5 -86h128v-60q-55 -8 -78.5 -35t-23.5 -79v-53q0 -33 8.5 -51t26 -25t49.5 -7q15 0 23 2v-71q-13 -3 -46 -3q-53 0 -85 15t-47 48.5t-15 90.5v39q0 54 20 89t63 51v3h-105v21q0 65 29 114.5t83 76t125 26.5
q68 0 121.5 -24t84.5 -72t31 -117v-558h-85v548z" />
    <glyph glyph-name="uni0E25" unicode="&#xe25;" horiz-adv-x="584" 
d="M50 151q0 69 43 111t134 50l200 17v53q0 55 -35.5 84t-97.5 29q-61 0 -99 -27t-43 -76h-87q2 56 32 96.5t81 61.5t116 21q64 0 113.5 -21t77.5 -62.5t28 -102.5v-385h-86v255l-184 -15q-47 -4 -76.5 -25.5t-29.5 -63.5q0 -39 27 -61t81 -22q35 0 67 10v-71
q-43 -14 -87 -14q-49 0 -88.5 17t-63 53t-23.5 88z" />
    <glyph glyph-name="uni0E26" unicode="&#xe26;" horiz-adv-x="607" 
d="M450 348q0 73 -39.5 110t-112.5 37q-69 0 -112 -30.5t-47 -85.5h130v-60q-33 -6 -50 -19.5t-23.5 -35.5t-6.5 -59v-72q0 -49 -12.5 -78.5t-43 -43.5t-86.5 -14h-10v73h12q31 0 43 12.5t12 45.5v62q0 39 5 65t20 45t42 30v3h-114v23q0 65 31.5 114t86.5 75t126 26
q67 0 120.5 -24t84 -72t30.5 -117v-558h-86v548z" />
    <glyph glyph-name="uni0E27" unicode="&#xe27;" horiz-adv-x="570" 
d="M51 154h84q12 -43 47 -67t88 -24q79 0 120 57.5t41 158.5q0 67 -18.5 116t-54.5 75t-87 26q-56 0 -94.5 -28.5t-48.5 -81.5h-82q9 56 38.5 97.5t77 64.5t110.5 23q75 0 130.5 -35.5t85.5 -100.5t30 -154q0 -87 -28.5 -153t-84 -103t-133.5 -37q-59 0 -105 20.5t-75.5 58
t-40.5 87.5z" />
    <glyph glyph-name="uni0E28" unicode="&#xe28;" horiz-adv-x="615" 
d="M71 346q0 70 29.5 120.5t82 77.5t119.5 27q54 0 97 -18q29 -12 52 -33l49 59h106l-102 -115q10 -14 17 -29q17 -40 17 -89v-346h-86v346q0 71 -39.5 110t-108.5 39t-108 -39t-39 -110v-121h3q14 43 52.5 62t86.5 19q24 0 42 -4v-76q-22 2 -38 2q-71 0 -108.5 -34
t-37.5 -97v-97h-86v346z" />
    <glyph glyph-name="uni0E29" unicode="&#xe29;" horiz-adv-x="625" 
d="M71 205v356h86v-356q0 -43 18 -74.5t51.5 -49t77.5 -17.5t78 17.5t53 49.5t19 74v80h-145v75h145v201h86v-201h67v-75h-67v-80q0 -65 -30.5 -114t-84 -76t-121.5 -27q-69 0 -121.5 27t-82 76t-29.5 114z" />
    <glyph glyph-name="uni0E2A" unicode="&#xe2a;" horiz-adv-x="584" 
d="M50 151q0 69 43 111t134 50l200 17v53q0 55 -35.5 84t-97.5 29q-61 0 -99 -27t-43 -76h-87q2 56 32 96.5t81 61.5t116 21q92 0 140 -42l41 50h107l-93 -105q5 -7 9 -16q15 -32 15 -73v-385h-86v255l-184 -15q-47 -4 -76.5 -25.5t-29.5 -63.5q0 -39 27 -61t81 -22
q35 0 67 10v-71q-43 -14 -87 -14q-49 0 -88.5 17t-63 53t-23.5 88z" />
    <glyph glyph-name="uni0E2B" unicode="&#xe2b;" horiz-adv-x="589" 
d="M74 561h86v-185h139q68 0 101.5 36t33.5 110v39h86v-39q0 -76 -28 -119t-87 -56v-2q43 -7 68.5 -26.5t36 -51t10.5 -77.5v-190h-86v179q0 43 -12 69.5t-39 39t-72 12.5h-151v-300h-86v561z" />
    <glyph glyph-name="uni0E2C" unicode="&#xe2c;" horiz-adv-x="756" 
d="M573 158v300q0 45 -20.5 68.5t-65.5 23.5h-21v68h52q32 0 52 5t34.5 24.5t18.5 57.5h85q-8 -67 -47 -99q-32 -27 -76 -32q18 -6 31 -14q23 -17 32.5 -41.5t9.5 -60.5v-304q0 -78 -40 -122t-111 -44q-104 0 -148 96h-2q-44 -96 -148 -96q-71 0 -111 44t-40 122v407h85
v-403q0 -45 22.5 -70t64.5 -25q41 0 63.5 25t22.5 70v303h84v-303q0 -45 22.5 -70t63.5 -25q42 0 64.5 25t22.5 70z" />
    <glyph glyph-name="uni0E2D" unicode="&#xe2d;" horiz-adv-x="613" 
d="M54 248v58h220v-71h-133v-6q0 -51 20.5 -88t56.5 -57t85 -20q83 0 127 57t44 158q0 68 -20 116t-58.5 74t-93.5 26q-58 0 -100.5 -28.5t-52.5 -80.5h-87q11 59 45 101t84.5 63t110.5 21q79 0 137.5 -35.5t90 -101t31.5 -155.5q0 -86 -30 -152t-88 -102.5t-140 -36.5
q-75 0 -131.5 31t-87 89.5t-30.5 139.5z" />
    <glyph glyph-name="uni0E2E" unicode="&#xe2e;" horiz-adv-x="613" 
d="M54 248v58h220v-71h-133v-6q0 -51 20.5 -88t56.5 -57t85 -20q83 0 127 57t44 158q0 68 -20 116t-58.5 74t-93.5 26q-58 0 -100.5 -28.5t-52.5 -80.5h-87q11 59 45 101t84.5 63t110.5 21q89 0 149 -46l44 54h107l-95 -107q17 -25 30 -55q24 -60 24 -138q0 -86 -30 -152
t-88 -102.5t-140 -36.5q-75 0 -131.5 31t-87 89.5t-30.5 139.5z" />
    <glyph glyph-name="uni0E2F" unicode="&#xe2f;" horiz-adv-x="556" 
d="M396 316h-2q-10 -22 -31 -41t-54 -31t-76 -12q-56 0 -99.5 20.5t-67.5 60t-24 91.5q0 54 25 91t66.5 54.5t90.5 17.5q34 0 55 -5v-73q-18 4 -41 4q-49 0 -79.5 -23.5t-30.5 -68.5q0 -43 30 -70t85 -27q46 0 80.5 21t53.5 61.5t19 99.5v75h86v-561h-86v316z" />
    <glyph glyph-name="uni0E30" unicode="&#xe30;" horiz-adv-x="311" 
d="M42 445v24h84v-19q0 -24 10.5 -32.5t33.5 -8.5h109v-72h-117q-61 0 -90.5 24.5t-29.5 83.5zM42 149v24h84v-19q0 -24 10.5 -32.5t33.5 -8.5h109v-71h-117q-61 0 -90.5 24t-29.5 83z" />
    <glyph glyph-name="uni0E31" unicode="&#xe31;" 
d="M-315 743v29h85v-24q0 -25 11 -35.5t32 -10.5h242v-71h-249q-60 0 -90.5 26.5t-30.5 85.5z" />
    <glyph glyph-name="uni0E32" unicode="&#xe32;" horiz-adv-x="512" 
d="M352 382q0 58 -32.5 85.5t-86.5 27.5q-56 0 -89 -27t-36 -76h-89q3 55 31 95.5t75 62t108 21.5q60 0 106.5 -21.5t72 -64t25.5 -103.5v-382h-85v382z" />
    <glyph glyph-name="uni0E33" unicode="&#xe33;" horiz-adv-x="512" 
d="M-173 707q0 28 14 50.5t38.5 35t54.5 12.5q29 0 53.5 -12.5t38.5 -35t14 -50.5t-14 -50.5t-38.5 -35t-53.5 -12.5q-30 0 -54.5 12.5t-38.5 35t-14 50.5zM-28 707q0 17 -11 28.5t-27 11.5q-17 0 -28 -11.5t-11 -28.5t11 -28.5t28 -11.5q16 0 27 11.5t11 28.5zM376 382
q0 58 -32 85.5t-87 27.5t-88 -27t-37 -76h-89q4 55 32 95.5t75 62t107 21.5q61 0 107 -21.5t72 -64t26 -103.5v-382h-86v382z" />
    <glyph glyph-name="uni0E34" unicode="&#xe34;" 
d="M-505 702h434v-71h-434v71z" />
    <glyph glyph-name="uni0E35" unicode="&#xe35;" 
d="M-505 702h348v70h86v-141h-434v71z" />
    <glyph glyph-name="uni0E36" unicode="&#xe36;" 
d="M-505 702h273v5q0 23 11.5 42t31.5 29.5t45 10.5q41 0 66.5 -22t25.5 -58q0 -35 -26 -56.5t-66 -21.5h-361v71zM-106 708q0 17 -10.5 27.5t-27.5 10.5t-27.5 -10.5t-10.5 -27.5q0 -16 10.5 -26t27.5 -10t27.5 10t10.5 26z" />
    <glyph glyph-name="uni0E37" unicode="&#xe37;" 
d="M-505 702h212v70h85v-70h51v70h86v-141h-434v71z" />
    <glyph glyph-name="uni0E38" unicode="&#xe38;" 
d="M-152 -142q0 9 -8 13t-19 4q-12 0 -21 -2v61q21 6 49 6q37 0 58.5 -15t21.5 -43v-146h-81v122z" />
    <glyph glyph-name="uni0E39" unicode="&#xe39;" 
d="M-330 -161v19q0 9 -8 13t-19 4q-12 0 -20 -2v61q21 6 48 6q39 0 59 -11t20 -37v-48q0 -20 12 -32t35 -12q24 0 36 12t12 32v92h84v-96q0 -50 -33.5 -77.5t-96.5 -27.5q-64 0 -96.5 28.5t-32.5 75.5z" />
    <glyph glyph-name="uni0E3A" unicode="&#xe3a;" 
d="M-178 -127q0 18 8.5 32.5t23.5 22.5t32 8t31.5 -8t23.5 -22.5t9 -32.5t-9 -32.5t-23.5 -22.5t-31.5 -8t-32 8t-23.5 22.5t-8.5 32.5z" />
    <glyph glyph-name="uni0E3F" unicode="&#xe3f;" horiz-adv-x="605" 
d="M387 369q72 -9 114.5 -55t42.5 -116q0 -94 -62.5 -146t-175.5 -52h-3v-67h-66v67h-176v705h176v76h66v-76q97 -1 151.5 -48t54.5 -128q0 -27 -9.5 -52.5t-26 -46t-38.5 -34.5t-48 -19v-8zM148 401h89v226h-89v-226zM303 403q117 15 117 111q0 50 -30.5 78.5t-86.5 33.5
v-223zM303 78q151 5 151 124q0 115 -151 123v-247zM237 78v247h-89v-247h89z" />
    <glyph glyph-name="uni0E40" unicode="&#xe40;" horiz-adv-x="300" 
d="M83 133v428h86v-428q0 -26 5.5 -39t17 -18.5t33.5 -5.5q13 0 26 1v-71q-5 -1 -13.5 -2t-11.5 -1q-57 0 -87.5 13t-43 42t-12.5 81z" />
    <glyph glyph-name="uni0E41" unicode="&#xe41;" horiz-adv-x="544" 
d="M108 133v428h86v-428q0 -26 5 -39t17 -18.5t33 -5.5q13 0 26 1v-71q-4 -1 -13 -2t-12 -1q-56 0 -86.5 13t-43 42t-12.5 81zM352 133v428h86v-428q0 -26 5 -39t17 -18.5t33 -5.5q13 0 27 1v-71q-5 -1 -13.5 -2t-12.5 -1q-56 0 -86.5 13t-43 42t-12.5 81z" />
    <glyph glyph-name="uni0E42" unicode="&#xe42;" horiz-adv-x="345" 
d="M126 133v479q0 66 -16.5 100t-43.5 46.5t-76 20.5v35q0 47 31 75t100 28h251v-74h-256q-21 0 -30.5 -5t-9.5 -16q66 -19 101 -68.5t35 -141.5v-479q0 -26 5 -39t17 -18.5t33 -5.5q13 0 26 1v-71q-4 -1 -13 -2t-12 -1q-56 0 -86.5 13t-43 42t-12.5 81z" />
    <glyph glyph-name="uni0E43" unicode="&#xe43;" horiz-adv-x="358" 
d="M139 133v412q0 34 10 62t24 48t35 45q25 29 37 48.5t12 42.5q0 33 -25.5 50t-69.5 17q-49 0 -72 -20.5t-24 -55.5h-83q0 45 22.5 78.5t63 51.5t97.5 18q51 0 90.5 -15.5t62 -45.5t22.5 -72q0 -25 -7.5 -45.5t-19 -38t-31.5 -42.5q-29 -36 -43.5 -64.5t-14.5 -64.5v-409
q0 -26 5 -39t16.5 -18.5t33.5 -5.5q13 0 26 1v-71q-5 -1 -13.5 -2t-11.5 -1q-56 0 -86.5 13t-43 42t-12.5 81z" />
    <glyph glyph-name="uni0E44" unicode="&#xe44;" horiz-adv-x="361" 
d="M142 133v467q0 91 29 150t90 89v4h-229l27 74h319v-60q-150 -57 -150 -257v-467q0 -26 5 -39t17 -18.5t33 -5.5q13 0 27 1v-71q-5 -1 -13.5 -2t-12.5 -1q-56 0 -86.5 13t-43 42t-12.5 81z" />
    <glyph glyph-name="uni0E45" unicode="&#xe45;" horiz-adv-x="512" 
d="M352 382q0 58 -32.5 85.5t-86.5 27.5q-56 0 -89 -27t-36 -76h-89q3 55 31 95.5t75 62t108 21.5q60 0 106.5 -21.5t72 -64t25.5 -103.5v-582h-85v582z" />
    <glyph glyph-name="uni0E46" unicode="&#xe46;" horiz-adv-x="655" 
d="M430 407q0 44 -14 64.5t-41 20.5q-28 0 -42.5 -19t-14.5 -58v-29h-66v29q0 39 -13.5 58t-38.5 19q-31 0 -47 -25.5t-16 -66.5q0 -43 21.5 -69t59.5 -26q15 0 29 2v-72q-20 -6 -46 -6q-46 0 -79.5 21.5t-51.5 61t-18 93.5q0 49 15.5 86.5t46 58.5t73.5 21q74 0 97 -67h3
q24 67 103 67q126 0 126 -164v-607h-86v607z" />
    <glyph glyph-name="uni0E47" unicode="&#xe47;" 
d="M-279 683l-38 -56h-15q-34 0 -60 12.5t-41 37t-15 56.5t14.5 57t40.5 39t61 14h227v-62h-221q-22 0 -35 -14t-13 -35q0 -19 11 -30.5t29 -12.5l35 46h45q7 -23 16 -34.5t26 -11.5q15 0 21.5 9.5t6.5 25.5v11h72v-11q0 -48 -23 -73.5t-62 -25.5q-32 0 -52.5 16t-29.5 42z
" />
    <glyph glyph-name="uni0E48" unicode="&#xe48;" 
d="M-157 1014h86v-171h-86v171z" />
    <glyph glyph-name="uni0E49" unicode="&#xe49;" 
d="M-225 897q0 21 -7 28.5t-29 7.5h-25v69h77q31 0 47 -16.5t16 -46.5v-27h163v-69h-242v54z" />
    <glyph glyph-name="uni0E4A" unicode="&#xe4a;" 
d="M-318 910q0 39 22.5 61.5t62.5 22.5q33 0 54 -14.5t24 -40.5h3q4 26 25 40.5t53 14.5q37 0 58 -20.5t21 -52.5v-9h84v-69h-155v46q0 17 -8 26.5t-22 9.5q-13 0 -21 -9.5t-8 -26.5v-15h-56v15q0 17 -8 26.5t-21 9.5t-21 -9.5t-8 -26.5v-46h-79v67z" />
    <glyph glyph-name="uni0E4B" unicode="&#xe4b;" 
d="M-152 903h-80v62h80v60h81v-60h81v-62h-81v-60h-81v60z" />
    <glyph glyph-name="uni0E4C" unicode="&#xe4c;" 
d="M-240 858q0 61 32 92.5t94 31.5h111v-73h-98q-26 0 -39.5 -13.5t-13.5 -39.5v-13h-86v15z" />
    <glyph glyph-name="uni0E4D" unicode="&#xe4d;" 
d="M-217 707q0 28 14.5 50.5t38.5 35t54 12.5q29 0 53.5 -12.5t38.5 -35t14 -50.5t-14 -50.5t-38.5 -35t-53.5 -12.5q-30 0 -54 12.5t-38.5 35t-14.5 50.5zM-72 707q0 17 -11 28.5t-27 11.5q-17 0 -28 -11.5t-11 -28.5t11 -28.5t28 -11.5q16 0 27 11.5t11 28.5z" />
    <glyph glyph-name="uni0E4E" unicode="&#xe4e;" 
d="M-250 694q0 32 20 50.5t53 18.5h16q-8 6 -13 15t-5 21q0 17 11.5 28t32.5 11h91v-43h-49q-11 0 -16.5 -5.5t-5.5 -15.5t6 -17t17 -9v-30h-67q-30 0 -30 -22q0 -28 44 -28q18 0 31 5v-44q-21 -6 -44 -6q-41 0 -66.5 17.5t-25.5 53.5z" />
    <glyph glyph-name="uni0E4F" unicode="&#xe4f;" horiz-adv-x="640" 
d="M95 239q0 63 30 114t81 81t114 30q62 0 113.5 -30t81 -81t29.5 -114q0 -62 -29.5 -113.5t-81 -81t-113.5 -29.5q-63 0 -114 29.5t-81 81t-30 113.5zM493 239q0 48 -23 87.5t-62.5 62.5t-87.5 23t-87.5 -23t-62.5 -62.5t-23 -87.5t23 -87.5t62.5 -62.5t87.5 -23t87.5 23
t62.5 62.5t23 87.5zM195 239q0 35 16.5 63.5t45 45t63.5 16.5q34 0 63 -16.5t45.5 -45t16.5 -63.5q0 -34 -16.5 -63t-45.5 -45.5t-63 -16.5q-35 0 -63.5 16.5t-45 45.5t-16.5 63zM400 239q0 22 -11 40.5t-29 29t-40 10.5t-40.5 -10.5t-29 -29t-10.5 -40.5t10.5 -40t29 -29
t40.5 -11t40 11t29 29t11 40z" />
    <glyph glyph-name="uni0E50" unicode="&#xe50;" horiz-adv-x="612" 
d="M61 246q0 76 31.5 134t87.5 90t126 32t126 -32t87.5 -90t31.5 -134t-31.5 -134t-87.5 -90t-126 -32t-126 32t-87.5 90t-31.5 134zM465 246q0 58 -20.5 98.5t-56.5 61t-82 20.5q-45 0 -81.5 -20.5t-57 -61t-20.5 -98.5t20.5 -98.5t57 -61t81.5 -20.5q46 0 82 20.5t56.5 61
t20.5 98.5z" />
    <glyph glyph-name="uni0E51" unicode="&#xe51;" horiz-adv-x="595" 
d="M205 54q243 5 243 203q0 82 -40 125t-113 43q-43 0 -75.5 -14.5t-50.5 -42t-18 -64.5q0 -32 13.5 -58.5t40 -42t62.5 -15.5q12 0 24 1v-74q-19 -3 -36 -3q-52 0 -95.5 23t-68.5 66t-25 100q0 59 28.5 104.5t80.5 70.5t121 25q73 0 126.5 -27.5t82.5 -82t29 -131.5
q0 -88 -38.5 -151t-112.5 -96.5t-178 -36.5v78z" />
    <glyph glyph-name="uni0E52" unicode="&#xe52;" horiz-adv-x="693" 
d="M76 217v414h86v-402q0 -78 44 -120.5t148 -42.5t146.5 42t42.5 121v138q0 61 -44 61q-22 0 -32.5 -14.5t-10.5 -38.5v-19h-66v19q0 24 -11 38.5t-30 14.5q-23 0 -34.5 -21.5t-11.5 -56.5q0 -47 22.5 -68t65.5 -21q16 0 26 2v-71q-19 -3 -44 -3q-71 0 -111 41.5t-40 121.5
q0 68 29.5 109t86.5 41q34 0 56 -15.5t30 -44.5h3q18 60 90 60q55 0 83.5 -32.5t28.5 -94.5v-158q0 -108 -69 -167.5t-208 -59.5q-137 0 -206.5 59t-69.5 168z" />
    <glyph glyph-name="uni0E53" unicode="&#xe53;" horiz-adv-x="663" 
d="M66 258q0 125 39 184.5t115 59.5q49 0 76.5 -22t36.5 -56h3q11 34 42.5 55.5t76.5 21.5q41 0 72 -17.5t48 -49.5t17 -75v-359h-86v349q0 37 -16.5 57.5t-48.5 20.5t-48.5 -21t-16.5 -62v-174h-82v174q0 83 -67 83q-27 0 -43.5 -15.5t-24 -52t-7.5 -102.5
q0 -64 8.5 -104.5t31.5 -62t65 -21.5q24 0 46 4v-71q-29 -7 -60 -7q-93 0 -135 68t-42 195z" />
    <glyph glyph-name="uni0E54" unicode="&#xe54;" horiz-adv-x="599" 
d="M66 245q0 131 67 191.5t201 60.5h57q41 0 58.5 16.5t17.5 55.5v62h85v-68q0 -72 -36.5 -106.5t-113.5 -34.5h-63q-65 0 -105.5 -16t-60.5 -55t-20 -106q0 -58 15 -95.5t49 -56.5t92 -19h80v3q-20 18 -30.5 46t-10.5 61q0 68 36.5 101t94.5 33q10 0 21 -1t15 -2v-73
q-9 1 -18 1q-29 0 -47.5 -15.5t-18.5 -53.5q0 -50 24 -75t70 -25h28v-74h-234q-91 0 -147 28t-81 82t-25 135z" />
    <glyph glyph-name="uni0E55" unicode="&#xe55;" horiz-adv-x="599" 
d="M66 245q0 96 36 154t107 81v1q-23 22 -23 57q0 26 13 47t36 33t51 12q27 0 50 -12t36.5 -33t13.5 -47q0 -21 -13 -38v-3h18q41 0 58.5 16.5t17.5 55.5v62h85v-68q0 -72 -36.5 -106.5t-113.5 -34.5h-63q-65 0 -105.5 -16t-60.5 -55t-20 -106q0 -58 15 -95.5t49 -56.5
t92 -19h80v3q-20 18 -30.5 46t-10.5 61q0 68 36.5 101t94.5 33q10 0 21 -1t15 -2v-73q-9 1 -18 1q-29 0 -47.5 -15.5t-18.5 -53.5q0 -50 24 -75t70 -25h28v-74h-234q-91 0 -147 28t-81 82t-25 135zM327 538q0 18 -12 30.5t-29 12.5q-18 0 -30 -12.5t-12 -30.5t12 -30.5
t30 -12.5q17 0 29 12.5t12 30.5z" />
    <glyph glyph-name="uni0E56" unicode="&#xe56;" horiz-adv-x="603" 
d="M80 206v19h159v-70h-68q2 -22 17.5 -42.5t43 -34t66.5 -13.5q49 0 84.5 23t54.5 65t19 97q0 56 -19.5 95.5t-55 60t-83.5 20.5q-54 0 -92.5 -25t-56.5 -68h-64l-58 298h84l35 -194h2q25 32 64.5 48.5t90.5 16.5q71 0 125 -31t84 -87.5t30 -132.5q0 -74 -30 -133.5
t-84.5 -93.5t-127.5 -34q-65 0 -115 27t-77.5 76t-27.5 113z" />
    <glyph glyph-name="uni0E57" unicode="&#xe57;" horiz-adv-x="817" 
d="M66 258q0 244 149 244q46 0 73 -22t36 -56h3q10 34 40.5 55.5t72.5 21.5q39 0 68.5 -17.5t46.5 -49.5t17 -75v-287h6q30 0 48 9.5t26.5 33t8.5 64.5v452h86v-447q0 -184 -169 -184h-91v349q0 36 -16 57t-45 21t-45 -21.5t-16 -61.5v-155h-80v155q0 41 -16.5 62t-45.5 21
q-25 0 -40.5 -15.5t-23 -52.5t-7.5 -102q0 -64 8.5 -104.5t31.5 -62t65 -21.5q24 0 46 4v-71q-29 -7 -60 -7q-93 0 -135 68t-42 195z" />
    <glyph glyph-name="uni0E58" unicode="&#xe58;" horiz-adv-x="647" 
d="M332 125h-3l-62 -126h-26q-53 0 -92.5 26.5t-61 79.5t-21.5 128q0 129 65 196.5t188 67.5h80q45 0 66 19.5t21 61.5v53h82v-53q0 -80 -40 -118.5t-124 -38.5h-85q-81 0 -124 -48.5t-43 -143.5q0 -67 20.5 -106.5t54.5 -46.5l68 128h86q5 -61 23.5 -95.5t51.5 -34.5
q27 0 41.5 17t14.5 51v55h-56v72h140v-124q0 -73 -34 -111.5t-96 -38.5q-37 0 -65 17t-46 46t-23 67z" />
    <glyph glyph-name="uni0E59" unicode="&#xe59;" horiz-adv-x="598" 
d="M66 257q0 132 42.5 191t126.5 59q40 0 68 -14t45 -47h3q3 31 18.5 44.5t49.5 19.5q26 5 40 10t22.5 16t8.5 32v63h86v-59q0 -43 -13.5 -67t-36.5 -35.5t-64 -22.5q-23 -6 -34 -11t-18 -15t-7 -28q0 -14 4 -28.5t12 -34.5l129 -330h-92l-144 365q-26 69 -79 69
q-40 0 -60.5 -41.5t-20.5 -136.5q0 -70 12 -110.5t37.5 -57.5t68.5 -17q22 0 42 3v-72q-22 -5 -55 -5q-63 0 -105 25t-64 82.5t-22 152.5z" />
    <glyph glyph-name="uni0E5A" unicode="&#xe5a;" horiz-adv-x="735" 
d="M421 316h-3q-9 -22 -30 -41t-54.5 -31t-76.5 -12q-55 0 -98.5 20.5t-68 60t-24.5 91.5q0 54 25 91t66.5 54.5t90.5 17.5q34 0 56 -5v-73q-19 4 -42 4q-48 0 -78.5 -23.5t-30.5 -68.5q0 -43 29.5 -70t84.5 -27q46 0 81 21t54 61.5t19 99.5v75h86v-561h-86v316zM575 561h86
v-561h-86v561z" />
    <glyph glyph-name="uni0E5B" unicode="&#xe5b;" horiz-adv-x="1246" 
d="M90 285q0 70 29 124.5t80.5 85t118.5 30.5q60 0 106 -25.5t71 -72t25 -107.5h-86q0 40 -14 69.5t-40 46t-60 16.5q-41 0 -73.5 -21.5t-51 -60t-18.5 -86.5q0 -55 24 -97t66 -65.5t97 -23.5q77 0 131 46t82 124.5t32 175.5h71l63 -223h3l49 199h62l56 -192h3l42 168h57
q9 -90 38.5 -133t81.5 -43q19 0 42 6v-61q-21 -7 -48 -7q-54 0 -92.5 30.5t-49.5 84.5h-3l-41 -170h-55l-61 216h-2l-53 -233h-60l-58 217h-3q-11 -85 -50 -148t-101.5 -97t-141.5 -34q-78 0 -139 33t-95 92t-34 136z" />
    <glyph glyph-name="endash" unicode="&#x2013;" horiz-adv-x="500" 
d="M0 246v79h500v-79h-500z" />
    <glyph glyph-name="emdash" unicode="&#x2014;" horiz-adv-x="1000" 
d="M0 246v79h1000v-79h-1000z" />
    <glyph glyph-name="quoteleft" unicode="&#x2018;" horiz-adv-x="263" 
d="M200 705l-47 -249h-91l67 249h71z" />
    <glyph glyph-name="quoteright" unicode="&#x2019;" horiz-adv-x="263" 
d="M62 456l48 249h90l-67 -249h-71z" />
    <glyph glyph-name="quotesinglbase" unicode="&#x201a;" horiz-adv-x="278" 
d="M194 -3q0 -41 -12.5 -73.5t-37 -51.5t-60.5 -19v50q28 0 43 25.5t15 71.5h-59v111h111v-114z" />
    <glyph glyph-name="quotedblbase" unicode="&#x201e;" horiz-adv-x="426" 
d="M177 1q0 -67 -29 -107.5t-81 -40.5v50q28 0 43 26t15 71h-59v111h111v-110zM360 1q0 -67 -28.5 -107.5t-81.5 -40.5v50q28 0 43 25.5t15 71.5h-59v111h111v-110z" />
    <glyph glyph-name="dagger" unicode="&#x2020;" horiz-adv-x="482" 
d="M279 277h-75v273h-125v70h125v131h75v-131h124v-70h-124v-273z" />
    <glyph glyph-name="daggerdbl" unicode="&#x2021;" horiz-adv-x="482" 
d="M279 385v-108h-75v108h-125v70h126v114h-126v70h125v112h75v-112h124v-70h-125v-114h125v-70h-124z" />
    <glyph glyph-name="bullet" unicode="&#x2022;" horiz-adv-x="482" 
d="M241 125q-30 0 -57 11.5t-47.5 31.5t-32 47t-11.5 58q0 30 11.5 57t32 47.5t47.5 32t57 11.5q31 0 58 -11.5t47.5 -32t32 -47.5t11.5 -57q0 -31 -11.5 -58t-32 -47t-47.5 -31.5t-58 -11.5z" />
    <glyph glyph-name="ellipsis" unicode="&#x2026;" horiz-adv-x="739" 
d="M127 -5q-23 0 -39.5 16.5t-16.5 39.5t16.5 39t39.5 16t39.5 -16t16.5 -39t-16.5 -39.5t-39.5 -16.5zM370 -5q-24 0 -40 16.5t-16 39.5t16 39t40 16q23 0 39 -16t16 -39t-16 -39.5t-39 -16.5zM612 -5q-23 0 -39 16.5t-16 39.5t16 39t39 16q24 0 40 -16t16 -39t-16 -39.5
t-40 -16.5z" />
    <glyph glyph-name="perthousand" unicode="&#x2030;" horiz-adv-x="1076" 
d="M320 538q0 -80 -40 -127.5t-108 -47.5q-67 0 -107.5 47.5t-40.5 127.5q0 81 40.5 128t107.5 47q68 0 108 -47t40 -128zM66 0l516 705h84l-515 -705h-85zM172 422q32 0 51 31t19 85t-19 85t-51 31t-50.5 -31t-18.5 -85t18.5 -85t50.5 -31zM708 168q0 -80 -40.5 -127.5
t-107.5 -47.5q-68 0 -108 47.5t-40 127.5t40 127.5t108 47.5q67 0 107.5 -47.5t40.5 -127.5zM1052 168q0 -80 -40.5 -127.5t-107.5 -47.5q-68 0 -108 47.5t-40 127.5t40 127.5t108 47.5q67 0 107.5 -47.5t40.5 -127.5zM560 52q32 0 50.5 31t18.5 85t-18.5 85t-50.5 31
t-51 -31t-19 -85t19 -85t51 -31zM904 52q32 0 51 31t19 85t-19 85t-51 31t-51 -31t-19 -85t19 -85t51 -31z" />
    <glyph glyph-name="guilsinglleft" unicode="&#x2039;" horiz-adv-x="402" 
d="M165 272l171 -201h-99l-171 203v4l171 203h99l-171 -202v-7z" />
    <glyph glyph-name="guilsinglright" unicode="&#x203a;" horiz-adv-x="402" 
d="M66 481h100l170 -203v-4l-170 -203h-100l171 201v7z" />
    <glyph glyph-name="Euro" unicode="&#x20ac;" horiz-adv-x="605" 
d="M565 626q-15 4 -43.5 6.5t-54.5 2.5q-86 0 -150.5 -42.5t-91.5 -126.5h263v-66h-278q-2 -11 -2 -23.5v-24.5v-22.5t2 -21.5h278v-67h-265q27 -86 92 -129t152 -43q26 0 54.5 2t43.5 7v-79q-7 -3 -18.5 -5t-25 -3.5t-27.5 -2t-27 -0.5q-60 0 -114.5 16t-99 47.5t-77 79
t-47.5 110.5h-103v67h93q-2 11 -2 22v22q0 13 0.5 24.5t1.5 23.5h-93v66h104q16 63 48.5 109.5t76.5 78t98.5 47t113.5 15.5q13 0 27 -0.5t27.5 -2t25 -3.5t18.5 -4v-80z" />
    <glyph glyph-name="infinity" unicode="&#x221e;" horiz-adv-x="634" 
d="M37 0v561h561v-561h-561zM147 423v-285h54v130h66v50h-66v55h107v50h-161zM359 138v89h5l61 -89h64l-75 98q25 5 38.5 22.5t13.5 43.5q0 31 -21 51t-63 20h-74v-235h51zM359 331h12q44 0 44 -31q0 -32 -44 -32h-12v63z" />
    <glyph glyph-name="maitholowleftthai" 
d="M-437 685q0 19 -7.5 26t-28.5 7h-25v72h78q32 0 48 -16.5t16 -46.5v-25h139v-71h-220v54z" />
    <glyph glyph-name="maitrilowleftthai" 
d="M-552 711q0 39 19 59.5t54 20.5q30 0 49.5 -14.5t24.5 -35.5h3q4 21 24 35.5t49 14.5q31 0 50.5 -19t19.5 -49v-23h61v-70h-139v56q0 31 -22 31q-11 0 -16.5 -7t-5.5 -24v-15h-44v15q0 17 -6 24t-16 7q-11 0 -17 -7t-6 -24v-56h-82v81z" />
    <glyph glyph-name="maichattawalowleftthai" 
d="M-370 690h-70v63h70v59h81v-59h71v-63h-71v-59h-81v59z" />
    <glyph glyph-name="thanthakhatlowleftthai" 
d="M-454 646q0 61 32 92.5t94 31.5h112v-73h-98q-27 0 -40.5 -13.5t-13.5 -39.5v-13h-86v15z" />
    <glyph glyph-name="maitholowrightthai" 
d="M-261 685q0 19 -7.5 26t-28.5 7h-25v72h78q32 0 48 -16.5t16 -46.5v-25h160v-71h-241v54z" />
    <glyph glyph-name="maitrilowrightthai" 
d="M-430 708q0 39 24 62t67 23q34 0 57 -14.5t27 -40.5h3q3 26 26 40.5t57 14.5q43 0 67 -23t24 -62v-6h116v-71h-195v56q0 18 -8.5 27.5t-23.5 9.5q-16 0 -24.5 -9.5t-8.5 -27.5v-14h-63v14q0 18 -8.5 27.5t-23.5 9.5q-16 0 -24.5 -9.5t-8.5 -27.5v-56h-80v77z" />
    <glyph glyph-name="maichattawalowrightthai" 
d="M-155 690h-80v63h80v59h81v-59h81v-63h-81v-59h-81v59z" />
    <glyph glyph-name="thanthakhatlowrightthai" 
d="M-262 646q0 61 32 92.5t94 31.5h112v-73h-99q-26 0 -39.5 -13.5t-13.5 -39.5v-13h-86v15z" />
    <glyph glyph-name="yoyingnobasethai" horiz-adv-x="928" 
d="M422 195v153q0 73 -38.5 110t-109.5 37q-66 0 -103 -31t-41 -85h128v-60q-55 -8 -78.5 -35t-23.5 -79v-53q0 -33 8.5 -51t26 -25t49.5 -7q15 0 23 2v-71q-13 -3 -46 -3q-53 0 -85 15t-47 48.5t-15 90.5v39q0 54 20 89t63 51v3h-105v21q0 65 28 114t80 76t121 27
q65 0 117.5 -24t83 -71t30.5 -113v-168q0 -42 17 -71.5t47 -44.5t67 -15q35 0 65.5 15.5t48.5 45t18 70.5v366h86v-366q0 -64 -29.5 -111t-79 -71.5t-109.5 -24.5q-62 0 -111 24.5t-77.5 71.5t-28.5 111z" />
    <glyph glyph-name="maihanakatleftthai" 
d="M-500 743v29h84v-24q0 -25 11 -35.5t33 -10.5h164v-71h-172q-60 0 -90 26.5t-30 85.5z" />
    <glyph glyph-name="nikhahitleftthai" 
d="M-423 707q0 28 14 50.5t38.5 35t53.5 12.5t53.5 -12.5t39 -35t14.5 -50.5t-14.5 -50.5t-39 -35t-53.5 -12.5t-53.5 12.5t-38.5 35t-14 50.5zM-278 707q0 17 -11 28.5t-28 11.5q-16 0 -27 -11.5t-11 -28.5t11 -28.5t27 -11.5q17 0 28 11.5t11 28.5z" />
    <glyph glyph-name="maitaikhuleftthai" 
d="M-378 683l-38 -56h-13q-48 0 -76 28.5t-28 77.5q0 50 27 80t76 30h213v-62h-201q-19 0 -29.5 -14t-10.5 -35q0 -19 9 -30.5t24 -12.5l30 46h38q5 -22 13.5 -34t22.5 -12q25 0 25 35v11h72v-11q0 -49 -19.5 -74t-55.5 -25q-30 0 -50.5 16.5t-28.5 41.5z" />
    <glyph glyph-name="maiekupperleftthai" 
d="M-303 1028h86v-171h-86v171z" />
    <glyph glyph-name="maithoupperleftthai" 
d="M-371 897q0 21 -7 28.5t-29 7.5h-25v69h77q31 0 47 -16.5t16 -46.5v-27h163v-69h-242v54z" />
    <glyph glyph-name="maitriupperleftthai" 
d="M-464 910q0 39 22.5 61.5t62.5 22.5q33 0 54 -14.5t24 -40.5h3q4 26 25 40.5t53 14.5q37 0 58 -20.5t21 -52.5v-9h84v-69h-155v46q0 17 -8 26.5t-22 9.5q-13 0 -21 -9.5t-8 -26.5v-15h-56v15q0 17 -8 26.5t-21 9.5t-21 -9.5t-8 -26.5v-46h-79v67z" />
    <glyph glyph-name="maichattawaupperleftthai" 
d="M-298 903h-80v62h80v60h81v-60h81v-62h-81v-60h-81v60z" />
    <glyph glyph-name="thanthakhatupperleftthai" 
d="M-386 858q0 61 32 92.5t94 31.5h111v-73h-98q-26 0 -39.5 -13.5t-13.5 -39.5v-13h-86v15z" />
    <glyph glyph-name="saraulowthai" 
d="M-152 -289q0 9 -8 13t-19 4q-12 0 -21 -2v61q21 6 49 6q37 0 58.5 -15t21.5 -43v-146h-81v122z" />
    <glyph glyph-name="sarauulowthai" 
d="M-330 -305v18q0 10 -8 13.5t-19 3.5q-12 0 -20 -1v61q21 5 48 5q39 0 59 -10.5t20 -36.5v-49q0 -20 12 -31.5t35 -11.5q24 0 36 11.5t12 31.5v93h84v-96q0 -50 -33.5 -77.5t-96.5 -27.5q-64 0 -96.5 28t-32.5 76z" />
    <glyph glyph-name="phinthulowthai" 
d="M-178 -264q0 18 8.5 32.5t23.5 22.5t32 8t31.5 -8t23.5 -22.5t9 -32.5t-9 -32.5t-23.5 -22.5t-31.5 -8t-32 8t-23.5 22.5t-8.5 32.5z" />
    <glyph glyph-name="lochula.short" horiz-adv-x="756" 
d="M573 158v180q0 45 -20.5 68.5t-65.5 23.5h-21v68h52q32 0 52 5t34.5 24.5t18.5 57.5h85q-8 -67 -47 -99q-32 -27 -76 -32q18 -6 31 -14q23 -17 32.5 -41.5t9.5 -60.5v-184q0 -78 -40 -122t-111 -44q-104 0 -148 96h-2q-44 -96 -148 -96q-71 0 -111 44t-40 122v407h85
v-403q0 -45 22.5 -70t64.5 -25q41 0 63.5 25t22.5 70v160h84v-160q0 -45 22.5 -70t63.5 -25q42 0 64.5 25t22.5 70z" />
    <glyph glyph-name="saraamleft" horiz-adv-x="512" 
d="M-423 707q0 28 14 50.5t38.5 35t53.5 12.5t53.5 -12.5t39 -35t14.5 -50.5t-14.5 -50.5t-39 -35t-53.5 -12.5t-53.5 12.5t-38.5 35t-14 50.5zM-278 707q0 17 -11 28.5t-28 11.5q-16 0 -27 -11.5t-11 -28.5t11 -28.5t27 -11.5q17 0 28 11.5t11 28.5zM376 382q0 58 -32 85.5
t-87 27.5t-88 -27t-37 -76h-89q4 55 32 95.5t75 62t107 21.5q61 0 107 -21.5t72 -64t26 -103.5v-382h-86v382z" />
    <glyph glyph-name="yamakkanleftthai" 
d="M-396 694q0 32 20 50.5t53 18.5h16q-8 6 -13 15t-5 21q0 17 11.5 28t32.5 11h91v-43h-49q-11 0 -16.5 -5.5t-5.5 -15.5t6 -17t17 -9v-30h-67q-30 0 -30 -22q0 -28 44 -28q18 0 31 5v-44q-21 -6 -44 -6q-41 0 -66.5 17.5t-25.5 53.5z" />
    <glyph glyph-name="thothannobasethai" horiz-adv-x="584" 
d="M155 183q-9 20 -20 25.5t-31 5.5q-16 0 -31 -3v76q25 6 50 6q24 0 41.5 -6t32.5 -21t28 -42l72 -150h4q62 41 96 105.5t34 141.5q0 83 -40.5 128.5t-121.5 45.5q-57 0 -92 -22t-44 -61h-87q8 50 38 86t78 54.5t109 18.5q93 0 151 -43l40 51h107l-93 -105q15 -21 26 -49
q16 -46 16 -104q0 -196 -190 -321h-84z" />
    <glyph glyph-name="maieklowrightthai" 
d="M-157 801h86v-170h-86v170z" />
    <glyph glyph-name="saraileftthai" 
d="M-553 702h336v-71h-336v71z" />
    <glyph glyph-name="saraiileftthai" 
d="M-553 702h250v70h86v-141h-336v71z" />
    <glyph glyph-name="saraueleftthai" 
d="M-553 702h183v6q0 22 10.5 41t29 29.5t42.5 10.5q23 0 41.5 -10t28.5 -28.5t10 -41.5q0 -35 -23 -56.5t-60 -21.5h-262v71zM-256 708q0 17 -9.5 27.5t-25.5 10.5q-15 0 -24.5 -10.5t-9.5 -27.5q0 -16 9.5 -26.5t24.5 -10.5q16 0 25.5 10.5t9.5 26.5z" />
    <glyph glyph-name="saraueeleftthai" 
d="M-553 702h157v70h66v-70h46v70h67v-141h-336v71z" />
    <glyph glyph-name="maieklowleftthai" 
d="M-342 801h86v-170h-86v170z" />
    </font>
</defs>
</svg>
