<svg width="124" height="49" viewBox="0 0 124 49" fill="none" xmlns="http://www.w3.org/2000/svg">
<path d="M0.105442 0.5H17.8962V5.5822H5.50145V11.9813H17.506V17.0132H5.50145V34.0642H0.105442V0.5ZM29.1231 10.2219L40.1076 34.0642H34.9066L32.8162 29.2762H22.852L20.7616 34.0642H15.5606L26.5451 10.2219H29.1231ZM30.9209 25.0763L27.8104 17.9909L24.6998 25.0763H30.9209ZM47.7389 14.4721V20.8712H48.9067C51.8723 20.8712 53.3775 19.7954 53.3775 17.6465C53.3775 15.4975 51.9197 14.4721 48.9542 14.4721H47.7389ZM47.7389 34.0642H42.538V10.2219H50.0719C55.6128 10.2219 58.5784 13.2505 58.5784 17.4027C58.5784 20.8712 56.633 23.4123 53.2799 24.1463L60.8138 34.0642H54.3976L48.2741 25.0737H47.7389V34.0642ZM82.5876 22.1431C82.5876 19.9941 81.8574 18.089 80.2547 16.5256C78.6994 14.9119 76.8515 14.0826 74.7611 14.0826C72.6707 14.0826 70.728 14.9119 69.1727 16.4779C67.6174 18.0413 66.8398 19.9464 66.8398 22.1457C66.8398 24.345 67.6174 26.2502 69.1727 27.8612C70.728 29.4245 72.5758 30.2566 74.7611 30.2566C76.9464 30.2566 78.7469 29.4272 80.2547 27.8135C81.8574 26.2025 82.5876 24.2946 82.5876 22.1457V22.1431ZM74.7638 34.7002C71.1682 34.7002 68.1051 33.4786 65.4796 31.0356C62.9516 28.5925 61.6389 25.6116 61.6389 22.1431C61.6389 18.6746 62.9516 15.6936 65.527 13.3009C68.1525 10.8101 71.213 9.5886 74.7611 9.5886C78.3093 9.5886 81.3223 10.8101 83.9003 13.3009C86.5258 15.6962 87.7885 18.6746 87.7885 22.1431C87.7885 25.6116 86.5258 28.6402 83.9003 31.0356C81.3724 33.4786 78.3119 34.7002 74.7611 34.7002H74.7638ZM89.7339 30.0578L93.0395 27.1272C94.0123 29.5199 95.47 30.2539 97.7554 30.2539C100.041 30.2539 101.159 28.9847 101.159 27.2253C101.159 25.76 99.9434 24.5861 97.4154 23.7064C93.6247 22.2888 90.8042 19.9438 90.8042 16.5733C90.8042 14.7158 91.5344 13.1048 92.9921 11.7375C94.4498 10.3199 96.2002 9.5886 98.2405 9.5886C101.546 9.5886 104.024 10.6644 105.774 12.861L102.859 15.94C101.789 14.6708 100.476 14.0349 99.0181 14.0349C97.3179 14.0349 96.0051 14.9623 96.0051 16.2341C96.0051 17.2119 97.1228 18.2373 99.4557 19.2151C104.414 21.3163 106.357 23.5633 106.357 26.4462C106.357 31.38 103.004 34.7028 97.7528 34.7028C94.1546 34.7028 91.2391 32.5035 89.7339 30.0605V30.0578ZM115.591 29.5703H124V34.0642H110.44V10.2219H124V14.7158H115.591V19.4059H123.66V23.8998H115.591V29.5703Z" fill="white"/>
<path d="M25.6488 44.173H0V44.9706H25.6488V44.173Z" fill="white"/>
<path d="M124 44.173H98.3512V44.9706H124V44.173Z" fill="white"/>
<path d="M36.4092 41.8359L35.7396 42.2731C35.5551 41.9657 35.3627 41.7511 35.1676 41.6292C34.9778 41.5073 34.7379 41.4464 34.448 41.4464C34.0921 41.4464 33.7942 41.5577 33.5543 41.7803C33.3171 42.0002 33.1985 42.2784 33.1985 42.6149C33.1985 43.0627 33.5543 43.4443 34.2661 43.7543L34.9857 44.0749C35.592 44.3426 36.0296 44.6393 36.2932 44.9653C36.5621 45.2832 36.6939 45.6833 36.6939 46.1656C36.6939 46.828 36.4619 47.3818 36.0006 47.827C35.534 48.2748 34.9646 48.5 34.2951 48.5C33.6993 48.5 33.1958 48.3304 32.7899 47.9886C32.3813 47.6521 32.1098 47.1698 31.9674 46.5445L32.7846 46.314C32.9902 47.244 33.5043 47.7104 34.3241 47.7104C34.7406 47.7104 35.0991 47.5646 35.3996 47.2732C35.6922 46.9844 35.8398 46.6319 35.8398 46.2159C35.8398 45.898 35.7449 45.6356 35.5551 45.4237C35.3706 45.2143 35.0384 45.0023 34.5639 44.7904L33.8786 44.4751C33.6018 44.3532 33.3672 44.226 33.1774 44.0935C32.9876 43.961 32.8321 43.8206 32.7108 43.6722C32.4736 43.3834 32.3549 43.0283 32.3549 42.607C32.3549 42.0479 32.5553 41.5789 32.9533 41.2053C33.3566 40.8317 33.8601 40.6462 34.4664 40.6462C35.3073 40.6462 35.9558 41.0436 36.4118 41.8359H36.4092Z" fill="white"/>
<path d="M45.0528 41.5709V48.3675H44.2066V41.5709H42.3772V40.7787H46.8849V41.5709H45.0528Z" fill="white"/>
<path d="M53.8388 40.7787V45.4263C53.8388 45.8715 53.8625 46.208 53.9126 46.4332C53.9627 46.6558 54.0549 46.8545 54.192 47.0267C54.3554 47.2308 54.5716 47.3951 54.8431 47.5169C55.1278 47.6415 55.4072 47.7024 55.684 47.7024C55.9608 47.7024 56.2481 47.6415 56.5249 47.5169C56.8017 47.3924 57.0205 47.2281 57.1813 47.0267C57.3184 46.8545 57.4106 46.6558 57.4607 46.4332C57.5108 46.208 57.5345 45.8715 57.5345 45.4263V40.7787H58.3807V45.6595C58.3807 46.1338 58.3306 46.5206 58.2304 46.8148C58.1303 47.1221 57.9589 47.4004 57.7217 47.6494C57.1866 48.2165 56.5117 48.5 55.6919 48.5C54.8721 48.5 54.192 48.2165 53.6569 47.6494C53.4196 47.4004 53.2483 47.1221 53.1481 46.8148C53.048 46.5206 52.9979 46.1338 52.9979 45.6595V40.7787H53.844H53.8388Z" fill="white"/>
<path d="M65.3083 48.3675V40.7787H66.8556C67.5304 40.7787 68.1051 40.8661 68.5849 41.0436C69.0673 41.2212 69.4996 41.502 69.8792 41.8889C70.5751 42.599 70.9257 43.4946 70.9257 44.5731C70.9257 45.6515 70.5698 46.5498 69.8554 47.2599C69.4574 47.6521 69.0277 47.9356 68.5611 48.1105C68.1025 48.2801 67.5278 48.3649 66.8424 48.3649H65.3083V48.3675ZM66.1544 47.5752H66.8872C67.8889 47.5752 68.6745 47.2838 69.2439 46.7008C69.8001 46.1391 70.0795 45.429 70.0795 44.5757C70.0795 43.7225 69.8027 43.0097 69.2492 42.4454C68.6877 41.8624 67.9021 41.5709 66.8872 41.5709H66.1544V47.5752Z" fill="white"/>
<path d="M78.2987 40.7787V48.3675H77.4526V40.7787H78.2987Z" fill="white"/>
<path d="M84.8151 44.528C84.8151 43.4761 85.2052 42.5672 85.9828 41.8015C86.7578 41.0357 87.6805 40.6515 88.748 40.6515C89.8157 40.6515 90.7435 41.0383 91.5133 41.8121C92.283 42.5858 92.6652 43.5079 92.6652 44.5784C92.6652 45.6489 92.2777 46.5895 91.5027 47.3553C90.7251 48.1184 89.7919 48.5 88.7085 48.5C87.7463 48.5 86.8791 48.1582 86.0988 47.4719C85.2421 46.7088 84.8151 45.7284 84.8151 44.528ZM85.6612 44.5307C85.6612 45.4608 85.9828 46.2318 86.626 46.8413C87.2402 47.4189 87.9361 47.7077 88.719 47.7077C89.581 47.7077 90.3112 47.403 90.9149 46.7936C91.5185 46.1762 91.8191 45.4369 91.8191 44.5757C91.8191 43.7146 91.5185 42.9621 90.9202 42.3579C90.3218 41.7485 89.5995 41.4438 88.748 41.4438C87.8966 41.4438 87.1849 41.7458 86.5707 42.3526C85.9644 42.9594 85.6612 43.6854 85.6612 44.5307Z" fill="white"/>
</svg>
