<svg width="115" height="32" viewBox="0 0 115 32" fill="none" xmlns="http://www.w3.org/2000/svg">
<path d="M0 3.24249e-05H16.5124V4.69972H5.00785V10.6195H16.1514V15.274H5.00785V31.0451H0L0 3.24249e-05ZM24.543 8.99271H26.9341L37.1302 31.0451H32.3029L30.3629 26.6166H21.1142L19.1742 31.0451H14.3468L24.543 8.99271ZM28.6034 22.7303L25.716 16.1778L22.8286 22.7303H28.6034ZM44.2134 12.9242V18.844H45.2962C48.0483 18.844 49.4468 17.8498 49.4468 15.8615C49.4468 13.8732 48.0934 12.9242 45.3413 12.9242H44.2134ZM44.2134 31.0451H39.386V8.99271H46.379C51.5222 8.99271 54.2742 11.7945 54.2742 15.6355C54.2742 18.844 52.4696 21.1938 49.3566 21.8717L56.3495 31.0451H50.3943L44.7097 22.7303H44.2134V31.0451ZM76.5614 20.0189C76.5614 18.0306 75.8847 16.2682 74.3958 14.8221C72.9521 13.3309 71.2377 12.5627 69.2978 12.5627C67.2676 12.5627 65.5532 13.3309 64.1095 14.7769C62.6657 16.223 61.9439 17.9854 61.9439 20.0189C61.9439 22.0524 62.6657 23.8148 64.1095 25.3061C65.5532 26.7521 67.2676 27.5203 69.2978 27.5203C71.2829 27.5203 72.9973 26.7521 74.3958 25.2609C75.8847 23.7696 76.5614 22.0072 76.5614 20.0189ZM69.2978 31.6326C65.9592 31.6326 63.1169 30.5028 60.6807 28.2434C58.3346 25.9839 57.1165 23.2274 57.1165 20.0189C57.1165 16.8105 58.3346 14.0539 60.7258 11.8396C63.162 9.53498 66.0043 8.40525 69.2978 8.40525C72.5912 8.40525 75.3884 9.53498 77.7795 11.8396C80.2158 14.0539 81.3888 16.8105 81.3888 20.0189C81.3888 23.2274 80.2158 26.0291 77.7795 28.2434C75.4335 30.5028 72.5912 31.6326 69.2978 31.6326ZM83.1934 27.3396L86.2613 24.6282C87.1636 26.8425 88.5171 27.5203 90.6375 27.5203C92.7128 27.5203 93.7956 26.3454 93.7956 24.7186C93.7956 23.3629 92.6677 22.2784 90.3217 21.465C86.8027 20.1545 84.186 17.9854 84.186 14.8673C84.186 13.1501 84.8627 11.6589 86.2162 10.3936C87.5696 9.08309 89.1938 8.40525 91.0887 8.40525C94.1565 8.40525 96.4574 9.39942 98.0816 11.4329L95.3747 14.2799C94.3821 13.1049 93.164 12.5175 91.8105 12.5175C90.2315 12.5175 89.0133 13.3761 89.0133 14.551C89.0133 15.4548 90.051 16.4038 92.2166 17.3075C96.8184 19.2507 98.623 21.3294 98.623 23.9956C98.623 28.5597 95.51 31.6326 90.6375 31.6326C87.2989 31.6326 84.592 29.599 83.1934 27.3396ZM107.195 26.8877H115V31.0451H102.413V8.99271H115V13.1501H107.195V17.4883H114.684V21.6457H107.195V26.8877Z" fill="#1D1D1F"/>
</svg>
