<svg width="210" height="59" viewBox="0 0 210 59" fill="none" xmlns="http://www.w3.org/2000/svg">
<path d="M0 0H30.153V8.76571H9.14476V19.8071H29.4939V28.4886H9.14476V57.9043H0L0 0ZM44.8176 16.7729H49.184L67.8031 57.9043H58.9878L55.4453 49.6443H38.5563L35.0137 57.9043H26.1985L44.8176 16.7729ZM52.2322 42.3957L46.9596 30.1743L41.6869 42.3957H52.2322ZM80.7375 24.1057V35.1471H82.7148C87.7403 35.1471 90.2942 33.2929 90.2942 29.5843C90.2942 25.8757 87.8227 24.1057 82.7972 24.1057H80.7375ZM80.7375 57.9043H71.9223V16.7729H84.692C94.084 16.7729 99.1095 21.9986 99.1095 29.1629C99.1095 35.1471 95.814 39.53 90.1295 40.7943L102.899 57.9043H92.0243L81.6438 42.3957H80.7375V57.9043ZM139.808 37.3386C139.808 33.63 138.572 30.3429 135.853 27.6457C133.217 24.8643 130.086 23.4314 126.544 23.4314C122.836 23.4314 119.706 24.8643 117.069 27.5614C114.433 30.2586 113.115 33.5457 113.115 37.3386C113.115 41.1314 114.433 44.4186 117.069 47.2C119.706 49.8971 122.836 51.33 126.544 51.33C130.169 51.33 133.299 49.8971 135.853 47.1157C138.572 44.3343 139.808 41.0471 139.808 37.3386ZM126.544 59C120.447 59 115.257 56.8929 110.808 52.6786C106.524 48.4643 104.3 43.3229 104.3 37.3386C104.3 31.3543 106.524 26.2129 110.891 22.0829C115.339 17.7843 120.53 15.6771 126.544 15.6771C132.558 15.6771 137.666 17.7843 142.032 22.0829C146.481 26.2129 148.623 31.3543 148.623 37.3386C148.623 43.3229 146.481 48.5486 142.032 52.6786C137.748 56.8929 132.558 59 126.544 59ZM151.918 50.9929L157.521 45.9357C159.168 50.0657 161.64 51.33 165.512 51.33C169.302 51.33 171.279 49.1386 171.279 46.1043C171.279 43.5757 169.219 41.5529 164.935 40.0357C158.509 37.5914 153.731 33.5457 153.731 27.73C153.731 24.5271 154.967 21.7457 157.438 19.3857C159.91 16.9414 162.876 15.6771 166.336 15.6771C171.938 15.6771 176.14 17.5314 179.106 21.3243L174.162 26.6343C172.35 24.4429 170.126 23.3471 167.654 23.3471C164.77 23.3471 162.546 24.9486 162.546 27.14C162.546 28.8257 164.441 30.5957 168.395 32.2814C176.799 35.9057 180.094 39.7829 180.094 44.7557C180.094 53.2686 174.41 59 165.512 59C159.415 59 154.472 55.2071 151.918 50.9929ZM195.747 50.15H210V57.9043H187.015V16.7729H210V24.5271H195.747V32.6186H209.423V40.3729H195.747V50.15Z" fill="#025A89"/>
</svg>
