<svg width="68" height="60" viewBox="0 0 68 60" fill="none" xmlns="http://www.w3.org/2000/svg">
<path d="M65.55 0C64.7539 0 63.9552 0.582902 62.5078 1.99741C55.48 8.8601 48.9227 19.2073 44.1772 29.9922C43.9239 30.6088 43.8515 30.7176 43.164 31.5155C38.8889 36.4171 35.0869 40.9197 30.3052 45.2772C25.813 49.342 24.3992 49.5596 24.0011 49.5596H23.8926V49.1969C23.8926 48.1088 24.2906 44.2953 30.6309 32.57C38.0929 18.772 45.3016 9.2228 45.4463 8.64249V8.3886C45.4463 7.62694 44.795 7.04404 44.0687 7.04404C43.7068 7.04404 43.3449 7.15285 43.0555 7.47927C42.7298 7.80829 40.3028 11.329 38.4547 14.2332C36.3172 17.5052 29.9046 27.6062 25.5054 36.4896C25.1177 36.987 24.6602 37.6166 24.1097 38.3782C23.4945 39.1762 22.8432 40.013 22.1531 40.8834C21.4294 41.7902 20.6695 42.6269 19.9096 43.3886C19.1471 44.1865 18.351 44.8394 17.5911 45.3497C16.8286 45.8575 16.1411 46.1114 15.5621 46.1114C15.0917 46.1114 14.7635 45.93 14.5825 45.6036C14.4016 45.2772 14.293 44.8031 14.293 44.1865C14.293 43.2073 14.5102 42.0078 14.947 40.5933C15.0193 40.4119 15.0555 40.2306 15.1279 40.0492C15.8154 38.0155 16.9734 35.329 18.5681 32.0596L18.8214 31.5155C19.328 30.6813 19.5813 29.9534 19.5813 29.3731C19.5813 29.0466 19.5089 28.829 19.3642 28.6477C19.1833 28.5026 19.0385 28.3938 18.8938 28.285C18.7491 28.2124 18.6767 28.1399 18.6767 28.0674C18.6767 27.9585 18.7129 27.8497 18.7491 27.7409C18.7852 27.6321 18.8576 27.487 18.8938 27.3031C18.93 27.1218 18.93 26.8316 18.93 26.4326C18.93 25.5259 18.7129 24.7979 18.2425 24.3264C17.772 23.8549 17.1543 23.601 16.4668 23.601C15.1641 23.601 13.6417 24.3627 11.9022 25.8523C10.1291 27.3756 8.42581 29.228 6.79487 31.443C5.16652 33.658 3.78888 35.9456 2.66712 38.2694C1.54278 40.5933 1 42.5907 1 44.2228C1 45.2047 1.21711 45.9663 1.68753 46.5104C2.15794 47.0907 2.73949 47.3834 3.49939 47.3834C4.40403 47.3834 5.34744 46.9819 6.36064 46.2202C7.33765 45.4585 8.28107 44.5492 9.14952 43.5699C10.0206 42.5907 10.7443 41.7176 11.2871 40.9922C11.5404 40.6658 11.7575 40.4482 11.9022 40.2668C12.047 40.0855 12.1555 39.9767 12.2279 39.9404C11.7937 41.7539 11.5765 43.171 11.5765 44.2228C11.5765 45.7124 11.9384 46.8731 12.7009 47.6373C13.4246 48.4352 14.3292 48.8342 15.4536 48.8342C16.7563 48.8342 18.0977 48.3264 19.4366 47.272C20.2559 46.6503 21.0623 45.9611 21.8378 45.2047C21.3699 46.7202 21.1037 48.0415 21.1037 49.0881C21.1037 51.1218 22.2255 52.3575 23.8926 52.3575C24.5077 52.3575 25.2702 52.1736 26.1025 51.8109C31.6079 49.4508 40.8817 38.0155 40.8817 38.0155C40.8817 38.3782 37.0047 47.9275 37.0047 54.0259C37.0047 56.4585 37.6224 58.3472 39.3232 58.8912C39.5041 58.9637 39.7238 59 40.0133 59C40.6284 59 41.4245 58.7824 41.8949 58.1295C41.9673 57.9845 42.0759 57.6943 42.0759 57.4041C42.0759 56.8212 41.714 56.1321 40.2666 56.1321H40.1218C39.8685 55.4793 39.7238 55.044 39.7238 53.9534C39.7238 47.8549 45.1568 34.2383 46.17 32.3135C46.2424 32.2047 46.6766 31.5881 47.1858 31.0078C53.7044 23.1658 65.3329 6.60881 66.8527 2.46891C66.9638 2.14249 67 1.85233 67 1.56218C67 0.619171 66.3823 0 65.55 0ZM13.4246 33.513V33.658C13.3884 33.6943 13.3522 33.8031 13.2799 33.9119C13.2075 34.0207 13.0989 34.2021 12.9542 34.4197C12.7733 34.6736 12.5561 34.9663 12.2641 35.3653C10.4186 37.8342 8.78766 39.829 7.41003 41.3912C6.03497 42.9534 4.83826 44.0052 3.82506 44.5492C3.78888 44.513 3.78888 44.4404 3.78888 44.2953C3.78888 42.5544 4.47641 40.4119 5.89023 37.9067C7.26528 35.4016 8.86004 33.114 10.7081 31.0078C12.52 28.9016 14.1483 27.4482 15.5983 26.6865C15.7069 26.614 15.8154 26.5415 15.924 26.5052C15.9964 26.4689 16.0687 26.4689 16.1049 26.4689C16.1411 26.4689 16.1773 26.5052 16.1773 26.614C16.1773 27.7409 15.4536 29.6632 13.9674 32.386C13.5693 33.0052 13.3884 33.3679 13.3884 33.4767L13.4246 33.513ZM52.9807 18.9171L53.0892 18.6995C54.1386 16.9922 55.7695 14.5233 56.9275 12.8549C57.7623 11.6917 59.5742 9.33161 59.6828 9.25907C59.6828 9.47668 53.0892 18.9171 52.9807 18.9171Z" fill="black"/>
</svg>
