<svg width="310" height="60" viewBox="0 0 310 60" fill="none" xmlns="http://www.w3.org/2000/svg">
<path d="M4.16348 48.392V24.8757H0V48.392H4.16348Z" fill="black"/>
<path d="M19.6173 47.2512L18.8804 46.034C18.1435 46.7348 17.4408 47.1063 16.446 47.1063C14.6748 47.1063 14.3063 45.7021 14.3063 43.7077V32.8848H19.1383V31.3383H14.3063V27.4233H10.5482V31.3383H7.67163V32.8479H10.5482V44.2978C10.5482 47.1774 11.9851 48.8346 15.338 48.8346C17.2197 48.8346 18.5461 48.2102 19.6173 47.2512Z" fill="black"/>
<path d="M25.9625 33.5119L27.1416 25.1708C27.3626 23.6954 27.2521 22.1437 25.3704 22.1437C23.4887 22.1437 23.3781 23.6928 23.5992 25.1708L24.7782 33.5119H25.9573H25.9625Z" fill="black"/>
<path d="M47.0589 43.1887C47.0589 40.0852 44.6639 38.5729 40.6426 37.8326C37.137 37.2056 36.0291 36.4284 36.0291 35.1005C36.0291 33.5488 37.7634 32.4054 40.0162 32.4054C42.3769 32.4054 44.1113 33.367 45.2166 34.8792L46.3588 33.807C45.2535 32.329 43.4481 30.8958 39.8688 30.8958C36.2896 30.8958 32.4946 32.516 32.4946 36.1728C32.4946 39.1288 34.5947 40.3091 38.7609 41.0863C42.4138 41.7502 43.4112 42.6381 43.4112 44.1899C43.4112 46.1474 41.4926 47.2934 38.8714 47.2934C36.8791 47.2934 34.5921 46.5926 32.9736 44.6351L31.8682 45.7074C33.5999 47.9204 36.1054 48.8425 39.1688 48.8425C43.2296 48.8425 47.0589 47.2223 47.0589 43.1966V43.1887Z" fill="black"/>
<path d="M127.87 39.8639C127.87 35.2481 130.12 32.5503 133.808 32.5503C136.242 32.5503 137.421 33.7332 138.455 35.1348L139.671 34.2101C138.64 32.5477 136.61 30.8905 132.958 30.8905C127.536 30.8905 123.667 34.6896 123.667 39.8613C123.667 45.0329 127.536 48.832 133.031 48.832C136.755 48.832 138.674 47.0273 139.708 45.3649L138.529 44.5139C137.608 45.9551 136.131 47.1722 133.808 47.1722C130.12 47.1722 127.87 44.477 127.87 39.8586V39.8639Z" fill="black"/>
<path d="M151.441 30.8931C146.09 30.8931 141.964 34.3233 141.964 39.8638C141.964 45.4043 146.09 48.8346 151.441 48.8346C156.791 48.8346 160.77 45.4043 160.77 39.8638C160.77 34.3233 156.791 30.8931 151.441 30.8931ZM146.127 39.8638C146.127 35.8013 147.677 32.4396 151.441 32.4396C155.204 32.4396 156.644 35.8013 156.644 39.8638C156.644 43.9263 155.204 47.2881 151.441 47.2881C147.677 47.2881 146.127 43.9263 146.127 39.8638Z" fill="black"/>
<path d="M181.903 48.392V37.5375C181.903 33.0324 179.066 30.8958 175.266 30.8958C172.682 30.8958 170.579 32.0365 169.363 33.9914V31.3384H165.384V48.392H169.363V38.349C169.363 34.8792 171.466 32.7742 174.013 32.7742C177.224 32.7742 177.924 35.2112 177.924 38.1277V48.392H181.903Z" fill="black"/>
<path d="M203.96 48.392V37.5375C203.96 33.0324 201.123 30.8958 197.323 30.8958C194.739 30.8958 192.636 32.0365 191.42 33.9914V31.3384H187.441V48.392H191.42V38.349C191.42 34.8792 193.523 32.7742 196.07 32.7742C199.281 32.7742 199.981 35.2112 199.981 38.1277V48.392H203.96Z" fill="black"/>
<path d="M226.091 39.8981C226.128 33.1799 222.222 30.8931 217.575 30.8931C212.04 30.8931 208.355 34.729 208.355 39.8612C208.355 44.9934 211.966 48.8319 217.869 48.8319C221.559 48.8319 223.917 47.0273 225.133 45.1435L223.954 44.2188C222.738 45.955 220.896 47.1748 218.459 47.1748C214.287 47.1748 212.519 43.8499 212.519 40.3407V39.8981H226.091ZM221.817 38.2778H212.593C212.703 36.0226 213.848 32.2551 217.538 32.2551C220.38 32.2551 221.817 34.1758 221.817 38.0934V38.2778Z" fill="black"/>
<path d="M233.652 39.8639C233.652 35.2481 235.902 32.5503 239.589 32.5503C242.024 32.5503 243.203 33.7332 244.237 35.1348L245.453 34.2101C244.421 32.5477 242.392 30.8905 238.739 30.8905C233.318 30.8905 229.449 34.6896 229.449 39.8613C229.449 45.0329 233.318 48.832 238.813 48.832C242.537 48.832 244.455 47.0273 245.49 45.3649L244.311 44.5139C243.39 45.9551 241.913 47.1722 239.589 47.1722C235.902 47.1722 233.652 44.477 233.652 39.8586V39.8639Z" fill="black"/>
<path d="M258.438 47.2512L257.701 46.034C256.964 46.7348 256.262 47.1063 255.267 47.1063C253.496 47.1063 253.127 45.7021 253.127 43.7077V32.8848H257.959V31.3383H253.127V27.4233H249.369V31.3383H246.492V32.8479H249.369V44.2978C249.369 47.1774 250.806 48.8346 254.159 48.8346C256.041 48.8346 257.367 48.2102 258.438 47.2512Z" fill="black"/>
<path d="M277.653 39.8981C277.69 33.1799 273.784 30.8931 269.136 30.8931C263.602 30.8931 259.917 34.729 259.917 39.8612C259.917 44.9934 263.528 48.8319 269.431 48.8319C273.121 48.8319 275.479 47.0273 276.695 45.1435L275.516 44.2188C274.3 45.955 272.458 47.1748 270.021 47.1748C265.849 47.1748 264.081 43.8499 264.081 40.3407V39.8981H277.653ZM273.379 38.2778H264.154C264.265 36.0226 265.41 32.2551 269.099 32.2551C271.942 32.2551 273.379 34.1758 273.379 38.0934V38.2778Z" fill="black"/>
<path d="M281.014 39.8638C281.014 45.183 284.698 48.8346 289.604 48.8346C292.038 48.8346 294.217 47.8782 295.617 45.7363V48.3893H299.597V23.6927H295.617V33.5092C294.215 31.5175 292.038 30.8931 289.604 30.8931C284.698 30.8931 281.014 34.5446 281.014 39.8638ZM285.177 39.8638C285.177 35.1374 287.022 32.5502 290.38 32.5502C293.296 32.5502 295.841 34.729 295.841 39.8638C295.841 44.9986 293.37 47.1774 290.38 47.1774C287.022 47.1774 285.177 44.556 285.177 39.8638Z" fill="black"/>
<path d="M304.915 46.1789C304.915 47.6543 306.021 48.7608 307.458 48.7608C308.895 48.7608 310 47.6543 310 46.1789C310 44.7036 308.895 43.597 307.458 43.597C306.021 43.597 304.915 44.7036 304.915 46.1789Z" fill="black"/>
</svg>
