<?xml version="1.0" standalone="no"?>
<!DOCTYPE svg PUBLIC "-//W3C//DTD SVG 1.1//EN" "http://www.w3.org/Graphics/SVG/1.1/DTD/svg11.dtd" >
<svg xmlns="http://www.w3.org/2000/svg" xmlns:xlink="http://www.w3.org/1999/xlink" version="1.1">
<metadata>
Created by FontForge 20201107 at Sun Oct  1 03:05:37 2023
 By 
</metadata>
<defs>
<font id="FRAvnTHBold" horiz-adv-x="0" >
  <font-face 
    font-family="FR Avn TH Bold"
    font-weight="700"
    font-stretch="normal"
    units-per-em="1000"
    panose-1="2 0 0 0 0 0 0 0 0 0"
    ascent="800"
    descent="-200"
    x-height="501"
    cap-height="708"
    bbox="-707 -538 1210 1100"
    underline-thickness="50"
    underline-position="-125"
    unicode-range="U+0020-F882"
  />
<missing-glyph horiz-adv-x="524" 
 />
    <glyph glyph-name="copyright" unicode="&#x3b;&#x3b;For&#x20;Education&#x20;Used&#x20;Only&#x3b;&#x3b;" horiz-adv-x="800" 
d="M401 -22q-79 0 -148 29t-121 80t-82 119.5t-30 146.5q0 79 30 147.5t82 119.5t121 80.5t148 29.5q78 0 147 -29.5t120.5 -80.5t81.5 -119.5t30 -147.5q0 -78 -30 -146.5t-81.5 -119.5t-120.5 -80t-147 -29zM399 34q66 0 124.5 25t102 68.5t69 101.5t25.5 124t-25 124.5
t-68.5 102t-101.5 69t-124 25.5t-124.5 -25.5t-102 -69t-69 -102t-25.5 -124.5t25 -124t68 -101.5t101.5 -68.5t124.5 -25zM419 122q-49 0 -92 15.5t-75 44.5t-51 72t-19 98q0 53 19 95.5t51 72t75.5 45.5t91.5 16q50 0 94.5 -18.5t71.5 -52.5l-77 -70q-14 18 -38.5 28.5
t-51.5 10.5q-28 0 -49 -10.5t-35.5 -28.5t-22 -40.5t-7.5 -46.5t7.5 -47t22.5 -41t37.5 -29t52.5 -11q26 0 49.5 9.5t38.5 26.5l72 -76q-29 -30 -72 -46.5t-93 -16.5z" />
    <glyph glyph-name="registered" unicode="&#x3b;&#x3b;Registered&#x3b;&#x3b;" horiz-adv-x="600" 
d="M301 267q-47 0 -89 17.5t-73 48t-49 71.5t-18 88t18 88.5t49 72.5t73 48.5t89 17.5t88.5 -17.5t72 -48.5t48.5 -72.5t18 -88.5t-18 -88t-48.5 -71.5t-72 -48t-88.5 -17.5zM301 300q40 0 74.5 15t60.5 41.5t41 61.5t15 74q0 40 -15 75t-41 61t-60.5 41t-74.5 15t-75 -15
t-61.5 -41t-41.5 -61t-15 -75q0 -39 15 -74t41.5 -61.5t61.5 -41.5t75 -15zM191 365v266h114q21 0 43 -4t39 -14t28 -26.5t11 -41.5q0 -55 -48 -74l61 -106h-100l-44 94h-16v-94h-88zM279 521h26q12 0 20 6.5t8 16.5q0 8 -8.5 13t-19.5 5h-26v-41z" />
    <glyph glyph-name="multiply" unicode="&#x3b;&#x3b;Multiply&#x3b;&#x3b;" horiz-adv-x="666" 
d="M157 37l-93 89l177 175l-178 174l94 91l177 -173l174 172l91 -87l-174 -173l179 -175l-94 -93l-177 173z" />
    <glyph glyph-name="divide" unicode="&#x3b;&#x3b;Divide&#x3b;&#x3b;" horiz-adv-x="666" 
d="M333 404q-18 0 -33.5 6.5t-27.5 18t-19 27t-7 33.5q0 17 7 32.5t19 27t27.5 18t33.5 6.5t33.5 -6.5t27 -18t18.5 -27t7 -32.5q0 -18 -7 -33.5t-18.5 -27t-27 -18t-33.5 -6.5zM79 240v127h507v-127h-507zM333 32q-18 0 -33.5 7t-27.5 18.5t-19 27t-7 32.5t7 32.5t19 27
t27.5 18t33.5 6.5t33.5 -6.5t27 -18t18.5 -27t7 -32.5t-7 -32.5t-18.5 -27t-27 -18.5t-33.5 -7z" />
    <glyph glyph-name="quotedblleft" unicode="&#x2018;&#x2018;" horiz-adv-x="507" 
d="M42 437l91 271h126l-72 -271h-145zM250 437l91 271h126l-72 -271h-145z" />
    <glyph glyph-name="quotedblright" unicode="&#x2019;&#x2019;" horiz-adv-x="507" 
d="M40 437l72 271h145l-91 -271h-126zM248 437l72 271h145l-91 -271h-126z" />
    <glyph glyph-name="trademark" unicode="&#x3b;&#x3b;Trademark&#x3b;&#x3b;" horiz-adv-x="1000" 
d="M158 296v317h-118v95h346v-95h-118v-317h-110zM461 296v412h150l95 -260l92 260h150v-412h-106v259h-2l-97 -259h-79l-96 259h-2v-259h-105z" />
    <glyph glyph-name="uniF881" unicode="&#xe24;&#xe32;" horiz-adv-x="948" 
d="M668 569q105 0 158 -56t53 -156v-597h-149v583q0 45 -20.5 68.5t-58.5 23.5q-40 0 -60.5 -23.5t-20.5 -68.5v-583h-160v570q0 52 -29.5 78.5t-77.5 26.5q-37 0 -64.5 -13.5t-43.5 -36.5v-3l99 -25v-71q-45 -3 -63 -24t-19 -54q47 -1 76 -29.5t29 -76.5q0 -51 -33.5 -83.5
t-87.5 -32.5q-28 0 -52.5 9t-42.5 26.5t-28.5 42t-10.5 55.5v70q0 51 19 84t68 50v3l-111 27v77q49 66 119.5 102t155.5 36q57 0 107 -17t86 -50q53 68 162 68zM235 100q0 17 -10.5 28t-27.5 11t-28 -11t-11 -28t11 -28t28 -11t27.5 11t10.5 28z" />
    <glyph glyph-name="uniF882" unicode="&#xe26;&#xe32;" horiz-adv-x="979" 
d="M699 569q104 0 157.5 -56t53.5 -156v-597h-149v583q0 45 -20.5 68.5t-58.5 23.5q-41 0 -61.5 -23.5t-20.5 -68.5v-583h-160v569q0 52 -30.5 79t-79.5 27q-39 0 -67 -14.5t-44 -37.5v-3l107 -25v-71q-27 -6 -38.5 -22t-11.5 -49v-94q0 -66 -35.5 -99t-89.5 -33t-87 31.5
t-33 81.5q0 48 29 76t71 30v21q0 37 13.5 60t46.5 36v3l-129 26v77q50 66 121 102.5t158 36.5q58 0 108.5 -17t86.5 -51q55 69 163 69zM150 62q17 0 27 10.5t10 27.5t-10 27t-27 10t-27.5 -10t-10.5 -27t10.5 -27.5t27.5 -10.5z" />
    <glyph glyph-name=".notdef" horiz-adv-x="524" 
 />
    <glyph glyph-name=".null" 
 />
    <glyph glyph-name="uni000D" horiz-adv-x="310" 
 />
    <glyph glyph-name="space" unicode=" " horiz-adv-x="250" 
 />
    <glyph glyph-name="exclam" unicode="!" horiz-adv-x="357" 
d="M94 237v471h168v-471h-168zM178 -10q-19 0 -37 7t-31 20t-21 30t-8 37t7.5 37t20.5 30t31 20.5t38 7.5t38 -7.5t31.5 -20t21 -29.5t7.5 -37t-7.5 -37.5t-21 -30t-31.5 -20t-38 -7.5z" />
    <glyph glyph-name="quotedbl" unicode="&#x22;" horiz-adv-x="498" 
d="M86 437v271h131v-271h-131zM281 437v271h130v-271h-130z" />
    <glyph glyph-name="numbersign" unicode="#" horiz-adv-x="603" 
d="M102 0l29 200h-85v104h99l15 100h-85v104h98l29 200h111l-29 -200h78l29 200h110l-28 -200h84v-104h-99l-14 -100h85v-104h-98l-30 -200h-110l29 200h-79l-29 -200h-110zM256 304h78l14 100h-79z" />
    <glyph glyph-name="dollar" unicode="$" horiz-adv-x="646" 
d="M277 -83v74q-72 5 -131.5 29.5t-104.5 69.5l110 109q37 -48 110 -63v165q-44 14 -79 31.5t-59 41t-37 54.5t-13 73q0 49 17.5 86.5t46.5 64t66.5 42.5t78.5 21v72h78v-71q60 -4 119 -25t104 -63l-110 -106q-16 20 -37.5 31.5t-49.5 17.5v-153q36 -12 70.5 -28t61.5 -40
t43.5 -57.5t16.5 -79.5q0 -52 -18.5 -92t-49 -68t-71 -43.5t-85.5 -18.5v-74h-77zM315 580q-31 -2 -51.5 -19.5t-20.5 -48.5q0 -27 17.5 -42.5t54.5 -28.5v139zM331 126q30 2 53.5 19.5t23.5 54.5q0 29 -20 47t-57 31v-152z" />
    <glyph glyph-name="percent" unicode="%" horiz-adv-x="911" 
d="M296 -34l-89 44l413 730l93 -45zM219 342q-39 0 -74 15t-60.5 40.5t-40.5 60t-15 73.5q0 40 15 74.5t40.5 60t60.5 40t74 14.5t74 -14.5t60.5 -40t40.5 -60t15 -74.5q0 -39 -15 -73.5t-40.5 -60t-60.5 -40.5t-74 -15zM219 454q32 0 55 22.5t23 54.5t-23 55t-55 23
t-55 -23t-23 -55t23 -54.5t55 -22.5zM699 -12q-39 0 -74 15t-60.5 40.5t-40.5 60t-15 73.5t15 73.5t40.5 60t60.5 40.5t74 15t74 -15t60.5 -40.5t40.5 -60t15 -73.5t-15 -73.5t-40.5 -60t-60.5 -40.5t-74 -15zM699 100q16 0 30 6t24.5 16.5t17 24.5t6.5 30t-6.5 30.5t-17 25
t-24.5 16.5t-30 6q-32 0 -55 -23t-23 -55t23 -54.5t55 -22.5z" />
    <glyph glyph-name="ampersand" unicode="&#x26;" horiz-adv-x="781" 
d="M299 -14q-48 0 -94 12.5t-81.5 39t-57 66t-21.5 93.5q0 38 12 68.5t32.5 54.5t47.5 42t56 31q-33 32 -53 70t-20 84q0 48 20 82t51.5 56t71 32t78.5 10q41 0 79.5 -10.5t69 -32.5t49 -56t18.5 -81q0 -34 -11 -61.5t-30.5 -50t-45.5 -40.5t-55 -33l89 -91l71 109h182
l-153 -205l176 -175h-207l-67 69q-34 -36 -83.5 -59.5t-123.5 -23.5zM328 450q34 14 58 37t24 55q0 27 -18 46t-49 19q-29 0 -48.5 -18.5t-19.5 -46.5q0 -25 13.5 -48t39.5 -44zM305 115q33 0 59 14t45 40l-125 130q-30 -12 -52.5 -33.5t-22.5 -61.5q0 -21 8.5 -37.5t22 -28
t30.5 -17.5t35 -6z" />
    <glyph glyph-name="quotesingle" unicode="'" horiz-adv-x="303" 
d="M86 437v271h130v-271h-130z" />
    <glyph glyph-name="parenleft" unicode="(" horiz-adv-x="342" 
d="M176 -166q-71 98 -109 214.5t-38 239.5t38 239.5t109 214.5l112 -55q-63 -87 -96.5 -188.5t-33.5 -210.5t33.5 -210.5t96.5 -188.5z" />
    <glyph glyph-name="parenright" unicode=")" horiz-adv-x="342" 
d="M54 -111q63 87 96.5 188.5t33.5 210.5t-33.5 210.5t-96.5 188.5l112 55q71 -98 109 -214.5t38 -239.5t-38 -239.5t-109 -214.5z" />
    <glyph glyph-name="asterisk" unicode="*" horiz-adv-x="489" 
d="M164 312l-88 63l81 104l-129 43l35 100l127 -44v130h110v-130l127 40l34 -100l-128 -40l81 -107l-90 -63l-81 109z" />
    <glyph glyph-name="plus" unicode="+" horiz-adv-x="666" 
d="M269 31v209h-213v126h212v209h130v-209h213v-126h-212v-209h-130z" />
    <glyph glyph-name="comma" unicode="," horiz-adv-x="300" 
d="M20 -124l75 284h157l-97 -284h-135z" />
    <glyph glyph-name="hyphen" unicode="-" horiz-adv-x="326" 
d="M36 197v130h254v-130h-254z" />
    <glyph glyph-name="period" unicode="." horiz-adv-x="300" 
d="M151 -10q-21 0 -39.5 7.5t-32.5 20.5t-22 30.5t-8 38.5q0 20 8 38t22 31.5t32.5 21.5t39.5 8q41 0 70.5 -28t29.5 -70t-29.5 -70t-70.5 -28z" />
    <glyph glyph-name="slash" unicode="/" horiz-adv-x="415" 
d="M106 -52l-113 37l309 777l113 -39z" />
    <glyph glyph-name="zero" unicode="0" horiz-adv-x="646" 
d="M324 -19q-75 0 -128 30.5t-86.5 82t-48.5 119.5t-15 143t15 142.5t48.5 118t86.5 80.5t128 30t127.5 -30t85.5 -80.5t48 -118t15 -142.5t-15 -143t-48 -119.5t-85.5 -82t-127.5 -30.5zM324 125q33 0 53.5 23.5t31.5 58t15 75t4 74.5q0 33 -4 73t-15 74.5t-31.5 58
t-53.5 23.5t-54 -23.5t-32.5 -58t-15.5 -74.5t-4 -73q0 -34 4 -74.5t15.5 -75t32.5 -58t54 -23.5z" />
    <glyph glyph-name="one" unicode="1" horiz-adv-x="646" 
d="M283 0v520l-132 -102l-87 119l233 171h154v-708h-168z" />
    <glyph glyph-name="two" unicode="2" horiz-adv-x="646" 
d="M68 0v140l276 250q26 25 42 51t16 58q0 38 -24 61.5t-64 23.5q-42 0 -68.5 -29.5t-31.5 -77.5l-161 22q6 54 29.5 96t59.5 71.5t82.5 45t98.5 15.5q49 0 95 -13t82 -40t57.5 -67.5t21.5 -96.5q0 -38 -10 -68.5t-27.5 -56.5t-40 -48.5t-46.5 -44.5l-164 -146h289v-146
h-512z" />
    <glyph glyph-name="three" unicode="3" horiz-adv-x="646" 
d="M316 -19q-48 0 -93.5 11t-83 33.5t-65.5 58.5t-42 85l156 41q10 -35 41 -61.5t79 -26.5q18 0 36.5 5t33 15.5t24 27.5t9.5 42q0 27 -12.5 45t-33 28.5t-46.5 15t-52 4.5h-45v123h49q24 0 46 3.5t39.5 13t28 26t10.5 41.5q0 38 -27 58t-62 20q-36 0 -62.5 -21.5
t-34.5 -57.5l-156 36q13 45 39 78.5t61.5 56t77.5 34t86 11.5q47 0 91.5 -12t79.5 -37t56.5 -62.5t21.5 -88.5q0 -59 -33.5 -99.5t-85.5 -54.5v-3q30 -7 55 -22.5t43 -37t28 -48t10 -56.5q0 -58 -23.5 -100.5t-61.5 -70t-85.5 -41t-96.5 -13.5z" />
    <glyph glyph-name="four" unicode="4" horiz-adv-x="646" 
d="M358 0v138h-333v141l288 429h201v-434h98v-136h-97v-138h-157zM188 274h171v262h-3z" />
    <glyph glyph-name="five" unicode="5" horiz-adv-x="646" 
d="M309 -19q-48 0 -91.5 12.5t-79 35.5t-61 56.5t-37.5 75.5l153 47q11 -37 41.5 -61t72.5 -24q43 0 74.5 26t31.5 77q0 32 -13 52.5t-33.5 33t-46.5 17.5t-52 5q-38 0 -86.5 -8.5t-86.5 -22.5l17 405h434v-144h-285l-6 -112q16 4 35.5 5.5t35.5 1.5q53 0 100 -14
t81.5 -42.5t54.5 -70.5t20 -98q0 -64 -23 -112t-61.5 -79t-87.5 -46.5t-101 -15.5z" />
    <glyph glyph-name="six" unicode="6" horiz-adv-x="646" 
d="M322 -19q-58 0 -108.5 17.5t-88.5 50.5t-60 80t-22 105q0 63 22 114.5t57 104.5l171 255h203l-177 -246v-1q10 4 24 6t26 2q47 0 89 -16.5t73.5 -47t50.5 -73t19 -94.5q0 -60 -22 -108t-60 -81t-89 -50.5t-108 -17.5zM322 121q50 0 80.5 31t30.5 82q0 48 -30 79.5
t-80 31.5t-81 -31t-31 -81q0 -46 30 -79t81 -33z" />
    <glyph glyph-name="seven" unicode="7" horiz-adv-x="646" 
d="M111 0l287 564h-335v144h514v-134l-271 -574h-195z" />
    <glyph glyph-name="eight" unicode="8" horiz-adv-x="646" 
d="M323 -19q-52 0 -100.5 13.5t-85 40.5t-58.5 68.5t-22 97.5q0 32 10 59.5t27.5 49t40.5 37t49 23.5v2q-46 17 -77 55.5t-31 97.5q0 49 20 87t54 63.5t79 38.5t94 13t93.5 -12.5t78.5 -37.5t54.5 -62.5t20.5 -86.5q0 -59 -30 -99t-78 -56v-3q27 -7 50 -23t40 -37.5t27 -49
t10 -58.5q0 -56 -22 -97.5t-58.5 -69t-84.5 -41t-101 -13.5zM323 432q37 0 61 25t24 59q0 35 -25 58t-60 23q-38 0 -61 -23t-23 -58q0 -34 22.5 -59t61.5 -25zM323 114q44 0 71 25.5t27 68.5q0 41 -27.5 68.5t-70.5 27.5q-44 0 -71.5 -27t-27.5 -69q0 -43 27.5 -68.5
t71.5 -25.5z" />
    <glyph glyph-name="nine" unicode="9" horiz-adv-x="646" 
d="M149 0l178 247q-11 -4 -24.5 -6t-25.5 -2q-46 0 -88.5 16.5t-74.5 47t-51 73t-19 94.5q0 60 22 108t60 81t89 50.5t108 17.5q58 0 109 -17.5t88.5 -50.5t59.5 -80t22 -105q0 -63 -22 -114.5t-57 -104.5l-171 -255h-203zM322 364q50 0 81 31t31 81q0 46 -29.5 79.5
t-80.5 33.5t-81.5 -31.5t-30.5 -82.5q0 -48 30 -79.5t80 -31.5z" />
    <glyph glyph-name="colon" unicode=":" horiz-adv-x="332" 
d="M167 314q-20 0 -38 7t-31.5 20t-21.5 30t-8 37t8 37.5t21.5 30.5t31.5 20.5t38 7.5t37.5 -7.5t30.5 -20t21 -29.5t8 -37t-8 -37.5t-21 -30.5t-30.5 -20.5t-37.5 -7.5zM167 -6q-20 0 -38 7t-31.5 20t-21.5 30t-8 37t8 37.5t21.5 30.5t31.5 20.5t38 7.5t37.5 -7.5t30.5 -20
t21 -30t8 -37.5t-8 -37.5t-21 -30t-30.5 -20t-37.5 -7.5z" />
    <glyph glyph-name="semicolon" unicode=";" horiz-adv-x="332" 
d="M167 315q-19 0 -37 7t-31.5 20t-21.5 30t-8 37t7.5 37.5t21 30.5t31.5 20.5t38 7.5t37.5 -7.5t30.5 -20t21 -30t8 -37.5q0 -40 -28.5 -67.5t-68.5 -27.5zM30 -124l75 284h160l-97 -284h-138z" />
    <glyph glyph-name="less" unicode="&#x3c;" horiz-adv-x="666" 
d="M587 37l-508 214v103l508 214v-136l-306 -131l306 -127v-137z" />
    <glyph glyph-name="equal" unicode="=" horiz-adv-x="666" 
d="M68 335v123h530v-123h-530zM68 150v123h530v-123h-530z" />
    <glyph glyph-name="greater" unicode="&#x3e;" horiz-adv-x="666" 
d="M79 37v137l306 127l-306 131v136l508 -214v-103z" />
    <glyph glyph-name="question" unicode="?" horiz-adv-x="546" 
d="M205 226v38q0 26 5 46.5t15 37.5t25 33t34 33l33 31q17 15 29 31.5t12 39.5q0 32 -19.5 51t-53.5 19q-42 0 -63 -28.5t-23 -64.5l-159 17q6 54 27.5 95t55.5 68t77 40.5t91 13.5q45 0 87.5 -11.5t75.5 -36t53 -62.5t20 -90q0 -33 -8 -58t-22.5 -46t-35 -39.5t-46.5 -38.5
q-16 -13 -26.5 -23t-16.5 -20.5t-8.5 -22t-2.5 -27.5v-26h-156zM284 -10q-20 0 -37.5 7t-31 20t-21.5 30t-8 37t7.5 37t21 30t31.5 20.5t38 7.5t37.5 -7.5t31 -20t21 -29.5t7.5 -37q0 -40 -28 -67.5t-69 -27.5z" />
    <glyph glyph-name="at" unicode="@" horiz-adv-x="800" 
d="M415 -18q-85 0 -156 27.5t-122 76.5t-79.5 117.5t-28.5 149.5q0 80 30.5 148t82.5 118t122.5 78.5t149.5 28.5q71 0 136 -20.5t114.5 -61.5t79.5 -101.5t30 -141.5q0 -57 -15.5 -102t-43.5 -76t-65 -47t-81 -16q-40 0 -65.5 17.5t-29.5 46.5h-4q-14 -23 -44 -43.5
t-75 -20.5q-34 0 -60.5 12.5t-45 35t-28.5 53.5t-10 68q0 42 13.5 82.5t39 72t61 51t78.5 19.5q38 0 63 -16t32 -38h1l7 34h108l-31 -157q-5 -24 -9 -46t-4 -37q0 -14 6 -25t23 -11q30 0 53.5 34.5t23.5 104.5q0 59 -19 103.5t-53.5 74.5t-82 45t-104.5 15
q-61 0 -111.5 -21.5t-86.5 -59t-56 -89.5t-20 -112q0 -64 21 -115t59.5 -87t91 -55.5t115.5 -19.5q72 0 128.5 22.5t101.5 63.5l63 -70q-58 -57 -135.5 -83.5t-168.5 -26.5zM381 259q22 0 38 11.5t26 29.5t15 39t5 40q0 15 -2.5 29t-8.5 25t-17 17.5t-28 6.5
q-19 0 -34 -11.5t-26 -30t-17 -41.5t-6 -45q0 -25 11.5 -47.5t43.5 -22.5z" />
    <glyph glyph-name="A" unicode="A" horiz-adv-x="729" 
d="M449 708l294 -708h-190l-55 139h-274l-52 -139h-186l297 708h166zM273 276h178l-88 243z" />
    <glyph glyph-name="B" unicode="B" horiz-adv-x="665" 
d="M73 0v708h282q41 0 84 -8.5t78 -29t57 -55.5t22 -89q0 -59 -32 -97.5t-84 -55.5v-2q30 -5 56.5 -18.5t46 -34.5t31 -49t11.5 -63q0 -58 -23 -97.5t-61 -63.5t-86.5 -34.5t-99.5 -10.5h-282zM238 426h92q48 0 74.5 19.5t26.5 57.5q0 36 -27.5 52.5t-81.5 16.5h-84v-146z
M238 138h96q20 0 41.5 3.5t39 12.5t28.5 25.5t11 42.5q0 44 -33 61t-88 17h-95v-162z" />
    <glyph glyph-name="C" unicode="C" horiz-adv-x="696" 
d="M421 -19q-82 0 -151.5 27t-120.5 76.5t-80 118.5t-29 152q0 85 29.5 154t81.5 117.5t122 74.5t151 26q75 0 147.5 -26.5t117.5 -77.5l-116 -116q-24 33 -63 49t-80 16q-45 0 -82.5 -16.5t-64.5 -45.5t-42 -68.5t-15 -86.5q0 -48 15 -88t41.5 -68.5t63.5 -44.5t81 -16
q51 0 89 20t61 52l119 -112q-47 -54 -116 -85.5t-159 -31.5z" />
    <glyph glyph-name="D" unicode="D" horiz-adv-x="774" 
d="M73 0v708h256q75 0 148 -17.5t130 -58t92 -108t35 -168.5q0 -93 -34.5 -160.5t-91 -111t-127.5 -64t-144 -20.5h-264zM240 148h81q46 0 88.5 10.5t75 34.5t52 64t19.5 99q0 60 -19.5 99.5t-51.5 63t-74 33.5t-86 10h-85v-414z" />
    <glyph glyph-name="E" unicode="E" horiz-adv-x="607" 
d="M73 0v708h476v-145h-311v-133h294v-137h-294v-147h329v-146h-494z" />
    <glyph glyph-name="F" unicode="F" horiz-adv-x="576" 
d="M73 0v708h466v-146h-297v-146h274v-141h-274v-275h-169z" />
    <glyph glyph-name="G" unicode="G" horiz-adv-x="769" 
d="M429 -18q-85 0 -156 27t-123 76t-81 117.5t-29 152.5q0 85 29.5 154t81.5 117.5t122 74.5t151 26q84 0 156 -25.5t117 -68.5l-108 -123q-25 29 -66 47.5t-93 18.5q-45 0 -83 -16.5t-66 -46t-43.5 -70t-15.5 -88.5q0 -49 14 -90t41.5 -70.5t68 -46t92.5 -16.5q30 0 57 4.5
t50 14.5v129h-135v138h292v-375q-52 -27 -121.5 -44t-151.5 -17z" />
    <glyph glyph-name="H" unicode="H" horiz-adv-x="764" 
d="M73 0v708h171v-268h276v268h171v-708h-171v296h-276v-296h-171z" />
    <glyph glyph-name="I" unicode="I" horiz-adv-x="318" 
d="M73 0v708h172v-708h-172z" />
    <glyph glyph-name="J" unicode="J" horiz-adv-x="529" 
d="M227 -19q-90 0 -150 46.5t-80 119.5l151 51q7 -28 25.5 -45t45.5 -17q42 0 55.5 29t13.5 76v467h172v-466q0 -42 -9.5 -88t-35 -84.5t-71 -63.5t-117.5 -25z" />
    <glyph glyph-name="K" unicode="K" horiz-adv-x="711" 
d="M73 0v708h168v-288h3l253 288h214l-305 -326l323 -382h-223l-263 326h-2v-326h-168z" />
    <glyph glyph-name="L" unicode="L" horiz-adv-x="526" 
d="M73 0v708h172v-559h274v-149h-446z" />
    <glyph glyph-name="M" unicode="M" horiz-adv-x="955" 
d="M73 0v708h243l161 -454h4l154 454h247v-708h-167l4 501h-3l-184 -501h-120l-179 501h-3l4 -501h-161z" />
    <glyph glyph-name="N" unicode="N" horiz-adv-x="790" 
d="M73 0v708h195l284 -462h3l-4 462h166v-708h-194l-285 463h-3l4 -463h-166z" />
    <glyph glyph-name="O" unicode="O" horiz-adv-x="851" 
d="M425 -19q-83 0 -153.5 27.5t-122 77t-80.5 118.5t-29 153q0 85 29 153.5t80.5 116.5t122 74t153.5 26t154 -26t122.5 -74t80.5 -116.5t29 -153.5q0 -84 -29 -153t-80.5 -118.5t-122.5 -77t-154 -27.5zM425 137q45 0 82 16.5t64 45.5t42 69.5t15 88.5q0 47 -15 86.5
t-41.5 68t-64 45t-82.5 16.5t-82 -16.5t-64 -45t-41.5 -68t-14.5 -86.5q0 -48 15 -88.5t41.5 -69.5t63.5 -45.5t82 -16.5z" />
    <glyph glyph-name="P" unicode="P" horiz-adv-x="640" 
d="M73 0v708h260q58 0 108.5 -11.5t88 -37t59 -67t21.5 -102.5t-23 -104t-62 -69t-89.5 -38t-106.5 -12h-85v-267h-171zM244 403h72q24 0 46 4t39.5 14t27.5 26.5t10 41.5q0 26 -10 41.5t-27 24.5t-38.5 12t-44.5 3h-75v-167z" />
    <glyph glyph-name="Q" unicode="Q" horiz-adv-x="857" 
d="M414 0q-84 0 -154 24t-119.5 70.5t-77 114t-27.5 154.5q0 81 29 148t80.5 115t122 74.5t152.5 26.5q83 0 152.5 -26.5t120.5 -74t79.5 -114t28.5 -146.5q0 -40 -9 -76t-24 -65t-34 -51.5t-38 -37.5v-3l149 3v-136h-431zM419 146q44 0 80.5 15.5t63.5 44t42 68t15 87.5
q0 46 -14.5 85t-41 67t-63.5 43.5t-81 15.5q-43 0 -79.5 -15.5t-63.5 -43.5t-42 -67t-15 -85q0 -48 14.5 -87.5t41 -68t63 -44t80.5 -15.5z" />
    <glyph glyph-name="R" unicode="R" horiz-adv-x="663" 
d="M73 0v708h270q51 0 99.5 -10.5t87 -35.5t61.5 -66t23 -102q0 -72 -39 -121t-108 -70l185 -303h-200l-153 281h-58v-281h-168zM240 405h81q21 0 43 3.5t40 12.5t29.5 26t11.5 44q0 25 -10.5 40.5t-27 24t-37 11.5t-39.5 3h-91v-165z" />
    <glyph glyph-name="S" unicode="S" horiz-adv-x="591" 
d="M280 -18q-76 0 -147 26.5t-118 75.5l112 114q26 -32 68.5 -53.5t84.5 -21.5q20 0 37.5 4t31 13t21.5 24t8 36q0 20 -10 34t-28.5 25.5t-46 21t-62.5 20.5q-34 11 -66.5 26t-58 38.5t-41 57t-15.5 81.5q0 59 24.5 101t63.5 69t88 39.5t98 12.5q60 0 122.5 -22t109.5 -65
l-109 -115q-22 28 -57.5 44.5t-68.5 16.5q-16 0 -34 -3t-32 -11.5t-23.5 -22t-9.5 -34.5q0 -35 29 -51.5t80 -31.5q36 -11 75 -25.5t71.5 -38.5t53 -60t20.5 -89q0 -61 -22.5 -105.5t-60.5 -73.5t-86.5 -43t-101.5 -14z" />
    <glyph glyph-name="T" unicode="T" horiz-adv-x="581" 
d="M205 0v562h-200v146h571v-146h-200v-562h-171z" />
    <glyph glyph-name="U" unicode="U" horiz-adv-x="738" 
d="M368 -19q-70 0 -126 21t-95 58.5t-60 90t-21 116.5v441h170v-427q0 -28 7.5 -54.5t23 -47t41 -32.5t61.5 -12t61.5 12t41.5 32.5t23 47t7 54.5v427h171v-441q0 -64 -21.5 -116.5t-61.5 -90t-96.5 -58.5t-125.5 -21z" />
    <glyph glyph-name="V" unicode="V" horiz-adv-x="682" 
d="M253 0l-268 708h192l164 -502h4l163 502h189l-273 -708h-171z" />
    <glyph glyph-name="W" unicode="W" horiz-adv-x="1025" 
d="M201 0l-201 708h184l112 -471h3l126 471h178l127 -471h3l114 471h178l-202 -708h-169l-140 479h-3l-140 -479h-170z" />
    <glyph glyph-name="X" unicode="X" horiz-adv-x="703" 
d="M-8 0l248 374l-228 334h206l132 -220l130 220h199l-224 -334l256 -374h-211l-155 250l-149 -250h-204z" />
    <glyph glyph-name="Y" unicode="Y" horiz-adv-x="669" 
d="M489 708h200l-272 -408v-300h-171v300l-266 408h207l151 -263z" />
    <glyph glyph-name="Z" unicode="Z" horiz-adv-x="635" 
d="M39 0v148l337 415h-329v145h543v-137l-345 -423h352v-148h-558z" />
    <glyph glyph-name="bracketleft" unicode="[" horiz-adv-x="342" 
d="M53 -156v888h216v-102h-89v-684h89v-102h-216z" />
    <glyph glyph-name="backslash" unicode="\" horiz-adv-x="415" 
d="M309 -52l-308 775l113 39l308 -777z" />
    <glyph glyph-name="bracketright" unicode="]" horiz-adv-x="342" 
d="M73 -156v102h89v684h-89v102h216v-888h-216z" />
    <glyph glyph-name="asciicircum" unicode="^" horiz-adv-x="690" 
d="M73 343l213 365h118l212 -365h-148l-124 213l-123 -213h-148z" />
    <glyph glyph-name="underscore" unicode="_" horiz-adv-x="500" 
d="M0 -164v89h500v-89h-500z" />
    <glyph glyph-name="grave" unicode="`" horiz-adv-x="300" 
d="M107 572l-146 144h166l104 -144h-124z" />
    <glyph glyph-name="a" unicode="a" horiz-adv-x="566" 
d="M214 -12q-30 0 -62 8t-58.5 26t-43.5 48t-17 74q0 54 29.5 87t75 51t102 24t110.5 6h3v8q0 37 -26 54.5t-64 17.5q-35 0 -67.5 -15t-55.5 -36l-83 89q44 42 102.5 63t119.5 21q63 0 106.5 -15.5t70.5 -48t39.5 -82t12.5 -117.5v-251h-150v53h-3q-19 -31 -57.5 -48
t-83.5 -17zM255 98q50 0 76.5 27.5t26.5 74.5v17h-21q-27 0 -54.5 -2.5t-49 -9.5t-35.5 -20.5t-14 -35.5q0 -28 23 -39.5t48 -11.5z" />
    <glyph glyph-name="b" unicode="b" horiz-adv-x="659" 
d="M382 -14q-50 0 -94.5 20.5t-68.5 58.5h-2v-65h-151v756h164v-311h2q21 25 59 46t93 21q54 0 97.5 -21t74 -57t47 -83.5t16.5 -99.5t-16 -100t-46.5 -84.5t-74.5 -58.5t-100 -22zM343 122q29 0 51 11t37 29t22.5 41.5t7.5 47.5t-7.5 47t-22.5 40.5t-37 28.5t-51 11
q-28 0 -50 -11t-37.5 -29t-24 -41t-8.5 -47t8.5 -47t24 -41t37.5 -29t50 -11z" />
    <glyph glyph-name="c" unicode="c" horiz-adv-x="503" 
d="M318 -16q-59 0 -110 18t-88.5 52.5t-59 83.5t-21.5 111q0 61 21.5 110t59 83.5t88.5 53t109 18.5q27 0 53.5 -5t51 -13.5t45 -21t35.5 -27.5l-95 -110q-14 18 -38 29t-49 11q-26 0 -47 -10.5t-36 -28t-23.5 -40.5t-8.5 -49t8 -49t23.5 -40.5t37 -27.5t48.5 -10
q25 0 49.5 9.5t39.5 27.5l91 -111q-31 -30 -80 -47t-104 -17z" />
    <glyph glyph-name="d" unicode="d" horiz-adv-x="658" 
d="M276 -14q-56 0 -100 22t-74.5 58.5t-46.5 84.5t-16 100t16.5 99.5t47 83.5t74 57t97.5 21q55 0 93 -21t59 -46h2v311h164v-756h-151v65h-2q-24 -38 -68.5 -58.5t-94.5 -20.5zM315 122q28 0 50 11t37.5 29t24 41t8.5 47t-8.5 47t-24 41t-37.5 29t-50 11q-29 0 -51 -11
t-37 -28.5t-22.5 -40.5t-7.5 -47t7.5 -47.5t22.5 -41.5t37 -29t51 -11z" />
    <glyph glyph-name="e" unicode="e" horiz-adv-x="596" 
d="M313 -16q-56 0 -106 17.5t-87.5 51t-59 82.5t-21.5 112q0 61 21 110.5t57 84t85 53.5t106 19q55 0 101 -18.5t79 -53.5t51.5 -85t18.5 -114v-20t-1 -19h-361q2 -21 12.5 -38t27 -29.5t37 -19.5t42.5 -7q39 0 66 14.5t44 37.5l114 -72q-35 -51 -92.5 -78.5t-133.5 -27.5z
M407 306q0 39 -24.5 67t-73.5 28q-24 0 -44 -7.5t-35 -20.5t-23.5 -30.5t-10.5 -36.5h211z" />
    <glyph glyph-name="f" unicode="f" horiz-adv-x="364" 
d="M91 0v378h-91v123h91v45q0 46 10 87.5t34.5 73t66 50t103.5 18.5q21 0 41.5 -2.5t37.5 -7.5l-11 -130q-9 3 -21 5t-24 2q-22 0 -36.5 -8t-22.5 -21.5t-11 -30.5t-3 -34v-47h111v-123h-111v-378h-164z" />
    <glyph glyph-name="g" unicode="g" horiz-adv-x="658" 
d="M299 -240q-66 0 -135.5 20t-120.5 58l82 117q36 -32 79.5 -47.5t85.5 -15.5q72 0 106.5 38t34.5 101v30h-3q-23 -30 -62 -48t-89 -18q-57 0 -101 21t-74.5 56t-46.5 82t-16 99t16 99.5t46.5 83.5t74.5 57.5t100 21.5q47 0 90 -19t69 -59h2v64h155v-454q0 -73 -21 -127
t-59 -89.5t-92.5 -53t-120.5 -17.5zM315 125q28 0 50.5 10.5t38 28t24 41t8.5 49.5t-8.5 49t-24 40.5t-38 27.5t-50.5 10t-49.5 -10t-36.5 -27t-23 -40.5t-8 -49.5q0 -25 8 -48.5t23 -41.5t36.5 -28.5t49.5 -10.5z" />
    <glyph glyph-name="h" unicode="h" horiz-adv-x="617" 
d="M66 0v756h164v-321h2q17 30 54 53.5t89 23.5q51 0 85.5 -18t56 -46.5t31 -65t9.5 -74.5v-308h-165v270q0 21 -3 40t-11.5 33.5t-22.5 23t-36 8.5q-43 0 -66 -30.5t-23 -75.5v-269h-164z" />
    <glyph glyph-name="i" unicode="i" horiz-adv-x="296" 
d="M148 567q-40 0 -67 26.5t-27 63.5q0 18 7 34.5t20 28.5t30 19.5t37 7.5t37 -7t29.5 -19t20 -28.5t7.5 -35.5t-7.5 -35.5t-20 -28.5t-29.5 -19t-37 -7zM66 0v501h164v-501h-164z" />
    <glyph glyph-name="j" unicode="j" horiz-adv-x="299" 
d="M151 567q-40 0 -67 26.5t-27 63.5q0 18 7 34.5t20 28.5t30 19.5t37 7.5t37 -7t29.5 -19t20 -28.5t7.5 -35.5t-7.5 -35.5t-20 -28.5t-29.5 -19t-37 -7zM34 -240q-17 0 -37 2t-34 6l11 137q9 -3 18.5 -4t16.5 -1q36 0 48 24.5t12 62.5v514h164v-514q0 -46 -8.5 -87.5
t-30.5 -72.5t-61 -49t-99 -18z" />
    <glyph glyph-name="k" unicode="k" horiz-adv-x="595" 
d="M65 0v756h165v-458h3l159 203h199l-192 -226l200 -275h-203l-163 241h-3v-241h-165z" />
    <glyph glyph-name="l" unicode="l" horiz-adv-x="298" 
d="M66 0v756h166v-756h-166z" />
    <glyph glyph-name="m" unicode="m" horiz-adv-x="924" 
d="M683 515q51 0 85.5 -18.5t55.5 -48t30.5 -66t9.5 -71.5v-311h-164v275q0 21 -3 40.5t-11 33.5t-21.5 22.5t-35.5 8.5q-21 0 -36.5 -9t-26 -24t-15.5 -34.5t-5 -40.5v-272h-164v287q0 43 -17 68t-54 25q-39 0 -60.5 -31t-21.5 -76v-273h-165v501h159v-69h2q17 32 55 57.5
t94 25.5q54 0 91.5 -22t58.5 -63q25 39 63.5 62t95.5 23z" />
    <glyph glyph-name="n" unicode="n" horiz-adv-x="616" 
d="M64 0v501h159v-69h2q9 17 23.5 32t34 26t42.5 18t49 7q50 0 85 -18t56.5 -46.5t31 -65t9.5 -74.5v-311h-165v275q0 21 -3.5 40t-11.5 33.5t-22.5 23t-36.5 8.5t-38.5 -8.5t-27.5 -23.5t-16.5 -34.5t-5.5 -40.5v-273h-165z" />
    <glyph glyph-name="o" unicode="o" horiz-adv-x="632" 
d="M315 -16q-56 0 -106.5 19t-88 53.5t-59.5 84t-22 110.5t22 110t59.5 83t88 52t106.5 18q57 0 107 -18t88 -52t60 -83t22 -110t-22 -110.5t-60 -84t-88 -53.5t-107 -19zM316 122q29 0 51 11t37 29.5t22.5 41.5t7.5 47t-8 47t-23 40.5t-37 28.5t-51 11t-51 -11t-36.5 -28.5
t-22 -40.5t-7.5 -47t7.5 -47t22.5 -41.5t37 -29.5t51 -11z" />
    <glyph glyph-name="p" unicode="p" horiz-adv-x="657" 
d="M64 -240v741h156v-61h3q23 30 63.5 52.5t95.5 22.5q54 0 98 -21t74.5 -57t47 -83.5t16.5 -100.5q0 -52 -16 -100.5t-46.5 -85.5t-74.5 -59t-100 -22q-46 0 -87 18.5t-64 50.5h-2v-295h-164zM342 122q29 0 51 11t36.5 29.5t22 42t7.5 48.5q0 24 -7.5 47t-22 41t-36.5 29
t-51 11q-28 0 -50 -11.5t-37.5 -29.5t-24 -41t-8.5 -47q0 -25 8.5 -48.5t24 -41.5t37.5 -29t50 -11z" />
    <glyph glyph-name="q" unicode="q" horiz-adv-x="657" 
d="M429 -240v295h-2q-24 -32 -64.5 -50.5t-86.5 -18.5q-57 0 -101 22t-74 59t-46 85.5t-16 100.5q0 53 16.5 100.5t47 83.5t74 57t97.5 21q56 0 96.5 -22.5t63.5 -52.5h3v61h155v-741h-163zM315 122q28 0 50 11t37.5 29t24 41.5t8.5 48.5q0 24 -8.5 47t-24 41t-37.5 29.5
t-50 11.5q-29 0 -51 -11t-37 -29t-22.5 -41t-7.5 -47q0 -25 7.5 -48.5t22.5 -42t37 -29.5t51 -11z" />
    <glyph glyph-name="r" unicode="r" horiz-adv-x="396" 
d="M64 0v501h158v-72h2q19 38 54 62t81 24q10 0 19.5 -1t15.5 -3l-7 -144q-11 3 -21.5 4t-20.5 1q-33 0 -55.5 -12t-36 -29t-19.5 -37t-6 -35v-259h-164z" />
    <glyph glyph-name="s" unicode="s" horiz-adv-x="472" 
d="M228 -16q-61 0 -119.5 19.5t-97.5 57.5l92 97q22 -24 54 -40t68 -16q20 0 39.5 9.5t19.5 33.5q0 23 -24 34t-75 23q-26 6 -52 16t-46.5 27t-33.5 42t-13 60q0 45 19 76.5t49 51.5t66.5 29.5t72.5 9.5q56 0 109.5 -17.5t90.5 -52.5l-90 -93q-20 19 -47 32t-57 13
q-23 0 -42.5 -9t-19.5 -31q0 -21 21.5 -30t69.5 -20q29 -6 57 -17t51 -29t37 -44t14 -62q0 -47 -19 -79.5t-49.5 -52.5t-68.5 -29t-76 -9z" />
    <glyph glyph-name="t" unicode="t" horiz-adv-x="372" 
d="M259 -12q-50 0 -84 13t-54.5 36t-29.5 55.5t-9 72.5v213h-80v123h79v130h161v-130h117v-123h-117v-193q0 -35 13.5 -52.5t48.5 -17.5q12 0 25.5 2t22.5 6l2 -120q-17 -6 -43 -10.5t-52 -4.5z" />
    <glyph glyph-name="u" unicode="u" horiz-adv-x="614" 
d="M240 -14q-50 0 -84.5 18t-56 46.5t-31 65.5t-9.5 74v311h165v-273q0 -21 3 -40t11.5 -34t23 -23.5t36.5 -8.5q43 0 65.5 32t22.5 75v272h164v-501h-158v69h-2q-9 -16 -23.5 -31.5t-34 -26.5t-43 -18t-49.5 -7z" />
    <glyph glyph-name="v" unicode="v" horiz-adv-x="567" 
d="M195 0l-196 501h181l105 -326h3l105 326h175l-196 -501h-177z" />
    <glyph glyph-name="w" unicode="w" horiz-adv-x="871" 
d="M172 0l-172 501h177l86 -318h3l89 318h165l92 -318h2l87 318h170l-173 -501h-165l-98 313h-2l-96 -313h-165z" />
    <glyph glyph-name="x" unicode="x" horiz-adv-x="594" 
d="M-3 0l199 263l-180 238h191l93 -134l94 134h185l-179 -238l197 -263h-193l-107 155l-110 -155h-190z" />
    <glyph glyph-name="y" unicode="y" horiz-adv-x="567" 
d="M126 -240q-23 0 -47.5 3t-42.5 8l18 138q12 -4 26.5 -6.5t26.5 -2.5q38 0 55 17.5t29 49.5l16 41l-208 493h182l111 -323h3l99 323h174l-223 -576q-15 -39 -33.5 -69.5t-44 -52t-60 -32.5t-81.5 -11z" />
    <glyph glyph-name="z" unicode="z" horiz-adv-x="512" 
d="M34 0v128l234 247h-225v126h425v-123l-241 -251h251v-127h-444z" />
    <glyph glyph-name="braceleft" unicode="{" horiz-adv-x="342" 
d="M210 -156q-63 0 -100 40t-37 108v167q0 23 -6 37.5t-15.5 22.5t-21.5 11t-24 3v110q12 0 24 3t21.5 10.5t15.5 21.5t6 35v171q0 68 37 108t100 40h82v-105h-47q-29 0 -37.5 -19t-8.5 -41v-167q0 -29 -10 -49.5t-24.5 -33.5t-30.5 -19.5t-28 -8.5v-2q12 -1 28 -7t30.5 -19
t24.5 -34.5t10 -54.5v-163q0 -22 8.5 -41t37.5 -19h47v-105h-82z" />
    <glyph glyph-name="bar" unicode="|" horiz-adv-x="241" 
d="M56 -250l-1 1006h131v-1006h-130z" />
    <glyph glyph-name="braceright" unicode="}" horiz-adv-x="342" 
d="M50 -156v105h47q29 0 37.5 19t8.5 41v163q0 33 10 54.5t24.5 34.5t30.5 19t28 7v2q-12 2 -28 8.5t-30.5 19.5t-24.5 33.5t-10 49.5v167q0 22 -8.5 41t-37.5 19h-47v105h82q63 0 100 -40t37 -108v-171q0 -21 6 -35t15.5 -21.5t21.5 -10.5t24 -3v-110q-12 0 -24 -3
t-21.5 -11t-15.5 -22.5t-6 -37.5v-167q0 -68 -37 -108t-100 -40h-82z" />
    <glyph glyph-name="asciitilde" unicode="~" horiz-adv-x="666" 
d="M454 185q-32 0 -56.5 9t-55.5 29q-30 19 -54.5 28.5t-52.5 9.5q-29 0 -49 -19.5t-35 -50.5l-66 104q23 45 56.5 72t80.5 27q32 0 61 -9.5t59 -27.5q34 -20 58 -30t41 -10q28 0 48.5 22t38.5 49l65 -103q-11 -19 -24.5 -37t-30 -32t-37.5 -22.5t-47 -8.5z" />
    <glyph glyph-name="uni00A0" unicode="&#xa0;" 
 />
    <glyph glyph-name="exclamdown" unicode="&#xa1;" horiz-adv-x="357" 
d="M178 329q-20 0 -38 7.5t-31 20.5t-20.5 30.5t-7.5 36.5q0 20 8 37t21 30t31 20t37 7q20 0 38 -7.5t31.5 -20t21 -30t7.5 -37.5q0 -19 -7.5 -36.5t-21 -30t-31.5 -20t-38 -7.5zM94 -200v471h168v-471h-168z" />
    <glyph glyph-name="cent" unicode="&#xa2;" horiz-adv-x="646" 
d="M314 -79v65q-53 6 -96 28t-73.5 56.5t-47 80.5t-16.5 99q0 54 16.5 98.5t47.5 78.5t74 56t95 29v64h76v-64q46 -3 88.5 -18.5t70.5 -44.5l-83 -104q-31 33 -76 39v-270q23 2 43.5 12.5t35.5 26.5l81 -102q-29 -29 -72 -45t-88 -20v-65h-76zM314 382q-45 -11 -68.5 -47.5
t-23.5 -85.5q0 -48 24 -84.5t68 -48.5v266z" />
    <glyph glyph-name="sterling" unicode="&#xa3;" horiz-adv-x="646" 
d="M72 0v141h95v160h-95v115h95v61q0 41 14.5 85t45.5 81t80.5 60.5t119.5 23.5q65 0 114.5 -19t83.5 -50l-96 -110q-16 17 -40.5 27.5t-51.5 10.5q-31 0 -51.5 -11t-32.5 -28.5t-16.5 -38.5t-4.5 -41v-51h156v-115h-156v-160h259v-141h-519z" />
    <glyph glyph-name="currency" unicode="&#xa4;" horiz-adv-x="646" 
d="M112 -7l-83 83l86 85q-17 27 -26 62t-9 68q0 36 7.5 68t24.5 59l-82 81l82 81l82 -81q29 17 62 27t68 10q34 0 68.5 -9.5t61.5 -25.5l79 79l84 -81l-81 -80q18 -29 26 -60.5t8 -67.5q0 -33 -9.5 -70t-26.5 -63l82 -81l-81 -84l-84 84q-52 -33 -127 -33q-31 0 -65.5 9.5
t-61.5 25.5zM324 166q28 0 50 10t37.5 27t23.5 40t8 48q0 26 -8 48.5t-23.5 39t-37.5 26.5t-50 10q-27 0 -49 -10t-37.5 -26.5t-23.5 -39t-8 -48.5q0 -25 8 -48t23.5 -40t37.5 -27t49 -10z" />
    <glyph glyph-name="yen" unicode="&#xa5;" horiz-adv-x="646" 
d="M245 0v145h-178v103h178v65h-178v103h127l-182 292h185l132 -260l129 260h179l-179 -292h124v-103h-179v-65h179v-103h-179v-145h-158z" />
    <glyph glyph-name="brokenbar" unicode="&#xa6;" horiz-adv-x="241" 
d="M55 313v362h131v-362h-131zM55 -175v362h131v-362h-131z" />
    <glyph glyph-name="section" unicode="&#xa7;" horiz-adv-x="607" 
d="M293 -148q-36 0 -72.5 7.5t-70 23t-62 38t-48.5 52.5l122 87q23 -38 61.5 -55.5t72.5 -17.5q12 0 25 3t23.5 9.5t17.5 16t7 22.5q0 32 -29 48.5t-93 38.5l-15 5q-36 13 -67 27t-54 33.5t-36 45.5t-13 62q0 51 25.5 84.5t60.5 53.5q-53 39 -53 113q0 47 21.5 80t55 55
t74.5 32t79 10q74 0 133.5 -26t94.5 -77l-116 -88q-18 28 -47 44t-58 16q-12 0 -25 -3t-23 -9t-16.5 -15t-6.5 -22q0 -26 27.5 -43t81.5 -36l13 -5q37 -14 69.5 -30t57 -37.5t38.5 -49.5t14 -66q0 -40 -20.5 -73t-54.5 -52q27 -19 38.5 -48t11.5 -62q0 -52 -22.5 -88.5
t-58 -59.5t-78.5 -33.5t-85 -10.5zM383 212q15 7 23 21t8 30q0 30 -24 46.5t-54 29.5l-86 35q-17 -7 -29 -19.5t-12 -33.5q0 -15 6.5 -26t18 -19.5t26 -14.5t29.5 -12z" />
    <glyph glyph-name="dieresis" unicode="&#xa8;" horiz-adv-x="300" 
d="M41 576q-35 0 -59 24t-24 58q0 16 6.5 30.5t17.5 26t26.5 18t32.5 6.5q35 0 59.5 -23.5t24.5 -57.5q0 -35 -24.5 -58.5t-59.5 -23.5zM259 576q-35 0 -59 24t-24 58q0 16 6.5 30.5t17.5 26t26 18t33 6.5q34 0 58.5 -23.5t24.5 -57.5q0 -35 -24.5 -58.5t-58.5 -23.5z" />
    <glyph glyph-name="ordfeminine" unicode="&#xaa;" horiz-adv-x="384" 
d="M151 424q-19 0 -38 5t-34 15.5t-24.5 27.5t-9.5 40q0 32 17 51.5t44 30t59.5 13.5t63.5 3h2v4q0 18 -14 26.5t-36 8.5q-20 0 -38 -8t-30 -20l-54 55q25 23 60 35t71 12q41 0 68 -10.5t43 -28t22 -40.5t6 -49v-164h-93v27h-1q-11 -17 -34 -25.5t-50 -8.5zM179 491
q26 0 40.5 14t14.5 36v12h-12q-13 0 -27.5 -1.5t-26 -5t-19 -10.5t-7.5 -18q0 -14 12 -20.5t25 -6.5z" />
    <glyph glyph-name="guillemotleft" unicode="&#xab;" horiz-adv-x="543" 
d="M186 22l-161 232l161 232l97 -63l-115 -169l116 -169zM412 22l-161 232l161 232l97 -63l-115 -169l116 -169z" />
    <glyph glyph-name="logicalnot" unicode="&#xac;" horiz-adv-x="666" 
d="M476 145v183h-425v123h555v-306h-130z" />
    <glyph glyph-name="uni00AD" unicode="&#xad;" horiz-adv-x="326" 
d="M36 197v130h254v-130h-254z" />
    <glyph glyph-name="macron" unicode="&#xaf;" horiz-adv-x="300" 
d="M-18 601v86h336v-86h-336z" />
    <glyph glyph-name="degree" unicode="&#xb0;" horiz-adv-x="416" 
d="M208 390q-35 0 -66 13t-53.5 35.5t-35.5 53.5t-13 66t13 65.5t35.5 53t53.5 35.5t66 13t66 -13t53.5 -35.5t35.5 -53t13 -65.5t-13 -66t-35.5 -53.5t-53.5 -35.5t-66 -13zM208 470q37 0 62.5 25.5t25.5 62.5q0 36 -25.5 62t-62.5 26t-62.5 -26t-25.5 -62
q0 -37 25.5 -62.5t62.5 -25.5z" />
    <glyph glyph-name="plusminus" unicode="&#xb1;" horiz-adv-x="666" 
d="M274 199v132h-213v127h213v132h130v-132h212v-127h-212v-132h-130zM61 31v127h555v-127h-555z" />
    <glyph glyph-name="twosuperior" unicode="&#xb2;" horiz-adv-x="420" 
d="M55 445v92l170 156q29 26 29 56q0 18 -12 29t-33 11q-23 0 -37.5 -17t-16.5 -44l-110 14q4 35 18.5 62.5t37.5 46.5t52 29t61 10q30 0 59 -8t51.5 -24.5t36 -41.5t13.5 -60q0 -24 -6.5 -43t-17 -34.5t-24 -29.5t-28.5 -27l-87 -77h163v-100h-319z" />
    <glyph glyph-name="threesuperior" unicode="&#xb3;" horiz-adv-x="420" 
d="M215 436q-30 0 -57.5 7t-50.5 21.5t-41 37.5t-27 56l105 28q7 -22 22.5 -37.5t41.5 -15.5q20 0 38 10t18 36q0 15 -6.5 24t-17.5 14t-25 7t-29 2h-33v84h36q27 0 46 10.5t19 36.5q0 17 -13 27.5t-33 10.5q-18 0 -32 -13t-19 -35l-105 25q8 29 24.5 51t38.5 37t48 22.5
t53 7.5q30 0 57.5 -7t48.5 -22t34 -37.5t13 -54.5q0 -33 -15 -57.5t-41 -37.5v-2q32 -11 49 -37.5t17 -61.5q0 -36 -14.5 -62t-38 -42.5t-52.5 -24.5t-59 -8z" />
    <glyph glyph-name="acute" unicode="&#xb4;" horiz-adv-x="300" 
d="M69 572l104 144h166l-146 -144h-124z" />
    <glyph glyph-name="uni00B5" unicode="&#xb5;" horiz-adv-x="677" 
d="M645 1q-17 -5 -38.5 -8.5t-47.5 -3.5q-52 0 -79.5 20.5t-37.5 57.5q-7 -14 -18 -28.5t-27 -26t-35.5 -19t-42.5 -7.5q-26 0 -46.5 8t-30.5 21h-2v-247h-168v733h168v-270q0 -22 3 -41.5t11.5 -34.5t23.5 -23.5t39 -8.5q22 0 38.5 9t28 25t17 36.5t5.5 42.5v265h168v-340
q0 -25 9 -34.5t30 -9.5q7 0 14.5 1t14.5 3z" />
    <glyph glyph-name="paragraph" unicode="&#xb6;" horiz-adv-x="618" 
d="M238 -129v464q-49 1 -88.5 14.5t-67.5 37.5t-43 57.5t-15 73.5q0 54 19 90.5t52 58.5t77.5 31.5t95.5 9.5h287v-837h-116v737h-85v-737h-116z" />
    <glyph glyph-name="periodcentered" unicode="&#xb7;" horiz-adv-x="300" 
d="M151 193q-21 0 -39.5 7.5t-32.5 20.5t-22 30.5t-8 38.5q0 20 8 38t22 31.5t32.5 21.5t39.5 8q41 0 70.5 -28t29.5 -70t-29.5 -70t-70.5 -28z" />
    <glyph glyph-name="cedilla" unicode="&#xb8;" horiz-adv-x="300" 
d="M136 -240q-31 0 -63.5 7t-55.5 18l27 60q19 -9 41.5 -14t42.5 -5q16 0 33 6.5t17 26.5q0 18 -16 23.5t-31 5.5q-9 0 -20 -1.5t-20 -4.5l-31 29l67 89h82l-47 -60q5 1 9 1h9q18 0 36.5 -3.5t33 -12.5t24 -25.5t9.5 -41.5q0 -29 -14 -48t-36 -30t-47.5 -15.5t-49.5 -4.5z
" />
    <glyph glyph-name="onesuperior" unicode="&#xb9;" horiz-adv-x="420" 
d="M181 445v306l-74 -58l-60 81l145 107h106v-436h-117z" />
    <glyph glyph-name="ordmasculine" unicode="&#xba;" horiz-adv-x="384" 
d="M192 424q-32 0 -60.5 11t-49.5 30.5t-33 47.5t-12 62t12 61.5t33 47t49.5 30t60.5 10.5q33 0 61.5 -10.5t49.5 -30t33 -47t12 -61.5t-12 -62t-33 -47.5t-49.5 -30.5t-61.5 -11zM192 511q29 0 45 19t16 45q0 25 -16 44t-45 19t-44 -19t-15 -44q0 -26 15 -45t44 -19z" />
    <glyph glyph-name="guillemotright" unicode="&#xbb;" horiz-adv-x="543" 
d="M132 22l-97 63l115 168l-116 170l98 63l161 -233zM358 22l-97 63l115 168l-116 170l98 63l161 -233z" />
    <glyph glyph-name="onequarter" unicode="&#xbc;" horiz-adv-x="940" 
d="M614 739l87 -41l-388 -729l-87 39zM180 272v306l-74 -58l-60 81l145 107h106v-436h-117zM718 0v83h-200v93l175 260h131v-259h58v-94h-58v-83h-106zM629 177h89v134h-1z" />
    <glyph glyph-name="onehalf" unicode="&#xbd;" horiz-adv-x="940" 
d="M701 698l-388 -729l-87 39l388 731zM180 272v306l-74 -58l-60 81l145 107h106v-436h-117zM575 0v92l170 156q29 26 29 56q0 18 -12 29t-33 11q-23 0 -37.5 -17t-16.5 -44l-110 14q4 35 18.5 62.5t37.5 46.5t52 29t61 10q30 0 59 -8t51.5 -24.5t36 -41.5t13.5 -60
q0 -24 -6.5 -43t-17 -34.5t-24 -29.5t-28.5 -27l-87 -77h163v-100h-319z" />
    <glyph glyph-name="threequarters" unicode="&#xbe;" horiz-adv-x="940" 
d="M226 9l388 731l87 -41l-388 -729zM215 263q-30 0 -57.5 7t-50.5 21.5t-41 37.5t-27 56l105 28q7 -22 22.5 -37.5t41.5 -15.5q20 0 38 10t18 36q0 15 -6.5 24t-17.5 14t-25 7t-29 2h-33v84h36q27 0 46 10.5t19 36.5q0 17 -13 27.5t-33 10.5q-18 0 -32 -13t-19 -35l-105 25
q8 29 24.5 51t38.5 37t48 22.5t53 7.5q30 0 57.5 -7t48.5 -22t34 -37.5t13 -54.5q0 -33 -15 -57t-40 -38v-2q32 -11 48.5 -37.5t16.5 -61.5q0 -36 -14.5 -62t-38 -42.5t-52.5 -24.5t-59 -8zM718 0v83h-200v93l175 260h131v-259h58v-94h-58v-83h-106zM629 177h89v134h-1z" />
    <glyph glyph-name="questiondown" unicode="&#xbf;" horiz-adv-x="546" 
d="M263 329q-20 0 -37.5 7.5t-31 20t-21.5 30t-8 36.5q0 20 7.5 37.5t21 30t31.5 20t38 7.5t37.5 -7t31 -20t21.5 -30t8 -37q0 -19 -7.5 -36.5t-21 -30.5t-31.5 -20.5t-38 -7.5zM255 -218q-44 0 -86.5 11.5t-75.5 36t-53.5 62t-20.5 89.5q0 33 8 58.5t22.5 46.5t35.5 39.5
t47 38.5q16 12 26.5 22.5t16.5 20.5t8.5 22t2.5 27v26h156v-37q0 -26 -5 -46.5t-15 -37.5t-25 -33t-34 -34l-34 -30q-17 -16 -29 -32t-12 -39q0 -32 20 -51.5t54 -19.5q41 0 62.5 28.5t22.5 65.5l160 -18q-6 -54 -28 -94.5t-56 -67.5t-77 -40.5t-91 -13.5z" />
    <glyph glyph-name="Agrave" unicode="&#xc0;" horiz-adv-x="729" 
d="M439 764h-124l-146 144h166zM449 708l294 -708h-190l-55 139h-274l-52 -139h-186l297 708h166zM273 276h178l-88 243z" />
    <glyph glyph-name="Aacute" unicode="&#xc1;" horiz-adv-x="729" 
d="M564 908l-146 -144h-124l104 144h166zM449 708l294 -708h-190l-55 139h-274l-52 -139h-186l297 708h166zM273 276h178l-88 243z" />
    <glyph glyph-name="Acircumflex" unicode="&#xc2;" horiz-adv-x="729" 
d="M366 845l-68 -81h-128l124 144h148l122 -144h-130zM449 708l294 -708h-190l-55 139h-274l-52 -139h-186l297 708h166zM273 276h178l-88 243z" />
    <glyph glyph-name="Atilde" unicode="&#xc3;" horiz-adv-x="729" 
d="M294 809q-18 0 -27.5 -12t-14.5 -28h-72q3 26 11 49.5t21.5 41.5t33.5 28.5t47 10.5q21 0 41 -5.5t40 -14.5q21 -10 36 -15t29 -5q19 0 28 11.5t14 29.5h71q-3 -26 -11 -50t-21.5 -42t-33.5 -29t-47 -11q-43 0 -82 21q-20 11 -34.5 15.5t-28.5 4.5zM449 708l294 -708
h-190l-55 139h-274l-52 -139h-186l297 708h166zM273 276h178l-88 243z" />
    <glyph glyph-name="Adieresis" unicode="&#xc4;" horiz-adv-x="729" 
d="M257 768q-35 0 -59 24t-24 58q0 16 6.5 30.5t17.5 26t26 18t33 6.5q35 0 59 -23.5t24 -57.5q0 -35 -24 -58.5t-59 -23.5zM474 768q-35 0 -59 24t-24 58q0 16 6.5 30.5t18 26t26.5 18t32 6.5q35 0 59.5 -23.5t24.5 -57.5q0 -35 -24.5 -58.5t-59.5 -23.5zM449 708l294 -708
h-190l-55 139h-274l-52 -139h-186l297 708h166zM273 276h178l-88 243z" />
    <glyph glyph-name="Aring" unicode="&#xc5;" horiz-adv-x="729" 
d="M367 749q-22 0 -42 8t-35 22t-23.5 33.5t-8.5 42.5q0 47 31.5 77.5t77.5 30.5q23 0 42.5 -8t34.5 -22.5t23.5 -34t8.5 -42.5t-8.5 -42.5t-23.5 -34t-34.5 -22.5t-42.5 -8zM367 914q-26 0 -42.5 -17t-16.5 -42q0 -24 17 -40.5t42 -16.5t42 16.5t17 41.5t-17 41.5t-42 16.5
zM449 708l294 -708h-190l-55 139h-274l-52 -139h-186l297 708h166zM273 276h178l-88 243z" />
    <glyph glyph-name="AE" unicode="&#xc6;" horiz-adv-x="1033" 
d="M-4 0l414 708h565v-145h-298v-133h281v-137h-281v-147h316v-146h-479v153h-231l-88 -153h-199zM351 291h163v272h-10z" />
    <glyph glyph-name="Ccedilla" unicode="&#xc7;" horiz-adv-x="696" 
d="M384 -240q-31 0 -63.5 7t-55.5 18l27 60q19 -9 41.5 -14t42.5 -5q16 0 33 6.5t17 26.5q0 18 -16 23.5t-31 5.5q-9 0 -20 -1.5t-20 -4.5l-31 29l55 74q-70 9 -129.5 39.5t-102.5 78.5t-67 112t-24 140q0 85 29.5 154t81.5 117.5t122 74.5t151 26q75 0 147.5 -26.5
t117.5 -77.5l-116 -116q-24 33 -63 49t-80 16q-45 0 -82.5 -16.5t-64.5 -45.5t-42 -68.5t-15 -86.5q0 -48 15 -88t41.5 -68.5t63.5 -44.5t81 -16q51 0 89 20t61 52l119 -112q-44 -51 -108 -81.5t-146 -34.5l-32 -42q5 1 9 1h9q18 0 36.5 -3.5t33 -12.5t24 -25.5t9.5 -41.5
q0 -29 -14 -48t-36 -30t-47.5 -15.5t-49.5 -4.5z" />
    <glyph glyph-name="Egrave" unicode="&#xc8;" horiz-adv-x="607" 
d="M282 764l-146 144h166l104 -144h-124zM73 0v708h476v-145h-311v-133h294v-137h-294v-147h329v-146h-494z" />
    <glyph glyph-name="Eacute" unicode="&#xc9;" horiz-adv-x="607" 
d="M233 764l104 144h166l-146 -144h-124zM73 0v708h476v-145h-311v-133h294v-137h-294v-147h329v-146h-494z" />
    <glyph glyph-name="Ecircumflex" unicode="&#xca;" horiz-adv-x="607" 
d="M118 764l124 144h148l122 -144h-130l-68 81l-68 -81h-128zM73 0v708h476v-145h-311v-133h294v-137h-294v-147h329v-146h-494z" />
    <glyph glyph-name="Edieresis" unicode="&#xcb;" horiz-adv-x="607" 
d="M206 768q-35 0 -59 24t-24 58q0 16 6.5 30.5t17.5 26t26 18t33 6.5q35 0 59 -23.5t24 -57.5q0 -35 -24 -58.5t-59 -23.5zM423 768q-35 0 -59 24t-24 58q0 16 6.5 30.5t18 26t26.5 18t32 6.5q35 0 59.5 -23.5t24.5 -57.5q0 -35 -24.5 -58.5t-59.5 -23.5zM73 0v708h476
v-145h-311v-133h294v-137h-294v-147h329v-146h-494z" />
    <glyph glyph-name="Igrave" unicode="&#xcc;" horiz-adv-x="318" 
d="M121 764l-146 144h166l104 -144h-124zM73 0v708h172v-708h-172z" />
    <glyph glyph-name="Iacute" unicode="&#xcd;" horiz-adv-x="318" 
d="M73 764l104 144h166l-146 -144h-124zM73 0v708h172v-708h-172z" />
    <glyph glyph-name="Icircumflex" unicode="&#xce;" horiz-adv-x="318" 
d="M-39 764l124 144h148l122 -144h-130l-68 81l-68 -81h-128zM73 0v708h172v-708h-172z" />
    <glyph glyph-name="Idieresis" unicode="&#xcf;" horiz-adv-x="318" 
d="M50 768q-35 0 -59 24t-24 58q0 16 6.5 30.5t17.5 26t26 18t33 6.5q35 0 59 -23.5t24 -57.5q0 -35 -24 -58.5t-59 -23.5zM267 768q-35 0 -59 24t-24 58q0 16 6.5 30.5t18 26t26.5 18t32 6.5q35 0 59.5 -23.5t24.5 -57.5q0 -35 -24.5 -58.5t-59.5 -23.5zM73 0v708h172v-708
h-172z" />
    <glyph glyph-name="Eth" unicode="&#xd0;" horiz-adv-x="774" 
d="M74 0v309h-61v107h61v292h273q75 0 145 -19.5t123 -62t85 -109t32 -161.5q0 -92 -34 -159t-89 -111t-124 -65t-139 -21h-272zM241 150h74q52 0 96.5 11.5t76.5 36.5t50.5 64t18.5 94q0 53 -16.5 91t-46.5 63t-71.5 37t-91.5 12h-90v-143h181v-107h-181v-159z" />
    <glyph glyph-name="Ntilde" unicode="&#xd1;" horiz-adv-x="790" 
d="M213 769q3 26 11 49.5t21.5 41.5t33.5 28.5t47 10.5q21 0 41 -5.5t40 -14.5q21 -10 36 -15t29 -5q19 0 28 11.5t14 29.5h71q-3 -26 -11 -50t-21.5 -42t-33.5 -29t-47 -11q-43 0 -82 21q-20 11 -34.5 15.5t-28.5 4.5q-18 0 -27.5 -12t-14.5 -28h-72zM73 0v708h195
l284 -462h3l-4 462h166v-708h-194l-285 463h-3l4 -463h-166z" />
    <glyph glyph-name="Ograve" unicode="&#xd2;" horiz-adv-x="851" 
d="M403 764l-146 144h166l104 -144h-124zM425 -19q-83 0 -153.5 27.5t-122 77t-80.5 118.5t-29 153q0 85 29 153.5t80.5 116.5t122 74t153.5 26t154 -26t122.5 -74t80.5 -116.5t29 -153.5q0 -84 -29 -153t-80.5 -118.5t-122.5 -77t-154 -27.5zM425 137q45 0 82 16.5t64 45.5
t42 69.5t15 88.5q0 47 -15 86.5t-41.5 68t-64 45t-82.5 16.5t-82 -16.5t-64 -45t-41.5 -68t-14.5 -86.5q0 -48 15 -88.5t41.5 -69.5t63.5 -45.5t82 -16.5z" />
    <glyph glyph-name="Oacute" unicode="&#xd3;" horiz-adv-x="851" 
d="M335 764l104 144h166l-146 -144h-124zM425 -19q-83 0 -153.5 27.5t-122 77t-80.5 118.5t-29 153q0 85 29 153.5t80.5 116.5t122 74t153.5 26t154 -26t122.5 -74t80.5 -116.5t29 -153.5q0 -84 -29 -153t-80.5 -118.5t-122.5 -77t-154 -27.5zM425 137q45 0 82 16.5t64 45.5
t42 69.5t15 88.5q0 47 -15 86.5t-41.5 68t-64 45t-82.5 16.5t-82 -16.5t-64 -45t-41.5 -68t-14.5 -86.5q0 -48 15 -88.5t41.5 -69.5t63.5 -45.5t82 -16.5z" />
    <glyph glyph-name="Ocircumflex" unicode="&#xd4;" horiz-adv-x="851" 
d="M229 764l124 144h148l122 -144h-130l-68 81l-68 -81h-128zM425 -19q-83 0 -153.5 27.5t-122 77t-80.5 118.5t-29 153q0 85 29 153.5t80.5 116.5t122 74t153.5 26t154 -26t122.5 -74t80.5 -116.5t29 -153.5q0 -84 -29 -153t-80.5 -118.5t-122.5 -77t-154 -27.5zM425 137
q45 0 82 16.5t64 45.5t42 69.5t15 88.5q0 47 -15 86.5t-41.5 68t-64 45t-82.5 16.5t-82 -16.5t-64 -45t-41.5 -68t-14.5 -86.5q0 -48 15 -88.5t41.5 -69.5t63.5 -45.5t82 -16.5z" />
    <glyph glyph-name="Otilde" unicode="&#xd5;" horiz-adv-x="851" 
d="M241 769q3 26 11 49.5t21.5 41.5t33.5 28.5t47 10.5q21 0 41 -5.5t40 -14.5q21 -10 36 -15t29 -5q19 0 28 11.5t14 29.5h71q-3 -26 -11 -50t-21.5 -42t-33.5 -29t-47 -11q-43 0 -82 21q-20 11 -34.5 15.5t-28.5 4.5q-18 0 -27.5 -12t-14.5 -28h-72zM425 -19
q-83 0 -153.5 27.5t-122 77t-80.5 118.5t-29 153q0 85 29 153.5t80.5 116.5t122 74t153.5 26t154 -26t122.5 -74t80.5 -116.5t29 -153.5q0 -84 -29 -153t-80.5 -118.5t-122.5 -77t-154 -27.5zM425 137q45 0 82 16.5t64 45.5t42 69.5t15 88.5q0 47 -15 86.5t-41.5 68t-64 45
t-82.5 16.5t-82 -16.5t-64 -45t-41.5 -68t-14.5 -86.5q0 -48 15 -88.5t41.5 -69.5t63.5 -45.5t82 -16.5z" />
    <glyph glyph-name="Odieresis" unicode="&#xd6;" horiz-adv-x="851" 
d="M317 768q-35 0 -59 24t-24 58q0 16 6.5 30.5t17.5 26t26 18t33 6.5q35 0 59 -23.5t24 -57.5q0 -35 -24 -58.5t-59 -23.5zM534 768q-35 0 -59 24t-24 58q0 16 6.5 30.5t18 26t26.5 18t32 6.5q35 0 59.5 -23.5t24.5 -57.5q0 -35 -24.5 -58.5t-59.5 -23.5zM425 -19
q-83 0 -153.5 27.5t-122 77t-80.5 118.5t-29 153q0 85 29 153.5t80.5 116.5t122 74t153.5 26t154 -26t122.5 -74t80.5 -116.5t29 -153.5q0 -84 -29 -153t-80.5 -118.5t-122.5 -77t-154 -27.5zM425 137q45 0 82 16.5t64 45.5t42 69.5t15 88.5q0 47 -15 86.5t-41.5 68t-64 45
t-82.5 16.5t-82 -16.5t-64 -45t-41.5 -68t-14.5 -86.5q0 -48 15 -88.5t41.5 -69.5t63.5 -45.5t82 -16.5z" />
    <glyph glyph-name="Oslash" unicode="&#xd8;" horiz-adv-x="851" 
d="M106 -44l-67 57l89 97q-43 46 -65.5 109t-22.5 137q0 85 29 153.5t80.5 116.5t122 74t153.5 26q126 0 219 -58l87 97l67 -59l-86 -93q48 -49 73.5 -113t25.5 -144q0 -84 -29 -152.5t-81 -117.5t-123 -76.5t-154 -27.5q-139 0 -229 69zM535 550q-20 14 -48.5 21.5
t-61.5 7.5q-49 0 -88.5 -17.5t-66.5 -48t-41.5 -71t-14.5 -87.5q0 -73 31 -120zM424 131q48 0 87 17.5t66.5 47.5t42.5 71t15 89q0 38 -9 71t-29 59l-292 -318q46 -37 119 -37z" />
    <glyph glyph-name="Ugrave" unicode="&#xd9;" horiz-adv-x="738" 
d="M346 764l-146 144h166l104 -144h-124zM368 -19q-70 0 -126 21t-95 58.5t-60 90t-21 116.5v441h170v-427q0 -28 7.5 -54.5t23 -47t41 -32.5t61.5 -12t61.5 12t41.5 32.5t23 47t7 54.5v427h171v-441q0 -64 -21.5 -116.5t-61.5 -90t-96.5 -58.5t-125.5 -21z" />
    <glyph glyph-name="Uacute" unicode="&#xda;" horiz-adv-x="738" 
d="M273 764l104 144h166l-146 -144h-124zM368 -19q-70 0 -126 21t-95 58.5t-60 90t-21 116.5v441h170v-427q0 -28 7.5 -54.5t23 -47t41 -32.5t61.5 -12t61.5 12t41.5 32.5t23 47t7 54.5v427h171v-441q0 -64 -21.5 -116.5t-61.5 -90t-96.5 -58.5t-125.5 -21z" />
    <glyph glyph-name="Ucircumflex" unicode="&#xdb;" horiz-adv-x="738" 
d="M173 764l124 144h148l122 -144h-130l-68 81l-68 -81h-128zM368 -19q-70 0 -126 21t-95 58.5t-60 90t-21 116.5v441h170v-427q0 -28 7.5 -54.5t23 -47t41 -32.5t61.5 -12t61.5 12t41.5 32.5t23 47t7 54.5v427h171v-441q0 -64 -21.5 -116.5t-61.5 -90t-96.5 -58.5
t-125.5 -21z" />
    <glyph glyph-name="Udieresis" unicode="&#xdc;" horiz-adv-x="738" 
d="M261 768q-35 0 -59 24t-24 58q0 16 6.5 30.5t17.5 26t26 18t33 6.5q35 0 59 -23.5t24 -57.5q0 -35 -24 -58.5t-59 -23.5zM478 768q-35 0 -59 24t-24 58q0 16 6.5 30.5t18 26t26.5 18t32 6.5q35 0 59.5 -23.5t24.5 -57.5q0 -35 -24.5 -58.5t-59.5 -23.5zM368 -19
q-70 0 -126 21t-95 58.5t-60 90t-21 116.5v441h170v-427q0 -28 7.5 -54.5t23 -47t41 -32.5t61.5 -12t61.5 12t41.5 32.5t23 47t7 54.5v427h171v-441q0 -64 -21.5 -116.5t-61.5 -90t-96.5 -58.5t-125.5 -21z" />
    <glyph glyph-name="Yacute" unicode="&#xdd;" horiz-adv-x="669" 
d="M543 908l-146 -144h-124l104 144h166zM489 708h200l-272 -408v-300h-171v300l-266 408h207l151 -263z" />
    <glyph glyph-name="Thorn" unicode="&#xde;" horiz-adv-x="640" 
d="M73 0v708h171v-121h89q58 0 108.5 -11.5t88 -37t59 -67t21.5 -102.5t-23 -104t-62 -69t-89.5 -38t-106.5 -12h-85v-146h-171zM244 282h72q24 0 46 4t39.5 14t27.5 26.5t10 41.5q0 26 -10 42t-27 25t-38.5 12t-44.5 3h-75v-168z" />
    <glyph glyph-name="germandbls" unicode="&#xdf;" horiz-adv-x="667" 
d="M373 -13q-46 0 -96 12v141q17 -6 39 -9.5t34 -3.5q48 0 80.5 23.5t32.5 79.5q0 30 -10.5 51.5t-29 35.5t-43 20.5t-52.5 6.5h-21v129h22q10 0 24.5 2.5t28 11t23.5 24.5t10 43q0 32 -21 56.5t-63 24.5q-30 0 -50 -12t-31.5 -31.5t-16.5 -43.5t-5 -48v-500h-164v501
q0 57 16 106t50 84.5t85.5 56t122.5 20.5q50 0 94 -14t77 -39.5t52 -62.5t19 -84q0 -56 -30 -96t-74 -54v-1q69 -14 111 -65.5t42 -129.5q0 -55 -18.5 -98.5t-52 -74t-80.5 -46.5t-105 -16z" />
    <glyph glyph-name="agrave" unicode="&#xe0;" horiz-adv-x="566" 
d="M258 572l-146 144h166l104 -144h-124zM214 -12q-30 0 -62 8t-58.5 26t-43.5 48t-17 74q0 54 29.5 87t75 51t102 24t110.5 6h3v8q0 37 -26 54.5t-64 17.5q-35 0 -67.5 -15t-55.5 -36l-83 89q44 42 102.5 63t119.5 21q63 0 106.5 -15.5t70.5 -48t39.5 -82t12.5 -117.5v-251
h-150v53h-3q-19 -31 -57.5 -48t-83.5 -17zM255 98q50 0 76.5 27.5t26.5 74.5v17h-21q-27 0 -54.5 -2.5t-49 -9.5t-35.5 -20.5t-14 -35.5q0 -28 23 -39.5t48 -11.5z" />
    <glyph glyph-name="aacute" unicode="&#xe1;" horiz-adv-x="566" 
d="M188 572l104 144h166l-146 -144h-124zM214 -12q-30 0 -62 8t-58.5 26t-43.5 48t-17 74q0 54 29.5 87t75 51t102 24t110.5 6h3v8q0 37 -26 54.5t-64 17.5q-35 0 -67.5 -15t-55.5 -36l-83 89q44 42 102.5 63t119.5 21q63 0 106.5 -15.5t70.5 -48t39.5 -82t12.5 -117.5v-251
h-150v53h-3q-19 -31 -57.5 -48t-83.5 -17zM255 98q50 0 76.5 27.5t26.5 74.5v17h-21q-27 0 -54.5 -2.5t-49 -9.5t-35.5 -20.5t-14 -35.5q0 -28 23 -39.5t48 -11.5z" />
    <glyph glyph-name="acircumflex" unicode="&#xe2;" horiz-adv-x="566" 
d="M88 572l124 144h148l122 -144h-130l-68 81l-68 -81h-128zM214 -12q-30 0 -62 8t-58.5 26t-43.5 48t-17 74q0 54 29.5 87t75 51t102 24t110.5 6h3v8q0 37 -26 54.5t-64 17.5q-35 0 -67.5 -15t-55.5 -36l-83 89q44 42 102.5 63t119.5 21q63 0 106.5 -15.5t70.5 -48
t39.5 -82t12.5 -117.5v-251h-150v53h-3q-19 -31 -57.5 -48t-83.5 -17zM255 98q50 0 76.5 27.5t26.5 74.5v17h-21q-27 0 -54.5 -2.5t-49 -9.5t-35.5 -20.5t-14 -35.5q0 -28 23 -39.5t48 -11.5z" />
    <glyph glyph-name="atilde" unicode="&#xe3;" horiz-adv-x="566" 
d="M102 577q3 26 11 49.5t21.5 41.5t33.5 28.5t47 10.5q21 0 41 -5.5t40 -14.5q21 -10 36 -15t29 -5q19 0 28 11.5t14 29.5h71q-3 -26 -11 -50t-21.5 -42t-33.5 -29t-47 -11q-21 0 -41.5 6t-40.5 15q-20 11 -34.5 15.5t-28.5 4.5q-18 0 -27.5 -12t-14.5 -28h-72zM214 -12
q-30 0 -62 8t-58.5 26t-43.5 48t-17 74q0 54 29.5 87t75 51t102 24t110.5 6h3v8q0 37 -26 54.5t-64 17.5q-35 0 -67.5 -15t-55.5 -36l-83 89q44 42 102.5 63t119.5 21q63 0 106.5 -15.5t70.5 -48t39.5 -82t12.5 -117.5v-251h-150v53h-3q-19 -31 -57.5 -48t-83.5 -17zM255 98
q50 0 76.5 27.5t26.5 74.5v17h-21q-27 0 -54.5 -2.5t-49 -9.5t-35.5 -20.5t-14 -35.5q0 -28 23 -39.5t48 -11.5z" />
    <glyph glyph-name="adieresis" unicode="&#xe4;" horiz-adv-x="566" 
d="M176 576q-35 0 -59 24t-24 58q0 16 6.5 30.5t18 26t26.5 18t32 6.5q35 0 59.5 -23.5t24.5 -57.5q0 -35 -24.5 -58.5t-59.5 -23.5zM394 576q-35 0 -59 24t-24 58q0 16 6.5 30.5t17.5 26t26 18t33 6.5q34 0 58.5 -23.5t24.5 -57.5q0 -35 -24.5 -58.5t-58.5 -23.5zM214 -12
q-30 0 -62 8t-58.5 26t-43.5 48t-17 74q0 54 29.5 87t75 51t102 24t110.5 6h3v8q0 37 -26 54.5t-64 17.5q-35 0 -67.5 -15t-55.5 -36l-83 89q44 42 102.5 63t119.5 21q63 0 106.5 -15.5t70.5 -48t39.5 -82t12.5 -117.5v-251h-150v53h-3q-19 -31 -57.5 -48t-83.5 -17zM255 98
q50 0 76.5 27.5t26.5 74.5v17h-21q-27 0 -54.5 -2.5t-49 -9.5t-35.5 -20.5t-14 -35.5q0 -28 23 -39.5t48 -11.5z" />
    <glyph glyph-name="aring" unicode="&#xe5;" horiz-adv-x="566" 
d="M287 557q-22 0 -42 8t-35 22t-23.5 33.5t-8.5 42.5q0 47 31.5 77.5t77.5 30.5q23 0 42.5 -8t34.5 -22.5t23.5 -34t8.5 -42.5t-8.5 -42.5t-23.5 -34t-34.5 -22.5t-42.5 -8zM287 606q25 0 42 16.5t17 41.5t-17 41.5t-42 16.5q-26 0 -42.5 -17t-16.5 -42q0 -24 17 -40.5
t42 -16.5zM214 -12q-30 0 -62 8t-58.5 26t-43.5 48t-17 74q0 54 29.5 87t75 51t102 24t110.5 6h3v8q0 37 -26 54.5t-64 17.5q-35 0 -67.5 -15t-55.5 -36l-83 89q44 42 102.5 63t119.5 21q63 0 106.5 -15.5t70.5 -48t39.5 -82t12.5 -117.5v-251h-150v53h-3q-19 -31 -57.5 -48
t-83.5 -17zM255 98q50 0 76.5 27.5t26.5 74.5v17h-21q-27 0 -54.5 -2.5t-49 -9.5t-35.5 -20.5t-14 -35.5q0 -28 23 -39.5t48 -11.5z" />
    <glyph glyph-name="ae" unicode="&#xe6;" horiz-adv-x="899" 
d="M225 -12q-32 0 -66 8.5t-62 27t-46 48t-18 72.5q0 52 27 83.5t71 49t101.5 23t117.5 5.5h3v7q0 42 -24 61t-65 19q-35 0 -68 -15t-56 -36l-82 89q43 42 101.5 63t119.5 21q62 0 101.5 -22t59.5 -51q27 32 70.5 52.5t100.5 20.5q55 0 101 -18.5t79 -53.5t51.5 -85
t18.5 -114q0 -10 -0.5 -20t-1.5 -19h-360q5 -42 39 -68t79 -26q40 0 67 14.5t43 37.5l113 -72q-35 -51 -92 -78.5t-134 -27.5q-59 0 -108.5 23.5t-78.5 66.5q-23 -37 -70.5 -61.5t-131.5 -24.5zM709 306q0 39 -24.5 67t-73.5 28q-24 0 -44 -7.5t-35 -20.5t-23.5 -30.5
t-10.5 -36.5h211zM255 98q50 0 76.5 25t26.5 68v16h-21q-71 0 -112 -11t-41 -47q0 -28 23 -39.5t48 -11.5z" />
    <glyph glyph-name="ccedilla" unicode="&#xe7;" horiz-adv-x="503" 
d="M283 -240q-31 0 -63.5 7t-55.5 18l27 60q19 -9 41.5 -14t42.5 -5q16 0 33 6.5t17 26.5q0 18 -16 23.5t-31 5.5q-9 0 -20 -1.5t-20 -4.5l-31 29l58 77q-49 7 -90.5 28.5t-71.5 55t-47 78t-17 99.5q0 61 21.5 110t59 83.5t88.5 53t109 18.5q27 0 53.5 -5t51 -13.5t45 -21
t35.5 -27.5l-95 -110q-14 18 -38 29t-49 11q-26 0 -47 -10.5t-36 -28t-23.5 -40.5t-8.5 -49t8 -49t23.5 -40.5t37 -27.5t48.5 -10q25 0 49.5 9.5t39.5 27.5l91 -111q-27 -26 -68.5 -42.5t-89.5 -20.5l-35 -45q5 1 9 1h9q18 0 36.5 -3.5t33 -12.5t24 -25.5t9.5 -41.5
q0 -29 -14 -48t-36 -30t-47.5 -15.5t-49.5 -4.5z" />
    <glyph glyph-name="egrave" unicode="&#xe8;" horiz-adv-x="596" 
d="M278 572l-146 144h166l104 -144h-124zM313 -16q-56 0 -106 17.5t-87.5 51t-59 82.5t-21.5 112q0 61 21 110.5t57 84t85 53.5t106 19q55 0 101 -18.5t79 -53.5t51.5 -85t18.5 -114v-20t-1 -19h-361q2 -21 12.5 -38t27 -29.5t37 -19.5t42.5 -7q39 0 66 14.5t44 37.5
l114 -72q-35 -51 -92.5 -78.5t-133.5 -27.5zM407 306q0 39 -24.5 67t-73.5 28q-24 0 -44 -7.5t-35 -20.5t-23.5 -30.5t-10.5 -36.5h211z" />
    <glyph glyph-name="eacute" unicode="&#xe9;" horiz-adv-x="596" 
d="M207 572l104 144h166l-146 -144h-124zM313 -16q-56 0 -106 17.5t-87.5 51t-59 82.5t-21.5 112q0 61 21 110.5t57 84t85 53.5t106 19q55 0 101 -18.5t79 -53.5t51.5 -85t18.5 -114v-20t-1 -19h-361q2 -21 12.5 -38t27 -29.5t37 -19.5t42.5 -7q39 0 66 14.5t44 37.5
l114 -72q-35 -51 -92.5 -78.5t-133.5 -27.5zM407 306q0 39 -24.5 67t-73.5 28q-24 0 -44 -7.5t-35 -20.5t-23.5 -30.5t-10.5 -36.5h211z" />
    <glyph glyph-name="ecircumflex" unicode="&#xea;" horiz-adv-x="596" 
d="M117 572l124 144h148l122 -144h-130l-68 81l-68 -81h-128zM313 -16q-56 0 -106 17.5t-87.5 51t-59 82.5t-21.5 112q0 61 21 110.5t57 84t85 53.5t106 19q55 0 101 -18.5t79 -53.5t51.5 -85t18.5 -114v-20t-1 -19h-361q2 -21 12.5 -38t27 -29.5t37 -19.5t42.5 -7
q39 0 66 14.5t44 37.5l114 -72q-35 -51 -92.5 -78.5t-133.5 -27.5zM407 306q0 39 -24.5 67t-73.5 28q-24 0 -44 -7.5t-35 -20.5t-23.5 -30.5t-10.5 -36.5h211z" />
    <glyph glyph-name="edieresis" unicode="&#xeb;" horiz-adv-x="596" 
d="M204 576q-35 0 -59 24t-24 58q0 16 6.5 30.5t18 26t26.5 18t32 6.5q35 0 59.5 -23.5t24.5 -57.5q0 -35 -24.5 -58.5t-59.5 -23.5zM422 576q-35 0 -59 24t-24 58q0 16 6.5 30.5t17.5 26t26 18t33 6.5q34 0 58.5 -23.5t24.5 -57.5q0 -35 -24.5 -58.5t-58.5 -23.5zM313 -16
q-56 0 -106 17.5t-87.5 51t-59 82.5t-21.5 112q0 61 21 110.5t57 84t85 53.5t106 19q55 0 101 -18.5t79 -53.5t51.5 -85t18.5 -114v-20t-1 -19h-361q2 -21 12.5 -38t27 -29.5t37 -19.5t42.5 -7q39 0 66 14.5t44 37.5l114 -72q-35 -51 -92.5 -78.5t-133.5 -27.5zM407 306
q0 39 -24.5 67t-73.5 28q-24 0 -44 -7.5t-35 -20.5t-23.5 -30.5t-10.5 -36.5h211z" />
    <glyph glyph-name="igrave" unicode="&#xec;" horiz-adv-x="296" 
d="M104 572l-146 144h166l104 -144h-124zM66 0v501h164v-501h-164z" />
    <glyph glyph-name="iacute" unicode="&#xed;" horiz-adv-x="296" 
d="M67 572l104 144h166l-146 -144h-124zM66 0v501h164v-501h-164z" />
    <glyph glyph-name="icircumflex" unicode="&#xee;" horiz-adv-x="296" 
d="M-46 572l124 144h148l122 -144h-130l-68 81l-68 -81h-128zM66 0v501h164v-501h-164z" />
    <glyph glyph-name="idieresis" unicode="&#xef;" horiz-adv-x="296" 
d="M41 576q-35 0 -59 24t-24 58q0 16 6.5 30.5t17.5 26t26.5 18t32.5 6.5q35 0 59.5 -23.5t24.5 -57.5q0 -35 -24.5 -58.5t-59.5 -23.5zM259 576q-35 0 -59 24t-24 58q0 16 6.5 30.5t17.5 26t26 18t33 6.5q34 0 58.5 -23.5t24.5 -57.5q0 -35 -24.5 -58.5t-58.5 -23.5zM66 0
v501h164v-501h-164z" />
    <glyph glyph-name="eth" unicode="&#xf0;" horiz-adv-x="632" 
d="M315 -16q-57 0 -107 18.5t-87.5 53t-59.5 84t-22 110.5q0 60 20.5 108t56.5 81.5t84 52t103 18.5q23 0 43.5 -5.5t38.5 -19.5l2 1q-21 31 -45.5 61t-52.5 53l-108 -48l-80 70l109 47q-12 12 -33 28.5t-42 30.5l127 71q28 -21 50 -40.5t36 -31.5l113 50l87 -71l-121 -52
q36 -39 66 -81t52.5 -88t35 -96.5t12.5 -106.5q0 -69 -20 -124t-56.5 -94t-87.5 -59.5t-114 -20.5zM316 122q29 0 51 11t37 29t23 41t8 47t-8 46.5t-23 40.5t-37.5 29t-51.5 11t-51 -11t-37 -29t-22.5 -40.5t-7.5 -46.5t8 -47t23 -41t37 -29t51 -11z" />
    <glyph glyph-name="ntilde" unicode="&#xf1;" horiz-adv-x="616" 
d="M126 577q3 26 11 49.5t21.5 41.5t33.5 28.5t47 10.5q21 0 41 -5.5t40 -14.5q21 -10 36 -15t29 -5q19 0 28 11.5t14 29.5h71q-3 -26 -11 -50t-21.5 -42t-33.5 -29t-47 -11q-21 0 -41.5 6t-40.5 15q-20 11 -34.5 15.5t-28.5 4.5q-18 0 -27.5 -12t-14.5 -28h-72zM64 0v501
h159v-69h2q9 17 23.5 32t34 26t42.5 18t49 7q50 0 85 -18t56.5 -46.5t31 -65t9.5 -74.5v-311h-165v275q0 21 -3.5 40t-11.5 33.5t-22.5 23t-36.5 8.5t-38.5 -8.5t-27.5 -23.5t-16.5 -34.5t-5.5 -40.5v-273h-165z" />
    <glyph glyph-name="ograve" unicode="&#xf2;" horiz-adv-x="632" 
d="M273 572l-146 144h166l104 -144h-124zM315 -16q-56 0 -106.5 19t-88 53.5t-59.5 84t-22 110.5t22 110t59.5 83t88 52t106.5 18q57 0 107 -18t88 -52t60 -83t22 -110t-22 -110.5t-60 -84t-88 -53.5t-107 -19zM316 122q29 0 51 11t37 29.5t22.5 41.5t7.5 47t-8 47t-23 40.5
t-37 28.5t-51 11t-51 -11t-36.5 -28.5t-22 -40.5t-7.5 -47t7.5 -47t22.5 -41.5t37 -29.5t51 -11z" />
    <glyph glyph-name="oacute" unicode="&#xf3;" horiz-adv-x="632" 
d="M230 572l104 144h166l-146 -144h-124zM315 -16q-56 0 -106.5 19t-88 53.5t-59.5 84t-22 110.5t22 110t59.5 83t88 52t106.5 18q57 0 107 -18t88 -52t60 -83t22 -110t-22 -110.5t-60 -84t-88 -53.5t-107 -19zM316 122q29 0 51 11t37 29.5t22.5 41.5t7.5 47t-8 47t-23 40.5
t-37 28.5t-51 11t-51 -11t-36.5 -28.5t-22 -40.5t-7.5 -47t7.5 -47t22.5 -41.5t37 -29.5t51 -11z" />
    <glyph glyph-name="ocircumflex" unicode="&#xf4;" horiz-adv-x="632" 
d="M124 576l124 144h148l122 -144h-130l-68 81l-68 -81h-128zM315 -16q-56 0 -106.5 19t-88 53.5t-59.5 84t-22 110.5t22 110t59.5 83t88 52t106.5 18q57 0 107 -18t88 -52t60 -83t22 -110t-22 -110.5t-60 -84t-88 -53.5t-107 -19zM316 122q29 0 51 11t37 29.5t22.5 41.5
t7.5 47t-8 47t-23 40.5t-37 28.5t-51 11t-51 -11t-36.5 -28.5t-22 -40.5t-7.5 -47t7.5 -47t22.5 -41.5t37 -29.5t51 -11z" />
    <glyph glyph-name="otilde" unicode="&#xf5;" horiz-adv-x="632" 
d="M130 577q3 26 11 49.5t21.5 41.5t33.5 28.5t47 10.5q21 0 41 -5.5t40 -14.5q21 -10 36 -15t29 -5q19 0 28 11.5t14 29.5h71q-3 -26 -11 -50t-21.5 -42t-33.5 -29t-47 -11q-21 0 -41.5 6t-40.5 15q-20 11 -34.5 15.5t-28.5 4.5q-18 0 -27.5 -12t-14.5 -28h-72zM315 -16
q-56 0 -106.5 19t-88 53.5t-59.5 84t-22 110.5t22 110t59.5 83t88 52t106.5 18q57 0 107 -18t88 -52t60 -83t22 -110t-22 -110.5t-60 -84t-88 -53.5t-107 -19zM316 122q29 0 51 11t37 29.5t22.5 41.5t7.5 47t-8 47t-23 40.5t-37 28.5t-51 11t-51 -11t-36.5 -28.5t-22 -40.5
t-7.5 -47t7.5 -47t22.5 -41.5t37 -29.5t51 -11z" />
    <glyph glyph-name="odieresis" unicode="&#xf6;" horiz-adv-x="632" 
d="M206 576q-35 0 -59 24t-24 58q0 16 6.5 30.5t18 26t26.5 18t32 6.5q35 0 59.5 -23.5t24.5 -57.5q0 -35 -24.5 -58.5t-59.5 -23.5zM424 576q-35 0 -59 24t-24 58q0 16 6.5 30.5t17.5 26t26 18t33 6.5q34 0 58.5 -23.5t24.5 -57.5q0 -35 -24.5 -58.5t-58.5 -23.5zM315 -16
q-56 0 -106.5 19t-88 53.5t-59.5 84t-22 110.5t22 110t59.5 83t88 52t106.5 18q57 0 107 -18t88 -52t60 -83t22 -110t-22 -110.5t-60 -84t-88 -53.5t-107 -19zM316 122q29 0 51 11t37 29.5t22.5 41.5t7.5 47t-8 47t-23 40.5t-37 28.5t-51 11t-51 -11t-36.5 -28.5t-22 -40.5
t-7.5 -47t7.5 -47t22.5 -41.5t37 -29.5t51 -11z" />
    <glyph glyph-name="oslash" unicode="&#xf8;" horiz-adv-x="632" 
d="M83 -43l-59 58l72 71q-26 30 -41.5 72t-15.5 92q0 60 22 109t59.5 83.5t87.5 53.5t107 19q94 0 160 -49l72 72l60 -58l-70 -69q55 -64 55 -161q0 -60 -22 -109t-59.5 -84t-88 -54t-107.5 -19q-45 0 -85 12t-72 35zM372 365q-11 8 -26.5 13.5t-32.5 5.5q-29 0 -51.5 -11
t-38 -29t-23.5 -41.5t-8 -48.5q0 -15 3.5 -31t10.5 -26zM317 118q29 0 51.5 11t37.5 29t22.5 41.5t7.5 48.5q0 16 -3 31.5t-10 26.5l-167 -168q11 -10 27.5 -15t33.5 -5z" />
    <glyph glyph-name="ugrave" unicode="&#xf9;" horiz-adv-x="614" 
d="M284 572l-146 144h166l104 -144h-124zM240 -14q-50 0 -84.5 18t-56 46.5t-31 65.5t-9.5 74v311h165v-273q0 -21 3 -40t11.5 -34t23 -23.5t36.5 -8.5q43 0 65.5 32t22.5 75v272h164v-501h-158v69h-2q-9 -16 -23.5 -31.5t-34 -26.5t-43 -18t-49.5 -7z" />
    <glyph glyph-name="uacute" unicode="&#xfa;" horiz-adv-x="614" 
d="M219 572l104 144h166l-146 -144h-124zM240 -14q-50 0 -84.5 18t-56 46.5t-31 65.5t-9.5 74v311h165v-273q0 -21 3 -40t11.5 -34t23 -23.5t36.5 -8.5q43 0 65.5 32t22.5 75v272h164v-501h-158v69h-2q-9 -16 -23.5 -31.5t-34 -26.5t-43 -18t-49.5 -7z" />
    <glyph glyph-name="ucircumflex" unicode="&#xfb;" horiz-adv-x="614" 
d="M111 572l124 144h148l122 -144h-130l-68 81l-68 -81h-128zM240 -14q-50 0 -84.5 18t-56 46.5t-31 65.5t-9.5 74v311h165v-273q0 -21 3 -40t11.5 -34t23 -23.5t36.5 -8.5q43 0 65.5 32t22.5 75v272h164v-501h-158v69h-2q-9 -16 -23.5 -31.5t-34 -26.5t-43 -18t-49.5 -7z
" />
    <glyph glyph-name="udieresis" unicode="&#xfc;" horiz-adv-x="614" 
d="M198 576q-35 0 -59 24t-24 58q0 16 6.5 30.5t18 26t26.5 18t32 6.5q35 0 59.5 -23.5t24.5 -57.5q0 -35 -24.5 -58.5t-59.5 -23.5zM416 576q-35 0 -59 24t-24 58q0 16 6.5 30.5t17.5 26t26 18t33 6.5q34 0 58.5 -23.5t24.5 -57.5q0 -35 -24.5 -58.5t-58.5 -23.5zM240 -14
q-50 0 -84.5 18t-56 46.5t-31 65.5t-9.5 74v311h165v-273q0 -21 3 -40t11.5 -34t23 -23.5t36.5 -8.5q43 0 65.5 32t22.5 75v272h164v-501h-158v69h-2q-9 -16 -23.5 -31.5t-34 -26.5t-43 -18t-49.5 -7z" />
    <glyph glyph-name="yacute" unicode="&#xfd;" horiz-adv-x="567" 
d="M218 572l104 144h166l-146 -144h-124zM126 -240q-23 0 -47.5 3t-42.5 8l18 138q12 -4 26.5 -6.5t26.5 -2.5q38 0 55 17.5t29 49.5l16 41l-208 493h182l111 -323h3l99 323h174l-223 -576q-15 -39 -33.5 -69.5t-44 -52t-60 -32.5t-81.5 -11z" />
    <glyph glyph-name="thorn" unicode="&#xfe;" horiz-adv-x="659" 
d="M66 -240v996h163v-311h3q21 25 58.5 46t93.5 21q54 0 97.5 -21t74 -57t47 -83.5t16.5 -99.5t-16 -100t-46 -84.5t-74 -58.5t-101 -22q-46 0 -87.5 19t-63.5 51h-2v-296h-163zM343 122q29 0 51 11t37 29t22.5 41.5t7.5 47.5t-7.5 47t-22.5 40.5t-37 28.5t-51 11
q-28 0 -50 -11t-37.5 -29t-24 -41t-8.5 -47t8.5 -47t24 -41t37.5 -29t50 -11z" />
    <glyph glyph-name="ydieresis" unicode="&#xff;" horiz-adv-x="567" 
d="M184 576q-35 0 -59 24t-24 58q0 16 6.5 30.5t18 26t26.5 18t32 6.5q35 0 59.5 -23.5t24.5 -57.5q0 -35 -24.5 -58.5t-59.5 -23.5zM402 576q-35 0 -59 24t-24 58q0 16 6.5 30.5t17.5 26t26 18t33 6.5q34 0 58.5 -23.5t24.5 -57.5q0 -35 -24.5 -58.5t-58.5 -23.5zM126 -240
q-23 0 -47.5 3t-42.5 8l18 138q12 -4 26.5 -6.5t26.5 -2.5q38 0 55 17.5t29 49.5l16 41l-208 493h182l111 -323h3l99 323h174l-223 -576q-15 -39 -33.5 -69.5t-44 -52t-60 -32.5t-81.5 -11z" />
    <glyph glyph-name="OE" unicode="&#x152;" horiz-adv-x="1019" 
d="M442 0q-75 0 -147 19.5t-129 62t-91.5 110t-34.5 163.5q0 97 34.5 164.5t91.5 109.5t129 60.5t147 18.5h520v-145h-298v-133h281v-137h-281v-147h315v-146h-537zM501 146v417h-46q-45 0 -87 -10t-74.5 -34t-52 -64.5t-19.5 -102.5q0 -57 19.5 -96t52 -63.5t73.5 -35.5
t84 -11h50z" />
    <glyph glyph-name="oe" unicode="&#x153;" horiz-adv-x="973" 
d="M313 -16q-57 0 -106.5 18.5t-87 53.5t-59 84.5t-21.5 110.5t21.5 109.5t59 82.5t87 52.5t106.5 18.5q61 0 110 -24.5t77 -62.5q31 37 78.5 62t108.5 25q54 0 99.5 -18.5t78.5 -53.5t51.5 -85t18.5 -114v-20t-1 -19h-361q3 -21 13.5 -38.5t26.5 -29.5t36.5 -19t42.5 -7
q39 0 66 14.5t44 37.5l113 -72q-35 -51 -92 -78.5t-133 -27.5q-63 0 -113 23t-78 60q-29 -38 -76.5 -60.5t-109.5 -22.5zM784 306q0 39 -24.5 67t-73.5 28q-24 0 -44 -7.5t-35 -20.5t-23.5 -30.5t-10.5 -36.5h211zM315 122q29 0 51 11t37 29t22.5 41.5t7.5 47.5t-7.5 46.5
t-22.5 40.5t-37 29t-51 11t-51 -11t-36.5 -29t-22 -40.5t-7.5 -46.5t7.5 -47.5t22 -41.5t36.5 -29t51 -11z" />
    <glyph glyph-name="Scaron" unicode="&#x160;" horiz-adv-x="591" 
d="M250 764l-124 144h130l68 -81l68 81h128l-123 -144h-147zM280 -18q-76 0 -147 26.5t-118 75.5l112 114q26 -32 68.5 -53.5t84.5 -21.5q20 0 37.5 4t31 13t21.5 24t8 36q0 20 -10 34t-28.5 25.5t-46 21t-62.5 20.5q-34 11 -66.5 26t-58 38.5t-41 57t-15.5 81.5
q0 59 24.5 101t63.5 69t88 39.5t98 12.5q60 0 122.5 -22t109.5 -65l-109 -115q-22 28 -57.5 44.5t-68.5 16.5q-16 0 -34 -3t-32 -11.5t-23.5 -22t-9.5 -34.5q0 -35 29 -51.5t80 -31.5q36 -11 75 -25.5t71.5 -38.5t53 -60t20.5 -89q0 -61 -22.5 -105.5t-60.5 -73.5t-86.5 -43
t-101.5 -14z" />
    <glyph glyph-name="scaron" unicode="&#x161;" horiz-adv-x="472" 
d="M174 572l-124 144h130l68 -81l68 81h128l-123 -144h-147zM228 -16q-61 0 -119.5 19.5t-97.5 57.5l92 97q22 -24 54 -40t68 -16q20 0 39.5 9.5t19.5 33.5q0 23 -24 34t-75 23q-26 6 -52 16t-46.5 27t-33.5 42t-13 60q0 45 19 76.5t49 51.5t66.5 29.5t72.5 9.5
q56 0 109.5 -17.5t90.5 -52.5l-90 -93q-20 19 -47 32t-57 13q-23 0 -42.5 -9t-19.5 -31q0 -21 21.5 -30t69.5 -20q29 -6 57 -17t51 -29t37 -44t14 -62q0 -47 -19 -79.5t-49.5 -52.5t-68.5 -29t-76 -9z" />
    <glyph glyph-name="Ydieresis" unicode="&#x178;" horiz-adv-x="669" 
d="M229 768q-35 0 -59 24t-24 58q0 16 6.5 30.5t17.5 26t26 18t33 6.5q35 0 59 -23.5t24 -57.5q0 -35 -24 -58.5t-59 -23.5zM446 768q-35 0 -59 24t-24 58q0 16 6.5 30.5t18 26t26.5 18t32 6.5q35 0 59.5 -23.5t24.5 -57.5q0 -35 -24.5 -58.5t-59.5 -23.5zM489 708h200
l-272 -408v-300h-171v300l-266 408h207l151 -263z" />
    <glyph glyph-name="Zcaron" unicode="&#x17d;" horiz-adv-x="635" 
d="M246 764l-124 144h130l68 -81l68 81h128l-123 -144h-147zM39 0v148l337 415h-329v145h543v-137l-345 -423h352v-148h-558z" />
    <glyph glyph-name="zcaron" unicode="&#x17e;" horiz-adv-x="512" 
d="M189 572l-124 144h130l68 -81l68 81h128l-123 -144h-147zM34 0v128l234 247h-225v126h425v-123l-241 -251h251v-127h-444z" />
    <glyph glyph-name="florin" unicode="&#x192;" horiz-adv-x="646" 
d="M120 -139q-32 0 -64 7t-58 21l58 120q12 -8 25.5 -12t24.5 -4q33 0 47.5 24.5t22.5 64.5l49 241h-114v113h134l16 78q8 39 21 77t36.5 67t59.5 47t91 18q42 0 76 -9t61 -25l-60 -121q-30 18 -57 18q-18 0 -30 -6.5t-20.5 -18t-13.5 -27t-9 -33.5l-14 -65h126v-113h-148
l-55 -274q-18 -91 -66.5 -139.5t-138.5 -48.5z" />
    <glyph glyph-name="circumflex" unicode="&#x2c6;" horiz-adv-x="300" 
d="M-47 572l124 144h148l122 -144h-130l-68 81l-68 -81h-128z" />
    <glyph glyph-name="tilde" unicode="&#x2dc;" horiz-adv-x="300" 
d="M-36 577q3 26 11 49.5t21.5 41.5t33.5 28.5t47 10.5q21 0 41 -5.5t40 -14.5q21 -10 36 -15t29 -5q19 0 28 11.5t14 29.5h71q-3 -26 -11 -50t-21.5 -42t-33.5 -29t-47 -11q-21 0 -41.5 6t-40.5 15q-20 11 -34.5 15.5t-28.5 4.5q-18 0 -27.5 -12t-14.5 -28h-72z" />
    <glyph glyph-name="uni0E01" unicode="&#xe01;" horiz-adv-x="641" 
d="M71 0v189q0 51 18 84t66 50v3l-112 27v77q49 66 119.5 102t156.5 36q53 0 99.5 -14.5t81.5 -42.5t55 -70t20 -98v-343h-160v331q0 51 -29 77.5t-77 26.5q-38 0 -65 -13.5t-44 -36.5v-3l104 -25v-71q-40 -7 -57 -30.5t-17 -61.5v-194h-159z" />
    <glyph glyph-name="uni0E02" unicode="&#xe02;" horiz-adv-x="565" 
d="M344 552h155v-382q0 -85 -53 -137t-160 -52q-54 0 -94.5 13.5t-67.5 37.5t-40.5 57.5t-13.5 72.5v28q0 38 13.5 69.5t40.5 66.5q2 2 4.5 5t5.5 5q-46 2 -77.5 30t-31.5 78q0 51 35.5 83t90.5 32q58 0 94 -31t36 -90q0 -29 -8.5 -54t-22.5 -54q-20 -42 -24 -72t-4 -48v-34
q0 -30 16.5 -47t45.5 -17q28 0 44 17.5t16 48.5v374zM107 444q0 -17 11 -27.5t28 -10.5t27.5 10.5t10.5 27.5t-10.5 28t-27.5 11t-28 -11t-11 -28z" />
    <glyph glyph-name="uni0E03" unicode="&#xe03;" horiz-adv-x="589" 
d="M368 552h154v-381q0 -85 -53 -137.5t-163 -52.5q-55 0 -97 14.5t-69.5 39.5t-41.5 59t-14 73v17q0 56 28.5 101.5t69.5 80.5l-2 3q-12 -11 -28 -18t-39 -7q-49 0 -81 29.5t-32 77.5t31 78t82 30q45 0 71.5 -22.5t32.5 -55.5q8 16 12 34t5 37h88v-7q0 -36 -2.5 -62
t-7.5 -47.5t-13 -40t-19 -39.5q-13 -22 -20.5 -39.5t-11.5 -34t-5.5 -33.5t-1.5 -39v-26q0 -33 16.5 -51t47.5 -18q30 0 46.5 18t16.5 51v368zM114 414q15 0 25.5 10t10.5 27t-10.5 27t-25.5 10q-17 0 -27.5 -10t-10.5 -27t10.5 -27t27.5 -10z" />
    <glyph glyph-name="uni0E04" unicode="&#xe04;" horiz-adv-x="664" 
d="M330 568q128 0 198.5 -63.5t70.5 -175.5v-329h-149v321q0 57 -32 88t-89 31t-91 -30.5t-34 -88.5v-79q20 47 51 73t75 26q45 0 75 -28t30 -78q0 -48 -28.5 -76.5t-71.5 -28.5q-34 0 -56.5 17t-29.5 39q-18 -28 -25.5 -62t-7.5 -76v-48h-151v329q0 114 71 176.5t194 62.5z
M331 271q-16 0 -26.5 -10.5t-10.5 -27.5q0 -15 10.5 -25.5t26.5 -10.5t26.5 10.5t10.5 25.5q0 17 -10.5 27.5t-26.5 10.5z" />
    <glyph glyph-name="uni0E05" unicode="&#xe05;" horiz-adv-x="664" 
d="M414 564q48 -2 83 -18t57.5 -42.5t33.5 -61t11 -73.5v-369h-149v340q0 41 -13 61.5t-37 27.5l-64 -50h-18l-63 50q-50 -13 -50 -89v-102q20 46 54.5 71t77.5 25q45 0 74.5 -28t29.5 -78q0 -48 -28 -76t-72 -28q-34 0 -56 16.5t-29 38.5q-39 -56 -39 -133v-46h-152v369
q0 39 10.5 74t33 61t57 42t81.5 18l81 -67h5zM338 265q-17 0 -27 -11t-10 -27t10 -26.5t27 -10.5q16 0 26.5 10.5t10.5 26.5t-10.5 27t-26.5 11z" />
    <glyph glyph-name="uni0E06" unicode="&#xe06;" horiz-adv-x="644" 
d="M418 552h154v-552h-128l-176 107v-4q0 -51 -34.5 -84t-89.5 -33q-54 0 -88 33t-34 84q0 48 30.5 80t81.5 36v5q0 14 1.5 25.5t5.5 24t11.5 26.5t19.5 32q8 13 15 23t12 19l-3 3q-11 -14 -28.5 -23.5t-43.5 -9.5q-48 0 -79 29.5t-31 77.5t31 78t82 30q43 0 70 -22.5
t34 -55.5q8 16 12 34t5 37h95v-17q0 -31 -2.5 -55t-7 -43.5t-10 -35.5t-12.5 -32q-10 -21 -16 -38t-10 -32t-5.5 -29t-1.5 -31v-9l137 -73h3v395zM128 414q15 0 25.5 10t10.5 27t-10.5 27t-25.5 10q-17 0 -27.5 -10t-10.5 -27t10.5 -27t27.5 -10zM144 62q17 0 28.5 11.5
t11.5 29.5q0 17 -11.5 28t-28.5 11t-28 -11t-11 -28q0 -18 11 -29.5t28 -11.5z" />
    <glyph glyph-name="uni0E07" unicode="&#xe07;" horiz-adv-x="552" 
d="M360 559q56 0 92 -34t36 -93v-234q0 -100 -46.5 -149t-151.5 -49h-138l-136 447h150l97 -323h24q25 0 38.5 14.5t13.5 50.5v145q-43 4 -73 33t-30 77q0 25 9.5 46t26 36.5t39 24t49.5 8.5zM318 444q0 -17 10.5 -27.5t27.5 -10.5t28 11t11 27q0 17 -11 28t-28 11
t-27.5 -11t-10.5 -28z" />
    <glyph glyph-name="uni0E08" unicode="&#xe08;" horiz-adv-x="558" 
d="M248 568q65 0 115.5 -17.5t85 -50.5t53 -79.5t18.5 -104.5q0 -47 -10.5 -92t-29 -85.5t-43.5 -75.5t-53 -63h-181l-33 155q-10 -3 -25 -3q-20 0 -38 7.5t-32 21.5t-22 33.5t-8 43.5q0 47 33 78t87 31q51 0 79.5 -30.5t38.5 -86.5l24 -135q57 83 57 179q0 71 -37.5 109.5
t-100.5 38.5q-44 0 -86 -14.5t-69 -43.5l-66 100q40 38 103.5 61t139.5 23zM122 254q0 -16 10.5 -26t27.5 -10q16 0 26.5 10t10.5 26q0 17 -10 27t-27 10t-27.5 -10t-10.5 -27z" />
    <glyph glyph-name="uni0E09" unicode="&#xe09;" horiz-adv-x="614" 
d="M505 213q38 -11 61.5 -40.5t23.5 -71.5q0 -50 -33.5 -82t-90.5 -32q-54 0 -86.5 29t-34.5 74l-104 -90h-114v143h-2q-41 0 -70.5 28.5t-29.5 76.5t32 79t85 31q52 0 85 -31t33 -91v-85h3l63 46q15 11 25 20t16 19.5t9 24t3 32.5v31q0 57 -35 87t-97 30q-51 0 -90.5 -16
t-73.5 -39l-56 109q49 31 113.5 52t140.5 21q57 0 104 -13t81.5 -40t53.5 -67.5t19 -96.5v-22q0 -40 -8 -67t-26 -49zM102 246q0 -17 10.5 -27t27.5 -10q16 0 26.5 10t10.5 27t-10 26.5t-27 9.5t-27.5 -9.5t-10.5 -26.5zM468 62q17 0 27.5 11t10.5 28t-10.5 27.5t-27.5 10.5
t-28 -10.5t-11 -27.5t11 -28t28 -11z" />
    <glyph glyph-name="uni0E0A" unicode="&#xe0a;" horiz-adv-x="571" 
d="M451 395q39 -17 51.5 -46t12.5 -71v-108q0 -88 -59.5 -138.5t-165.5 -50.5q-55 0 -96.5 13.5t-69.5 37.5t-41.5 57.5t-13.5 72.5v28q0 37 12.5 67.5t38.5 62.5l15 16q-46 2 -78 30t-32 78q0 51 35.5 83t90.5 32q58 0 94 -31t36 -90q0 -29 -8.5 -54t-22.5 -54
q-20 -42 -24.5 -71t-4.5 -46v-30q0 -34 18 -52.5t53 -18.5q33 0 51 18.5t18 51.5v98q0 33 -12.5 46.5t-41.5 18.5v65l82 142h159l-97 -154v-3zM107 444q0 -17 11 -27.5t28 -10.5t27.5 10.5t10.5 27.5t-10.5 28t-27.5 11t-28 -11t-11 -28z" />
    <glyph glyph-name="uni0E0B" unicode="&#xe0b;" horiz-adv-x="597" 
d="M473 395q38 -17 50.5 -46t12.5 -71v-108q0 -85 -54.5 -137t-167.5 -52q-57 0 -99 14.5t-70.5 39.5t-42.5 59t-14 73v17q0 36 11 67.5t42 69.5q10 14 19.5 25.5t23.5 28.5l-3 2q-28 -33 -72 -33q-46 0 -77.5 29.5t-31.5 77.5t31 78.5t82 30.5q43 0 70 -23t34 -56
q16 29 17 71h86v-7q0 -34 -2.5 -59.5t-7 -47t-11.5 -40.5t-16 -40q-11 -25 -18.5 -43t-12 -34.5t-6.5 -33t-2 -37.5v-26q0 -34 18.5 -51.5t51.5 -17.5q67 0 67 69v101q0 28 -10 41t-42 19v65l88 142h157l-101 -154v-3zM114 414q16 0 26 10t10 27t-10 27t-26 10
q-17 0 -27.5 -10.5t-10.5 -26.5q0 -17 10.5 -27t27.5 -10z" />
    <glyph glyph-name="uni0E0C" unicode="&#xe0c;" horiz-adv-x="913" 
d="M685 552h156v-552h-131l-108 66q-12 -35 -43 -57t-74 -22q-27 0 -49.5 9t-39 25.5t-26 38.5t-9.5 47q0 32 13.5 56.5t36.5 40.5v131q0 51 -29.5 75t-76.5 24q-38 0 -65 -13.5t-44 -37.5v-3l103 -24v-72q-45 -6 -63 -23t-19 -53q45 0 76 -28.5t31 -78.5t-33 -82t-89 -32
q-27 0 -52 8.5t-43.5 25t-29.5 41.5t-11 58v69q0 54 20.5 85.5t67.5 48.5v3l-116 27v78q48 65 118.5 101.5t156.5 36.5q51 0 96 -13.5t78.5 -41.5t53.5 -69t20 -97v-117l121 -72h3v393zM526 104q0 6 -1 9q-3 14 -13.5 22t-25.5 8q-17 0 -28 -11t-11 -28q0 -18 11 -29t28 -11
t28.5 11t11.5 29zM242 101q0 17 -10.5 27.5t-27.5 10.5t-28 -10.5t-11 -27.5t11 -27.5t28 -10.5t27.5 10.5t10.5 27.5z" />
    <glyph glyph-name="uni0E0D" unicode="&#xe0d;" horiz-adv-x="912" 
d="M622 -16q-116 0 -169.5 45.5t-53.5 136.5v174q0 49 -27.5 72t-72.5 23q-35 0 -61.5 -14t-42.5 -38v-3l104 -24v-71q-46 -7 -64 -24t-19 -53h1q45 0 76 -28.5t31 -77.5q0 -50 -33.5 -82t-88.5 -32q-27 0 -52 8.5t-43.5 25t-29.5 41.5t-11 58v68q0 54 20 85.5t68 48.5v3
l-116 27v78q48 65 117.5 101.5t154.5 36.5q50 0 94 -13.5t77 -40.5t52.5 -67.5t19.5 -94.5v-172q0 -64 67 -64q65 0 65 64v371h160v-386q0 -91 -54 -136.5t-169 -45.5zM242 102q0 17 -10.5 27.5t-27.5 10.5t-28 -10.5t-11 -27.5t11 -28t28 -11t27.5 11t10.5 28zM855 -71
q-8 -54 -31.5 -94t-57 -65.5t-75.5 -38t-88 -12.5q-43 0 -79.5 10t-62 27.5t-40 42t-14.5 54.5q0 49 31 80t81 31t80.5 -29.5t30.5 -72.5q0 -13 -3.5 -23.5t-8.5 -18.5q39 5 64.5 38.5t33.5 93.5zM518 -181q17 0 27.5 10t10.5 27t-10.5 27.5t-27.5 10.5t-27 -10.5t-10 -27.5
t10 -27t27 -10z" />
    <glyph glyph-name="uni0E0E" unicode="&#xe0e;" horiz-adv-x="673" 
d="M346 569q53 0 100.5 -14.5t83 -43t56 -70.5t20.5 -98v-600h-127l-132 82q-7 -42 -38.5 -68t-76.5 -26q-25 0 -46.5 8.5t-37 24t-24.5 36t-9 44.5q0 50 33.5 81t85.5 31q21 0 38 -4l26 58l81 -35l-26 -54l90 -51h3v459q0 52 -31 79t-79 27q-38 0 -66 -14.5t-45 -38.5v-2
l108 -25v-72q-27 -6 -38.5 -21.5t-11.5 -47.5v-80q0 -33 -11 -58t-29 -41.5t-41.5 -24.5t-49.5 -8q-55 0 -88 31.5t-33 81.5q0 48 30 76.5t73 29.5v11q0 35 13 58.5t46 35.5v3l-127 27v74q49 66 121 102.5t159 36.5zM150 77q17 0 27.5 10.5t10.5 27.5t-10.5 27t-27.5 10
t-27 -10t-10 -27t10 -27.5t27 -10.5zM232 -197q16 0 26.5 11t10.5 28t-10 27.5t-27 10.5t-28 -10.5t-11 -27.5t11 -28t28 -11z" />
    <glyph glyph-name="uni0E0F" unicode="&#xe0f;" horiz-adv-x="673" 
d="M346 568q53 0 100.5 -14.5t82.5 -42.5t55.5 -70t20.5 -98v-601h-161l-54 61l-37 -61h-39q-7 17 -15.5 34t-19.5 33q-9 -35 -36 -57t-67 -22q-22 0 -42 8t-35 22.5t-24 35t-9 45.5q0 50 32.5 80.5t78.5 30.5q30 0 55 -9l29 56l69 -35l-33 -63q21 -23 34 -51h3l37 62h22
l49 -59h3v476q0 52 -30.5 79.5t-78.5 27.5q-38 0 -66.5 -14.5t-45.5 -38.5v-3l109 -25v-71q-29 -7 -39.5 -24t-10.5 -47v-81q0 -33 -11 -58t-29 -41.5t-42 -24.5t-50 -8q-54 0 -87 31.5t-33 81.5q0 48 30 76.5t73 29.5v12q0 32 12 57t48 38v3l-128 27v73q49 66 121 102.5
t159 36.5zM150 75q17 0 27 10.5t10 27.5t-10 27t-27 10t-27.5 -10t-10.5 -27t10.5 -27.5t27.5 -10.5zM177 -198q16 0 26 10t10 27q0 16 -10 26.5t-26 10.5t-26 -10.5t-10 -26.5q0 -17 10 -27t26 -10z" />
    <glyph glyph-name="uni0E10" unicode="&#xe10;" horiz-adv-x="592" 
d="M556 561v-104h-88q27 -23 43 -63t16 -85q0 -40 -9.5 -81t-27 -81t-42.5 -77.5t-57 -69.5h-182l-33 157q-17 -5 -24 -5q-43 0 -71.5 30.5t-28.5 76.5q0 48 33.5 78.5t86.5 30.5q50 0 78 -28.5t39 -88.5l25 -131q57 80 57 178q0 66 -36.5 102.5t-102.5 36.5q-47 0 -88 -15
t-67 -42l-68 99q44 39 109.5 60.5t141.5 21.5h296zM167 219q16 0 26 10t10 26t-10 26.5t-26 10.5q-17 0 -27.5 -10t-10.5 -27q0 -16 10.5 -26t27.5 -10zM426 -21q51 0 78 -25.5t27 -73.5v-196h-127l-52 38l-37 -38h-48q-10 33 -27 57q-10 -31 -35.5 -50t-61.5 -19
q-22 0 -42 7.5t-35 22t-23.5 34.5t-8.5 45q0 50 32 79.5t77 29.5q27 0 51 -10l25 47l68 -35l-32 -55q25 -27 43 -65h3l32 35h22l54 -44h3v42q-33 1 -60.5 23.5t-27.5 62.5q0 38 27.5 63t74.5 25zM394 -110q0 -14 9 -23t23 -9t23 9t9 23t-9 23.5t-23 9.5t-23 -9.5t-9 -23.5z
M143 -257q15 0 25 9.5t10 26.5q0 16 -10 26t-25 10q-16 0 -26 -10t-10 -26q0 -17 10 -26.5t26 -9.5z" />
    <glyph glyph-name="uni0E11" unicode="&#xe11;" horiz-adv-x="676" 
d="M484 560q25 0 47.5 -7.5t39 -24t26.5 -42.5t10 -62v-424h-154v363q0 40 -36 40q-8 0 -16.5 -2.5t-19 -10t-25 -22t-34.5 -37.5q-19 -21 -29.5 -36.5t-16 -29.5t-7 -28t-1.5 -33v-204h-154v184q0 19 2 36t8 34.5t17 35.5t29 40q17 19 25.5 30.5t13.5 22.5l-2 2
q-19 -21 -38.5 -31t-45.5 -10q-49 0 -81 29.5t-32 77.5t31 78.5t82 30.5q45 0 71 -22.5t33 -54.5q15 31 17 69h85v-82h3q23 24 41 41.5t35.5 28t35.5 15.5t40 5zM124 414q16 0 26 10t10 27t-10 27t-26 10q-17 0 -27.5 -10t-10.5 -27t10.5 -27t27.5 -10z" />
    <glyph glyph-name="uni0E12" unicode="&#xe12;" horiz-adv-x="962" 
d="M736 552h154v-552h-130l-136 85q-5 -42 -37 -70t-79 -28q-25 0 -46.5 8.5t-37.5 23.5t-24.5 35.5t-8.5 44.5q0 38 21 66.5t56 39.5v145q0 42 -15.5 62t-44.5 27l-64 -50h-19l-64 50q-26 -7 -42 -27t-16 -62v-257l3 -1l79 84q-26 10 -44.5 33.5t-18.5 55.5q0 44 30 73
t82 29q51 0 80.5 -28.5t28.5 -70.5q0 -40 -16 -67t-41 -56l-127 -145h-194v369q0 39 10.5 74t33 61t57 42.5t81.5 17.5l82 -63h5l83 63q50 -1 86.5 -17.5t60.5 -42.5t35.5 -61t11.5 -74v-147l122 -73h3v403zM332 301q-16 0 -26 -10.5t-10 -26.5t10 -26t26 -10t26 10t10 26
t-10 26.5t-26 10.5zM508 59q17 0 28 11t11 28t-11 28t-28 11t-28.5 -11t-11.5 -28t11.5 -28t28.5 -11z" />
    <glyph glyph-name="uni0E13" unicode="&#xe13;" horiz-adv-x="912" 
d="M790 219q42 -9 68 -40.5t26 -75.5q0 -51 -34 -83.5t-90 -32.5q-53 0 -85 28.5t-36 73.5l-107 -89h-133v340q0 49 -27.5 72t-72.5 23q-35 0 -62 -14t-42 -37v-3l104 -25v-71q-46 -7 -64 -24t-19 -53h1q45 0 75 -29t30 -78q0 -50 -32.5 -82t-87.5 -32q-27 0 -52 8.5
t-43.5 25t-29.5 41.5t-11 58v69q0 51 18.5 84t69.5 50v3l-116 27v77q48 66 117 102t154 36q50 0 94.5 -13.5t77.5 -40t52.5 -67t19.5 -94.5v-185h3l71 54q15 12 24 21.5t14.5 20.5t7 24t1.5 32v232h160v-226q0 -15 -1.5 -28t-6 -25.5t-13.5 -25.5t-23 -28zM761 63
q17 0 28 11t11 28q0 18 -11 28.5t-28 10.5t-27.5 -11t-10.5 -28t10.5 -28t27.5 -11zM242 101q0 17 -11 27.5t-28 10.5t-27.5 -10.5t-10.5 -27.5t10.5 -28t27.5 -11t28 11t11 28z" />
    <glyph glyph-name="uni0E14" unicode="&#xe14;" horiz-adv-x="677" 
d="M337 570q129 0 201.5 -62t72.5 -174v-334h-149v325q0 56 -34.5 86t-94.5 30t-95.5 -29.5t-35.5 -86.5v-228h3l79 78q-26 11 -43.5 33.5t-17.5 54.5q0 44 29 72.5t80 28.5q47 0 77.5 -27t29.5 -78q0 -41 -14.5 -64t-36.5 -46l-146 -149h-177v334q0 112 71.5 174t200.5 62z
M330 299q-16 0 -26 -10t-10 -27q0 -15 10 -25.5t26 -10.5t26 10.5t10 25.5q0 17 -10.5 27t-25.5 10z" />
    <glyph glyph-name="uni0E15" unicode="&#xe15;" horiz-adv-x="677" 
d="M418 564q50 -1 86.5 -17.5t60.5 -42.5t35.5 -61t11.5 -74v-369h-150v350q0 42 -13.5 62t-39.5 27l-67 -50h-19l-66 50q-26 -7 -40 -27t-14 -62v-252l3 -1l79 78q-26 11 -43.5 33.5t-17.5 54.5q0 44 29 72.5t80 28.5q47 0 77.5 -26t29.5 -77q0 -40 -14.5 -65t-36.5 -47
l-146 -149h-178v369q0 39 10.5 74t33 61t57 42.5t82.5 17.5l82 -63h5zM331 299q-16 0 -26 -10t-10 -27q0 -15 10 -25.5t26 -10.5t26 10.5t10 25.5q0 17 -10 27t-26 10z" />
    <glyph glyph-name="uni0E16" unicode="&#xe16;" horiz-adv-x="636" 
d="M313 568q53 0 99.5 -14.5t81.5 -42.5t55.5 -70t20.5 -98v-343h-160v330q0 52 -29.5 78.5t-77.5 26.5q-37 0 -64.5 -13.5t-43.5 -36.5v-3l99 -25v-71q-45 -3 -63 -24t-19 -54q47 -1 76 -29.5t29 -76.5q0 -51 -33.5 -83.5t-87.5 -32.5q-28 0 -52.5 9t-42.5 26.5t-28.5 42
t-10.5 55.5v70q0 51 19 84t68 50v3l-111 27v77q49 66 119.5 102t155.5 36zM234 100q0 17 -10.5 28t-27.5 11t-28 -11t-11 -28t11 -28t28 -11t27.5 11t10.5 28z" />
    <glyph glyph-name="uni0E17" unicode="&#xe17;" horiz-adv-x="665" 
d="M464 558q25 0 49 -7.5t42.5 -24t29.5 -42.5t11 -64v-420h-154v373q0 41 -39 41q-13 0 -28 -8.5t-49 -36.5q-23 -18 -35.5 -31t-18.5 -24t-7 -21.5t-1 -24.5v-268h-155v334q-39 6 -67.5 34.5t-28.5 74.5q0 51 35 84t91 33q51 0 86.5 -27.5t40.5 -78.5q22 20 44 39
t45.5 33.5t50 23t58.5 8.5zM96 444q0 -17 10.5 -27.5t27.5 -10.5t28 10.5t11 27.5t-11 28t-28 11t-27.5 -11t-10.5 -28z" />
    <glyph glyph-name="uni0E18" unicode="&#xe18;" horiz-adv-x="594" 
d="M64 0v254h154v-135h166v96q0 19 -3.5 32.5t-15.5 23.5t-34.5 16t-59.5 10l-223 23v56q0 53 16.5 89.5t46 59.5t70 33t88.5 10q27 0 55 -3t55 -6.5t53 -6.5t49 -3q12 0 23.5 1t22.5 4v-121q-14 -3 -27 -4t-30 -1q-26 0 -48.5 3t-43.5 6t-41 6t-42 3q-35 0 -56 -13t-24 -41
l137 -16q93 -11 139.5 -46.5t46.5 -109.5v-220h-474z" />
    <glyph glyph-name="uni0E19" unicode="&#xe19;" horiz-adv-x="642" 
d="M521 215q41 -9 67 -39t26 -74q0 -51 -34 -83t-90 -32q-57 0 -88.5 29.5t-33.5 77.5l-129 -94h-130v335q-41 5 -68.5 33.5t-27.5 75.5q0 25 9.5 46t26 36.5t39.5 24.5t50 9q55 0 90.5 -34t35.5 -94v-265h3l76 48q17 11 28.5 21t19 22t11 28.5t3.5 41.5v224h159v-232
q0 -34 -10 -57t-33 -48zM134 406q17 0 28 10.5t11 27.5t-11 28t-28 11t-27.5 -11t-10.5 -28t10.5 -27.5t27.5 -10.5zM491 62q17 0 27.5 11t10.5 28t-10.5 28t-27.5 11t-28 -11t-11 -28t11 -28t28 -11z" />
    <glyph glyph-name="uni0E1A" unicode="&#xe1a;" horiz-adv-x="658" 
d="M117 0v334q-41 6 -69 34.5t-28 75.5q0 25 9.5 46t26.5 36.5t39.5 24t49.5 8.5q54 0 90.5 -33.5t36.5 -93.5v-299h159v419h160v-552h-474zM103 444q0 -17 10.5 -27.5t27.5 -10.5t28 10.5t11 27.5t-11 28t-28 11t-27.5 -11t-10.5 -28z" />
    <glyph glyph-name="uni0E1B" unicode="&#xe1b;" horiz-adv-x="659" 
d="M117 0v334q-41 6 -69 34.5t-28 75.5q0 25 9.5 46t26.5 36.5t39.5 24t49.5 8.5q54 0 90.5 -33.5t36.5 -93.5v-299h159v595h160v-728h-474zM103 444q0 -17 10.5 -27.5t27.5 -10.5t28 10.5t11 27.5t-11 28t-28 11t-27.5 -11t-10.5 -28z" />
    <glyph glyph-name="uni0E1C" unicode="&#xe1c;" horiz-adv-x="654" 
d="M427 552h155v-552h-150l-104 144h-3l-103 -144h-153v431q0 60 36 94t90 34q56 0 91 -32t35 -83q0 -48 -30 -76t-72 -33v-76q0 -48 -3 -101l80 115h54l81 -115q-2 48 -3 95t-1 93v206zM200 483q-17 0 -28 -11t-11 -28t11 -27.5t28 -10.5t27.5 10.5t10.5 27.5t-10.5 28
t-27.5 11z" />
    <glyph glyph-name="uni0E1D" unicode="&#xe1d;" horiz-adv-x="655" 
d="M582 728v-728h-150l-104 144h-3l-103 -144h-153v431q0 60 36 94t90 34q56 0 91 -32t35 -83q0 -48 -30 -76t-72 -33v-76q0 -48 -3 -101l80 115h54l81 -115q-2 48 -3 95t-1 93v382h155zM200 483q-17 0 -28 -11t-11 -28t11 -27.5t28 -10.5t27.5 10.5t10.5 27.5t-10.5 28
t-27.5 11z" />
    <glyph glyph-name="uni0E1E" unicode="&#xe1e;" horiz-adv-x="719" 
d="M500 552h147v-552h-172l-95 388h-3l-89 -388h-173v334q-43 4 -72.5 33t-29.5 77q0 25 9.5 46t26 36.5t39 24t49.5 8.5q52 0 86 -32t34 -92v-88q0 -18 -1 -40.5t-2 -45.5t-2.5 -45t-2.5 -40h4q10 54 20 102t21 97l32 137h105l33 -137q11 -48 20.5 -97.5t20.5 -101.5h3
q-1 21 -2.5 46t-2.5 50t-2 49t-1 43v188zM95 444q0 -17 11 -27.5t28 -10.5t27.5 10.5t10.5 27.5t-10.5 28t-27.5 11t-28 -11t-11 -28z" />
    <glyph glyph-name="uni0E1F" unicode="&#xe1f;" horiz-adv-x="720" 
d="M647 728v-728h-172l-95 388h-3l-89 -388h-173v334q-43 4 -72.5 33t-29.5 77q0 25 9.5 46t26 36.5t39 24t49.5 8.5q52 0 86 -32t34 -92v-88q0 -18 -1 -40.5t-2 -45.5t-2.5 -45t-2.5 -40h4q10 54 20 102t21 97l32 137h105l33 -137q11 -48 20.5 -97.5t20.5 -101.5h3
q-1 21 -2.5 46t-2.5 50t-2 49t-1 43v364h147zM95 444q0 -17 11 -27.5t28 -10.5t27.5 10.5t10.5 27.5t-10.5 28t-27.5 11t-28 -11t-11 -28z" />
    <glyph glyph-name="uni0E20" unicode="&#xe20;" horiz-adv-x="666" 
d="M341 568q53 0 100 -14.5t82.5 -42.5t56 -70t20.5 -98v-343h-160v329q0 52 -30.5 79t-79.5 27q-39 0 -67 -13.5t-44 -36.5v-4l107 -24v-71q-27 -6 -38.5 -22t-11.5 -49v-96q0 -66 -35.5 -99t-89.5 -33t-87 31.5t-33 81.5q0 48 29 76t71 30v23q0 37 13.5 60t46.5 35v3
l-129 27v77q50 65 121 101t158 36zM150 62q17 0 27 10.5t10 27.5t-10 27t-27 10t-27.5 -10t-10.5 -27t10.5 -27.5t27.5 -10.5z" />
    <glyph glyph-name="uni0E21" unicode="&#xe21;" horiz-adv-x="646" 
d="M420 552h155v-552h-128l-164 93q-4 -46 -38.5 -76t-85.5 -30q-53 0 -87.5 32t-34.5 82q0 45 27 76.5t72 38.5v118q-42 5 -72 33.5t-30 76.5q0 25 9.5 46t26 36.5t39 24t49.5 8.5q55 0 92.5 -33.5t37.5 -93.5v-206l129 -68h3v394zM116 444q0 -16 11 -27t28 -11t27.5 10.5
t10.5 27.5t-10.5 28t-27.5 11t-28 -11t-11 -28zM160 61q17 0 28.5 11.5t11.5 28.5t-11.5 28.5t-28.5 11.5t-28 -11t-11 -29q0 -17 11 -28.5t28 -11.5z" />
    <glyph glyph-name="uni0E22" unicode="&#xe22;" horiz-adv-x="613" 
d="M388 552h158v-394q0 -85 -63 -131.5t-184 -46.5q-118 0 -182 44t-64 129q0 51 21.5 80t56.5 42q-18 7 -34.5 21t-28.5 33.5t-19.5 44t-7.5 51.5q0 63 40 98.5t101 35.5q33 0 57.5 -9t41 -24t24.5 -34.5t8 -41.5q0 -45 -29.5 -73t-75.5 -28q-13 0 -24 3q9 -26 37 -35.5
t61 -9.5h34v-81h-36q-29 0 -49 -14t-20 -44q0 -33 23 -51t65 -18q44 0 66.5 19t22.5 53v381zM187 488q-17 0 -28 -10.5t-11 -27.5t11 -27.5t28 -10.5t28 10.5t11 27.5t-11 27.5t-28 10.5z" />
    <glyph glyph-name="uni0E23" unicode="&#xe23;" horiz-adv-x="458" 
d="M231 446q-34 0 -53.5 -13t-21.5 -42q42 -3 84.5 -9t76.5 -22.5t55.5 -48t21.5 -85.5v-109q0 -61 -36.5 -96t-93.5 -35q-55 0 -90.5 31.5t-35.5 82.5q0 48 30 78.5t73 32.5v11q0 19 -4.5 32t-15.5 21.5t-29.5 14t-45.5 9.5q-42 5 -72.5 7.5t-60.5 4.5v67q0 50 15 86
t40.5 59t60 34t73.5 11q52 0 99 -9t87 -9q23 0 40 4v-121q-23 -4 -48 -4q-20 0 -38 2.5t-36 6t-36 6t-39 2.5zM259 63q17 0 27.5 10.5t10.5 27.5t-10.5 27.5t-27.5 10.5t-28 -10.5t-11 -27.5t11 -27.5t28 -10.5z" />
    <glyph glyph-name="uni0E24" unicode="&#xe24;" horiz-adv-x="638" 
d="M313 568q53 0 99.5 -14.5t81.5 -42.5t55.5 -70t20.5 -98v-583h-160v570q0 52 -29.5 78.5t-77.5 26.5q-37 0 -64.5 -13.5t-43.5 -36.5v-3l99 -25v-71q-45 -3 -63 -24t-19 -54q47 -1 76 -29.5t29 -76.5q0 -51 -33.5 -83.5t-87.5 -32.5q-28 0 -52.5 9t-42.5 26.5t-28.5 42
t-10.5 55.5v70q0 51 19 84t68 50v3l-111 27v77q49 66 119.5 102t155.5 36zM235 100q0 17 -10.5 28t-27.5 11t-28 -11t-11 -28t11 -28t28 -11t27.5 11t10.5 28z" />
    <glyph glyph-name="uni0E25" unicode="&#xe25;" horiz-adv-x="601" 
d="M279 569q57 0 104.5 -13.5t81 -42.5t52 -74.5t18.5 -109.5v-329h-155v69q0 53 -10 90.5t-27 61t-39.5 34.5t-47.5 11q-29 0 -47.5 -16.5t-24.5 -48.5q5 1 15 1q48 0 77.5 -28t29.5 -74q0 -23 -8.5 -43.5t-24 -36.5t-38 -25t-51.5 -9q-37 0 -63.5 15t-43 39t-24 55
t-7.5 64q0 55 16.5 94t42.5 63.5t59.5 35.5t67.5 11q50 0 85 -20.5t56 -52.5h2v39q0 59 -32.5 88.5t-89.5 29.5q-46 0 -88 -17t-77 -46l-60 107q48 35 114 56.5t137 21.5zM223 101q0 17 -11 27.5t-28 10.5t-28 -10.5t-11 -27.5t11 -28t28 -11t28 11t11 28z" />
    <glyph glyph-name="uni0E26" unicode="&#xe26;" horiz-adv-x="668" 
d="M341 568q53 0 100 -14.5t82.5 -42.5t56 -70t20.5 -98v-583h-160v569q0 52 -30.5 79t-79.5 27q-39 0 -67 -14.5t-44 -37.5v-3l107 -25v-71q-27 -6 -38.5 -22t-11.5 -49v-94q0 -66 -35.5 -99t-89.5 -33t-87 31.5t-33 81.5q0 48 29 76t71 30v21q0 37 13.5 60t46.5 36v3
l-129 26v77q50 66 121 102.5t158 36.5zM150 62q17 0 27 10.5t10 27.5t-10 27t-27 10t-27.5 -10t-10.5 -27t10.5 -27.5t27.5 -10.5z" />
    <glyph glyph-name="uni0E27" unicode="&#xe27;" horiz-adv-x="498" 
d="M220 569q47 0 86.5 -13.5t67.5 -39.5t43.5 -65t15.5 -90v-244q0 -61 -35.5 -96t-92.5 -35q-27 0 -49.5 8.5t-39 23.5t-25.5 36.5t-9 46.5q0 23 8 43t22 34.5t32.5 23t39.5 9.5v137q0 44 -25.5 68t-72.5 24q-38 0 -68.5 -14.5t-56.5 -35.5l-56 111q41 30 95 49t120 19z
M303 63q17 0 27.5 10.5t10.5 27.5t-10.5 27.5t-27.5 10.5t-27.5 -10.5t-10.5 -27.5t10.5 -27.5t27.5 -10.5z" />
    <glyph glyph-name="uni0E28" unicode="&#xe28;" horiz-adv-x="678" 
d="M639 561v-104h-111q72 -57 72 -151v-306h-150v319q0 54 -32 85t-89 31q-58 0 -91.5 -31t-33.5 -85v-81q43 100 126 100q47 0 76 -29.5t29 -77.5q0 -46 -27.5 -75t-72.5 -29q-30 0 -53.5 15t-31.5 40q-34 -49 -34 -134v-48h-151v322q0 113 70 176t196 63h308zM331 268
q-16 0 -26.5 -10.5t-10.5 -27.5q0 -15 10.5 -26t26.5 -11t26.5 11t10.5 26q0 17 -10.5 27.5t-26.5 10.5z" />
    <glyph glyph-name="uni0E29" unicode="&#xe29;" horiz-adv-x="722" 
d="M117 0v334q-39 5 -68 34t-29 75q0 25 9.5 46.5t26 37t39.5 24.5t50 9q56 0 91 -34t35 -94v-70q13 27 40 41t63 14q35 0 59 -12.5t38 -34.5v182h144v-176l101 -20q-9 -38 -33 -71.5t-68 -56.5v-228h-498zM103 444q0 -17 11 -27.5t28 -10.5t27.5 10.5t10.5 27.5t-10.5 28
t-27.5 11t-28 -11t-11 -28zM370 349q-17 0 -27 -9.5t-10 -26.5q0 -16 10 -26.5t27 -10.5t27.5 10.5t10.5 26.5q0 17 -10.5 26.5t-27.5 9.5zM471 118v74q-8 -1 -15.5 -1h-15.5q-66 0 -109 21t-60 56v-150h200z" />
    <glyph glyph-name="uni0E2A" unicode="&#xe2a;" horiz-adv-x="627" 
d="M381 69q0 90 -32.5 140t-89.5 50q-28 0 -47 -15t-26 -43q5 1 14 1q48 0 77.5 -28.5t29.5 -73.5q0 -50 -34 -82t-88 -32q-37 0 -63.5 15t-43 39t-24 55t-7.5 64q0 44 13.5 80t38 61.5t58.5 39.5t76 14q45 0 81 -19t60 -55h2v41q0 59 -31.5 90t-90.5 31q-43 0 -85.5 -15.5
t-80.5 -46.5l-60 104q51 36 117 56.5t135 20.5h306v-104h-109q59 -50 59 -150v-307h-155v69zM224 101q0 17 -11 27.5t-28 10.5t-28 -10.5t-11 -27.5t11 -28t28 -11t28 11t11 28z" />
    <glyph glyph-name="uni0E2B" unicode="&#xe2b;" horiz-adv-x="653" 
d="M545 347q18 -14 29 -35.5t11 -54.5v-257h-153v210q0 24 -4 36t-13 20l-119 -81q-18 -13 -25 -25t-7 -36v-124h-155v335q-43 5 -69.5 34.5t-26.5 73.5q0 51 34 84t91 33q54 0 90 -32t36 -92v-144h3l112 78q-13 15 -20.5 33.5t-7.5 39.5q0 51 34.5 84t90.5 33q27 0 50 -9
t39.5 -24.5t26 -37t9.5 -46.5q0 -32 -15 -57t-41 -39zM96 444q0 -17 10.5 -27.5t27.5 -10.5t28 10.5t11 27.5t-11 28t-28 11t-27.5 -11t-10.5 -28zM475 405q17 0 28 10.5t11 27.5t-11 27.5t-28 10.5t-27.5 -10.5t-10.5 -27.5t10.5 -27.5t27.5 -10.5z" />
    <glyph glyph-name="uni0E2C" unicode="&#xe2c;" horiz-adv-x="728" 
d="M681 652q0 -22 -7.5 -43.5t-22 -40.5t-35.5 -33t-48 -20q46 -11 63.5 -46t17.5 -85v-384h-168l-103 254h-3l-91 -254h-169v334q-43 5 -72.5 33.5t-29.5 76.5q0 25 9.5 46t26 36.5t39.5 24.5t50 9q54 0 88 -32.5t34 -92.5v-148q0 -19 -0.5 -47.5t-1.5 -53.5h2
q11 31 21.5 61t21.5 60l31 87h85l34 -87q11 -30 22.5 -59.5t22.5 -61.5h3q-1 30 -1.5 55.5t-0.5 47.5v81q0 43 -19.5 70t-71.5 27h-71v106h62q25 0 47.5 4.5t39 14t26.5 24.5t10 36v7h159v-7zM96 444q0 -17 10.5 -27.5t27.5 -10.5t28 10.5t11 27.5t-11 28t-28 11t-27.5 -11
t-10.5 -28z" />
    <glyph glyph-name="uni0E2D" unicode="&#xe2d;" horiz-adv-x="606" 
d="M63 0v244q0 57 34 90t89 33q53 0 88 -30t35 -79q0 -42 -25 -69t-63 -32v-44h170v206q0 33 -10 57t-28 39t-42 22t-52 7q-51 0 -92 -15t-61 -37l-64 104q37 32 100 52.5t135 20.5q59 0 108.5 -13t85 -41.5t55 -74t19.5 -110.5v-330h-482zM190 293q-17 0 -27 -10t-10 -27
t10 -27t27 -10t27 10t10 27t-10 27t-27 10z" />
    <glyph glyph-name="uni0E2E" unicode="&#xe2e;" horiz-adv-x="616" 
d="M391 113v203q0 60 -34.5 92.5t-97.5 32.5q-48 0 -90 -14.5t-63 -37.5l-64 101q20 17 46.5 30t57.5 22t65.5 14t70.5 5h311v-104h-99q51 -48 51 -142v-315h-482v245q0 57 33.5 90t89.5 33q54 0 88.5 -30.5t34.5 -78.5q0 -41 -24 -68.5t-64 -32.5v-45h170zM190 294
q-17 0 -27 -10t-10 -27t10 -27t27 -10t27 10t10 27t-10 27t-27 10z" />
    <glyph glyph-name="uni0E2F" unicode="&#xe2f;" horiz-adv-x="583" 
d="M355 552h156v-552h-161v286q-19 -32 -54 -48t-80 -16q-37 0 -70 13t-57.5 37.5t-38.5 59t-14 76.5q0 67 36 109t104 42q58 0 89.5 -31t31.5 -77q0 -47 -30 -76t-78 -29h-8t-8 1q22 -32 70 -32q19 0 39 7t36 25t26.5 48.5t10.5 78.5v78zM176 484q-17 0 -28 -10.5
t-11 -27.5t11 -27.5t28 -10.5t27.5 10.5t10.5 27.5t-10.5 27.5t-27.5 10.5z" />
    <glyph glyph-name="uni0E30" unicode="&#xe30;" horiz-adv-x="466" 
d="M211 305q-44 0 -79.5 10.5t-60 29.5t-37.5 44t-13 54q0 49 31.5 80.5t83.5 31.5q51 0 82 -30.5t31 -75.5q0 -17 -4 -29.5t-11 -22.5q39 7 58.5 45.5t27.5 100.5l128 -24q-8 -57 -29.5 -97.5t-53 -66.5t-71 -38t-83.5 -12zM135 483q-17 0 -28 -10.5t-11 -27.5t11 -28
t28 -11t27.5 11t10.5 28t-10.5 27.5t-27.5 10.5zM234 92q39 7 58.5 45.5t27.5 100.5l128 -24q-8 -57 -29.5 -97.5t-53 -66.5t-71 -38t-83.5 -12t-79.5 11t-60 29.5t-37.5 44t-13 54.5q0 48 31.5 79.5t83.5 31.5q51 0 82 -30t31 -75q0 -17 -4 -29.5t-11 -23.5zM135 102
q17 0 27.5 10.5t10.5 27.5t-10.5 27.5t-27.5 10.5t-28 -10.5t-11 -27.5t11 -27.5t28 -10.5z" />
    <glyph glyph-name="uni0E31" unicode="&#xe31;" 
d="M73 817q-8 -52 -30.5 -91t-56 -65t-76 -39.5t-90.5 -13.5q-45 0 -80.5 10.5t-60 28.5t-37.5 42t-13 52q0 48 32 80t83 32t82.5 -30.5t31.5 -75.5q0 -17 -4 -29.5t-11 -22.5q47 7 69 46.5t28 98.5zM-257 704q17 0 28 11t11 28t-11 27.5t-28 10.5t-27.5 -10.5t-10.5 -27.5
t10.5 -28t27.5 -11z" />
    <glyph glyph-name="uni0E32" unicode="&#xe32;" horiz-adv-x="469" 
d="M242 0v355q0 40 -21.5 62t-59.5 22q-30 0 -56 -13.5t-46 -32.5l-56 114q36 28 83.5 45t102.5 17q100 0 156.5 -50.5t56.5 -149.5v-369h-160z" />
    <glyph glyph-name="uni0E33" unicode="&#xe33;" horiz-adv-x="469" 
d="M-163 604q-56 0 -91 32.5t-35 84.5q0 51 35 83.5t91 32.5t91 -32.5t35 -83.5q0 -52 -35 -84.5t-91 -32.5zM-163 678q19 0 31 11.5t12 31.5t-12 31.5t-31 11.5t-31 -11.5t-12 -31.5t12 -31.5t31 -11.5zM242 0v355q0 40 -21.5 62t-59.5 22q-30 0 -56 -13.5t-46 -32.5
l-56 114q36 28 83.5 45t102.5 17q100 0 156.5 -50.5t56.5 -149.5v-369h-160z" />
    <glyph glyph-name="uni0E34" unicode="&#xe34;" 
d="M-561 614v11q2 41 21 75t51 59.5t76.5 39.5t97.5 14q54 0 98.5 -14t76.5 -39.5t51 -59.5t21 -75v-11h-493zM-203 679q-10 28 -39 43.5t-73 15.5q-42 0 -72 -16t-39 -43h223z" />
    <glyph glyph-name="uni0E35" unicode="&#xe35;" 
d="M-200 832h132v-218h-493v11q2 41 18.5 75t45 59.5t68 39.5t88.5 14q45 0 80 -14.5t61 -37.5v71zM-214 679q-10 28 -39 43.5t-71 15.5q-39 0 -66.5 -16t-35.5 -43h212z" />
    <glyph glyph-name="uni0E36" unicode="&#xe36;" 
d="M-148 827q49 0 79.5 -29t30.5 -76q0 -48 -30.5 -78t-79.5 -30h-413v11q1 41 15.5 75t41 59.5t63 39.5t81.5 14q38 0 66 -12.5t50 -34.5q11 29 37 45t59 16zM-145 683q14 0 23.5 10.5t9.5 26.5q0 17 -9.5 27t-23.5 10q-15 0 -25 -10t-10 -27q0 -16 10 -26.5t25 -10.5z
M-343 738q-31 0 -52 -16t-29 -43h173q-11 28 -34 43.5t-58 15.5z" />
    <glyph glyph-name="uni0E37" unicode="&#xe37;" 
d="M-157 832h89v-218h-493v11q1 40 17.5 74t44.5 59.5t66.5 40t85.5 14.5q34 0 66 -8v27h89v-75q22 -21 35 -42v117zM-216 679q-11 28 -40 43.5t-71 15.5q-37 0 -63 -16t-34 -43h208z" />
    <glyph glyph-name="uni0E38" unicode="&#xe38;" 
d="M-183 -61q51 0 83 -29t32 -81v-167h-143v75q-39 7 -63.5 32.5t-24.5 66.5q0 45 32.5 74t83.5 29zM-223 -164q0 -16 10 -26t26 -10q15 0 25 10t10 26t-10 25.5t-25 9.5q-16 0 -26 -9.5t-10 -25.5z" />
    <glyph glyph-name="uni0E39" unicode="&#xe39;" 
d="M-182 -75h113v-161q0 -63 -41.5 -89.5t-104.5 -26.5q-60 0 -99 22t-44 76h-4q-45 0 -74.5 25.5t-29.5 69.5q0 43 30 70.5t76 27.5q51 0 81 -27t30 -75v-65q0 -37 34 -37q33 0 33 37v153zM-363 -193q15 0 25 9.5t10 24.5t-10 24.5t-25 9.5t-24.5 -9.5t-9.5 -24.5
t9.5 -24.5t24.5 -9.5z" />
    <glyph glyph-name="uni0E3A" unicode="&#xe3a;" 
d="M-150 -253q-39 0 -65 26t-26 65q0 38 26 64t65 26t65.5 -26t26.5 -64q0 -39 -26.5 -65t-65.5 -26z" />
    <glyph glyph-name="uni0E3F" unicode="&#xe3f;" horiz-adv-x="650" 
d="M608 204q0 -52 -20.5 -90t-54 -62.5t-77.5 -37t-92 -14.5v-83h-77v83h-209v708h209v79h77v-80q36 -2 74 -11.5t69 -30.5t50.5 -55.5t19.5 -85.5q0 -58 -31.5 -96t-82.5 -55v-3q30 -5 56 -18.5t46 -34.5t31.5 -49.5t11.5 -63.5zM241 572v-149h46v149h-46zM413 500
q0 26 -13 41.5t-36 23.5v-135q21 8 35 25t14 45zM241 138h46v165h-46v-165zM364 142q30 6 50.5 24.5t20.5 55.5q0 35 -19.5 53.5t-51.5 24.5v-158z" />
    <glyph glyph-name="uni0E40" unicode="&#xe40;" horiz-adv-x="366" 
d="M241 208q48 0 77 -28.5t29 -76.5q0 -51 -34.5 -84t-91.5 -33q-60 0 -99.5 35t-39.5 98v433h159v-344zM226 62q17 0 27.5 10.5t10.5 27.5t-10.5 28t-27.5 11t-27.5 -11t-10.5 -28t10.5 -27.5t27.5 -10.5z" />
    <glyph glyph-name="uni0E41" unicode="&#xe41;" horiz-adv-x="691" 
d="M241 208q48 0 77 -28.5t29 -76.5q0 -51 -34.5 -84t-91.5 -33q-60 0 -99.5 35t-39.5 98v433h159v-344zM566 208q47 0 76.5 -28.5t29.5 -76.5q0 -51 -34.5 -84t-91.5 -33q-60 0 -99.5 35t-39.5 98v433h159v-344zM226 62q17 0 27.5 10.5t10.5 27.5t-10.5 28t-27.5 11
t-27.5 -11t-10.5 -28t10.5 -27.5t27.5 -10.5zM551 62q17 0 27.5 10.5t10.5 27.5t-10.5 28t-27.5 11t-27.5 -11t-10.5 -28t10.5 -27.5t27.5 -10.5z" />
    <glyph glyph-name="uni0E42" unicode="&#xe42;" horiz-adv-x="394" 
d="M202 709q-40 0 -56.5 -13.5t-17.5 -37.5q40 -9 67.5 -25t44 -38.5t23.5 -49.5t7 -58v-279q48 -1 77 -29t29 -76q0 -51 -35 -84t-92 -33q-30 0 -55 9t-44 26.5t-29.5 42t-10.5 55.5v356q0 27 -5 50t-19.5 40.5t-40.5 30t-68 18.5v33q0 95 47 140t135 45q47 0 89 -9t86 -9
q16 0 33.5 2t39.5 10v-118q-11 -6 -26.5 -9t-29.5 -3q-35 0 -73 6.5t-76 6.5zM293 100q0 17 -11 28t-28 11t-27.5 -11t-10.5 -28t10.5 -27.5t27.5 -10.5t28 10.5t11 27.5z" />
    <glyph glyph-name="uni0E43" unicode="&#xe43;" horiz-adv-x="389" 
d="M265 208q48 -1 76.5 -29t28.5 -76q0 -51 -34.5 -84t-91.5 -33q-60 0 -99.5 35t-39.5 98v268q0 30 5.5 54t15.5 44.5t23.5 39t29.5 37.5q25 30 40 55.5t15 54.5q0 34 -23.5 52t-60.5 18q-18 0 -35 -5q29 -5 49 -26t20 -54q0 -41 -28 -67t-73 -26t-74 29t-29 80
q0 30 11.5 58.5t35.5 51t60 36t84 13.5q41 0 76.5 -9.5t62 -28.5t41.5 -47t15 -66q0 -42 -14 -72.5t-34 -61.5q-25 -37 -39 -70.5t-14 -83.5v-185zM126 654q0 16 -10 26.5t-27 10.5q-16 0 -26 -10.5t-10 -26.5t10 -26.5t26 -10.5q17 0 27 10.5t10 26.5zM249 62q17 0 28 10.5
t11 27.5t-11 28t-28 11t-27.5 -11t-10.5 -28t10.5 -27.5t27.5 -10.5z" />
    <glyph glyph-name="uni0E44" unicode="&#xe44;" horiz-adv-x="389" 
d="M265 208q48 -1 76.5 -29t28.5 -76q0 -51 -34.5 -84t-91.5 -33q-60 0 -99.5 35t-39.5 98v321q0 26 4.5 46.5t14.5 39.5t26 39.5t39 45.5q26 28 38.5 46t12.5 37q0 12 -5 18l-104 -66h-12l-142 82l55 105l111 -70l112 69q57 -14 87.5 -45t30.5 -77q0 -33 -13.5 -60.5
t-41.5 -65.5q-17 -22 -27.5 -38.5t-16 -33t-7.5 -34.5t-2 -42v-228zM249 62q17 0 28 10.5t11 27.5t-11 28t-28 11t-27.5 -11t-10.5 -28t10.5 -27.5t27.5 -10.5z" />
    <glyph glyph-name="uni0E45" unicode="&#xe45;" horiz-adv-x="471" 
d="M253 -240v595q0 40 -24 62t-66 22q-31 0 -57 -13.5t-47 -32.5l-56 114q36 28 83.5 45t102.5 17q100 0 156.5 -50.5t56.5 -149.5v-609h-149z" />
    <glyph glyph-name="uni0E46" unicode="&#xe46;" horiz-adv-x="616" 
d="M363 563q94 -6 138.5 -55t44.5 -133v-615h-150v603q0 38 -10 54.5t-31 24.5l-61 -49h-17l-61 50q-20 -5 -33.5 -22.5t-15.5 -46.5q5 1 10.5 1.5t10.5 0.5q47 0 77 -28.5t30 -76.5q0 -50 -33.5 -82.5t-89.5 -32.5q-38 0 -65 15.5t-44.5 41t-25.5 58t-8 65.5q0 48 13 88.5
t37 70t57.5 47t73.5 21.5l75 -63h4zM211 270q0 17 -11 27.5t-28 10.5t-27.5 -10.5t-10.5 -27.5t10.5 -28t27.5 -11t28 11t11 28z" />
    <glyph glyph-name="uni0E47" unicode="&#xe47;" 
d="M-167 783q39 0 66 -23t27 -64q0 -39 -26.5 -65t-75.5 -26q-38 0 -74 18t-56 47l-17 -60h-18q-33 0 -63 9t-52.5 27t-36 45t-13.5 63q0 63 43.5 103.5t127.5 40.5q42 0 82.5 -7t77.5 -7q20 0 43 4t45 14l19 -81q-30 -12 -60.5 -15t-47.5 -3q-39 0 -77.5 6t-70.5 6
q-44 0 -64 -17t-20 -46t13.5 -44t30.5 -20l18 61h50q11 -37 42 -54v3q0 34 22.5 59.5t64.5 25.5zM-167 666q14 0 22 8t8 22t-8 22t-22 8t-22.5 -8t-8.5 -22t8.5 -22t22.5 -8z" />
    <glyph glyph-name="uni0E48" unicode="&#xe48;" 
d="M-201 871v168h133v-168h-133z" />
    <glyph glyph-name="uni0E49" unicode="&#xe49;" 
d="M38 1052q-10 -48 -31 -82.5t-57.5 -57t-91.5 -33t-133 -10.5v57q23 1 41.5 7.5t29.5 16.5q-2 -1 -8 -1q-35 0 -58 20.5t-23 52.5q0 33 25 55.5t63 22.5t65 -22t27 -58q0 -39 -28 -69l3 -3q35 13 54 44.5t24 76.5zM-236 1021q0 -28 31 -28q14 0 22 7.5t8 21.5q0 13 -8 20
t-22 7q-31 0 -31 -28z" />
    <glyph glyph-name="uni0E4A" unicode="&#xe4a;" 
d="M12 1065q2 -76 -35.5 -126.5t-119.5 -70.5l-53 34q11 17 17.5 34t6.5 37t-9.5 34t-25.5 19l-28 -21h-13l-33 22q-23 -5 -31 -30q10 2 17 2q29 0 51 -16.5t22 -45.5q0 -28 -21.5 -46.5t-55.5 -18.5q-37 0 -63.5 23.5t-26.5 68.5q0 48 29 79t77 38l39 -26h3l37 26
q99 -13 99 -98q0 -22 -7 -39q23 22 30.5 55.5t5.5 71.5zM-271 936q0 11 -8 18t-20 7q-13 0 -20 -7.5t-7 -18.5t7 -18.5t20 -7.5q12 0 20 8t8 19z" />
    <glyph glyph-name="uni0E4B" unicode="&#xe4b;" 
d="M-8 987v-64h-60v-52h-122v52h-60v64h60v52h122v-52h60z" />
    <glyph glyph-name="uni0E4C" unicode="&#xe4c;" 
d="M-17 1079q-6 -22 -20 -36t-37 -25q-10 -5 -17.5 -8t-12.5 -6q14 -10 23 -25t9 -35q0 -35 -26 -56t-64 -21t-64.5 22t-26.5 58q0 18 7 32.5t18 26.5t25 21.5t29 17.5q24 14 39 25t21 27zM-162 913q14 0 23 8.5t9 22.5q0 13 -9 21t-23 8t-23 -8t-9 -22t9 -22t23 -8z" />
    <glyph glyph-name="uni0E4D" unicode="&#xe4d;" 
d="M-161 604q-56 0 -91 32.5t-35 84.5q0 51 35 83.5t91 32.5t91 -32.5t35 -83.5q0 -52 -35 -84.5t-91 -32.5zM-161 678q19 0 31 11.5t12 31.5t-12 31.5t-31 11.5t-31 -11.5t-12 -31.5t12 -31.5t31 -11.5z" />
    <glyph glyph-name="uni0E4E" unicode="&#xe4e;" 
d="M-94 864q14 0 24 -1.5t21 -3.5v-63q-5 1 -11.5 1.5t-13.5 0.5q-14 0 -26.5 -4t-12.5 -18q0 -11 9.5 -17.5t23.5 -7.5v-37q-40 2 -58 -6.5t-18 -21.5q0 -11 11 -16t27 -5q14 0 26 3l1 -55q-11 -4 -29.5 -6.5t-35.5 -2.5q-42 0 -70 19.5t-28 54.5q0 57 74 71q-26 16 -26 48
q0 18 9.5 30.5t25 21t36 12t41.5 3.5z" />
    <glyph glyph-name="uni0E4F" unicode="&#xe4f;" horiz-adv-x="662" 
d="M330 0q-60 0 -111 20t-88.5 56t-58.5 85t-21 106t21 106t58.5 84.5t88.5 55.5t111 20t111.5 -20t89 -55.5t58.5 -84.5t21 -106t-21 -106t-58.5 -85t-89 -56t-111.5 -20zM330 85q41 0 76 13.5t60.5 38t40 58t14.5 72.5t-14.5 72t-40 57.5t-60.5 38t-76 13.5
q-40 0 -75 -13.5t-60 -38t-39.5 -57.5t-14.5 -72t14.5 -72.5t39.5 -58t60 -38t75 -13.5zM331 133q-30 0 -55 10.5t-43 28.5t-28 42.5t-10 53.5t10 53t28 41.5t43 27.5t54 10q30 0 55 -10t43 -27.5t28.5 -41.5t10.5 -53t-10 -53.5t-28 -42.5t-43 -28.5t-55 -10.5zM331 207
q26 0 43 17t17 43t-17.5 43.5t-43.5 17.5t-42.5 -17.5t-16.5 -43.5t17 -43t43 -17z" />
    <glyph glyph-name="uni0E50" unicode="&#xe50;" horiz-adv-x="639" 
d="M317 -13q-58 0 -107 19t-85 53.5t-56 81.5t-20 103t20 103t56 80.5t85 52t107 18.5q60 0 110 -18.5t86 -52t56.5 -80.5t20.5 -103t-20.5 -103t-56.5 -81.5t-86 -53.5t-110 -19zM317 103q50 0 80 39t30 102t-30 100.5t-80 37.5t-80 -37.5t-30 -100.5t30 -102t80 -39z" />
    <glyph glyph-name="uni0E51" unicode="&#xe51;" horiz-adv-x="624" 
d="M298 498q63 0 113.5 -18t85.5 -51t53.5 -80t18.5 -105q0 -52 -18.5 -102.5t-58 -92t-101 -70.5t-147.5 -37l-20 114q57 5 94 24t59 45.5t31 57t9 58.5q0 63 -31 102t-89 39q-50 0 -77 -27.5t-27 -68.5q0 -11 1 -16q9 10 23 16t32 6q43 0 68.5 -25t25.5 -67q0 -45 -33 -71
t-87 -26q-39 0 -72 14t-57.5 38t-38 57.5t-13.5 72.5q0 49 18 88.5t51.5 67t81 42.5t105.5 15zM276 200q0 16 -10.5 26t-27.5 10q-16 0 -26.5 -10t-10.5 -26t10.5 -26.5t26.5 -10.5q17 0 27.5 10.5t10.5 26.5z" />
    <glyph glyph-name="uni0E52" unicode="&#xe52;" horiz-adv-x="781" 
d="M553 495q78 0 123 -35t45 -102v-179q0 -87 -58.5 -133t-171.5 -46h-212q-97 0 -148.5 45.5t-51.5 132.5v432h147v-417q0 -44 23.5 -67t69.5 -23h156q48 0 73.5 24t25.5 69v149q0 48 -37 48l-45 -40h-28l-49 40q-39 0 -39 -40v-14q11 4 25 4q36 0 60 -23.5t24 -63.5
q0 -43 -30 -70.5t-77 -27.5q-30 0 -55.5 9t-44 26.5t-29.5 43.5t-11 59v55q0 36 12.5 63t34 45t51.5 27t65 9l79 -62zM416 255q0 16 -10.5 26t-26.5 10t-27 -10t-11 -26t11 -26t27 -10t26.5 10.5t10.5 25.5z" />
    <glyph glyph-name="uni0E53" unicode="&#xe53;" horiz-adv-x="777" 
d="M537 498q85 0 130.5 -48t45.5 -133v-317h-152v295q0 73 -56 73q-52 0 -52 -72v-296h-125v296q0 72 -58 72q-59 0 -59 -72v-82q46 -4 75 -33t29 -77q0 -51 -34 -83t-90 -32q-54 0 -91.5 34.5t-37.5 98.5v195q0 85 47.5 133t131.5 48q62 0 97.5 -23.5t52.5 -55.5
q19 35 54.5 57t91.5 22zM232 103q0 17 -10.5 27.5t-27.5 10.5t-27.5 -10.5t-10.5 -27.5t10.5 -28t27.5 -11t27.5 11t10.5 28z" />
    <glyph glyph-name="uni0E54" unicode="&#xe54;" horiz-adv-x="632" 
d="M342 385q-67 0 -105.5 -38.5t-38.5 -105.5q0 -68 40.5 -107.5t111.5 -39.5h28q-32 25 -53.5 58t-21.5 72q0 49 33.5 74t79.5 25q51 0 83 -26.5t32 -68.5q0 -35 -23.5 -59.5t-60.5 -27.5q25 -23 61 -35t88 -12v-94h-274q-132 0 -205.5 64t-73.5 180q0 118 63 183t176 65
h87q50 0 67.5 17.5t17.5 57.5v43h147v-43q0 -51 -10 -86t-30 -56.5t-49.5 -30.5t-69.5 -9h-100zM419 261q-17 0 -27 -10t-10 -26q0 -15 10 -25.5t27 -10.5q16 0 26.5 10t10.5 26t-10 26t-27 10z" />
    <glyph glyph-name="uni0E55" unicode="&#xe55;" horiz-adv-x="632" 
d="M342 385q-67 0 -105.5 -38.5t-38.5 -105.5q0 -68 40.5 -107.5t111.5 -39.5h28q-32 25 -53.5 58t-21.5 72q0 49 33.5 74t79.5 25q51 0 83 -26.5t32 -68.5q0 -35 -23.5 -59.5t-60.5 -27.5q25 -23 61 -35t88 -12v-94h-274q-132 0 -205.5 64t-73.5 180q0 92 38.5 152
t110.5 83q-17 23 -17 54q0 41 30.5 68t78.5 27t78.5 -27t30.5 -68q0 -23 -9 -41q42 2 56 19.5t14 55.5v43h147v-43q0 -51 -10 -86t-30 -56.5t-49.5 -30.5t-69.5 -9h-100zM283 567q-15 0 -25 -10t-10 -25q0 -16 10 -25.5t25 -9.5q16 0 26 9.5t10 25.5q0 15 -10 25t-26 10z
M419 261q-17 0 -27 -10t-10 -26q0 -15 10 -25.5t27 -10.5q16 0 26.5 10t10.5 26t-10 26t-27 10z" />
    <glyph glyph-name="uni0E56" unicode="&#xe56;" horiz-adv-x="645" 
d="M351 498q61 0 106.5 -19.5t76 -53t46 -79.5t15.5 -99q0 -59 -19.5 -107t-55.5 -82t-86.5 -52.5t-112.5 -18.5q-57 0 -102.5 14.5t-77.5 38.5t-49.5 55.5t-17.5 65.5q0 27 9.5 49t27 37.5t41 24.5t50.5 9q54 0 86 -31t32 -76q0 -26 -11 -48t-31 -33q7 -2 13.5 -2h13.5
q30 0 55 11.5t42.5 32t27 48t9.5 59.5q0 30 -8.5 55t-24.5 44t-39.5 29.5t-52.5 10.5q-35 0 -57.5 -14t-30.5 -36h-116l-72 278h155l31 -156q23 22 57.5 33.5t69.5 11.5zM163 173q0 -16 10.5 -26t26.5 -10t26.5 10t10.5 26t-10.5 26t-26.5 10t-26.5 -10t-10.5 -26z" />
    <glyph glyph-name="uni0E57" unicode="&#xe57;" horiz-adv-x="975" 
d="M739 610h157v-343q0 -139 -60.5 -203t-185.5 -64h-119v300q0 68 -50 68q-46 0 -46 -67v-127h-114v127q0 34 -13.5 50.5t-43.5 16.5q-53 0 -53 -67v-87q46 -4 75 -33t29 -77q0 -51 -34 -83t-90 -32q-54 0 -91.5 34.5t-37.5 98.5v199q0 86 46 131.5t127 45.5
q61 0 94.5 -25.5t48.5 -59.5q16 38 48.5 61.5t86.5 23.5q76 0 118 -45.5t42 -130.5v-189q31 2 48.5 25.5t17.5 86.5v365zM232 103q0 17 -10.5 27.5t-27.5 10.5t-27.5 -10.5t-10.5 -27.5t10.5 -28t27.5 -11t27.5 11t10.5 28z" />
    <glyph glyph-name="uni0E58" unicode="&#xe58;" horiz-adv-x="683" 
d="M511 323q59 0 96 -37t37 -109q0 -37 -10.5 -70.5t-31.5 -59t-52.5 -40.5t-73.5 -15q-55 0 -93.5 24t-55.5 62l-33 -85q-51 -5 -96.5 9t-80 45.5t-54.5 80.5t-20 115q0 60 17.5 106.5t50.5 78t79.5 48t103.5 16.5h88q50 0 68 17.5t18 57.5v43h146v-42q0 -51 -10 -86
t-29.5 -56.5t-49 -31t-69.5 -9.5h-102q-78 0 -120 -37.5t-42 -110.5q0 -48 19.5 -83t45.5 -46l32 88h57q5 -41 30 -71t67 -30t63 30h-10q-43 0 -73 26.5t-30 71.5q0 43 31.5 71.5t86.5 28.5zM470 223q0 -16 10 -26t26 -10t26 10t10 26t-10 26t-26 10t-26 -10t-10 -26z" />
    <glyph glyph-name="uni0E59" unicode="&#xe59;" horiz-adv-x="637" 
d="M498 610h131v-115q0 -69 -28 -94.5t-86 -25.5h-16q-49 0 -49 -39q0 -12 6.5 -29.5t11.5 -29.5l122 -277h-153l-136 320q-10 23 -21.5 35.5t-32.5 12.5q-16 0 -26 -9t-10 -31v-114q46 -4 75 -33t29 -77q0 -51 -34 -83t-90 -32q-54 0 -91.5 34.5t-37.5 98.5v209q0 40 13 71
t35.5 52.5t53 32.5t65.5 11q45 0 77 -13.5t55 -42.5q5 25 24 35.5t51 10.5h18q26 0 35 9t9 36v77zM232 103q0 17 -10.5 27.5t-27.5 10.5t-27.5 -10.5t-10.5 -27.5t10.5 -28t27.5 -11t27.5 11t10.5 28z" />
    <glyph glyph-name="uni0E5A" unicode="&#xe5a;" horiz-adv-x="855" 
d="M628 552h155v-552h-161v285h-3q-37 -48 -108 -56v-229h-161v286q-19 -32 -54 -48t-80 -16q-37 0 -70 13t-57.5 37.5t-38.5 59t-14 76.5q0 67 36 109t104 42q58 0 89.5 -31t31.5 -77q0 -47 -30 -76t-78 -29h-8t-8 1q22 -32 70 -32q19 0 39 7t36 25t26.5 48.5t10.5 78.5v78
h156v-230q21 0 42 8t37.5 25.5t27 45.5t10.5 68v83zM176 484q-17 0 -28 -10.5t-11 -27.5t11 -27.5t28 -10.5t27.5 10.5t10.5 27.5t-10.5 27.5t-27.5 10.5z" />
    <glyph glyph-name="uni0E5B" unicode="&#xe5b;" horiz-adv-x="1051" 
d="M1000 263q8 0 15.5 1t15.5 3v-107q-8 -2 -16 -3t-15 -1q-39 0 -71 19t-51 51l-24 -92h-84l-37 120l-39 -137h-96l-36 135q-31 -118 -98.5 -169t-157.5 -51q-58 0 -105 19t-80.5 52.5t-51.5 79t-18 97.5q0 50 16 90t45.5 68.5t70 44t88.5 15.5q45 0 78.5 -13t55.5 -35
t33 -49.5t11 -56.5t-9 -51t-24 -37t-35 -22.5t-42 -7.5q-46 0 -74 26.5t-28 71.5q0 54 44 78q-48 -5 -75 -37.5t-27 -80.5q0 -55 36 -92t102 -37q35 0 67 14t57.5 47t42 87.5t20.5 134.5h102l44 -174l38 129h84l39 -145l21 103h76q7 -47 32 -67.5t60 -20.5zM339 289
q16 0 26.5 10.5t10.5 27.5t-10.5 27.5t-26.5 10.5q-17 0 -27.5 -10.5t-10.5 -27.5t10.5 -27.5t27.5 -10.5z" />
    <glyph glyph-name="endash" unicode="&#x2013;" horiz-adv-x="400" 
d="M30 210v103h340v-103h-340z" />
    <glyph glyph-name="emdash" unicode="&#x2014;" horiz-adv-x="600" 
d="M30 209v104h540v-104h-540z" />
    <glyph glyph-name="quoteleft" unicode="&#x2018;" horiz-adv-x="300" 
d="M42 437l91 271h126l-72 -271h-145z" />
    <glyph glyph-name="quoteright" unicode="&#x2019;" horiz-adv-x="300" 
d="M41 437l72 271h145l-91 -271h-126z" />
    <glyph glyph-name="quotesinglbase" unicode="&#x201a;" horiz-adv-x="300" 
d="M40 -126l72 271h145l-91 -271h-126z" />
    <glyph glyph-name="quotedblbase" unicode="&#x201e;" horiz-adv-x="507" 
d="M40 -126l72 271h143l-89 -271h-126zM247 -126l74 271h143l-90 -271h-127z" />
    <glyph glyph-name="dagger" unicode="&#x2020;" horiz-adv-x="603" 
d="M229 -129v511h-191v125h191v201h142v-201h194v-125h-194v-511h-142z" />
    <glyph glyph-name="daggerdbl" unicode="&#x2021;" horiz-adv-x="603" 
d="M231 -129v179h-189v124h189v232h-189v123h188v179h142v-179h190v-123h-190v-232h190v-124h-190v-179h-141z" />
    <glyph glyph-name="bullet" unicode="&#x2022;" horiz-adv-x="500" 
d="M250 177q-37 0 -69 14t-56 38t-38 56t-14 69t14 69t38 56t56 38t69 14t69 -14t56 -38t38 -56t14 -69t-14 -69t-38 -56t-56 -38t-69 -14z" />
    <glyph glyph-name="ellipsis" unicode="&#x2026;" horiz-adv-x="1000" 
d="M168 -10q-21 0 -39.5 7.5t-32.5 20.5t-22 30.5t-8 38.5q0 20 8 38t22 31.5t32.5 21.5t39.5 8q41 0 70.5 -28t29.5 -70t-29.5 -70t-70.5 -28zM500 -10q-21 0 -39.5 7.5t-32.5 20.5t-22 30.5t-8 38.5q0 20 8 38t22 31.5t32.5 21.5t39.5 8q41 0 70.5 -28t29.5 -70t-29.5 -70
t-70.5 -28zM833 -10q-21 0 -39.5 7.5t-32.5 20.5t-22 30.5t-8 38.5q0 20 8 38t22 31.5t32.5 21.5t39.5 8q41 0 70.5 -28t29.5 -70t-29.5 -70t-70.5 -28z" />
    <glyph glyph-name="perthousand" unicode="&#x2030;" horiz-adv-x="1245" 
d="M272 -30l-89 39l388 731l89 -41zM214 363q-37 0 -70 14t-57.5 38.5t-38.5 57t-14 69.5t14 69.5t38.5 56.5t57.5 38t70 14t69.5 -14t57 -38t39 -56.5t14.5 -69.5t-14.5 -69.5t-39 -57t-57 -38.5t-69.5 -14zM214 468q31 0 52.5 21t21.5 53t-21.5 53t-52.5 21q-32 0 -53 -21
t-21 -53t21 -53t53 -21zM632 -12q-37 0 -70 14t-57.5 38.5t-38.5 57t-14 69.5t14 69.5t38.5 56.5t57.5 38t70 14t69.5 -14t57 -38t39 -56.5t14.5 -69.5t-14.5 -69.5t-39 -57t-57 -38.5t-69.5 -14zM1030 -12q-37 0 -69.5 14t-57 38.5t-38.5 57t-14 69.5t14 69.5t38.5 56.5
t57 38t69.5 14t70 -14t57.5 -38t38.5 -56.5t14 -69.5t-14 -69.5t-38.5 -57t-57.5 -38.5t-70 -14zM632 93q31 0 52.5 21t21.5 53t-21.5 53t-52.5 21q-32 0 -53 -21t-21 -53t21 -53t53 -21zM1030 93q32 0 53 21t21 53t-21 53t-53 21t-53 -21t-21 -53t21 -53t53 -21z" />
    <glyph glyph-name="guilsinglleft" unicode="&#x2039;" horiz-adv-x="318" 
d="M186 22l-161 232l161 232l97 -63l-115 -169l116 -169z" />
    <glyph glyph-name="guilsinglright" unicode="&#x203a;" horiz-adv-x="318" 
d="M132 22l-97 63l115 168l-116 170l98 63l161 -233z" />
    <glyph glyph-name="Euro" unicode="&#x20ac;" horiz-adv-x="646" 
d="M428 -19q-66 0 -118.5 18t-91.5 49.5t-65.5 74.5t-39.5 93h-92l34 103h45q-1 9 -1 18v17q0 18 3 36h-78l36 104h57q16 55 47 98t74.5 73t97 46t114.5 16q44 0 89 -8t74 -22l-49 -126q-22 11 -54.5 17t-64.5 6q-25 0 -50.5 -6.5t-47 -19t-38.5 -31.5t-26 -43h265l-35 -104
h-258q-2 -9 -2 -17.5v-19.5v-16.5t1 -17.5h241l-34 -103h-186q7 -21 22.5 -39.5t37 -32t48.5 -21t57 -7.5q74 0 127 31l37 -127q-29 -17 -74.5 -28t-101.5 -11z" />
    <glyph glyph-name="infinity" unicode="&#x221e;" horiz-adv-x="634" 
d="M37 0v561h561v-561h-561zM147 423v-285h54v130h66v50h-66v55h107v50h-161zM359 138v89h5l61 -89h64l-75 98q25 5 38.5 22.5t13.5 43.5q0 31 -21 51t-63 20h-74v-235h51zM359 331h12q44 0 44 -31q0 -32 -44 -32h-12v63z" />
    <glyph glyph-name="uniF71D" unicode="&#xf71d;" horiz-adv-x="728" 
d="M669 566q0 -21 -6.5 -42.5t-19.5 -40.5t-32 -33t-44 -20q47 -11 64.5 -43t17.5 -78v-309h-163l-108 200h-3l-96 -200h-164v333q-20 2 -38.5 10t-32.5 22.5t-22.5 34.5t-8.5 44q0 25 9.5 46t26 36.5t39.5 24.5t50 9q54 0 88 -32.5t34 -92.5v-173q0 -20 -0.5 -48.5
t-1.5 -52.5h2q13 29 25.5 58.5t24.5 58.5l29 67h75l31 -67q14 -29 27 -58t26 -59h3q-1 29 -1.5 54.5t-0.5 47.5v32q0 44 -19.5 71t-71.5 27h-71v94h62q47 0 79.5 19t32.5 60v8h158v-8zM96 444q0 -17 10.5 -27.5t27.5 -10.5t28 10.5t11 27.5t-11 28t-28 11t-27.5 -11
t-10.5 -28z" />
    <glyph glyph-name="maitholowleftthai" 
d="M-236 811q-9 -54 -29 -93t-59 -64.5t-101 -36.5t-154 -9v58q27 1 48 10t35 21q-4 -1 -12 -1q-39 0 -63.5 22.5t-24.5 57.5q0 36 27 60.5t70 24.5q46 0 73.5 -24t27.5 -64q0 -45 -31 -81l2 -3q71 29 77 139zM-535 775q0 -14 9.5 -23.5t25.5 -9.5t25 9.5t9 23.5q0 15 -9 24
t-25 9t-25.5 -9.5t-9.5 -23.5z" />
    <glyph glyph-name="maitrilowleftthai" 
d="M-203 838q-5 -93 -50.5 -151t-145.5 -81l-53 38q27 39 27 85q0 24 -12 42t-32 23l-28 -25h-16l-34 26q-29 -6 -40 -38q11 4 24 4q34 0 60 -20t26 -55q0 -34 -25 -56t-67 -22t-72.5 28t-30.5 82q0 57 32.5 95t88.5 46l44 -31h3l37 31q120 -17 120 -117q0 -25 -8 -47
q28 25 39.5 63.5t12.5 88.5zM-536 684q0 14 -9 22t-23 8q-32 0 -32 -31q0 -14 8.5 -22t22.5 -8q15 0 24 8.5t9 22.5z" />
    <glyph glyph-name="maichattawalowleftthai" 
d="M-441 602q-48 0 -79 25.5t-31 70.5q0 29 12 48.5t32 35t45 28t51 26.5t50.5 31t42.5 42l73 -69q-12 -17 -27 -28t-32 -19t-34.5 -14t-32.5 -12v-2q15 -9 26 -26t11 -43q0 -42 -31 -68t-76 -26zM-442 662q17 0 27 9.5t10 24.5q0 16 -10 25.5t-27 9.5t-27 -10t-10 -25
t10 -24.5t27 -9.5z" />
    <glyph glyph-name="thanthakhatlowleftthai" 
d="M-250 764v-85h-75v-65h-143v65h-75v85h75v64h143v-64h75z" />
    <glyph glyph-name="maitholowrightthai" 
d="M12 811q-9 -54 -30 -93t-62 -64.5t-106.5 -36.5t-164.5 -9v58q26 2 47.5 12t35.5 22q-4 -1 -12 -1q-42 0 -67 22.5t-25 57.5q0 36 28.5 61t73.5 25q48 0 75.5 -24.5t27.5 -63.5q0 -23 -8.5 -44t-23.5 -41l3 -3q42 14 66.5 48.5t27.5 90.5zM-307 779q0 -15 9.5 -24.5
t25.5 -9.5t25 9.5t9 24.5q0 14 -9 23t-25 9t-25.5 -9t-9.5 -23z" />
    <glyph glyph-name="maitrilowrightthai" 
d="M15 838q-5 -93 -52 -151t-150 -81l-55 38q13 20 21.5 40.5t8.5 44.5t-12 42t-32 23l-35 -29h-19l-41 30q-28 -7 -39 -37q10 3 24 3q33 0 59.5 -20t26.5 -55q0 -34 -25.5 -56t-67.5 -22q-21 0 -40.5 7.5t-34.5 21.5t-23.5 35t-8.5 48q0 28 9 53t25 45t39 33t52 17l52 -38
h4l45 38q60 -8 90.5 -42.5t30.5 -83.5q0 -24 -8 -45q28 24 40 62.5t14 87.5zM-340 684q0 14 -8.5 22t-23.5 8q-14 0 -23 -8.5t-9 -22.5t9 -22t23 -8q15 0 23.5 8.5t8.5 22.5z" />
    <glyph glyph-name="maichattawalowrightthai" 
d="M1 764v-85h-75v-65h-142v65h-75v85h75v64h142v-64h75z" />
    <glyph glyph-name="thanthakhatlowrightthai" 
d="M-233 602q-48 0 -79 25.5t-31 70.5q0 29 12 48.5t32 35t45 28t51 26.5t50.5 31t42.5 42l73 -69q-12 -17 -27 -28t-32 -19t-34.5 -14t-33.5 -12v-2q15 -9 26 -26t11 -43q0 -21 -8.5 -38.5t-22.5 -29.5t-33.5 -19t-41.5 -7zM-235 662q17 0 27 9.5t10 24.5q0 16 -10 25.5
t-27 9.5t-26.5 -10t-9.5 -25t9.5 -24.5t26.5 -9.5z" />
    <glyph glyph-name="yoyingnobasethai" horiz-adv-x="912" 
d="M685 552h160v-386q0 -91 -54 -136.5t-169 -45.5q-116 0 -169.5 45.5t-53.5 136.5v174q0 49 -27.5 72t-72.5 23q-35 0 -61.5 -14t-42.5 -38v-3l104 -24v-71q-46 -7 -64 -24t-19 -53h1q45 0 76 -28.5t31 -77.5q0 -50 -33.5 -82t-88.5 -32q-27 0 -52 8.5t-43.5 25
t-29.5 41.5t-11 58v68q0 54 20 85.5t68 48.5v3l-116 27v78q48 65 117.5 101.5t154.5 36.5q50 0 94 -13.5t77 -40.5t52.5 -67.5t19.5 -94.5v-172q0 -64 67 -64q65 0 65 64v371zM242 102q0 17 -10.5 27.5t-27.5 10.5t-28 -10.5t-11 -27.5t11 -28t28 -11t27.5 11t10.5 28z" />
    <glyph glyph-name="maihanakatleftthai" 
d="M-192 819q-8 -51 -29.5 -90.5t-54 -66.5t-75.5 -40.5t-92 -13.5q-85 0 -134 37.5t-49 96.5q0 24 8.5 44t23.5 35t36 23.5t47 8.5q51 0 82 -30.5t31 -75.5q0 -32 -16 -53q36 8 61 48.5t28 97.5zM-512 704q17 0 27.5 11t10.5 28t-10.5 27.5t-27.5 10.5t-28 -10.5t-11 -27.5
t11 -28t28 -11z" />
    <glyph glyph-name="nikhahitleftthai" 
d="M-403 604q-56 0 -91 32.5t-35 84.5q0 51 35 83.5t91 32.5t91 -32.5t35 -83.5q0 -52 -35 -84.5t-91 -32.5zM-403 678q19 0 31 11.5t12 31.5t-12 31.5t-31 11.5t-31 -11.5t-12 -31.5t12 -31.5t31 -11.5z" />
    <glyph glyph-name="maitaikhuleftthai" 
d="M-364 783q38 0 65 -23t27 -64q0 -39 -26 -65t-75 -26q-38 0 -70 18t-52 48l-22 -61h-16q-28 0 -55 8.5t-48 26.5t-34 45t-13 63q0 32 11 58.5t31.5 45.5t50 30t66.5 11q39 0 77.5 -7t73.5 -7q21 0 44 4t44 14l19 -81q-30 -12 -60 -15t-47 -3q-38 0 -74 6t-68 6
q-35 0 -53.5 -18t-18.5 -46q0 -29 11.5 -43.5t25.5 -19.5l18 61h48q12 -35 32 -51q0 34 22.5 59.5t65.5 25.5zM-365 666q14 0 22 8t8 22t-8 22t-22 8t-22.5 -8t-8.5 -22t8.5 -22t22.5 -8z" />
    <glyph glyph-name="maiekupperleftthai" 
d="M-408 871v168h133v-168h-133z" />
    <glyph glyph-name="maithoupperleftthai" 
d="M-30 1052q-10 -48 -31 -82.5t-57.5 -57t-91.5 -33t-133 -10.5v57q23 1 41.5 7.5t29.5 16.5q-2 -1 -8 -1q-35 0 -58 20.5t-23 52.5q0 33 25 55.5t63 22.5t65 -22t27 -58q0 -39 -28 -69l3 -3q35 13 54 44.5t24 76.5zM-304 1021q0 -28 31 -28q14 0 22 7.5t8 21.5q0 13 -8 20
t-22 7q-31 0 -31 -28z" />
    <glyph glyph-name="maitriupperleftthai" 
d="M-56 1065q2 -76 -35.5 -126.5t-119.5 -70.5l-53 34q11 17 17.5 34t6.5 37t-9.5 34t-25.5 19l-28 -21h-13l-33 22q-23 -5 -31 -30q10 2 17 2q29 0 51 -16.5t22 -45.5q0 -28 -21.5 -46.5t-55.5 -18.5q-37 0 -63.5 23.5t-26.5 68.5q0 48 29 79t77 38l39 -26h3l37 26
q99 -13 99 -98q0 -22 -7 -39q23 22 30.5 55.5t5.5 71.5zM-339 936q0 11 -8 18t-20 7q-13 0 -20 -7.5t-7 -18.5t7 -18.5t20 -7.5q12 0 20 8t8 19z" />
    <glyph glyph-name="maichattawaupperleftthai" 
d="M-221 987v-64h-60v-52h-122v52h-60v64h60v52h122v-52h60z" />
    <glyph glyph-name="thanthakhatupperleftthai" 
d="M-85 1079q-6 -22 -20 -36t-37 -25q-10 -5 -17.5 -8t-12.5 -6q14 -10 23 -25t9 -35q0 -35 -26 -56t-64 -21t-64.5 22t-26.5 58q0 18 7 32.5t18 26.5t25 21.5t29 17.5q24 14 39 25t21 27zM-230 913q14 0 23 8.5t9 22.5q0 13 -9 21t-23 8t-23 -8t-9 -22t9 -22t23 -8z" />
    <glyph glyph-name="saraulowthai" 
d="M-182 -248q51 0 83 -29t32 -81v-167h-143v74q-39 7 -63.5 32.5t-24.5 66.5q0 22 8.5 41.5t24 33t37 21.5t46.5 8zM-222 -352q0 -16 10 -25.5t26 -9.5q15 0 25 9.5t10 25.5t-10 26t-25 10q-16 0 -26 -10t-10 -26z" />
    <glyph glyph-name="sarauulowthai" 
d="M-182 -261h113v-161q0 -63 -41.5 -89.5t-104.5 -26.5q-60 0 -99 22t-44 76h-4q-45 0 -74.5 25.5t-29.5 70.5q0 42 30 69.5t76 27.5q51 0 81 -27t30 -75v-65q0 -37 34 -37q33 0 33 37v153zM-363 -379q15 0 25 9.5t10 25.5q0 14 -10 23.5t-25 9.5t-24.5 -9.5t-9.5 -23.5
q0 -16 9.5 -25.5t24.5 -9.5z" />
    <glyph glyph-name="phinthulowthai" 
d="M-139 -439q-40 0 -66 26t-26 64q0 39 26 65t66 26q38 0 64.5 -26t26.5 -65q0 -38 -26.5 -64t-64.5 -26z" />
    <glyph glyph-name="saraamleft" horiz-adv-x="469" 
d="M-403 604q-56 0 -91 32.5t-35 84.5q0 51 35 83.5t91 32.5t91 -32.5t35 -83.5q0 -52 -35 -84.5t-91 -32.5zM-403 678q19 0 31 11.5t12 31.5t-12 31.5t-31 11.5t-31 -11.5t-12 -31.5t12 -31.5t31 -11.5zM242 0v355q0 40 -21.5 62t-59.5 22q-30 0 -56 -13.5t-46 -32.5
l-56 114q36 28 83.5 45t102.5 17q100 0 156.5 -50.5t56.5 -149.5v-369h-160z" />
    <glyph glyph-name="yamakkanleftthai" 
d="M-185 1088q11 0 20 -1t18 -3v-54q-10 2 -21 2t-22 -3.5t-11 -15.5q0 -9 8.5 -14.5t19.5 -6.5v-31q-34 1 -49.5 -6t-15.5 -18q0 -10 9.5 -14t23.5 -4q5 0 11 0.5t11 1.5l1 -46q-10 -4 -25.5 -6t-30.5 -2q-35 0 -59 16.5t-24 46.5q0 23 15.5 39t47.5 21q-22 14 -22 41
q0 15 8 26t21.5 18t30.5 10t35 3z" />
    <glyph glyph-name="thothannobasethai" horiz-adv-x="592" 
d="M556 561v-104h-88q27 -23 43 -63t16 -85q0 -40 -9.5 -81t-27 -81t-42.5 -77.5t-57 -69.5h-182l-33 157q-17 -5 -24 -5q-43 0 -71.5 30.5t-28.5 76.5q0 48 33.5 78.5t86.5 30.5q50 0 78 -28.5t39 -88.5l25 -131q57 80 57 178q0 66 -36.5 102.5t-102.5 36.5q-47 0 -88 -15
t-67 -42l-68 99q44 39 109.5 60.5t141.5 21.5h296zM167 219q16 0 26 10t10 26t-10 26.5t-26 10.5q-17 0 -27.5 -10t-10.5 -27q0 -16 10.5 -26t27.5 -10z" />
    <glyph glyph-name="maieklowrightthai" 
d="M-221 614v204h152v-204h-152z" />
    <glyph glyph-name="saraileftthai" 
d="M-702 614v16q2 41 18.5 74.5t44.5 57.5t65.5 37.5t81.5 13.5q46 0 83.5 -13.5t65.5 -37.5t44 -57.5t18 -74.5v-16h-421zM-408 679q-5 26 -28.5 40.5t-55.5 14.5q-27 0 -53 -14.5t-31 -40.5h168z" />
    <glyph glyph-name="saraiileftthai" 
d="M-397 832h111v-218h-421v16q2 41 17 74.5t40.5 57.5t60 37.5t73.5 13.5q32 0 63.5 -11t55.5 -31v61zM-411 679q-5 26 -30.5 40.5t-55.5 14.5q-27 0 -53 -14.5t-31 -40.5h170z" />
    <glyph glyph-name="saraueleftthai" 
d="M-361 827q41 0 68.5 -27.5t27.5 -78.5q0 -48 -26.5 -77.5t-71.5 -29.5h-344v16q1 40 13 73.5t32.5 58t49.5 38t65 13.5q33 0 59 -10.5t44 -29.5q11 26 32.5 40t50.5 14zM-360 683q14 0 22 10t8 27t-8 27t-22 10t-23 -10t-9 -27t9 -27t23 -10zM-524 734q-29 0 -47 -14.5
t-20 -40.5h140q-7 26 -26.5 40.5t-46.5 14.5z" />
    <glyph glyph-name="saraueeleftthai" 
d="M-374 832h88v-218h-421v16q2 41 17 74.5t40 57.5t58 37.5t70 13.5q20 0 43 -5v24h73v-58q9 -8 17 -15.5t15 -17.5v91zM-413 679q-5 26 -30 40.5t-54 14.5q-27 0 -53 -14.5t-31 -40.5h168z" />
    <glyph glyph-name="maieklowleftthai" 
d="M-451 614v192h153v-192h-153z" />
    </font>
</defs>
</svg>
